<svg width="514" height="319" viewBox="0 0 900 900" fill="none" xmlns="http://www.w3.org/2000/svg">
<style>
.moveme{
  animation: move 7s cubic-bezier(.36,.07,.19,.97) both infinite;
  transform: translate3d(0, 0, 0);
  backface-visibility: hidden;
  perspective: 1000px;

}
@keyframes move {
  0% {
    transform: translate3d(0px, 0, 0);
  }

  50% {
    transform: translate3d(250px, 0, 0);
  }

  100%{
      transform:translate3d(0px,0,0);
  }

}

</style>

<g id="Group 8" class="moveme">
<g id="Group">
<path id="Vector" d="M475.822 270.789C472.894 270.789 470.038 271.295 467.255 272.126C461.615 262.257 452.722 255.859 442.709 255.859C436.347 255.859 430.418 258.426 425.538 262.836C423.766 245.412 412.596 232 399.04 232C384.471 232 372.65 247.508 372.289 266.812C367.553 263.45 362.167 261.571 356.455 261.571C340.477 261.571 327.102 276.32 323.559 296.13C321.137 295.082 318.534 294.503 315.859 294.503C304.58 294.503 295.073 304.481 292 318.181H513.49C512.334 291.756 495.958 270.789 475.822 270.789Z" fill="#D3D2CD"/>
<path id="Vector_2" d="M399.04 232C384.471 232 372.65 247.508 372.289 266.812C367.553 263.45 362.167 261.571 356.455 261.571C340.477 261.571 327.102 276.32 323.559 296.13C321.137 295.082 318.534 294.503 315.859 294.503C304.58 294.503 295.073 304.481 292 318.181H336.79C342.321 311.674 346.044 303.721 347.201 295.009C356.347 300.07 367.119 302.998 378.687 302.998C409.198 302.998 434.322 282.646 437.973 256.365C433.455 257.305 429.225 259.582 425.574 262.836C423.766 245.448 412.596 232 399.04 232Z" fill="#ECEBE4"/>
</g>
<g id="Group_2">
<path id="Vector_3" d="M183.822 38.7888C180.894 38.7888 178.038 39.2949 175.255 40.1264C169.615 30.2574 160.723 23.8589 150.709 23.8589C144.347 23.8589 138.418 26.4256 133.538 30.8359C131.767 13.4116 120.596 0 107.04 0C92.4715 0 80.6505 15.5083 80.289 34.8123C75.5533 31.4504 70.167 29.5706 64.4553 29.5706C48.4771 29.5706 35.1016 44.3198 31.5589 64.1299C29.1368 63.0816 26.534 62.5032 23.8589 62.5032C12.5801 62.5032 3.07274 72.4806 0 86.1814H221.491C220.37 59.7558 203.958 38.7888 183.822 38.7888Z" fill="#D3D2CD"/>
<path id="Vector_4" d="M107.04 0C92.4715 0 80.6505 15.5083 80.289 34.8123C75.5533 31.4504 70.167 29.5706 64.4553 29.5706C48.4771 29.5706 35.1016 44.3198 31.5589 64.1299C29.1368 63.0816 26.534 62.5032 23.8589 62.5032C12.5801 62.5032 3.07274 72.4806 0 86.1814H44.7898C50.3207 79.6744 54.0442 71.7214 55.201 63.0093C64.3469 68.0703 75.1196 70.9984 86.6875 70.9984C117.198 70.9984 142.322 50.646 145.973 24.365C141.455 25.3049 137.225 27.5824 133.574 30.8359C131.767 13.4478 120.596 0 107.04 0Z" fill="#ECEBE4"/>
</g>
</g>
</svg>
