<svg width="550" height="481" viewBox="0 550 481 " fill="none" xmlns="http://www.w3.org/2000/svg">
<style>
.moveme{
  animation: move 7s cubic-bezier(.36,.07,.19,.97) both infinite;
  transform: translate3d(0, 0, 0);
  backface-visibility: hidden;
  perspective: 1000px;

}
@keyframes move {
  0% {
    transform: translate3d(0px, 0, 0);
  }

  25% {
    transform: translate3d(-55px, 0, 0);
  }
  75% {
    transform: translate3d(55px, 0, 0);
  }

  100%{
      transform:translate3d(0px,0,0);
  }

}


</style>

<g id="Faq23 5">
<g clip-path="url(#clip0)">
<path id="BackBlue" fill-rule="evenodd" clip-rule="evenodd" d="M502.97 334.875C492.004 334.923 481.501 339.342 473.747 347.169C465.993 354.995 461.615 365.597 461.568 376.666C461.51 396.893 453.524 416.275 439.354 430.577C425.184 444.88 405.983 452.941 385.944 453H99.3387C73.3161 452.924 48.38 442.459 29.9743 423.891C11.5686 405.322 1.18824 380.157 1.0995 353.89C1.1746 327.614 11.5489 302.436 29.9561 283.856C48.3632 265.276 73.3072 254.804 99.3387 254.728C104.563 254.711 109.568 252.608 113.262 248.88C116.957 245.151 119.039 240.098 119.056 234.825C119.039 229.552 116.957 224.499 113.262 220.771C109.568 217.042 104.563 214.939 99.3387 214.922H47.9226C35.2421 214.871 23.0956 209.763 14.1291 200.712C5.16256 191.662 0.102611 179.401 0.0515137 166.601C0.105991 153.803 5.16703 141.544 14.1328 132.494C23.0986 123.444 35.2432 118.336 47.9226 118.281H94.6939C105.661 118.236 116.166 113.819 123.921 105.991C131.675 98.1635 136.052 87.5598 136.096 76.4899C136.154 56.263 144.14 36.8812 158.31 22.5786C172.479 8.2759 191.681 0.214824 211.719 0.15625H451.592C477.625 0.232037 502.57 10.7033 520.98 29.283C539.389 47.8627 549.766 73.0409 549.844 99.3182C549.766 125.595 539.389 150.774 520.98 169.353C502.57 187.933 477.625 198.404 451.592 198.48C446.384 198.487 441.388 200.567 437.689 204.268C433.99 207.97 431.887 212.995 431.836 218.252C431.853 223.526 433.936 228.578 437.63 232.307C441.324 236.036 446.329 238.138 451.554 238.155H502.97C565.681 238.129 565.681 334.875 502.97 334.875Z" fill="#C6E3F1"/>
<g id="GirlandSurroundings" class="moveme">
<path id="Vector" fill-rule="evenodd" clip-rule="evenodd" d="M200.687 79.401C200.822 79.2801 200.933 79.1335 201.012 78.9696C201.09 78.8058 201.137 78.6278 201.148 78.4459C201.158 78.264 201.134 78.0817 201.075 77.9095C201.016 77.7372 200.924 77.5784 200.804 77.4421C200.684 77.3057 200.539 77.1945 200.376 77.1148C200.214 77.0351 200.038 76.9885 199.858 76.9776C199.677 76.9667 199.497 76.9917 199.326 77.0512C199.155 77.1108 198.998 77.2036 198.863 77.3245C198.164 77.9514 197.479 78.6305 196.806 79.2312C196.674 79.3564 196.568 79.5066 196.494 79.6731C196.42 79.8397 196.379 80.0193 196.374 80.2018C196.368 80.3843 196.398 80.5661 196.463 80.7368C196.527 80.9075 196.624 81.0638 196.748 81.1967C196.872 81.3296 197.02 81.4366 197.185 81.5115C197.35 81.5864 197.528 81.6277 197.709 81.6332C197.89 81.6386 198.07 81.6081 198.239 81.5433C198.408 81.4785 198.563 81.3807 198.695 81.2555C199.355 80.6286 199.989 79.9495 200.687 79.401ZM325.346 397.639C325.06 397.647 324.783 397.744 324.554 397.917C324.325 398.09 324.155 398.331 324.067 398.606C323.979 398.881 323.978 399.177 324.063 399.453C324.148 399.728 324.317 399.971 324.544 400.146C324.793 400.325 325.092 400.421 325.398 400.42H326.537H327.986H328.18C328.483 400.415 328.776 400.309 329.014 400.119C329.252 399.929 329.422 399.665 329.497 399.368C329.572 399.072 329.548 398.758 329.429 398.476C329.311 398.194 329.103 397.96 328.84 397.808C328.606 397.666 328.336 397.598 328.063 397.613H326.485H325.346V397.639ZM336.214 397.038C335.874 397.105 335.57 397.298 335.364 397.58C335.158 397.862 335.065 398.212 335.102 398.56C335.14 398.909 335.305 399.23 335.566 399.461C335.828 399.691 336.165 399.815 336.512 399.807L337.806 399.663L339.332 399.493C339.607 399.457 339.864 399.338 340.07 399.152C340.276 398.966 340.421 398.721 340.487 398.45C340.553 398.178 340.536 397.893 340.438 397.632C340.341 397.371 340.167 397.146 339.94 396.986C339.803 396.881 339.647 396.806 339.48 396.763C339.313 396.72 339.14 396.712 338.97 396.737L337.508 396.907L336.214 397.038ZM346.992 395.445C346.66 395.543 346.376 395.764 346.197 396.063C346.018 396.362 345.957 396.718 346.025 397.061C346.093 397.403 346.286 397.707 346.566 397.914C346.845 398.12 347.191 398.213 347.535 398.174L348.363 398.017L349.657 397.743L350.291 397.599C350.563 397.522 350.805 397.362 350.984 397.142C351.164 396.921 351.272 396.651 351.294 396.366C351.317 396.082 351.253 395.797 351.11 395.551C350.968 395.304 350.754 395.108 350.498 394.988C350.233 394.903 349.948 394.903 349.683 394.988L349.075 395.131L347.781 395.392L346.966 395.549L346.992 395.445ZM357.536 392.833C357.243 392.932 356.992 393.128 356.822 393.389C356.652 393.65 356.574 393.96 356.599 394.271C356.624 394.582 356.752 394.876 356.962 395.105C357.171 395.334 357.451 395.486 357.756 395.536C357.961 395.581 358.173 395.581 358.377 395.536L359.49 395.196L360.667 394.805L361.03 394.687C361.24 394.609 361.43 394.483 361.583 394.317C361.736 394.151 361.848 393.951 361.909 393.734C361.975 393.489 361.973 393.231 361.904 392.987C361.835 392.744 361.701 392.523 361.518 392.35C361.334 392.177 361.108 392.058 360.862 392.005C360.617 391.952 360.362 391.967 360.124 392.049L359.8 392.167L358.649 392.545L357.536 392.885V392.833ZM367.732 389.071C367.567 389.146 367.418 389.253 367.294 389.385C367.17 389.518 367.073 389.674 367.009 389.844C366.945 390.015 366.914 390.196 366.92 390.378C366.925 390.561 366.965 390.74 367.039 390.906C367.113 391.073 367.219 391.223 367.35 391.348C367.482 391.473 367.636 391.571 367.805 391.636C367.974 391.701 368.154 391.731 368.334 391.726C368.515 391.721 368.692 391.68 368.857 391.605L369.789 391.2L370.876 390.704L371.393 390.456C371.649 390.317 371.855 390.102 371.982 389.839C372.11 389.576 372.152 389.279 372.103 388.99C372.055 388.702 371.918 388.436 371.711 388.23C371.505 388.024 371.24 387.889 370.953 387.844C370.701 387.818 370.447 387.858 370.216 387.961L369.724 388.196L368.663 388.68L367.732 389.098V389.071ZM377.435 384.148C377.156 384.304 376.939 384.553 376.821 384.852C376.702 385.151 376.69 385.483 376.786 385.79C376.882 386.097 377.08 386.362 377.347 386.538C377.614 386.715 377.933 386.793 378.25 386.76C378.455 386.732 378.652 386.666 378.832 386.564L379.234 386.329L380.243 385.728L381.226 385.114C381.528 384.971 381.767 384.721 381.9 384.412C382.032 384.102 382.048 383.755 381.945 383.435C381.842 383.114 381.626 382.843 381.339 382.671C381.052 382.5 380.713 382.44 380.385 382.502C380.164 382.517 379.95 382.589 379.764 382.711L378.82 383.299L377.849 383.874L377.435 384.122V384.148ZM386.492 378.088C386.245 378.288 386.073 378.568 386.005 378.881C385.938 379.194 385.979 379.52 386.121 379.806C386.263 380.092 386.499 380.32 386.788 380.452C387.076 380.584 387.401 380.611 387.708 380.53C387.878 380.487 388.037 380.407 388.174 380.295L388.769 379.838L389.662 379.133L390.412 378.585C390.57 378.476 390.703 378.335 390.804 378.172C390.906 378.008 390.972 377.825 391 377.634C391.028 377.444 391.016 377.249 390.966 377.063C390.915 376.877 390.827 376.704 390.707 376.554C390.587 376.404 390.438 376.28 390.268 376.192C390.099 376.103 389.913 376.05 389.723 376.037C389.532 376.024 389.341 376.051 389.161 376.117C388.981 376.182 388.817 376.284 388.678 376.417L387.993 376.965L387.139 377.644L386.531 378.101L386.492 378.088ZM394.733 370.971C394.473 371.229 394.324 371.581 394.32 371.949C394.317 372.318 394.458 372.673 394.714 372.936C394.97 373.199 395.318 373.349 395.684 373.353C396.049 373.357 396.4 373.214 396.661 372.956L397.218 372.407L398.007 371.611L398.628 370.958C398.775 370.809 398.886 370.628 398.953 370.428C399.021 370.229 399.042 370.017 399.016 369.809C398.979 369.549 398.871 369.306 398.704 369.106C398.537 368.906 398.317 368.757 398.07 368.677C397.824 368.597 397.56 368.588 397.308 368.652C397.057 368.716 396.828 368.849 396.648 369.038L396.04 369.652L395.29 370.422L394.733 370.971ZM402.056 362.913C401.898 363.099 401.794 363.326 401.758 363.569C401.721 363.811 401.753 364.059 401.849 364.284C401.937 364.511 402.083 364.711 402.272 364.863C402.461 365.015 402.687 365.114 402.926 365.15C403.165 365.185 403.409 365.157 403.633 365.067C403.858 364.977 404.055 364.828 404.204 364.637L404.605 364.141L405.291 363.266L405.925 362.43C406.079 362.222 406.172 361.975 406.195 361.716C406.217 361.458 406.168 361.198 406.052 360.966C405.937 360.734 405.76 360.539 405.541 360.404C405.322 360.268 405.069 360.196 404.812 360.197C404.602 360.201 404.396 360.253 404.208 360.348C404.02 360.443 403.855 360.578 403.725 360.745L403.104 361.568L402.458 362.404L402.056 362.913ZM408.344 353.993C408.152 354.307 408.091 354.684 408.175 355.043C408.259 355.402 408.48 355.713 408.791 355.907C409.101 356.1 409.475 356.162 409.831 356.077C410.186 355.993 410.494 355.769 410.686 355.456L410.906 355.09L411.475 354.15L412.135 353.027C412.224 352.868 412.282 352.693 412.304 352.512C412.326 352.331 412.313 352.148 412.265 351.972C412.217 351.796 412.135 351.631 412.024 351.488C411.913 351.344 411.775 351.223 411.618 351.133C411.461 351.043 411.287 350.985 411.108 350.963C410.929 350.94 410.747 350.954 410.573 351.002C410.398 351.051 410.235 351.133 410.093 351.245C409.95 351.358 409.831 351.497 409.742 351.656L409.121 352.713L408.564 353.628L408.344 353.993ZM413.52 344.368C413.4 344.616 413.357 344.894 413.396 345.167C413.436 345.439 413.555 345.693 413.74 345.896C413.891 346.067 414.082 346.197 414.295 346.274C414.509 346.352 414.738 346.375 414.962 346.341C415.187 346.308 415.399 346.218 415.581 346.081C415.763 345.945 415.908 345.764 416.004 345.557L416.534 344.407L416.987 343.402L417.168 342.997C417.285 342.712 417.305 342.395 417.225 342.097C417.144 341.799 416.969 341.536 416.725 341.349C416.481 341.163 416.183 341.063 415.876 341.066C415.57 341.069 415.274 341.174 415.033 341.365C414.862 341.503 414.729 341.682 414.645 341.887L414.477 342.279L414.037 343.245L413.52 344.368ZM417.582 334.182C417.492 334.469 417.496 334.778 417.594 335.063C417.692 335.348 417.878 335.593 418.126 335.762C418.373 335.931 418.668 336.015 418.967 336.001C419.265 335.987 419.551 335.875 419.782 335.684C419.978 335.52 420.122 335.302 420.196 335.057L420.519 334.09L420.868 333.046L421.063 332.393C421.114 332.065 421.047 331.729 420.874 331.447C420.701 331.165 420.434 330.955 420.12 330.855C419.807 330.756 419.468 330.773 419.166 330.904C418.864 331.035 418.619 331.271 418.475 331.57L418.281 332.197L417.944 333.215L417.582 334.182ZM420.558 323.63C420.489 323.929 420.52 324.242 420.647 324.521C420.774 324.8 420.989 325.029 421.259 325.171C421.529 325.313 421.837 325.361 422.137 325.306C422.436 325.252 422.709 325.098 422.913 324.87C423.086 324.696 423.203 324.473 423.249 324.23L423.43 323.421L423.663 322.337L423.831 321.475C423.884 321.174 423.838 320.864 423.7 320.592C423.561 320.321 423.339 320.102 423.066 319.97C422.793 319.839 422.485 319.801 422.188 319.862C421.892 319.924 421.624 320.082 421.425 320.312C421.278 320.494 421.176 320.709 421.127 320.939L420.972 321.762L420.739 322.82L420.558 323.63ZM422.421 312.816C422.39 313.077 422.438 313.341 422.558 313.574C422.678 313.807 422.865 313.998 423.094 314.122C423.291 314.239 423.515 314.304 423.744 314.312C423.972 314.319 424.199 314.268 424.404 314.165C424.609 314.061 424.784 313.907 424.915 313.717C425.045 313.527 425.126 313.307 425.151 313.077L425.242 312.385L425.358 311.275L425.449 310.283C425.481 309.915 425.368 309.55 425.134 309.267C424.9 308.985 424.564 308.807 424.2 308.774C423.836 308.741 423.475 308.856 423.194 309.092C422.914 309.328 422.738 309.667 422.706 310.034L422.615 310.988L422.499 312.072L422.421 312.764V312.816ZM423.171 301.872C423.162 302.199 423.267 302.519 423.468 302.776C423.67 303.032 423.955 303.208 424.273 303.272C424.591 303.336 424.922 303.285 425.205 303.126C425.489 302.968 425.708 302.714 425.824 302.408C425.884 302.244 425.919 302.072 425.927 301.898V299.09C425.894 298.745 425.735 298.424 425.48 298.191C425.225 297.957 424.893 297.828 424.549 297.828C424.205 297.828 423.874 297.957 423.619 298.191C423.364 298.424 423.205 298.745 423.171 299.09V301.846V301.872ZM422.822 290.889C422.849 291.169 422.959 291.435 423.138 291.651C423.317 291.867 423.557 292.023 423.825 292.099C424.094 292.175 424.379 292.168 424.643 292.078C424.907 291.988 425.139 291.819 425.306 291.594C425.499 291.321 425.59 290.988 425.565 290.654V289.975L425.462 288.852L425.358 287.859C425.332 287.566 425.209 287.29 425.009 287.076C424.812 286.861 424.553 286.714 424.269 286.656C423.986 286.598 423.691 286.631 423.426 286.75C423.162 286.87 422.942 287.07 422.796 287.323C422.651 287.576 422.587 287.869 422.615 288.16L422.719 289.126L422.822 290.223V290.889ZM421.399 280.01C421.442 280.227 421.535 280.431 421.669 280.606C421.804 280.78 421.977 280.921 422.175 281.016C422.406 281.12 422.66 281.159 422.91 281.128C423.161 281.097 423.398 280.997 423.596 280.84C423.795 280.682 423.947 280.473 424.036 280.235C424.126 279.997 424.149 279.738 424.103 279.488L423.961 278.717L423.754 277.594L423.573 276.732C423.535 276.554 423.463 276.385 423.361 276.234C423.259 276.084 423.129 275.956 422.977 275.856C422.826 275.757 422.656 275.688 422.479 275.655C422.301 275.621 422.119 275.624 421.942 275.661C421.766 275.699 421.598 275.772 421.449 275.875C421.3 275.978 421.173 276.11 421.074 276.262C420.976 276.415 420.908 276.586 420.875 276.765C420.842 276.945 420.844 277.129 420.881 277.307L421.05 278.143L421.257 279.24L421.399 280.01ZM418.915 269.328C418.941 269.527 419.009 269.718 419.116 269.888C419.223 270.058 419.365 270.203 419.532 270.311C419.7 270.42 419.889 270.491 420.086 270.519C420.283 270.546 420.484 270.53 420.675 270.472C420.865 270.413 421.041 270.313 421.189 270.179C421.338 270.045 421.456 269.88 421.534 269.695C421.613 269.51 421.651 269.31 421.646 269.109C421.64 268.908 421.591 268.711 421.502 268.531L421.231 267.578L420.907 266.481L420.713 265.841C420.617 265.545 420.425 265.29 420.169 265.117C419.912 264.944 419.606 264.862 419.298 264.885C418.991 264.907 418.699 265.033 418.471 265.241C418.242 265.45 418.088 265.73 418.035 266.037C417.98 266.251 417.98 266.475 418.035 266.689L418.216 267.29L418.54 268.374L418.811 269.328H418.915ZM415.396 258.88C415.472 259.092 415.602 259.28 415.772 259.427C415.942 259.573 416.147 259.673 416.366 259.716C416.611 259.775 416.868 259.765 417.108 259.687C417.348 259.609 417.562 259.466 417.727 259.273C417.891 259.079 418 258.844 418.041 258.593C418.081 258.342 418.052 258.084 417.957 257.848L417.466 256.634L417.026 255.563L416.896 255.236C416.792 254.997 416.624 254.792 416.41 254.644C416.196 254.497 415.945 254.413 415.687 254.402C415.428 254.391 415.171 254.454 414.946 254.583C414.721 254.712 414.536 254.902 414.412 255.132C414.323 255.321 414.276 255.529 414.276 255.739C414.276 255.949 414.323 256.157 414.412 256.346L414.542 256.647L414.969 257.691L415.447 258.88H415.396ZM410.88 248.902C411.03 249.169 411.263 249.378 411.542 249.498C411.821 249.617 412.132 249.641 412.426 249.566C412.72 249.49 412.981 249.319 413.169 249.079C413.358 248.838 413.463 248.542 413.468 248.236C413.461 248.018 413.408 247.805 413.313 247.609L413.041 247.1L412.498 246.055L411.993 245.128C411.918 244.951 411.807 244.793 411.668 244.662C411.529 244.531 411.365 244.43 411.185 244.367C411.005 244.303 410.815 244.279 410.625 244.294C410.435 244.309 410.251 244.363 410.083 244.454C409.916 244.545 409.769 244.671 409.651 244.822C409.534 244.973 409.45 245.148 409.403 245.334C409.356 245.52 409.349 245.714 409.38 245.903C409.412 246.093 409.482 246.273 409.586 246.434L410.078 247.335L410.609 248.354L410.867 248.863L410.88 248.902ZM405.394 239.421C405.495 239.573 405.624 239.703 405.774 239.805C405.924 239.906 406.092 239.977 406.27 240.013C406.447 240.048 406.629 240.048 406.807 240.013C406.984 239.978 407.152 239.907 407.303 239.806C407.453 239.705 407.582 239.575 407.683 239.423C407.783 239.272 407.854 239.102 407.889 238.923C407.924 238.744 407.925 238.56 407.889 238.381C407.854 238.202 407.785 238.032 407.685 237.88L407.063 236.913L406.391 235.921L406.132 235.555C405.978 235.328 405.76 235.154 405.506 235.053C405.252 234.953 404.974 234.932 404.709 234.994C404.487 235.042 404.281 235.145 404.108 235.294C403.935 235.443 403.802 235.633 403.72 235.846C403.638 236.06 403.61 236.29 403.638 236.518C403.666 236.745 403.749 236.962 403.881 237.149L404.127 237.501L404.773 238.468L405.394 239.421ZM398.925 230.553C399.12 230.791 399.386 230.957 399.683 231.026C399.98 231.094 400.291 231.062 400.569 230.934C400.846 230.806 401.074 230.59 401.216 230.318C401.359 230.046 401.409 229.734 401.358 229.43C401.312 229.195 401.21 228.976 401.06 228.79L400.607 228.216L399.831 227.275L399.288 226.622C399.11 226.417 398.876 226.269 398.616 226.196C398.356 226.123 398.08 226.129 397.823 226.212C397.566 226.296 397.338 226.453 397.169 226.665C396.999 226.877 396.895 227.135 396.868 227.406C396.848 227.589 396.866 227.775 396.922 227.95C396.978 228.126 397.07 228.288 397.192 228.425L397.722 229.065L398.473 229.979L398.925 230.553ZM391.68 222.365C391.894 222.575 392.169 222.709 392.464 222.748C392.76 222.787 393.06 222.729 393.32 222.583C393.58 222.436 393.786 222.208 393.908 221.934C394.03 221.659 394.061 221.353 393.996 221.059C393.936 220.812 393.811 220.587 393.634 220.406L393.271 220.04L392.392 219.165L391.654 218.434C391.439 218.23 391.166 218.101 390.873 218.065C390.581 218.029 390.285 218.088 390.028 218.234C389.771 218.38 389.567 218.604 389.445 218.875C389.323 219.146 389.29 219.449 389.351 219.74C389.412 220.004 389.547 220.244 389.739 220.432L390.464 221.137L391.318 221.986L391.68 222.365ZM383.658 214.947C383.869 215.12 384.126 215.226 384.396 215.252C384.666 215.279 384.937 215.225 385.177 215.097C385.417 214.969 385.614 214.773 385.744 214.532C385.875 214.292 385.932 214.019 385.91 213.746C385.892 213.561 385.838 213.382 385.751 213.218C385.665 213.055 385.547 212.91 385.405 212.792L384.991 212.44L384.008 211.643L383.244 211.029C383.056 210.866 382.826 210.761 382.581 210.726C382.335 210.692 382.085 210.729 381.86 210.833C381.638 210.926 381.443 211.077 381.297 211.269C381.15 211.462 381.057 211.69 381.025 211.931C380.994 212.172 381.026 212.417 381.118 212.642C381.21 212.866 381.359 213.062 381.549 213.21L382.287 213.798L383.244 214.595L383.658 214.947ZM374.964 208.339C375.197 208.511 375.478 208.604 375.766 208.604C376.055 208.604 376.336 208.511 376.568 208.339C376.743 208.205 376.883 208.031 376.977 207.83C377.071 207.63 377.116 207.41 377.109 207.189C377.101 206.968 377.041 206.751 376.934 206.558C376.826 206.365 376.674 206.201 376.491 206.08L375.753 205.583L374.666 204.852L374.175 204.539C373.924 204.375 373.626 204.299 373.328 204.321C373.03 204.344 372.748 204.464 372.524 204.664C372.3 204.863 372.146 205.131 372.087 205.427C372.028 205.723 372.066 206.03 372.195 206.302C372.309 206.536 372.483 206.735 372.7 206.876L373.166 207.19L374.227 207.895L374.964 208.391V208.339ZM365.674 202.593C365.971 202.758 366.317 202.806 366.646 202.729C366.976 202.652 367.266 202.454 367.46 202.175C367.572 202.015 367.649 201.833 367.687 201.641C367.725 201.45 367.722 201.252 367.679 201.061C367.637 200.87 367.555 200.691 367.439 200.534C367.323 200.377 367.176 200.246 367.007 200.151L366.748 200.02L365.571 199.367L364.549 198.832C364.293 198.695 364.001 198.643 363.715 198.684C363.428 198.724 363.162 198.856 362.953 199.059C362.745 199.261 362.606 199.526 362.556 199.813C362.505 200.101 362.546 200.397 362.673 200.66C362.798 200.933 363.013 201.155 363.281 201.287L364.277 201.822L365.429 202.449L365.674 202.593ZM355.919 197.708C356.085 197.791 356.266 197.838 356.451 197.848C356.636 197.858 356.821 197.83 356.994 197.765C357.168 197.701 357.327 197.602 357.462 197.474C357.597 197.346 357.705 197.192 357.779 197.021C357.853 196.85 357.893 196.665 357.894 196.479C357.896 196.292 357.86 196.107 357.789 195.934C357.718 195.762 357.613 195.605 357.481 195.475C357.349 195.344 357.191 195.242 357.019 195.175L355.725 194.587L354.431 194.065C354.165 193.957 353.872 193.935 353.593 194.002C353.314 194.07 353.062 194.223 352.873 194.441C352.684 194.659 352.567 194.931 352.538 195.219C352.509 195.508 352.569 195.798 352.71 196.05C352.858 196.313 353.091 196.516 353.37 196.624L354.586 197.147L355.88 197.708H355.919ZM345.763 193.699C346.03 193.789 346.319 193.795 346.59 193.715C346.861 193.635 347.101 193.474 347.279 193.252C347.456 193.03 347.562 192.759 347.582 192.475C347.603 192.191 347.537 191.907 347.393 191.662C347.225 191.385 346.97 191.173 346.668 191.061L346.461 190.996L344.029 190.173C343.771 190.092 343.495 190.089 343.235 190.164C342.976 190.239 342.744 190.39 342.567 190.597C342.391 190.804 342.279 191.058 342.245 191.328C342.21 191.599 342.255 191.874 342.373 192.119C342.451 192.285 342.563 192.432 342.701 192.551C342.839 192.671 343.001 192.759 343.175 192.811L345.569 193.621L345.763 193.699ZM335.322 190.395C335.634 190.414 335.944 190.325 336.2 190.144C336.456 189.962 336.644 189.699 336.732 189.396C336.821 189.092 336.805 188.768 336.688 188.475C336.57 188.182 336.358 187.938 336.085 187.783L333.484 186.999C333.303 186.906 333.104 186.853 332.901 186.847C332.697 186.84 332.495 186.88 332.309 186.962C332.122 187.044 331.956 187.167 331.823 187.322C331.689 187.477 331.591 187.66 331.537 187.857C331.482 188.055 331.471 188.263 331.506 188.465C331.54 188.667 331.619 188.86 331.736 189.027C331.853 189.195 332.005 189.335 332.183 189.436C332.36 189.537 332.557 189.597 332.76 189.611L335.347 190.356L335.322 190.395ZM324.725 187.6C325.024 187.675 325.34 187.647 325.621 187.519C325.902 187.391 326.132 187.171 326.274 186.895C326.416 186.619 326.462 186.302 326.404 185.997C326.346 185.691 326.187 185.414 325.954 185.21C325.787 185.055 325.581 184.947 325.359 184.897C324.505 184.74 323.535 184.453 322.668 184.257C322.395 184.191 322.108 184.211 321.846 184.315C321.584 184.419 321.361 184.602 321.205 184.839C321.05 185.075 320.971 185.354 320.978 185.638C320.985 185.922 321.078 186.196 321.245 186.425C321.434 186.701 321.721 186.893 322.047 186.96C322.914 187.169 323.871 187.444 324.725 187.6ZM314.077 185.302C314.358 185.352 314.648 185.314 314.907 185.192C315.166 185.07 315.38 184.87 315.522 184.619C315.664 184.369 315.725 184.081 315.698 183.794C315.671 183.507 315.557 183.235 315.371 183.016C315.176 182.783 314.906 182.626 314.608 182.572L311.891 182.037C311.593 181.984 311.286 182.03 311.016 182.17C310.747 182.309 310.531 182.534 310.4 182.81C310.27 183.085 310.232 183.396 310.293 183.695C310.354 183.995 310.511 184.265 310.739 184.466C310.923 184.625 311.147 184.729 311.386 184.766L314.077 185.302ZM303.274 183.317C303.563 183.36 303.858 183.311 304.117 183.175C304.377 183.039 304.587 182.823 304.717 182.56C304.848 182.296 304.893 181.997 304.845 181.706C304.797 181.415 304.659 181.147 304.451 180.94C304.25 180.75 303.998 180.623 303.727 180.574L300.997 180.13C300.664 180.045 300.312 180.087 300.009 180.249C299.706 180.411 299.473 180.68 299.355 181.005C299.238 181.331 299.244 181.688 299.373 182.009C299.501 182.33 299.744 182.591 300.052 182.742C300.211 182.84 300.387 182.906 300.57 182.938L303.274 183.369V183.317ZM292.419 181.684C292.598 181.708 292.78 181.696 292.955 181.649C293.13 181.602 293.293 181.521 293.437 181.41C293.58 181.299 293.701 181.161 293.792 181.003C293.882 180.845 293.941 180.67 293.965 180.489C293.989 180.308 293.977 180.124 293.93 179.948C293.884 179.772 293.803 179.606 293.693 179.461C293.583 179.317 293.446 179.195 293.29 179.103C293.133 179.012 292.96 178.953 292.781 178.929L290.051 178.563C289.749 178.52 289.442 178.58 289.178 178.733C288.914 178.886 288.708 179.124 288.592 179.408C288.476 179.693 288.458 180.008 288.539 180.304C288.621 180.6 288.798 180.861 289.042 181.044C289.232 181.196 289.461 181.291 289.702 181.319L292.419 181.684ZM281.512 180.378C281.7 180.415 281.894 180.412 282.08 180.37C282.267 180.327 282.444 180.246 282.598 180.131C282.752 180.017 282.881 179.871 282.976 179.703C283.072 179.535 283.132 179.35 283.153 179.157C283.173 178.965 283.154 178.771 283.096 178.586C283.039 178.402 282.944 178.231 282.818 178.086C282.691 177.94 282.537 177.823 282.363 177.741C282.189 177.659 282.001 177.614 281.809 177.61L279.067 177.309C278.774 177.283 278.481 177.351 278.229 177.504C277.977 177.656 277.78 177.886 277.666 178.16C277.552 178.433 277.528 178.736 277.596 179.024C277.664 179.313 277.821 179.572 278.044 179.764C278.251 179.945 278.509 180.055 278.782 180.078L281.512 180.378ZM270.579 179.294C270.873 179.318 271.166 179.247 271.417 179.092C271.667 178.936 271.862 178.704 271.974 178.429C272.085 178.154 272.106 177.85 272.034 177.562C271.963 177.273 271.802 177.016 271.575 176.826C271.36 176.651 271.1 176.542 270.825 176.513L268.069 176.278C267.78 176.258 267.492 176.329 267.244 176.481C266.996 176.633 266.801 176.858 266.685 177.126C266.6 177.33 266.565 177.551 266.581 177.771C266.597 177.991 266.665 178.204 266.779 178.393C266.892 178.581 267.049 178.74 267.235 178.856C267.421 178.972 267.631 179.041 267.849 179.059C268.755 179.125 269.673 179.203 270.579 179.294ZM259.582 178.302C259.909 178.367 260.249 178.312 260.538 178.145C260.828 177.978 261.048 177.711 261.158 177.393C261.269 177.075 261.261 176.728 261.138 176.415C261.015 176.102 260.784 175.844 260.487 175.69C260.303 175.572 260.096 175.496 259.879 175.468C258.974 175.376 258.055 175.272 257.149 175.154C256.901 175.128 256.651 175.169 256.424 175.272C256.197 175.375 256.001 175.537 255.856 175.742C255.72 175.94 255.638 176.17 255.616 176.409C255.594 176.648 255.634 176.889 255.732 177.109C255.829 177.328 255.981 177.518 256.173 177.661C256.365 177.803 256.59 177.894 256.826 177.923L259.582 178.236V178.302ZM248.584 176.852C248.842 176.892 249.105 176.858 249.344 176.753C249.583 176.648 249.788 176.478 249.935 176.261C250.083 176.044 250.166 175.79 250.177 175.527C250.187 175.264 250.124 175.004 249.995 174.776C249.891 174.598 249.751 174.446 249.583 174.329C249.416 174.211 249.225 174.132 249.024 174.097C248.119 173.953 247.213 173.822 246.32 173.653C245.975 173.621 245.63 173.722 245.355 173.935C245.079 174.147 244.893 174.457 244.833 174.802C244.772 175.147 244.843 175.502 245.03 175.797C245.216 176.092 245.506 176.305 245.841 176.395C246.747 176.565 247.679 176.708 248.584 176.852ZM237.742 174.71C238.019 174.759 238.303 174.722 238.558 174.602C238.812 174.483 239.024 174.288 239.165 174.043C239.306 173.798 239.37 173.515 239.346 173.233C239.323 172.951 239.215 172.682 239.036 172.464C238.848 172.223 238.583 172.057 238.286 171.994C237.393 171.798 236.5 171.602 235.62 171.38C235.272 171.317 234.912 171.391 234.616 171.587C234.32 171.783 234.109 172.087 234.028 172.435C233.947 172.783 234.001 173.15 234.179 173.459C234.357 173.768 234.646 173.996 234.986 174.097L237.69 174.71H237.742ZM226.965 171.929C227.246 172.018 227.548 172.013 227.827 171.915C228.105 171.817 228.345 171.631 228.51 171.385C228.676 171.139 228.758 170.845 228.746 170.548C228.733 170.251 228.626 169.966 228.44 169.735C228.268 169.506 228.027 169.341 227.754 169.264C226.887 169.003 226.02 168.742 225.166 168.455C224.887 168.366 224.587 168.368 224.309 168.462C224.032 168.556 223.791 168.737 223.621 168.978C223.451 169.219 223.362 169.508 223.365 169.803C223.368 170.099 223.465 170.386 223.64 170.623C223.818 170.846 224.056 171.014 224.325 171.106C225.205 171.393 226.098 171.667 226.913 171.929H226.965ZM216.394 168.324C216.564 168.393 216.746 168.427 216.929 168.425C217.112 168.422 217.292 168.384 217.461 168.311C217.629 168.238 217.781 168.133 217.909 168.001C218.037 167.868 218.138 167.712 218.206 167.541C218.274 167.369 218.307 167.186 218.305 167.001C218.303 166.816 218.265 166.634 218.193 166.464C218.12 166.294 218.016 166.141 217.885 166.012C217.754 165.883 217.599 165.781 217.429 165.712C216.567 165.373 215.704 165.02 214.842 164.654C214.551 164.523 214.225 164.497 213.918 164.582C213.611 164.667 213.343 164.856 213.159 165.119C212.976 165.381 212.888 165.7 212.912 166.02C212.936 166.341 213.069 166.643 213.289 166.875C213.417 167.022 213.576 167.138 213.755 167.214C214.609 167.58 215.476 167.945 216.342 168.285L216.394 168.324ZM206.264 163.584C206.463 163.689 206.685 163.744 206.911 163.744C207.136 163.744 207.358 163.689 207.557 163.584C207.787 163.473 207.981 163.301 208.12 163.087C208.259 162.872 208.336 162.623 208.344 162.367C208.353 162.111 208.291 161.857 208.165 161.634C208.04 161.411 207.857 161.227 207.635 161.102C206.833 160.671 206.044 160.214 205.267 159.796C205.111 159.686 204.933 159.61 204.746 159.572C204.559 159.535 204.366 159.537 204.18 159.578C203.993 159.619 203.817 159.699 203.663 159.812C203.508 159.925 203.379 160.069 203.282 160.235C203.186 160.402 203.124 160.586 203.101 160.777C203.079 160.969 203.096 161.163 203.151 161.347C203.206 161.531 203.299 161.702 203.422 161.849C203.546 161.996 203.699 162.115 203.87 162.199C204.672 162.669 205.5 163.126 206.315 163.584H206.264ZM196.806 157.511C197.042 157.685 197.326 157.779 197.618 157.779C197.91 157.78 198.195 157.688 198.432 157.515C198.669 157.343 198.845 157.099 198.937 156.819C199.028 156.539 199.03 156.237 198.941 155.957C198.847 155.693 198.681 155.462 198.462 155.291C197.737 154.742 197.039 154.181 196.34 153.606C196.129 153.432 195.871 153.326 195.6 153.3C195.328 153.273 195.055 153.328 194.815 153.458C194.574 153.588 194.377 153.786 194.248 154.029C194.119 154.271 194.064 154.547 194.089 154.821C194.102 155.004 194.154 155.183 194.241 155.345C194.328 155.507 194.448 155.649 194.593 155.761C195.318 156.362 196.055 156.936 196.806 157.511ZM188.435 149.897C188.641 150.118 188.912 150.266 189.208 150.318C189.505 150.37 189.81 150.323 190.077 150.184C190.345 150.045 190.56 149.823 190.691 149.549C190.822 149.276 190.861 148.967 190.803 148.669C190.756 148.43 190.644 148.208 190.479 148.03C189.884 147.363 189.302 146.724 188.732 145.979C188.503 145.693 188.17 145.512 187.807 145.474C187.444 145.436 187.081 145.545 186.798 145.777C186.515 146.009 186.335 146.345 186.297 146.711C186.26 147.077 186.368 147.443 186.598 147.729C187.193 148.474 187.801 149.192 188.435 149.897ZM181.811 140.638C182.007 140.912 182.295 141.105 182.621 141.181C182.947 141.257 183.29 141.211 183.585 141.051C183.881 140.892 184.109 140.63 184.227 140.314C184.346 139.997 184.347 139.649 184.23 139.332C183.803 138.548 183.389 137.752 183.014 136.942C182.841 136.636 182.561 136.407 182.228 136.3C181.896 136.194 181.535 136.218 181.22 136.368C180.904 136.519 180.657 136.784 180.526 137.11C180.396 137.437 180.392 137.801 180.517 138.13C180.918 138.992 181.358 139.841 181.811 140.677V140.638ZM177.632 129.994C177.688 130.212 177.795 130.413 177.943 130.581C178.092 130.749 178.278 130.879 178.485 130.961C178.72 131.047 178.974 131.069 179.219 131.022C179.465 130.975 179.694 130.862 179.881 130.694C180.068 130.527 180.206 130.311 180.282 130.071C180.358 129.83 180.367 129.574 180.31 129.328C180.09 128.453 179.909 127.578 179.74 126.716C179.691 126.403 179.537 126.117 179.304 125.905C179.07 125.693 178.772 125.568 178.459 125.552C178.146 125.535 177.836 125.627 177.582 125.813C177.328 125.999 177.144 126.267 177.062 126.572C177.017 126.779 177.017 126.993 177.062 127.199C177.231 128.14 177.425 129.067 177.657 130.007L177.632 129.994ZM176.338 118.606C176.322 118.922 176.414 119.233 176.598 119.489C176.782 119.745 177.048 119.929 177.35 120.011C177.652 120.094 177.973 120.069 178.26 119.942C178.547 119.814 178.781 119.592 178.925 119.311C179.04 119.117 179.102 118.897 179.107 118.671C179.107 117.783 179.171 116.882 179.249 115.994C179.29 115.671 179.218 115.344 179.046 115.069C178.873 114.793 178.611 114.588 178.304 114.487C177.997 114.386 177.665 114.397 177.365 114.517C177.065 114.637 176.816 114.86 176.661 115.145C176.56 115.327 176.494 115.526 176.467 115.733C176.39 116.686 176.338 117.653 176.325 118.606H176.338ZM178.149 107.283C178.098 107.611 178.164 107.947 178.337 108.229C178.51 108.511 178.778 108.721 179.092 108.821C179.405 108.92 179.744 108.903 180.046 108.772C180.348 108.641 180.593 108.404 180.737 108.106C180.996 107.296 181.28 106.343 181.604 105.494C181.714 105.237 181.74 104.951 181.677 104.679C181.614 104.406 181.466 104.161 181.254 103.979C181.09 103.826 180.89 103.715 180.673 103.657C180.457 103.599 180.229 103.596 180.011 103.648C179.792 103.699 179.59 103.804 179.421 103.953C179.252 104.102 179.122 104.29 179.042 104.502C178.693 105.39 178.395 106.317 178.11 107.218L178.149 107.283ZM182.729 96.8356C182.59 97.0753 182.525 97.3516 182.544 97.6288C182.562 97.906 182.663 98.1711 182.833 98.3897C182.972 98.5675 183.152 98.7084 183.358 98.8001C183.563 98.8919 183.788 98.9317 184.012 98.9163C184.236 98.9009 184.453 98.8306 184.645 98.7116C184.836 98.5925 184.996 98.4283 185.11 98.233C185.563 97.4495 186.028 96.6659 186.507 95.9084C186.605 95.7549 186.672 95.5835 186.704 95.404C186.736 95.2244 186.732 95.0402 186.694 94.862C186.656 94.6837 186.583 94.5148 186.48 94.365C186.377 94.2151 186.245 94.0873 186.093 93.9887C185.941 93.89 185.771 93.8226 185.593 93.7903C185.415 93.7579 185.233 93.7612 185.056 93.8C184.88 93.8388 184.713 93.9124 184.564 94.0164C184.416 94.1205 184.289 94.2531 184.191 94.4066C183.687 95.2032 183.195 96.0129 182.729 96.8356ZM189.198 87.5372C189.029 87.746 188.923 88.0003 188.895 88.2688C188.866 88.5374 188.917 88.8084 189.039 89.0485C189.161 89.2887 189.351 89.4874 189.584 89.6203C189.816 89.7532 190.083 89.8145 190.35 89.7965C190.537 89.7898 190.722 89.742 190.889 89.6563C191.057 89.5706 191.204 89.4491 191.32 89.3002C191.889 88.595 192.485 87.9029 193.067 87.2107C193.271 86.9801 193.393 86.6871 193.413 86.3784C193.433 86.0697 193.35 85.7631 193.177 85.5076C193.005 85.2521 192.752 85.0623 192.46 84.9686C192.168 84.8749 191.853 84.8826 191.566 84.9906C191.346 85.0632 191.153 85.1995 191.01 85.3823C190.363 86.0484 189.755 86.7536 189.172 87.485L189.198 87.5372Z" fill="white"/>
<path id="Vector_2" fill-rule="evenodd" clip-rule="evenodd" d="M213.639 194.665C213.699 194.567 213.779 194.482 213.872 194.415C213.966 194.348 214.071 194.3 214.183 194.274C214.295 194.249 214.411 194.246 214.524 194.266C214.637 194.286 214.745 194.329 214.842 194.391C215.037 194.52 215.174 194.72 215.225 194.949C215.276 195.178 215.236 195.419 215.113 195.619C215.01 195.775 180.413 250.038 207.739 281.669C207.889 281.845 207.965 282.073 207.951 282.305C207.936 282.537 207.832 282.754 207.661 282.909C207.576 282.986 207.476 283.045 207.367 283.083C207.259 283.12 207.145 283.136 207.03 283.129C206.916 283.122 206.804 283.091 206.702 283.04C206.599 282.989 206.507 282.918 206.432 282.831C178.227 250.195 213.535 194.822 213.639 194.665Z" fill="#000618"/>
<path id="Vector_3" fill-rule="evenodd" clip-rule="evenodd" d="M314.53 187.104C314.468 187.006 314.426 186.897 314.406 186.783C314.386 186.669 314.389 186.552 314.414 186.439C314.44 186.326 314.487 186.22 314.553 186.125C314.62 186.031 314.704 185.951 314.802 185.889C314.999 185.768 315.236 185.73 315.462 185.784C315.687 185.837 315.882 185.979 316.005 186.177C316.005 186.255 335.826 217.219 314.983 241.027C314.829 241.2 314.614 241.305 314.384 241.32C314.154 241.334 313.928 241.257 313.754 241.106C313.667 241.029 313.597 240.937 313.546 240.833C313.496 240.73 313.466 240.617 313.459 240.502C313.451 240.386 313.467 240.271 313.504 240.161C313.542 240.052 313.6 239.951 313.676 239.865C333.64 217.063 314.582 187.195 314.53 187.104Z" fill="#000618"/>
<path id="Vector_4" fill-rule="evenodd" clip-rule="evenodd" d="M219.228 158.02L204.646 174.201C209.13 183.11 211.294 193.024 210.934 203.01C210.236 219.361 155.637 309.969 256.515 309.499C357.394 309.029 301.256 256.503 301.256 256.503C301.256 256.503 334.532 245.624 317.739 197.003C300.945 148.382 219.228 158.02 219.228 158.02Z" fill="#000618"/>
<path id="Vector_5" fill-rule="evenodd" clip-rule="evenodd" d="M302.187 257.417C301.605 256.829 301.255 256.503 301.255 256.503C302.296 256.146 303.308 255.71 304.283 255.197C307.453 251.603 310.335 247.76 312.9 243.704C326.653 222.13 312.02 192.445 312.02 192.445L304.257 190.094C304.257 190.094 288.731 184.492 284.591 183.094C280.451 181.697 232.308 184.727 218.607 210.65C204.905 236.574 220.159 274.146 220.159 274.146C220.159 274.146 276.906 272.305 280.14 272.07C282.586 271.848 291.914 268.178 302.187 257.417Z" fill="#01020E"/>
<path id="Vector_6" fill-rule="evenodd" clip-rule="evenodd" d="M329.318 271.561C345.517 278.691 347.626 293.657 349.735 310.295C351.598 325.053 352.18 347.333 348.337 381.157C344.495 414.982 283.22 336.532 283.22 336.532L329.318 271.561Z" fill="#EF8871"/>
<path id="Vector_7" fill-rule="evenodd" clip-rule="evenodd" d="M234.016 271.116L218.335 262.993C218.335 262.993 201.722 267.159 193.209 277.96C184.696 288.76 158.962 380.948 157.992 392.231C157.021 403.515 164.59 446.481 178.434 446.481C192.278 446.481 199.135 352.53 199.135 352.53L210.443 317.269L234.016 271.116Z" fill="#F4AD85"/>
<path id="Vector_8" fill-rule="evenodd" clip-rule="evenodd" d="M234.016 271.116L218.335 262.993C214.372 264.088 210.528 265.58 206.859 267.447C208.89 268.439 210.482 270.973 210.3 276.588C209.809 291.306 187.581 347.463 182.729 363.161C177.877 378.858 173.97 388.17 173.97 388.17L163.853 366.739C162.934 370.2 162.106 373.452 161.368 376.403C165.159 397.011 169.869 425.246 170.503 441.401C172.857 444.535 175.497 446.468 178.434 446.468C192.278 446.468 199.135 352.517 199.135 352.517L210.443 317.256L234.016 271.116Z" fill="#EF8871"/>
<path id="Vector_9" fill-rule="evenodd" clip-rule="evenodd" d="M275.716 250.848C275.716 250.848 317.519 265.892 329.318 271.56C329.318 271.56 327.067 273.937 324.518 286.866C321.969 299.795 324.518 318.745 321.853 337.394C319.925 350.858 310.881 418.991 306.017 455.754L202.977 447.369C202.977 445.724 202.887 443.752 202.783 441.519C211.258 448.179 219.357 448.466 214.337 429.047C205.591 395.196 207.299 336.323 210.21 318.693C213.121 301.062 217.468 282.452 213.341 264.547C216.11 262.027 275.716 250.848 275.716 250.848Z" fill="#D84F50"/>
<path id="Vector_10" fill-rule="evenodd" clip-rule="evenodd" d="M303.17 261.047C313.624 264.965 324.247 269.17 329.318 271.613C329.318 271.613 327.067 273.989 324.518 286.919C321.969 299.848 324.518 318.797 321.853 337.446C321.465 340.137 320.792 345.021 319.925 351.42C296.637 355.077 227.883 363.03 211.374 361.554C210.192 361.443 209.017 361.264 207.855 361.019C207.855 342.644 208.916 326.607 210.21 318.745L210.443 317.439C216.265 334.782 289.598 344.486 289.598 344.486C289.598 344.486 301.76 317.334 298.59 307.279C295.42 297.223 280.852 297.51 280.852 297.51L281.227 288.525C281.227 288.525 295.809 268.596 299.341 262.536C299.742 261.661 301.139 261.204 303.17 261.047Z" fill="#C23E3E"/>
<path id="Vector_11" fill-rule="evenodd" clip-rule="evenodd" d="M309.096 263.254L309.95 263.581C308.1 271.142 305.603 280.023 302.187 285.247C299.146 290.194 295.004 294.357 290.09 297.405C284.772 300.514 277.838 302.368 268.095 302.12C260.573 301.992 253.331 299.221 247.614 294.284C241.43 288.833 236.937 281.695 234.676 273.728C232.011 264.325 229.501 261.191 228.634 260.342L229.656 260.107C230.846 261.53 233.188 265.135 235.556 273.467C237.779 281.265 242.187 288.249 248.248 293.579C253.812 298.375 260.857 301.067 268.173 301.193C277.669 301.428 284.449 299.612 289.624 296.596C294.419 293.614 298.459 289.545 301.424 284.711C304.839 279.579 307.298 270.751 309.187 263.241L309.096 263.254ZM326.265 270.189L327.028 270.529C325.01 274.12 322.176 281.668 319.576 297.471C316.458 316.407 320.029 324.896 322.772 328.54C322.772 328.97 322.707 329.415 322.668 329.845C319.744 326.476 315.293 317.778 318.67 297.314C321.258 281.799 324.117 274.042 326.265 270.189ZM209.511 323.956C209.511 323.368 209.641 322.793 209.705 322.245C212.06 317.582 221 297.053 215.903 263.476L216.795 263.215C222.656 301.545 210.249 323.172 209.964 323.668C209.938 323.718 209.903 323.762 209.861 323.799C209.814 323.844 209.76 323.879 209.699 323.901C209.639 323.923 209.575 323.933 209.511 323.929V323.956Z" fill="#B23539"/>
<path id="Vector_12" fill-rule="evenodd" clip-rule="evenodd" d="M272.468 205.714H272.792C277.169 205.665 281.387 207.372 284.519 210.46C287.651 213.547 289.44 217.764 289.495 222.182L289.702 255.954C295.77 258.201 303.028 260.904 309.834 263.529C299.134 286.854 286.545 302.264 266.348 297.85C238.713 291.803 239.696 268.387 231.273 259.742C239.127 258.031 248.352 256.15 256.347 254.583L256.153 222.548C256.125 218.138 257.824 213.895 260.879 210.742C263.935 207.59 268.1 205.783 272.468 205.714Z" fill="#EF8871"/>
<path id="Vector_13" fill-rule="evenodd" clip-rule="evenodd" d="M288.46 216.553C289.125 218.354 289.471 220.259 289.482 222.182L289.689 255.954C295.757 258.2 303.015 260.904 309.821 263.529C301.941 280.676 293.001 293.566 280.852 297.405C300.259 284.215 294.269 267.93 290.142 266.206C286.014 264.482 253.268 255.21 253.268 255.21L256.399 254.596L256.205 222.56C256.189 220.096 256.712 217.659 257.736 215.421C258.76 213.184 260.261 211.203 262.131 209.618C270.825 209.54 279.532 212.269 288.46 216.553Z" fill="#EA745D"/>
<path id="Vector_14" fill-rule="evenodd" clip-rule="evenodd" d="M309.795 173.718C310.118 173.718 310.429 173.718 310.752 173.718C313.681 173.941 316.448 175.164 318.597 177.186C320.746 179.207 322.15 181.906 322.577 184.84C323.005 187.774 322.43 190.767 320.949 193.327C319.467 195.887 317.167 197.862 314.425 198.928C311.684 199.993 308.665 200.085 305.865 199.189C303.065 198.292 300.651 196.461 299.019 193.995C297.387 191.53 296.635 188.577 296.886 185.623C297.137 182.669 298.377 179.889 300.402 177.74C300.583 181.593 301.799 186.229 306.677 186.059L305.564 178.628C305.505 178.022 305.57 177.41 305.753 176.83C305.937 176.25 306.236 175.713 306.632 175.254C307.028 174.794 307.513 174.421 308.057 174.157C308.6 173.893 309.192 173.743 309.795 173.718Z" fill="#EA745D"/>
<path id="Vector_15" fill-rule="evenodd" clip-rule="evenodd" d="M217.636 188.396C217.324 188.472 217.018 188.568 216.718 188.684C213.945 189.667 211.587 191.573 210.031 194.09C208.475 196.606 207.814 199.582 208.157 202.527C208.499 205.473 209.825 208.214 211.916 210.298C214.007 212.382 216.738 213.685 219.661 213.994C222.583 214.302 225.523 213.597 227.996 211.995C230.469 210.393 232.327 207.989 233.266 205.178C234.205 202.368 234.168 199.318 233.162 196.531C232.155 193.745 230.239 191.387 227.728 189.846C228.556 193.607 228.569 198.4 223.847 199.523L223.006 192.066C222.913 191.459 222.697 190.878 222.371 190.359C222.046 189.84 221.618 189.394 221.114 189.05C220.61 188.705 220.041 188.47 219.442 188.357C218.844 188.245 218.229 188.258 217.636 188.396Z" fill="#EA745D"/>
<path id="Vector_16" fill-rule="evenodd" clip-rule="evenodd" d="M257.473 116.569C269.074 115.043 280.802 118.213 290.094 125.388C299.386 132.563 305.488 143.158 307.065 154.86L312.369 195.044C313.878 206.757 310.734 218.597 303.624 227.978C296.514 237.359 286.016 243.52 274.422 245.115C262.815 246.648 251.078 243.479 241.78 236.301C232.482 229.123 226.378 218.52 224.804 206.811L219.499 166.626C217.988 154.91 221.135 143.067 228.251 133.687C235.367 124.306 245.873 118.151 257.473 116.569Z" fill="#F4AD85"/>
<path id="Vector_17" fill-rule="evenodd" clip-rule="evenodd" d="M257.473 116.568C268.437 115.13 279.537 117.882 288.593 124.283C297.65 130.684 304.008 140.272 306.418 151.164C306.152 153.448 305.467 155.662 304.399 157.693L283.996 156.57C283.996 156.57 270.566 182.481 242.995 188.775C235.569 190.473 233.253 198.008 234.766 205.178C238.454 222.626 253.294 247.635 289.844 240.048C285.067 242.717 279.835 244.458 274.422 245.18C262.805 246.712 251.06 243.534 241.76 236.343C232.459 229.151 226.362 218.531 224.804 206.811L219.499 166.626C217.988 154.91 221.135 143.067 228.251 133.686C235.367 124.306 245.873 118.151 257.473 116.568Z" fill="#EF8871"/>
<path id="Vector_18" fill-rule="evenodd" clip-rule="evenodd" d="M249.464 205.126C250.6 204.951 251.761 205.119 252.802 205.611C253.843 206.102 254.715 206.893 255.311 207.885C255.906 208.877 256.196 210.025 256.145 211.183C256.094 212.341 255.704 213.459 255.024 214.393C254.344 215.328 253.404 216.038 252.325 216.434C251.245 216.83 250.073 216.894 248.957 216.617C247.842 216.341 246.832 215.737 246.057 214.882C245.281 214.027 244.774 212.959 244.599 211.812C244.484 211.051 244.518 210.274 244.699 209.526C244.881 208.777 245.207 208.073 245.659 207.452C246.111 206.831 246.679 206.306 247.332 205.907C247.985 205.507 248.71 205.242 249.464 205.126Z" fill="#EA745D"/>
<path id="Vector_19" fill-rule="evenodd" clip-rule="evenodd" d="M297.064 197.525C298.199 197.35 299.361 197.519 300.401 198.01C301.442 198.501 302.315 199.293 302.91 200.285C303.505 201.276 303.795 202.424 303.744 203.583C303.693 204.741 303.303 205.858 302.623 206.793C301.943 207.727 301.004 208.437 299.924 208.833C298.844 209.229 297.673 209.293 296.557 209.017C295.441 208.741 294.432 208.137 293.656 207.281C292.88 206.426 292.373 205.358 292.199 204.212C292.083 203.45 292.117 202.673 292.299 201.925C292.481 201.177 292.807 200.472 293.258 199.851C293.71 199.23 294.279 198.705 294.932 198.306C295.585 197.907 296.309 197.642 297.064 197.525Z" fill="#EA745D"/>
<path id="Vector_20" fill-rule="evenodd" clip-rule="evenodd" d="M242.672 181.827C242.456 181.8 242.237 181.816 242.027 181.874C241.817 181.932 241.621 182.031 241.449 182.165C241.277 182.3 241.133 182.467 241.026 182.658C240.918 182.849 240.849 183.059 240.821 183.277C240.794 183.495 240.81 183.716 240.867 183.928C240.925 184.139 241.023 184.338 241.156 184.511C241.29 184.684 241.456 184.83 241.645 184.938C241.833 185.047 242.042 185.117 242.258 185.145C243.838 185.33 245.437 185.286 247.006 185.014C250.243 184.563 253.201 182.921 255.312 180.404C255.592 180.058 255.724 179.613 255.679 179.169C255.634 178.724 255.416 178.316 255.073 178.034C254.73 177.751 254.289 177.618 253.849 177.663C253.409 177.709 253.004 177.929 252.725 178.275C250.331 181.24 246.307 182.206 242.672 181.827Z" fill="#01020E"/>
<path id="Vector_21" fill-rule="evenodd" clip-rule="evenodd" d="M315.889 280.637C315.889 280.637 317.57 280.402 317.946 281.734C318.321 283.066 312.77 290.236 312.382 290.484C311.994 290.732 300.932 289.322 300.932 289.322C300.932 289.322 300.337 288.76 300.466 288.342C300.582 288.037 300.769 287.764 301.01 287.546L315.889 280.637Z" fill="#000618"/>
<path id="Vector_22" fill-rule="evenodd" clip-rule="evenodd" d="M297.969 168.833C294.346 168.167 290.284 168.833 287.619 171.55C287.312 171.869 286.892 172.051 286.451 172.057C286.011 172.063 285.586 171.893 285.27 171.583C284.955 171.273 284.774 170.849 284.768 170.404C284.762 169.96 284.931 169.531 285.238 169.212C287.546 166.882 290.622 165.488 293.881 165.294C295.468 165.159 297.066 165.247 298.629 165.556C298.842 165.599 299.045 165.685 299.225 165.808C299.406 165.93 299.56 166.088 299.681 166.271C299.801 166.454 299.884 166.659 299.925 166.875C299.967 167.091 299.966 167.312 299.923 167.528C299.879 167.743 299.795 167.947 299.673 168.129C299.551 168.311 299.395 168.468 299.214 168.589C299.033 168.71 298.829 168.794 298.616 168.836C298.402 168.878 298.182 168.877 297.969 168.833Z" fill="#01020E"/>
<path id="Vector_23" fill-rule="evenodd" clip-rule="evenodd" d="M230.484 186.751L231.234 192.445C231.597 195.188 226.382 202.527 224.299 202.802L223.006 192.798C223.006 192.798 221.518 188.331 215.903 189.076C196.03 171.406 194.128 139.358 210.339 120.434C226.551 101.511 265.973 95.1508 273.128 96.5482C280.283 97.9456 288.99 108.785 288.99 108.785C288.99 108.785 294.165 102.739 299.949 104.75C305.732 106.761 328.451 138.901 329.603 147.559C330.754 156.218 316.406 175.572 316.406 175.572C310.791 176.33 310.519 181.031 310.519 181.031L311.334 187.261C309.251 187.535 307.712 184.871 307.362 182.141C307.013 179.412 306.599 176.434 306.599 176.434C288.279 171.014 278.342 148.434 278.342 148.434C278.342 148.434 259.258 187.13 230.484 186.751Z" fill="#000618"/>
<path id="Vector_24" fill-rule="evenodd" clip-rule="evenodd" d="M199.419 151.503C199.345 143.343 201.293 135.294 205.086 128.087C223.057 142.139 252.065 151.595 276.246 97.6582C277.872 98.4903 279.407 99.4927 280.826 100.649C271.459 128.061 247.536 175.912 199.419 151.503Z" fill="#0F1630"/>
<path id="Vector_25" fill-rule="evenodd" clip-rule="evenodd" d="M230.484 186.751L231.234 192.445C231.597 195.188 226.383 202.527 224.299 202.801L223.006 192.798C223.006 192.798 221.518 188.331 215.903 189.076C208.364 182.292 203.101 173.31 200.843 163.374C200.843 163.374 234.87 187.234 276.725 142.871C276.725 142.871 295.873 173.025 323.897 164.04C321.612 168.015 319.121 171.864 316.432 175.572C310.817 176.329 310.545 181.031 310.545 181.031L311.36 187.26C309.277 187.535 307.737 184.87 307.388 182.141C307.039 179.412 306.625 176.434 306.625 176.434C288.304 171.014 278.368 148.434 278.368 148.434C278.368 148.434 259.258 187.13 230.484 186.751Z" fill="#01020E"/>
<path id="Vector_26" fill-rule="evenodd" clip-rule="evenodd" d="M314.84 246.342L317.713 247.139C317.713 247.139 319.395 232.042 319.382 230.579C319.122 228.472 318.491 226.429 317.519 224.546C316.406 222.077 312.343 212.792 312.136 212.465C311.929 212.139 309.303 214.464 310.48 218.538C311.658 222.613 313.663 228.15 313.65 229.338C313.637 230.527 310.946 240.975 310.946 240.975L314.84 246.342Z" fill="#EF8871"/>
<path id="Vector_27" fill-rule="evenodd" clip-rule="evenodd" d="M317.726 246.473C317.706 245.325 317.387 244.203 316.801 243.22C316.215 242.236 315.383 241.426 314.388 240.87C311.502 239.12 304.723 233.688 303.274 233.035C302.474 232.738 301.612 232.652 300.77 232.785C299.928 232.917 299.133 233.264 298.461 233.792C295.579 235.648 292.81 237.676 290.167 239.865C289.029 241.053 286.183 248.445 285.833 249.216C285.484 249.986 288.343 250.704 290.633 248.954C290.633 248.954 289.43 251.37 289.055 252.193C288.538 254.944 288.218 257.728 288.097 260.525C288.097 261.831 291.513 261.165 292.69 258.253C292.69 258.253 292.496 260.355 292.496 260.995C292.496 261.635 294.476 261.4 294.476 261.4C294.476 261.4 296.766 273.937 297.283 275.492C297.801 277.046 317.493 348.547 317.493 348.547L345.957 346.81C345.957 346.81 314.905 276.628 314.659 275.596C312.939 266.807 317.752 253.904 317.726 246.473Z" fill="#F4AD85"/>
<path id="Vector_28" fill-rule="evenodd" clip-rule="evenodd" d="M294.476 261.426L294.605 262.092V262.34V262.471V262.614V262.771C295.213 266.075 296.74 274.237 297.193 275.478C297.646 276.719 308.501 316.263 314.129 336.663C317.883 335.133 321.519 333.325 325.01 331.256C325.01 331.256 303.015 279.448 302.446 277.411C301.877 275.374 303.145 273.741 302.718 273.193C302.291 272.644 300.596 271.887 300.13 270.372C299.664 268.857 298.668 263.698 299.341 261.609C299.858 260.002 301.527 260.198 302.265 260.368C302.973 260.597 303.694 260.781 304.425 260.917C305.538 261.06 305.447 260.381 305.447 260.381C305.915 258.38 306.749 256.484 307.906 254.792C306.703 254.126 304.826 250.991 304.826 250.991C303.597 250.443 302.627 249.685 301.67 250.443C300.317 251.554 299.089 252.81 298.008 254.191C297.865 255.82 297.619 257.439 297.271 259.036C296.934 260.93 294.476 261.426 294.476 261.426Z" fill="#EF8871"/>
<path id="Vector_29" fill-rule="evenodd" clip-rule="evenodd" d="M167.009 459.019H373.593C375.178 458.951 376.673 458.255 377.754 457.081C378.834 455.908 379.412 454.351 379.363 452.75C379.409 451.151 378.829 449.598 377.749 448.428C376.669 447.257 375.176 446.563 373.593 446.495H167.009C165.423 446.559 163.926 447.255 162.845 448.429C161.764 449.603 161.186 451.161 161.239 452.763C161.19 454.363 161.769 455.918 162.849 457.089C163.93 458.261 165.425 458.954 167.009 459.019Z" fill="#000618"/>
<path id="Vector_30" fill-rule="evenodd" clip-rule="evenodd" d="M377.358 326.111H163.257C162.529 326.09 161.805 326.234 161.14 326.533C160.474 326.832 159.883 327.278 159.411 327.839C158.939 328.399 158.598 329.059 158.413 329.771C158.228 330.482 158.203 331.226 158.341 331.949L174.708 441.65C174.983 443.249 175.796 444.704 177.01 445.77C178.223 446.835 179.763 447.446 181.371 447.5H359.244C360.851 447.444 362.39 446.832 363.603 445.767C364.816 444.702 365.629 443.248 365.907 441.65L382.274 331.949C382.412 331.226 382.387 330.482 382.202 329.771C382.017 329.059 381.676 328.399 381.204 327.839C380.732 327.278 380.141 326.832 379.475 326.533C378.81 326.234 378.086 326.09 377.358 326.111Z" fill="#000618"/>
<path id="Vector_31" fill-rule="evenodd" clip-rule="evenodd" d="M372.596 331.296H168.019C167.323 331.277 166.633 331.417 165.998 331.703C165.363 331.989 164.8 332.415 164.349 332.95C163.899 333.485 163.573 334.115 163.395 334.794C163.217 335.472 163.192 336.182 163.322 336.872L178.951 441.702C179.218 443.227 179.995 444.614 181.154 445.629C182.313 446.645 183.783 447.227 185.317 447.278H355.285C356.82 447.229 358.29 446.648 359.45 445.632C360.609 444.616 361.387 443.228 361.651 441.702L377.293 336.872C377.423 336.182 377.398 335.472 377.22 334.794C377.042 334.115 376.716 333.485 376.266 332.95C375.815 332.415 375.252 331.989 374.617 331.703C373.982 331.417 373.292 331.277 372.596 331.296Z" fill="#0F1630"/>
<path id="Vector_32" fill-rule="evenodd" clip-rule="evenodd" d="M174.941 414.812L178.951 441.702C179.218 443.227 179.996 444.614 181.155 445.629C182.314 446.645 183.783 447.227 185.317 447.278H355.285C356.82 447.229 358.291 446.648 359.45 445.632C360.609 444.617 361.387 443.228 361.651 441.702L377.293 336.872C377.498 335.769 377.306 334.628 376.751 333.656C376.196 332.683 375.314 331.943 374.265 331.57C350.847 372.342 293.376 439.129 174.941 414.812Z" fill="#000618"/>
<path id="Vector_33" fill-rule="evenodd" clip-rule="evenodd" d="M270.307 419.409C282.845 419.409 293.053 410.802 293.053 400.237C293.053 389.672 282.845 381.065 270.307 381.065C257.77 381.065 247.549 389.685 247.549 400.237C247.549 410.789 257.77 419.409 270.307 419.409Z" fill="#000618"/>
<path id="Vector_34" fill-rule="evenodd" clip-rule="evenodd" d="M270.307 385.676C273.19 385.601 276.049 386.222 278.646 387.488C281.243 388.753 283.503 390.626 285.238 392.95L258.78 411.103C257.04 409.877 255.611 408.254 254.608 406.366C253.606 404.478 253.058 402.379 253.009 400.237C253.009 392.193 260.772 385.676 270.307 385.676ZM284.319 408.739L276.375 404.325L263.127 413.467C265.414 414.336 267.838 414.778 270.282 414.773C272.912 414.835 275.526 414.329 277.947 413.288C280.368 412.248 282.541 410.697 284.319 408.739Z" fill="white"/>
<path id="Vector_35" fill-rule="evenodd" clip-rule="evenodd" d="M293.376 180.9C292.409 181.058 291.544 181.595 290.969 182.396C290.394 183.196 290.157 184.194 290.31 185.171L291.073 189.964C291.226 190.939 291.756 191.813 292.547 192.393C293.338 192.974 294.325 193.213 295.291 193.059C296.257 192.905 297.123 192.37 297.698 191.571C298.273 190.773 298.51 189.776 298.357 188.801L297.607 183.996C297.448 183.021 296.914 182.149 296.122 181.57C295.33 180.99 294.343 180.75 293.376 180.9Z" fill="#01020E"/>
<path id="Vector_36" fill-rule="evenodd" clip-rule="evenodd" d="M249.102 187.665C248.135 187.823 247.269 188.36 246.694 189.161C246.12 189.961 245.883 190.959 246.035 191.936L246.786 196.729C246.942 197.705 247.475 198.579 248.268 199.159C249.061 199.739 250.049 199.978 251.017 199.824C251.981 199.667 252.845 199.131 253.419 198.333C253.993 197.535 254.232 196.541 254.083 195.566L253.32 190.761C253.164 189.787 252.633 188.915 251.843 188.336C251.052 187.756 250.067 187.515 249.102 187.665Z" fill="#01020E"/>
<path id="Vector_37" fill-rule="evenodd" clip-rule="evenodd" d="M289.495 213.954C289.636 214.057 289.756 214.188 289.846 214.339C289.936 214.49 289.995 214.658 290.019 214.832C290.043 215.007 290.032 215.184 289.986 215.354C289.941 215.524 289.862 215.683 289.754 215.822C289.527 216.081 289.207 216.239 288.865 216.261C288.523 216.283 288.187 216.168 287.929 215.939C287.929 215.939 283.504 212.021 275.638 219.348C275.374 219.596 275.023 219.727 274.663 219.714C274.302 219.7 273.962 219.543 273.717 219.276C273.471 219.009 273.341 218.655 273.354 218.291C273.368 217.928 273.524 217.584 273.788 217.337C283.233 208.508 289.495 213.941 289.495 213.954Z" fill="#EF8871"/>
<path id="Vector_38" fill-rule="evenodd" clip-rule="evenodd" d="M316.936 280.924C317.12 280.96 317.286 281.059 317.407 281.204C317.527 281.349 317.594 281.532 317.596 281.721C317.687 282.465 313.288 288.251 300.958 288.682C300.958 288.682 300.66 288.59 300.608 288.394C300.606 288.32 300.619 288.246 300.646 288.176C300.672 288.107 300.713 288.043 300.764 287.99V287.754C300.764 287.754 300.324 288.081 300.324 288.46C300.324 288.838 302.148 296.531 302.51 298.463C302.873 300.396 306.625 299.952 309.782 299.169C312.939 298.385 320.507 295.734 322.487 291.594C322.642 290.959 322.642 290.296 322.487 289.661C322.176 288.773 318.347 281.616 318.153 281.185C318.029 280.977 317.844 280.812 317.624 280.714C317.404 280.616 317.159 280.589 316.923 280.637L316.936 280.924Z" fill="#0F1630"/>
<path id="Vector_39" fill-rule="evenodd" clip-rule="evenodd" d="M306.806 287.989C304.88 288.391 302.923 288.622 300.958 288.682C300.958 288.682 300.66 288.59 300.608 288.394C300.606 288.32 300.619 288.246 300.646 288.176C300.672 288.107 300.713 288.043 300.764 287.989V287.754C300.764 287.754 300.324 288.081 300.324 288.46C300.324 288.838 302.148 296.53 302.51 298.463C302.873 300.396 306.625 299.952 309.782 299.169C310.234 299.064 310.778 298.92 311.373 298.724L306.871 287.989H306.806Z" fill="#000618"/>
<path id="Vector_40" fill-rule="evenodd" clip-rule="evenodd" d="M99.4594 464.961H440.729C442.787 464.961 444.762 465.786 446.218 467.256C447.674 468.725 448.491 470.719 448.491 472.797C448.491 474.875 447.674 476.868 446.218 478.337C444.762 479.807 442.787 480.633 440.729 480.633H99.4594C97.4006 480.633 95.426 479.807 93.9702 478.337C92.5144 476.868 91.6965 474.875 91.6965 472.797C91.6965 470.719 92.5144 468.725 93.9702 467.256C95.426 465.786 97.4006 464.961 99.4594 464.961Z" fill="#000618"/>
<path id="Vector_41" d="M457.315 452.75H82.8598C77.3721 452.75 72.9233 457.24 72.9233 462.78V462.793C72.9233 468.332 77.3721 472.823 82.8598 472.823H457.315C462.803 472.823 467.252 468.332 467.252 462.793V462.78C467.252 457.24 462.803 452.75 457.315 452.75Z" fill="#BE865E"/>
<path id="Vector_42" d="M330.522 452.75H309.833V472.823H330.522V452.75Z" fill="#915E40"/>
<path id="Vector_43" d="M352.012 452.75H341.26V472.823H352.012V452.75Z" fill="#915E40"/>
<path id="Vector_44" d="M368.663 452.75H363.294V472.823H368.663V452.75Z" fill="#915E40"/>
<path id="Vector_45" d="M410.195 452.75H387.061V472.823H410.195V452.75Z" fill="#915E40"/>
<path id="Vector_46" d="M439.215 452.75H427.648V472.823H439.215V452.75Z" fill="#915E40"/>
<path id="Vector_47" d="M265.663 456.015H83.6749C80.4094 456.015 77.7622 458.687 77.7622 461.983C77.7622 465.28 80.4094 467.952 83.6749 467.952H265.663C268.928 467.952 271.575 465.28 271.575 461.983C271.575 458.687 268.928 456.015 265.663 456.015Z" fill="#D49D80"/>
<path id="Vector_48" fill-rule="evenodd" clip-rule="evenodd" d="M204.336 46.0988L208.593 70.8207L263.8 26L206.147 40.3003L204.336 46.0988Z" fill="#D5EAF5"/>
<path id="Vector_49" fill-rule="evenodd" clip-rule="evenodd" d="M208.593 70.8207L229.889 53.5298C230.126 52.051 230.459 50.5896 230.885 49.1548L212.991 53.9999L208.593 70.8207Z" fill="#ECF6FC"/>
<path id="Vector_50" fill-rule="evenodd" clip-rule="evenodd" d="M263.8 26L189.134 39.9346L204.336 46.0988L263.8 26Z" fill="white"/>
<path id="Vector_51" fill-rule="evenodd" clip-rule="evenodd" d="M263.8 26L230.251 70.9905L212.992 53.9999L263.8 26Z" fill="white"/>
<path id="Vector_52" fill-rule="evenodd" clip-rule="evenodd" d="M72.2247 257.535C79.6379 255.752 87.2328 254.853 94.8535 254.857C100.081 254.84 105.089 252.734 108.782 248.999C112.475 245.264 114.551 240.205 114.558 234.928C114.559 233.989 114.495 233.051 114.364 232.121H145.545C147.812 232.124 149.986 233.035 151.589 234.653C153.192 236.271 154.094 238.465 154.097 240.753V301.65C154.096 301.84 154.039 302.025 153.933 302.183C153.828 302.34 153.679 302.463 153.505 302.535C153.331 302.608 153.14 302.627 152.955 302.59C152.771 302.553 152.601 302.463 152.467 302.329L137.899 287.624H80.7768C78.5108 287.617 76.3395 286.706 74.7371 285.088C73.1348 283.471 72.2316 281.279 72.2247 278.992V257.535Z" fill="#A6CAE4"/>
<path id="Vector_53" fill-rule="evenodd" clip-rule="evenodd" d="M77.5293 228.855H142.285C144.552 228.862 146.725 229.774 148.329 231.391C149.933 233.008 150.839 235.199 150.85 237.488V298.398C150.848 298.589 150.791 298.775 150.685 298.933C150.579 299.091 150.43 299.214 150.255 299.286C150.082 299.365 149.889 299.387 149.704 299.35C149.518 299.312 149.349 299.217 149.22 299.077L134.638 284.359H77.5293C75.2622 284.356 73.0889 283.445 71.4859 281.827C69.8828 280.209 68.9806 278.015 68.9772 275.727V237.54C68.9738 236.403 69.1923 235.276 69.6203 234.225C70.0482 233.173 70.6772 232.216 71.4713 231.41C72.2655 230.604 73.2092 229.963 74.2486 229.525C75.2881 229.086 76.4028 228.859 77.5293 228.855Z" fill="#DC5645"/>
<path id="Vector_54" fill-rule="evenodd" clip-rule="evenodd" d="M118.905 244.436H129.618C130.927 244.443 132.22 244.718 133.421 245.243C134.622 245.768 135.705 246.533 136.605 247.492C138.465 249.447 139.5 252.055 139.49 254.766C139.496 254.809 139.496 254.853 139.49 254.897C139.455 257.546 138.413 260.08 136.579 261.975C135.675 262.926 134.59 263.683 133.39 264.201C132.19 264.72 130.898 264.988 129.592 264.992H129.437H118.841L99.9381 274.551C99.5415 274.766 99.0936 274.866 98.6443 274.839C98.1826 274.814 97.7359 274.665 97.3505 274.408C96.9677 274.163 96.6554 273.82 96.4448 273.415C96.2303 273.015 96.1233 272.564 96.1343 272.109L96.2637 237.07C96.263 236.616 96.3695 236.168 96.5742 235.764C96.7911 235.363 97.1056 235.024 97.4882 234.78C97.8707 234.535 98.3087 234.393 98.7608 234.367C99.2091 234.351 99.6541 234.45 100.055 234.654H100.158L118.892 244.305L118.905 244.436ZM129.618 247.191H118.582C118.366 247.197 118.153 247.147 117.961 247.048L98.9678 237.253L98.8384 272.148L117.87 262.523C118.07 262.418 118.292 262.365 118.517 262.367H129.437H129.579C130.526 262.364 131.462 262.169 132.331 261.792C133.2 261.415 133.985 260.864 134.638 260.173C135.991 258.774 136.76 256.904 136.786 254.949V254.805C136.789 252.799 136.029 250.869 134.664 249.412C134.017 248.714 133.236 248.157 132.368 247.776C131.501 247.394 130.565 247.195 129.618 247.191Z" fill="white"/>
<path id="Vector_55" fill-rule="evenodd" clip-rule="evenodd" d="M131.999 263.346V275.557C131.995 276.712 131.539 277.818 130.729 278.633C129.919 279.448 128.821 279.906 127.678 279.906C126.536 279.902 125.442 279.443 124.635 278.628C123.828 277.813 123.373 276.709 123.369 275.557V263.66H129.554C130.379 263.675 131.203 263.569 131.999 263.346Z" fill="white"/>
<path id="Vector_56" d="M122.593 245.807H120.574V263.699H122.593V245.807Z" fill="white"/>
<path id="Vector_57" d="M129.075 245.807H127.057V263.699H129.075V245.807Z" fill="white"/>
<path id="Vector_58" fill-rule="evenodd" clip-rule="evenodd" d="M92.2529 248.876C92.4302 248.899 92.6008 248.959 92.754 249.052C92.9072 249.145 93.0396 249.269 93.1429 249.416C93.2463 249.563 93.3182 249.731 93.3543 249.907C93.3904 250.084 93.3898 250.266 93.3526 250.443C93.3297 250.622 93.2703 250.794 93.1782 250.949C93.086 251.103 92.9632 251.237 92.8173 251.341C92.6714 251.446 92.5057 251.518 92.3306 251.555C92.1555 251.591 91.9749 251.591 91.8 251.553L81.4495 249.725C81.2722 249.702 81.1016 249.642 80.9484 249.549C80.7952 249.456 80.6628 249.332 80.5594 249.184C80.4561 249.037 80.3841 248.87 80.348 248.693C80.312 248.516 80.3125 248.334 80.3498 248.158C80.3727 247.979 80.4321 247.806 80.5242 247.652C80.6163 247.497 80.7392 247.363 80.8851 247.259C81.031 247.155 81.1967 247.082 81.3718 247.046C81.5468 247.009 81.7275 247.01 81.9024 247.047L92.2529 248.876ZM91.4377 265.736C91.7586 265.578 92.1283 265.556 92.4656 265.673C92.8028 265.791 93.08 266.039 93.2361 266.363C93.3923 266.687 93.4146 267.06 93.2981 267.4C93.1816 267.741 92.936 268.02 92.6151 268.178L85.7967 271.495C85.4759 271.653 85.1062 271.675 84.7689 271.558C84.4316 271.44 84.1545 271.192 83.9983 270.868C83.8422 270.544 83.8199 270.171 83.9364 269.831C84.0529 269.49 84.2985 269.211 84.6194 269.053L91.4377 265.736ZM92.6151 241.118C92.936 241.276 93.1816 241.556 93.2981 241.896C93.4146 242.237 93.3923 242.61 93.2361 242.934C93.08 243.257 92.8028 243.505 92.4656 243.623C92.1283 243.741 91.7586 243.718 91.4377 243.561L83.6749 239.773C83.3523 239.617 83.1043 239.339 82.9854 238.998C82.8665 238.658 82.8865 238.284 83.0409 237.958C83.1953 237.632 83.4715 237.382 83.8088 237.262C84.1461 237.142 84.5168 237.162 84.8393 237.318L92.6022 241.118H92.6151ZM91.8 257.743C91.975 257.713 92.1542 257.718 92.3272 257.758C92.5003 257.798 92.6639 257.872 92.8086 257.976C92.9534 258.079 93.0765 258.211 93.171 258.363C93.2654 258.514 93.3293 258.683 93.3591 258.86C93.3888 259.037 93.3838 259.217 93.3443 259.392C93.3048 259.567 93.2316 259.732 93.1288 259.878C93.0261 260.024 92.8959 260.148 92.7456 260.244C92.5953 260.339 92.4279 260.404 92.2529 260.434L81.9024 262.249C81.7275 262.286 81.5468 262.287 81.3718 262.251C81.1967 262.214 81.031 262.142 80.8851 262.037C80.7392 261.933 80.6163 261.799 80.5242 261.645C80.4321 261.49 80.3727 261.318 80.3498 261.139C80.3125 260.962 80.312 260.78 80.348 260.603C80.3841 260.427 80.4561 260.259 80.5594 260.112C80.6628 259.965 80.7952 259.841 80.9484 259.748C81.1016 259.655 81.2722 259.595 81.4495 259.572L91.8 257.743Z" fill="white"/>
<path id="Vector_59" fill-rule="evenodd" clip-rule="evenodd" d="M438.283 73.2236H370.927C368.569 73.2305 366.308 74.1794 364.641 75.8629C362.973 77.5464 362.033 79.8278 362.026 82.2087V145.574C362.022 145.774 362.078 145.971 362.186 146.138C362.295 146.306 362.451 146.436 362.634 146.512C362.817 146.588 363.019 146.607 363.213 146.565C363.407 146.524 363.584 146.424 363.721 146.279L378.884 130.973H438.283C440.641 130.967 442.9 130.017 444.565 128.333C446.231 126.649 447.168 124.368 447.172 121.988V82.2087C447.165 79.8301 446.227 77.5506 444.562 75.8675C442.896 74.1843 440.64 73.234 438.283 73.2236Z" fill="#A6CAE4"/>
<path id="Vector_60" fill-rule="evenodd" clip-rule="evenodd" d="M434.402 73.2236H367.123C364.765 73.2305 362.505 74.1794 360.837 75.8629C359.169 77.5464 358.229 79.8278 358.222 82.2087V145.574C358.218 145.774 358.274 145.971 358.382 146.138C358.491 146.306 358.647 146.436 358.83 146.512C359.014 146.588 359.215 146.607 359.409 146.565C359.603 146.524 359.78 146.424 359.917 146.279L375.016 130.973H434.402C436.759 130.967 439.018 130.017 440.684 128.333C442.35 126.649 443.287 124.368 443.29 121.988V82.2087C443.283 79.8301 442.345 77.5506 440.68 75.8675C439.015 74.1843 436.758 73.234 434.402 73.2236Z" fill="#DC5645"/>
<path id="Vector_61" fill-rule="evenodd" clip-rule="evenodd" d="M383.943 100.871C385.222 100.871 386.473 100.488 387.537 99.7702C388.601 99.0527 389.43 98.0329 389.92 96.8397C390.409 95.6465 390.537 94.3336 390.288 93.067C390.038 91.8003 389.422 90.6368 388.517 89.7236C387.613 88.8104 386.46 88.1885 385.205 87.9365C383.95 87.6846 382.65 87.8139 381.467 88.3081C380.285 88.8023 379.275 89.6393 378.564 90.7131C377.853 91.7869 377.474 93.0494 377.474 94.3409C377.474 96.0727 378.156 97.7336 379.369 98.9581C380.582 100.183 382.227 100.871 383.943 100.871Z" fill="#F09A9B"/>
<path id="Vector_62" fill-rule="evenodd" clip-rule="evenodd" d="M383.943 102.922C386.345 102.922 388.649 103.885 390.347 105.599C392.046 107.313 393 109.639 393 112.063V121.022C393 121.157 392.973 121.291 392.922 121.415C392.87 121.54 392.795 121.652 392.7 121.747C392.604 121.842 392.492 121.917 392.368 121.967C392.244 122.018 392.111 122.043 391.978 122.041H375.844C375.576 122.041 375.319 121.934 375.13 121.743C374.941 121.551 374.835 121.292 374.835 121.022V112.063C374.835 110.858 375.071 109.665 375.529 108.553C375.987 107.44 376.659 106.43 377.506 105.581C378.352 104.731 379.357 104.059 380.461 103.602C381.566 103.146 382.749 102.915 383.943 102.922Z" fill="#F09A9B"/>
<path id="Vector_63" fill-rule="evenodd" clip-rule="evenodd" d="M417.582 100.871C418.864 100.884 420.121 100.512 421.194 99.8023C422.266 99.0927 423.105 98.0774 423.605 96.8855C424.104 95.6935 424.242 94.3786 423.999 93.1076C423.757 91.8367 423.146 90.6671 422.244 89.7473C421.342 88.8276 420.19 88.1991 418.933 87.9419C417.676 87.6846 416.372 87.81 415.187 88.3023C414.001 88.7945 412.986 89.6314 412.273 90.7066C411.559 91.7817 411.178 93.0468 411.178 94.341C411.178 96.0616 411.85 97.7127 413.05 98.9354C414.249 100.158 415.878 100.854 417.582 100.871Z" fill="#F09A9B"/>
<path id="Vector_64" fill-rule="evenodd" clip-rule="evenodd" d="M417.582 102.921C419.979 102.938 422.273 103.907 423.968 105.618C425.662 107.329 426.622 109.644 426.639 112.063V121.022C426.635 121.293 426.526 121.553 426.335 121.743C426.144 121.934 425.886 122.041 425.617 122.041H409.496C409.227 122.041 408.969 121.934 408.778 121.743C408.586 121.553 408.477 121.293 408.474 121.022V112.063C408.491 109.635 409.458 107.312 411.164 105.6C412.869 103.887 415.176 102.925 417.582 102.921Z" fill="#F09A9B"/>
<path id="Vector_65" fill-rule="evenodd" clip-rule="evenodd" d="M400.763 96.5612C402.298 96.5612 403.799 96.1017 405.075 95.2406C406.352 94.3796 407.347 93.1559 407.935 91.7241C408.522 90.2923 408.676 88.7167 408.376 87.1967C408.077 85.6768 407.337 84.2805 406.252 83.1847C405.166 82.0888 403.783 81.3426 402.277 81.0402C400.771 80.7379 399.21 80.893 397.792 81.4861C396.373 82.0792 395.161 83.0835 394.308 84.3721C393.455 85.6607 393 87.1757 393 88.7254C393 90.8036 393.818 92.7967 395.273 94.2662C396.729 95.7357 398.704 96.5612 400.763 96.5612Z" fill="white"/>
<path id="Vector_66" fill-rule="evenodd" clip-rule="evenodd" d="M400.763 99.0293C403.659 99.0396 406.434 100.206 408.482 102.273C410.53 104.34 411.685 107.141 411.695 110.065V120.839C411.677 121.161 411.541 121.464 411.314 121.69C411.087 121.917 410.785 122.051 410.466 122.067H391.059C390.737 122.067 390.427 121.937 390.199 121.707C389.971 121.477 389.843 121.164 389.843 120.839V110.065C389.853 107.143 391.006 104.344 393.052 102.277C395.097 100.211 397.869 99.0431 400.763 99.0293Z" fill="white"/>
<path id="Vector_67" fill-rule="evenodd" clip-rule="evenodd" d="M494.461 263.111C499.759 263.107 504.895 264.958 508.992 268.349C513.09 271.739 515.897 276.458 516.933 281.703C517.97 286.948 517.173 292.393 514.678 297.111C512.183 301.829 508.145 305.528 503.251 307.577C498.357 309.627 492.911 309.9 487.84 308.35C482.769 306.801 478.387 303.524 475.441 299.079C472.495 294.633 471.168 289.295 471.684 283.972C472.201 278.649 474.53 273.672 478.275 269.889C480.398 267.74 482.921 266.035 485.698 264.871C488.476 263.708 491.454 263.11 494.461 263.111ZM514.877 287.454H505.562C505.504 289.97 505.244 292.477 504.785 294.95C507.171 295.482 509.477 296.33 511.642 297.471C513.577 294.477 514.701 291.023 514.903 287.454H514.877ZM503.09 287.454H495.69V293.801C497.927 293.861 500.158 294.079 502.366 294.454C502.801 292.145 503.043 289.804 503.09 287.454ZM493.244 287.454H485.844C485.891 289.804 486.133 292.145 486.568 294.454C488.776 294.079 491.007 293.861 493.244 293.801V287.454ZM483.399 287.454H474.057C474.259 291.023 475.383 294.477 477.318 297.471C479.484 296.33 481.789 295.482 484.175 294.95C483.716 292.477 483.456 289.97 483.399 287.454ZM474.057 284.986H483.399C483.444 282.855 483.638 280.729 483.981 278.626C481.463 278.053 479.04 277.116 476.787 275.844C475.173 278.63 474.237 281.763 474.057 284.986ZM486.374 279.135C486.062 281.07 485.884 283.025 485.844 284.986H493.244V279.762C490.941 279.712 488.644 279.485 486.374 279.083V279.135ZM502.573 279.135C500.299 279.537 497.998 279.764 495.69 279.814V285.038H503.09C503.048 283.078 502.875 281.124 502.573 279.187V279.135ZM505.536 284.986H514.877C514.697 281.763 513.762 278.63 512.147 275.844C509.893 277.114 507.471 278.051 504.953 278.626C505.296 280.729 505.491 282.855 505.536 284.986ZM495.69 265.801V277.359C497.859 277.305 500.021 277.091 502.159 276.719C501.746 274.845 501.153 273.017 500.386 271.26C499.519 269.34 497.915 266.598 495.741 265.801H495.69ZM495.69 296.269V306.639C497.863 305.842 499.468 303.113 500.335 301.18C500.952 299.783 501.454 298.337 501.835 296.857C499.803 296.518 497.749 296.321 495.69 296.269ZM493.244 306.639V296.308C491.185 296.361 489.131 296.557 487.099 296.896C487.48 298.376 487.982 299.822 488.6 301.219C489.467 303.152 491.071 305.881 493.244 306.678V306.639ZM493.244 277.359V265.801C491.071 266.598 489.467 269.34 488.6 271.26C487.833 273.017 487.24 274.845 486.827 276.719C488.965 277.091 491.127 277.305 493.296 277.359H493.244ZM478.146 273.794C480.127 274.885 482.247 275.698 484.446 276.21C484.884 274.157 485.534 272.156 486.387 270.241C486.979 268.882 487.735 267.601 488.638 266.428C485.375 267.415 482.408 269.211 480.009 271.652C479.337 272.328 478.714 273.053 478.146 273.82V273.794ZM504.488 276.21C506.687 275.696 508.806 274.883 510.789 273.794C510.22 273.026 509.598 272.302 508.925 271.626C506.522 269.189 503.557 267.394 500.296 266.402C501.199 267.575 501.955 268.855 502.547 270.215C503.394 272.133 504.045 274.132 504.488 276.184V276.21ZM510.142 299.482C508.278 298.531 506.305 297.816 504.268 297.353C503.851 299.016 503.288 300.637 502.586 302.198C501.997 303.56 501.24 304.841 500.335 306.012C503.598 305.026 506.566 303.23 508.964 300.788C509.391 300.357 509.792 299.9 510.18 299.482H510.142ZM484.705 297.353C482.655 297.815 480.669 298.53 478.793 299.482C479.181 299.939 479.582 300.396 480.009 300.788C482.407 303.23 485.374 305.026 488.638 306.012C487.733 304.841 486.976 303.56 486.387 302.198C485.685 300.637 485.122 299.016 484.705 297.353Z" fill="white"/>
<path id="Vector_68" fill-rule="evenodd" clip-rule="evenodd" d="M45.5074 157.419C46.2634 155.963 47.4233 154.76 48.8454 153.958C49.4735 153.608 50.0202 153.126 50.4486 152.545C50.877 151.964 51.1774 151.297 51.3295 150.589C51.7481 148.74 51.9221 146.842 51.8471 144.947C51.8471 144.601 51.9834 144.269 52.226 144.024C52.4687 143.779 52.7977 143.641 53.1409 143.641H55.3145C55.5384 143.642 55.7609 143.677 55.9743 143.746C57.0055 144.187 57.8488 144.983 58.3549 145.992C59.0435 147.247 59.4041 148.658 59.4029 150.093C59.4009 151.042 59.2525 151.984 58.963 152.887C58.584 153.877 58.4207 154.937 58.4843 155.996C58.6086 156.016 58.7353 156.016 58.8595 155.996H64.3712C65.0032 155.99 65.6335 156.065 66.2472 156.218C67.0928 156.431 67.8603 156.885 68.4596 157.524C69.1378 158.341 69.4926 159.383 69.4559 160.449C69.4496 161.011 69.3845 161.572 69.2618 162.121C70.051 164.184 70.2063 166.744 68.6019 168.428C68.7166 169.284 68.6154 170.155 68.3078 170.961C68.0003 171.767 67.4962 172.481 66.8424 173.038C66.5098 174.188 65.8111 175.195 64.8545 175.903C63.8979 176.611 62.7367 176.981 61.5507 176.956H51.4331C49.6471 176.825 47.9483 176.126 46.5813 174.958C46.4448 175.451 46.1866 175.9 45.8308 176.264C45.3004 176.764 44.6029 177.044 43.8772 177.048H39.2194C38.4622 177.044 37.7369 176.739 37.2014 176.199C36.6659 175.658 36.3635 174.926 36.3601 174.161V159.731C36.3589 159.348 36.4338 158.97 36.5805 158.618C36.7272 158.266 36.9427 157.947 37.214 157.68C37.7436 157.169 38.448 156.884 39.1806 156.884H43.7996C44.415 156.886 45.0134 157.088 45.5074 157.458V157.419ZM46.6589 171.785C47.8104 172.96 49.7511 174.514 51.4072 174.514H61.486C62.1888 174.519 62.8705 174.272 63.4105 173.818C63.9504 173.364 64.3137 172.731 64.4359 172.033C64.4759 171.844 64.557 171.666 64.6734 171.512C64.7897 171.359 64.9384 171.233 65.1087 171.145C66.0402 170.675 66.079 169.12 65.9367 168.259C65.8891 168.015 65.9113 167.763 66.0007 167.531C66.0901 167.3 66.2429 167.099 66.4413 166.953C67.6575 166.051 67.2434 164.079 66.713 162.917C66.5633 162.628 66.5263 162.292 66.6095 161.977C66.7456 161.51 66.8196 161.027 66.8294 160.54C66.8558 160.101 66.7275 159.666 66.4672 159.313C66.2044 159.049 65.872 158.868 65.5097 158.79C65.1165 158.69 64.712 158.642 64.3065 158.647H58.8078C58.2392 158.708 57.6663 158.582 57.1743 158.288C56.6823 157.994 56.2977 157.547 56.0778 157.014C55.5086 155.617 56.0778 153.514 56.466 152.143C56.6698 151.483 56.7788 150.797 56.7894 150.106C56.7965 149.115 56.5515 148.139 56.0778 147.272C55.8694 146.862 55.5679 146.509 55.1981 146.24H54.3441C54.3608 147.943 54.1608 149.642 53.749 151.294C53.5056 152.338 53.0467 153.319 52.4024 154.171C51.7581 155.024 50.9429 155.73 50.0099 156.244C49.0827 156.88 48.3031 157.711 47.7246 158.681C47.1461 159.65 46.7826 160.735 46.6589 161.859V171.785ZM43.7996 159.443H39.2194C39.161 159.421 39.0967 159.421 39.0383 159.443C38.9832 159.499 38.9509 159.574 38.9477 159.652V174.266C38.9509 174.345 38.9833 174.419 39.0384 174.475C39.0936 174.53 39.1674 174.563 39.2453 174.566H43.7996C43.8543 174.583 43.913 174.583 43.9678 174.566C44.0193 174.509 44.047 174.435 44.0454 174.357V159.731C44.0472 159.692 44.0411 159.654 44.0275 159.618C44.0138 159.583 43.9929 159.55 43.9661 159.523C43.9393 159.496 43.9072 159.475 43.8718 159.461C43.8364 159.448 43.7986 159.441 43.7607 159.443H43.7996Z" fill="white"/>
<path id="Vector_69" d="M414.516 50.4736H410.622C409.686 50.4736 408.927 51.2396 408.927 52.1844V56.1154C408.927 57.0603 409.686 57.8262 410.622 57.8262H414.516C415.452 57.8262 416.211 57.0603 416.211 56.1154V52.1844C416.211 51.2396 415.452 50.4736 414.516 50.4736Z" fill="white"/>
<path id="Vector_70" d="M427.997 50.4736H424.103C423.167 50.4736 422.408 51.2396 422.408 52.1844V56.1154C422.408 57.0603 423.167 57.8262 424.103 57.8262H427.997C428.933 57.8262 429.692 57.0603 429.692 56.1154V52.1844C429.692 51.2396 428.933 50.4736 427.997 50.4736Z" fill="#A6CAE4"/>
<path id="Vector_71" d="M441.492 50.4736H437.597C436.661 50.4736 435.903 51.2396 435.903 52.1844V56.1154C435.903 57.0603 436.661 57.8262 437.597 57.8262H441.492C442.428 57.8262 443.187 57.0603 443.187 56.1154V52.1844C443.187 51.2396 442.428 50.4736 441.492 50.4736Z" fill="white"/>
<path id="Vector_72" d="M454.973 50.4736H451.079C450.143 50.4736 449.384 51.2396 449.384 52.1844V56.1154C449.384 57.0603 450.143 57.8262 451.079 57.8262H454.973C455.909 57.8262 456.668 57.0603 456.668 56.1154V52.1844C456.668 51.2396 455.909 50.4736 454.973 50.4736Z" fill="#A6CAE4"/>
<path id="Vector_73" d="M468.455 50.4736H464.561C463.624 50.4736 462.866 51.2396 462.866 52.1844V56.1154C462.866 57.0603 463.624 57.8262 464.561 57.8262H468.455C469.391 57.8262 470.15 57.0603 470.15 56.1154V52.1844C470.15 51.2396 469.391 50.4736 468.455 50.4736Z" fill="white"/>
<path id="Vector_74" d="M481.937 50.4736H478.042C477.106 50.4736 476.347 51.2396 476.347 52.1844V56.1154C476.347 57.0603 477.106 57.8262 478.042 57.8262H481.937C482.873 57.8262 483.631 57.0603 483.631 56.1154V52.1844C483.631 51.2396 482.873 50.4736 481.937 50.4736Z" fill="white"/>
<path id="Vector_75" d="M495.418 50.4736H491.524C490.588 50.4736 489.829 51.2396 489.829 52.1844V56.1154C489.829 57.0603 490.588 57.8262 491.524 57.8262H495.418C496.354 57.8262 497.113 57.0603 497.113 56.1154V52.1844C497.113 51.2396 496.354 50.4736 495.418 50.4736Z" fill="white"/>
<path id="Vector_76" d="M455.452 35.6377H451.558C450.622 35.6377 449.863 36.4037 449.863 37.3485V41.2795C449.863 42.2243 450.622 42.9903 451.558 42.9903H455.452C456.388 42.9903 457.147 42.2243 457.147 41.2795V37.3485C457.147 36.4037 456.388 35.6377 455.452 35.6377Z" fill="white"/>
<path id="Vector_77" d="M468.947 35.6377H465.052C464.116 35.6377 463.357 36.4037 463.357 37.3485V41.2795C463.357 42.2243 464.116 42.9903 465.052 42.9903H468.947C469.883 42.9903 470.641 42.2243 470.641 41.2795V37.3485C470.641 36.4037 469.883 35.6377 468.947 35.6377Z" fill="#A6CAE4"/>
<path id="Vector_78" d="M482.428 35.6377H478.534C477.598 35.6377 476.839 36.4037 476.839 37.3485V41.2795C476.839 42.2243 477.598 42.9903 478.534 42.9903H482.428C483.364 42.9903 484.123 42.2243 484.123 41.2795V37.3485C484.123 36.4037 483.364 35.6377 482.428 35.6377Z" fill="white"/>
<path id="Vector_79" d="M468.455 66.4194H464.561C463.624 66.4194 462.866 67.1854 462.866 68.1302V72.0612C462.866 73.0061 463.624 73.772 464.561 73.772H468.455C469.391 73.772 470.15 73.0061 470.15 72.0612V68.1302C470.15 67.1854 469.391 66.4194 468.455 66.4194Z" fill="white"/>
<path id="Vector_80" d="M481.937 66.4194H478.042C477.106 66.4194 476.347 67.1854 476.347 68.1302V72.0612C476.347 73.0061 477.106 73.772 478.042 73.772H481.937C482.873 73.772 483.631 73.0061 483.631 72.0612V68.1302C483.631 67.1854 482.873 66.4194 481.937 66.4194Z" fill="#A6CAE4"/>
<path id="Vector_81" fill-rule="evenodd" clip-rule="evenodd" d="M137.381 170.061C139.259 168.179 141.799 167.123 144.445 167.123C147.092 167.123 149.631 168.179 151.51 170.061L152.467 171.04L153.437 170.061C155.316 168.179 157.855 167.123 160.502 167.123C163.148 167.123 165.687 168.179 167.566 170.061C169.43 171.957 170.477 174.52 170.477 177.191C170.477 179.863 169.43 182.426 167.566 184.322L166.582 185.301L152.441 199.563L138.338 185.301L137.381 184.322C135.516 182.426 134.47 179.863 134.47 177.191C134.47 174.52 135.516 171.957 137.381 170.061Z" fill="white"/>
<path id="Vector_82" fill-rule="evenodd" clip-rule="evenodd" d="M118.31 337.603C107.96 326.947 100.197 340.477 101.31 354.059C102.332 366.935 113.329 411.116 111.298 429.7H115.503C125.801 405.866 131.572 351.238 118.31 337.603Z" fill="#63A9BA"/>
<path id="Vector_83" fill-rule="evenodd" clip-rule="evenodd" d="M113.95 429.7C123.977 392.14 111.285 340.202 111.246 340.032C111.233 339.95 111.203 339.872 111.159 339.802C111.114 339.732 111.056 339.672 110.987 339.626C110.918 339.58 110.841 339.549 110.76 339.535C110.679 339.521 110.596 339.524 110.516 339.544C110.436 339.564 110.361 339.6 110.295 339.651C110.23 339.702 110.176 339.766 110.136 339.838C110.097 339.911 110.073 339.992 110.066 340.075C110.058 340.157 110.068 340.241 110.095 340.319C110.095 340.489 122.839 392.48 112.682 429.7H113.95Z" fill="#80B9C9"/>
<path id="Vector_84" fill-rule="evenodd" clip-rule="evenodd" d="M92.7446 361.071C81.8248 355.234 79.069 367.967 83.3257 378.519C86.8578 387.256 102.448 413.101 108.335 429.7H113.886C114.364 406.754 105.631 367.967 92.7446 361.071Z" fill="white"/>
<path id="Vector_85" fill-rule="evenodd" clip-rule="evenodd" d="M111.854 429.7C108.244 398.67 87.8021 364.937 87.7245 364.806C87.6963 364.739 87.6541 364.679 87.6007 364.629C87.5473 364.58 87.484 364.542 87.4151 364.52C87.3462 364.497 87.2733 364.49 87.2013 364.499C87.1293 364.507 87.06 364.531 86.9981 364.569C86.9361 364.607 86.883 364.658 86.8422 364.718C86.8015 364.779 86.7742 364.847 86.7621 364.919C86.75 364.991 86.7534 365.065 86.7721 365.136C86.7909 365.207 86.8244 365.272 86.8706 365.329C86.9482 365.446 107.261 398.971 110.871 429.7H111.854Z" fill="#B8B8C1"/>
<path id="Vector_86" fill-rule="evenodd" clip-rule="evenodd" d="M138.895 375.802C149.478 371.127 151.16 383.207 146.464 392.78C143.281 399.218 131.818 415.713 124.094 429.752H115.283C118.297 408.465 127.962 380.621 138.895 375.802Z" fill="#3A7F80"/>
<path id="Vector_87" fill-rule="evenodd" clip-rule="evenodd" d="M118.427 429.7C125.944 403.972 143.242 379.734 143.32 379.642C143.397 379.556 143.502 379.501 143.617 379.489C143.731 379.476 143.846 379.507 143.94 379.575C144.033 379.643 144.098 379.744 144.122 379.858C144.146 379.971 144.128 380.09 144.07 380.191C144.07 380.282 126.875 404.273 119.384 429.7H118.427Z" fill="#51A5A5"/>
<path id="Vector_88" d="M133.422 419.683H96.8329C95.7325 419.683 94.8405 420.584 94.8405 421.694V430.81C94.8405 431.921 95.7325 432.821 96.8329 432.821H133.422C134.522 432.821 135.414 431.921 135.414 430.81V421.694C135.414 420.584 134.522 419.683 133.422 419.683Z" fill="#2F365C"/>
<path id="Vector_89" fill-rule="evenodd" clip-rule="evenodd" d="M103.108 427.101H127.147L133.422 432.821L128.299 452.75H115.128H101.957L96.833 432.821L103.108 427.101Z" fill="#2F365C"/>
<path id="Vector_90" fill-rule="evenodd" clip-rule="evenodd" d="M133.422 432.821L132.374 436.922H97.881L96.833 432.821H133.422Z" fill="#121C39"/>
<path id="Vector_91" d="M307.505 54.0256C309.384 54.0256 310.907 52.4879 310.907 50.5909C310.907 48.694 309.384 47.1562 307.505 47.1562C305.625 47.1562 304.102 48.694 304.102 50.5909C304.102 52.4879 305.625 54.0256 307.505 54.0256Z" fill="#A6CAE4"/>
<path id="Vector_92" d="M362.893 250.704C364.772 250.704 366.295 249.167 366.295 247.27C366.295 245.373 364.772 243.835 362.893 243.835C361.013 243.835 359.49 245.373 359.49 247.27C359.49 249.167 361.013 250.704 362.893 250.704Z" fill="#A6CAE4"/>
<path id="Vector_93" d="M431.892 393.916C433.771 393.916 435.295 392.378 435.295 390.482C435.295 388.585 433.771 387.047 431.892 387.047C430.013 387.047 428.489 388.585 428.489 390.482C428.489 392.378 430.013 393.916 431.892 393.916Z" fill="#A6CAE4"/>
<path id="Vector_94" d="M35.4027 366.452C37.282 366.452 38.8055 364.914 38.8055 363.017C38.8055 361.12 37.282 359.583 35.4027 359.583C33.5235 359.583 32 361.12 32 363.017C32 364.914 33.5235 366.452 35.4027 366.452Z" fill="#A6CAE4"/>
<path id="Vector_95" fill-rule="evenodd" clip-rule="evenodd" d="M443.562 158.49C444.235 158.49 444.893 158.289 445.452 157.911C446.012 157.534 446.448 156.997 446.706 156.37C446.963 155.742 447.031 155.051 446.899 154.385C446.768 153.719 446.444 153.107 445.968 152.627C445.492 152.146 444.886 151.819 444.226 151.687C443.566 151.554 442.882 151.622 442.26 151.882C441.638 152.142 441.107 152.582 440.733 153.147C440.359 153.712 440.159 154.376 440.159 155.055C440.159 155.966 440.518 156.84 441.156 157.484C441.794 158.128 442.66 158.49 443.562 158.49Z" fill="#A6CAE4"/>
<path id="Vector_96" d="M137.433 135.936C139.312 135.936 140.836 134.399 140.836 132.502C140.836 130.605 139.312 129.067 137.433 129.067C135.554 129.067 134.03 130.605 134.03 132.502C134.03 134.399 135.554 135.936 137.433 135.936Z" fill="#A6CAE4"/>
<path id="Vector_97" d="M129.178 333.097C131.058 333.097 132.581 331.56 132.581 329.663C132.581 327.766 131.058 326.228 129.178 326.228C127.299 326.228 125.776 327.766 125.776 329.663C125.776 331.56 127.299 333.097 129.178 333.097Z" fill="white"/>
<path id="Vector_98" d="M454.249 315.937C456.128 315.937 457.652 314.4 457.652 312.503C457.652 310.606 456.128 309.068 454.249 309.068C452.37 309.068 450.846 310.606 450.846 312.503C450.846 314.4 452.37 315.937 454.249 315.937Z" fill="white"/>
<path id="Vector_99" fill-rule="evenodd" clip-rule="evenodd" d="M386.22 170.753C386.893 170.753 387.551 170.552 388.111 170.174C388.67 169.797 389.106 169.26 389.364 168.633C389.621 168.005 389.689 167.315 389.558 166.648C389.426 165.982 389.102 165.37 388.626 164.89C388.15 164.409 387.544 164.082 386.884 163.95C386.224 163.817 385.54 163.885 384.918 164.145C384.296 164.405 383.765 164.845 383.391 165.41C383.017 165.975 382.818 166.639 382.818 167.318C382.818 168.229 383.176 169.103 383.814 169.747C384.452 170.391 385.318 170.753 386.22 170.753Z" fill="white"/>
<path id="Vector_100" d="M358.52 43.7351C360.399 43.7351 361.922 42.1973 361.922 40.3004C361.922 38.4035 360.399 36.8657 358.52 36.8657C356.64 36.8657 355.117 38.4035 355.117 40.3004C355.117 42.1973 356.64 43.7351 358.52 43.7351Z" fill="white"/>
<path id="Vector_101" d="M495.547 130.046C497.427 130.046 498.95 128.508 498.95 126.611C498.95 124.715 497.427 123.177 495.547 123.177C493.668 123.177 492.145 124.715 492.145 126.611C492.145 128.508 493.668 130.046 495.547 130.046Z" fill="white"/>
<path id="Vector_102" fill-rule="evenodd" clip-rule="evenodd" d="M441.272 419.709C443.846 419.708 446.341 420.609 448.332 422.257C450.322 423.905 451.685 426.198 452.187 428.747C452.69 431.295 452.302 433.94 451.089 436.232C449.876 438.524 447.913 440.321 445.535 441.316C443.157 442.311 440.511 442.442 438.047 441.689C435.584 440.935 433.455 439.342 432.025 437.182C430.594 435.022 429.95 432.428 430.201 429.842C430.453 427.256 431.586 424.838 433.406 423C434.436 421.954 435.662 421.124 437.012 420.559C438.362 419.994 439.81 419.705 441.272 419.709ZM446.059 426.095C444.95 424.981 443.492 424.288 441.934 424.137C440.376 423.985 438.814 424.384 437.515 425.264C436.215 426.144 435.258 427.452 434.806 428.965C434.354 430.478 434.436 432.101 435.038 433.56C435.639 435.019 436.723 436.222 438.105 436.964C439.486 437.707 441.08 437.943 442.615 437.633C444.149 437.322 445.53 436.484 446.521 435.262C447.513 434.039 448.053 432.507 448.052 430.927C448.05 430.028 447.872 429.138 447.528 428.309C447.184 427.479 446.68 426.727 446.046 426.095H446.059Z" fill="#A62A34"/>
<path id="Vector_103" fill-rule="evenodd" clip-rule="evenodd" d="M423.56 452.92C428.181 452.906 432.609 451.047 435.877 447.748C439.145 444.45 440.987 439.98 441 435.315V416.967C441.002 416.761 440.963 416.558 440.887 416.368C440.81 416.178 440.697 416.005 440.554 415.859C440.411 415.714 440.24 415.598 440.053 415.519C439.865 415.44 439.664 415.399 439.461 415.399H407.659C407.249 415.403 406.858 415.569 406.569 415.863C406.281 416.157 406.119 416.553 406.119 416.967V435.315C406.133 439.98 407.975 444.45 411.242 447.748C414.51 451.047 418.938 452.906 423.56 452.92Z" fill="#D84F50"/>
<path id="Vector_104" fill-rule="evenodd" clip-rule="evenodd" d="M435.036 433.108C435.038 434.941 434.75 436.762 434.182 438.502C433.887 439.46 433.501 440.387 433.03 441.271C431.124 444.914 428.024 447.776 424.258 449.368C421.249 450.629 417.95 451.013 414.736 450.478C417.696 452.249 421.113 453.09 424.549 452.892C427.985 452.694 431.285 451.467 434.026 449.368C436.734 447.324 438.794 444.529 439.952 441.323C440.644 439.397 440.998 437.364 441 435.315V416.967C441.002 416.761 440.963 416.558 440.887 416.368C440.81 416.178 440.697 416.005 440.554 415.859C440.411 415.714 440.24 415.598 440.053 415.519C439.865 415.44 439.664 415.399 439.46 415.399H435.036V433.108Z" fill="#A62A34"/>
<path id="Vector_105" fill-rule="evenodd" clip-rule="evenodd" d="M408.448 452.92H438.671C439.288 452.916 439.878 452.668 440.314 452.227C440.75 451.787 440.997 451.191 441 450.569C440.997 449.947 440.75 449.351 440.314 448.911C439.878 448.47 439.288 448.222 438.671 448.218H408.448C407.831 448.222 407.241 448.47 406.805 448.911C406.369 449.351 406.122 449.947 406.119 450.569C406.122 451.191 406.369 451.787 406.805 452.227C407.241 452.668 407.831 452.916 408.448 452.92Z" fill="#D84F50"/>
<path id="Vector_106" d="M414.645 421.72C414.645 420.083 413.33 418.756 411.708 418.756C410.086 418.756 408.771 420.083 408.771 421.72V432.338C408.771 433.975 410.086 435.302 411.708 435.302C413.33 435.302 414.645 433.975 414.645 432.338V421.72Z" fill="#DE7272"/>
<path id="Vector_107" fill-rule="evenodd" clip-rule="evenodd" d="M408.668 393.694H421.955C422.44 393.695 422.906 393.501 423.25 393.156C423.594 392.811 423.789 392.343 423.793 391.853C423.789 391.362 423.595 390.893 423.251 390.546C422.907 390.199 422.442 390.002 421.955 389.999H404.075C402.807 389.992 401.594 389.48 400.697 388.576C399.801 387.671 399.295 386.446 399.288 385.167C399.291 383.886 399.797 382.659 400.694 381.754C401.591 380.848 402.806 380.338 404.075 380.334H450.587C451.856 380.338 453.072 380.848 453.969 381.754C454.866 382.659 455.371 383.886 455.375 385.167C455.368 386.446 454.861 387.671 453.965 388.576C453.069 389.48 451.855 389.992 450.587 389.999H434.402C433.916 390.002 433.45 390.199 433.106 390.546C432.763 390.893 432.568 391.362 432.565 391.853C432.568 392.343 432.763 392.811 433.107 393.156C433.451 393.501 433.917 393.695 434.402 393.694H440.638C441.618 393.698 442.558 394.093 443.251 394.792C443.944 395.492 444.335 396.44 444.338 397.43C444.335 398.418 443.944 399.365 443.25 400.062C442.556 400.76 441.617 401.152 440.638 401.152H430.288C428.341 401.158 426.475 401.942 425.099 403.332C423.722 404.721 422.945 406.604 422.939 408.569V411.978C422.935 412.441 422.752 412.884 422.427 413.212C422.103 413.539 421.664 413.725 421.205 413.728C420.746 413.725 420.307 413.539 419.983 413.212C419.658 412.884 419.475 412.441 419.471 411.978V405.448C419.468 404.296 419.013 403.192 418.206 402.377C417.398 401.562 416.304 401.103 415.163 401.099H408.694C407.715 401.099 406.775 400.708 406.082 400.01C405.388 399.312 404.997 398.366 404.993 397.377C405.01 396.401 405.404 395.47 406.09 394.783C406.776 394.095 407.701 393.705 408.668 393.694Z" fill="white"/>
</g>
</g>
</g>
<defs>
<clipPath id="clip0">
<rect width="550" height="481" fill="white"/>
</clipPath>
</defs>
</svg>
