<svg width="393" height="888" viewBox="0 0 393 888" fill="none" xmlns="http://www.w3.org/2000/svg">
<style>
.shaker {
  animation: shake 7s cubic-bezier(.36,.07,.19,.97) both infinite;
  transform: translate3d(0, 0, 0);
  backface-visibility: hidden;
  perspective: 1000px;
}

@keyframes shake {
  10%, 90% {
    transform: translate3d(-4px, 0, 0);
  }

  20%, 80% {
    transform: translate3d(9px, 0, 0);
  }

  30%, 50%, 70% {
    transform: translate3d(-14px, 0, 0);
  }

  40%, 60% {
    transform: translate3d(6px, 0, 0);
  }
}

.shaker1 {
  animation: shake1 7s cubic-bezier(.16,.87,.29,.71) both infinite;
  transform: translate3d(0, 0, 0);
  backface-visibility: hidden;
  perspective: 1000px;
}

@keyframes shake1 {
  15%, 85% {
    transform: translate3d(4px, 0, 0);
  }

  5%, 70% {
    transform: translate3d(-9px, 0, 0);
  }

  25%, 45%, 97% {
    transform: translate3d(14px, 0, 0);
  }

  35%, 65% {
    transform: translate3d(-16px, 0, 0);
  }
}

.shaker2 {
  animation: shake2 7s cubic-bezier(.16,.87,.29,.71) both infinite;
  transform: translate3d(0, 0, 0);
  backface-visibility: hidden;
  perspective: 1000px;
}

@keyframes shake2 {
  15%, 85% {
    transform: translate3d(0,4px, 0);
  }

  5%, 70% {
    transform: translate3d(0,-9px, 0);
  }

  25%, 45%, 97% {
    transform: translate3d(0,14px, 0);
  }

  35%, 65% {
    transform: translate3d(-16px, 0, 0);
  }
}

.shaker3 {
  animation: shake3 7s cubic-bezier(.19,.68,.59,.1) both infinite;
  transform: translate3d(0, 0, 0);
  backface-visibility: hidden;
  perspective: 1000px;
}

@keyframes shake3 {
  15%, 85% {
    transform: translate3d(-7px,7px, 0);
  }

  5%, 70% {
    transform: translate3d(20px,-11px, 0);
  }

  25%, 45%, 97% {
    transform: translate3d(-15px,4px, 0);
  }

  35%, 65% {
    transform: translate3d(7px,-8px, 0, 0);
  }
}

.shaker4 {
  animation: shake4 7s cubic-bezier(.69,.78,.39,.91) both infinite;
  transform: translate3d(0, 0, 0);
  backface-visibility: hidden;
  perspective: 1000px;
}

@keyframes shake4 {
  15%, 85% {
    transform: translate3d(17px,-11px, 0);
  }

  5%, 70% {
    transform: translate3d(-14px,15px, 0);
  }

  25%, 45%, 97% {
    transform: translate3d(10px,-7px, 0);
  }

  35%, 65% {
    transform: translate3d(-9px,8px, 0, 0);
  }
}

</style>
<g id="Group 99">
<g id="aeroplane" class="shaker">
<g id="Group">
<path id="Vector" opacity="0.1" d="M229.66 702.39C230.162 701.965 230.162 701.169 229.66 700.736C227.528 698.926 222.127 694.91 217.278 695.941C213.59 696.72 204.268 699.957 197.312 702.45C187.705 683.145 169.219 654.586 151.477 628.581C155.515 625.681 159.453 622.816 163.274 620.011C166.284 621.968 170.281 621.933 173.282 619.605C176.167 617.362 177.337 613.605 176.56 610.168C181.961 606.125 187.053 602.256 191.802 598.612C194.419 600.404 197.955 600.421 200.597 598.369C203.231 596.326 204.209 592.82 203.281 589.729C214.995 580.57 223.548 573.619 227.804 570.122C229.426 568.788 229.877 566.858 228.724 566.122C223.849 563.015 211.199 556.513 197.27 561.897C194.695 562.894 191.116 564.443 186.885 566.356C184.36 562.92 179.586 562.227 176.25 564.824C173.851 566.693 172.831 569.775 173.366 572.649C167.822 575.282 161.895 578.146 156.008 581.021C152.94 578.381 148.392 578.146 145.072 580.735C142.756 582.536 141.552 585.314 141.569 588.119C136.619 590.569 131.987 592.872 127.982 594.872C117.882 580.639 110.199 570.13 107.95 567.031C98.803 554.427 84.949 547.398 78.042 552.774C71.136 558.14 73.795 573.879 82.942 586.483C85.191 589.582 92.833 600.117 103.259 614.089C100.283 617.518 96.846 621.491 93.193 625.742C90.601 624.945 87.683 625.37 85.367 627.17C82.047 629.75 80.994 634.338 82.591 638.13C78.285 643.186 73.979 648.275 69.991 653.055C67.474 651.721 64.33 651.877 61.931 653.746C58.595 656.344 57.909 661.278 60.392 664.75C57.441 668.42 55.008 671.554 53.369 673.839C44.498 686.193 47.007 700.581 48.528 706.294C48.888 707.645 50.802 707.731 52.491 706.493C56.923 703.238 65.752 696.668 77.507 687.569C80.116 689.344 83.644 689.352 86.27 687.31C88.912 685.258 89.882 681.734 88.945 678.635C93.652 674.93 98.652 670.94 103.911 666.697C106.879 668.437 110.692 668.316 113.577 666.074C116.578 663.737 117.724 659.772 116.745 656.24C120.449 653.184 124.237 650.042 128.091 646.795C147.321 671.597 168.684 697.879 183.859 712.864C179.595 719.106 173.909 727.598 172.137 731.087C169.837 735.624 172.053 742.107 173.132 744.739C173.391 745.362 174.127 745.578 174.662 745.198C177.831 742.947 188.056 735.494 199.736 725.079C203.591 729.65 206.86 732.412 207.805 731.676C208.741 730.949 207.111 726.958 203.975 721.885C203.975 721.85 203.984 721.816 203.984 721.772C216.926 713.012 226.692 704.909 229.66 702.39Z" fill="black"/>
<g id="Group 2">
<path id="Vector 2" d="M119.822 661.131C116.118 664.377 110.525 663.901 107.381 660.065L88.427 636.9C85.291 633.065 85.751 627.274 89.455 624.019C93.159 620.773 98.753 621.248 101.896 625.083L120.851 648.249C123.994 652.084 123.526 657.875 119.822 661.131Z" fill="#7DA5AD"/>
<path id="Vector 3" d="M93.7699 683.985C90.5759 686.79 85.7429 686.374 83.0339 683.067L66.6799 663.078C63.9709 659.772 64.3719 654.768 67.5659 651.963C70.7599 649.159 75.5929 649.574 78.3019 652.881L94.6559 672.869C97.3559 676.185 96.9629 681.18 93.7699 683.985Z" fill="#7DA5AD"/>
<path id="Vector 4" d="M176.794 611.154C180.498 607.908 180.958 602.109 177.822 598.273L158.868 575.108C155.733 571.272 150.131 570.796 146.427 574.043C142.723 577.289 142.263 583.089 145.398 586.924L164.353 610.09C167.496 613.925 173.09 614.401 176.794 611.154Z" fill="#7DA5AD"/>
<path id="Vector 5" d="M202.855 588.292C206.049 585.487 206.45 580.492 203.741 577.177L187.387 557.188C184.678 553.882 179.854 553.466 176.652 556.271C173.458 559.075 173.057 564.071 175.765 567.386L192.119 587.375C194.828 590.682 199.661 591.097 202.855 588.292Z" fill="#7DA5AD"/>
<path id="Vector 6" d="M197.262 695.966C197.262 695.966 184.578 716.5 181.961 722.474C179.921 727.14 182.504 733.485 183.733 736.038C184.026 736.645 184.77 736.818 185.289 736.403C188.499 733.822 199.251 724.967 211.091 712.873L197.262 695.966Z" fill="#B8F2FF"/>
<path id="Vector 7" d="M197.261 695.966C197.261 695.966 218.908 686.383 225.028 684.695C229.811 683.378 235.429 687.058 237.662 688.729C238.188 689.127 238.23 689.915 237.754 690.373C234.769 693.23 224.56 702.753 211.091 712.864L197.261 695.966Z" fill="#B8F2FF"/>
<path id="Vector 8" d="M116.411 597.156C116.411 597.156 70.593 656.058 60.15 672.54C51.998 685.413 55.309 699.628 57.157 705.237C57.592 706.562 59.506 706.536 61.128 705.194C71.237 696.796 105.191 668.151 143.927 630.779L116.411 597.156Z" fill="#B8F2FF"/>
<path id="Vector 9" d="M116.411 597.157C116.411 597.157 180.055 560.037 197.47 552.08C211.074 545.865 224.067 551.588 229.117 554.392C230.304 555.05 229.969 557.007 228.423 558.435C218.766 567.377 185.899 597.356 143.927 630.772L116.411 597.157Z" fill="#B8F2FF"/>
<path id="Vector 10" d="M108.602 562.616C118.443 574.64 224.719 703.376 212.244 714.319C200.313 724.785 94.5811 595.581 84.7401 583.548C74.8991 571.524 71.3541 555.977 77.9421 550.193C84.5221 544.411 98.7531 550.583 108.602 562.616Z" fill="white"/>
<path id="Vector 11" d="M87.6989 562.122C87.6989 562.122 92.2809 558.418 96.9049 559.309C101.528 560.209 103.535 563.023 103.535 563.023C103.535 563.023 98.2259 564.581 93.2679 568.926C88.3099 573.273 85.9519 578.44 85.9519 578.44C85.9519 578.44 83.6029 575.93 83.5019 571.056C83.4099 566.191 87.6989 562.122 87.6989 562.122Z" fill="#30CFF3"/>
<g id="Group 3">
<path id="Vector 12" d="M92.632 583.203C93.243 583.878 92.942 585.202 91.955 586.155C90.968 587.115 89.681 587.34 89.062 586.665C88.452 585.989 88.753 584.666 89.739 583.714C90.726 582.752 92.022 582.527 92.632 583.203Z" fill="#30CFF3"/>
<path id="Vector 13" d="M99.07 590.491C99.68 591.167 99.379 592.491 98.393 593.444C97.406 594.404 96.119 594.63 95.5 593.955C94.89 593.279 95.191 591.954 96.177 591.002C97.164 590.042 98.46 589.816 99.07 590.491Z" fill="#30CFF3"/>
<path id="Vector 14" d="M105.508 597.78C106.118 598.456 105.817 599.78 104.831 600.732C103.844 601.694 102.557 601.919 101.938 601.243C101.328 600.568 101.629 599.243 102.615 598.291C103.602 597.339 104.898 597.106 105.508 597.78Z" fill="#30CFF3"/>
<path id="Vector 15" d="M111.946 605.078C112.557 605.754 112.256 607.077 111.269 608.03C110.282 608.991 108.995 609.216 108.376 608.541C107.766 607.865 108.067 606.541 109.053 605.588C110.04 604.636 111.336 604.403 111.946 605.078Z" fill="#30CFF3"/>
<path id="Vector 16" d="M118.392 612.367C119.003 613.042 118.702 614.366 117.715 615.319C116.729 616.28 115.441 616.505 114.822 615.829C114.212 615.155 114.513 613.83 115.499 612.878C116.486 611.925 117.774 611.692 118.392 612.367Z" fill="#30CFF3"/>
<path id="Vector 17" d="M124.83 619.657C125.441 620.332 125.14 621.656 124.153 622.609C123.166 623.57 121.879 623.794 121.26 623.119C120.65 622.444 120.951 621.12 121.937 620.168C122.924 619.215 124.212 618.981 124.83 619.657Z" fill="#30CFF3"/>
<path id="Vector 18" d="M131.335 626.92C131.896 627.534 131.62 628.737 130.725 629.611C129.83 630.486 128.651 630.694 128.091 630.079C127.531 629.464 127.807 628.262 128.702 627.386C129.605 626.512 130.784 626.305 131.335 626.92Z" fill="#30CFF3"/>
<path id="Vector 19" d="M137.313 634.59C137.873 635.204 137.598 636.407 136.703 637.281C135.808 638.156 134.629 638.364 134.069 637.749C133.509 637.134 133.785 635.931 134.68 635.057C135.583 634.182 136.753 633.975 137.313 634.59Z" fill="#30CFF3"/>
<path id="Vector 20" d="M143.985 641.688C144.545 642.303 144.269 643.506 143.375 644.38C142.48 645.255 141.301 645.463 140.741 644.848C140.181 644.233 140.457 643.03 141.352 642.156C142.246 641.282 143.425 641.073 143.985 641.688Z" fill="#30CFF3"/>
<path id="Vector 21" d="M149.863 649.505C150.331 650.024 150.105 651.046 149.345 651.782C148.584 652.518 147.589 652.691 147.121 652.171C146.652 651.651 146.878 650.63 147.639 649.894C148.4 649.167 149.395 648.986 149.863 649.505Z" fill="#30CFF3"/>
<path id="Vector 22" d="M156.376 656.707C156.844 657.226 156.619 658.248 155.858 658.984C155.097 659.72 154.102 659.893 153.634 659.373C153.166 658.853 153.391 657.832 154.152 657.096C154.913 656.369 155.908 656.196 156.376 656.707Z" fill="#30CFF3"/>
<path id="Vector 23" d="M162.981 663.884C163.45 664.403 163.224 665.425 162.463 666.16C161.702 666.896 160.707 667.069 160.239 666.549C159.771 666.031 159.997 665.01 160.757 664.274C161.518 663.538 162.513 663.364 162.981 663.884Z" fill="#30CFF3"/>
<path id="Vector 24" d="M169.561 671.026C170.03 671.545 169.804 672.567 169.043 673.303C168.282 674.039 167.287 674.212 166.819 673.692C166.351 673.173 166.577 672.151 167.337 671.415C168.098 670.688 169.093 670.507 169.561 671.026Z" fill="#30CFF3"/>
<path id="Vector 25" d="M176.167 678.202C176.635 678.721 176.409 679.743 175.648 680.479C174.888 681.215 173.893 681.388 173.424 680.868C172.956 680.349 173.182 679.327 173.943 678.591C174.695 677.856 175.69 677.683 176.167 678.202Z" fill="#30CFF3"/>
<path id="Vector 26" d="M182.747 685.344C183.215 685.864 182.989 686.885 182.228 687.621C181.468 688.357 180.473 688.53 180.004 688.01C179.536 687.491 179.762 686.469 180.523 685.734C181.275 684.998 182.27 684.824 182.747 685.344Z" fill="#30CFF3"/>
<path id="Vector 27" d="M189.343 692.512C189.812 693.032 189.586 694.053 188.825 694.789C188.064 695.525 187.069 695.699 186.601 695.179C186.133 694.659 186.359 693.638 187.119 692.902C187.872 692.166 188.867 691.993 189.343 692.512Z" fill="#30CFF3"/>
</g>
<g id="Group 4">
<path id="Vector 28" d="M106.813 570.762C107.356 571.498 108.669 571.411 109.739 570.563C110.809 569.714 111.244 568.433 110.7 567.697C110.157 566.962 108.844 567.049 107.774 567.897C106.696 568.745 106.269 570.026 106.813 570.762Z" fill="#30CFF3"/>
<path id="Vector 29" d="M112.699 578.536C113.242 579.272 114.555 579.186 115.625 578.336C116.695 577.488 117.13 576.208 116.586 575.472C116.043 574.736 114.73 574.822 113.66 575.671C112.59 576.519 112.155 577.8 112.699 578.536Z" fill="#30CFF3"/>
<path id="Vector 30" d="M118.585 586.31C119.128 587.046 120.441 586.959 121.511 586.111C122.581 585.262 123.016 583.982 122.473 583.246C121.929 582.51 120.616 582.596 119.546 583.445C118.476 584.293 118.041 585.575 118.585 586.31Z" fill="#30CFF3"/>
<path id="Vector 31" d="M124.479 594.084C125.023 594.82 126.335 594.733 127.406 593.884C128.476 593.036 128.911 591.755 128.367 591.02C127.824 590.284 126.511 590.37 125.441 591.218C124.362 592.067 123.936 593.348 124.479 594.084Z" fill="#30CFF3"/>
<path id="Vector 32" d="M130.365 601.858C130.909 602.594 132.222 602.506 133.292 601.658C134.362 600.81 134.797 599.529 134.253 598.793C133.71 598.057 132.397 598.144 131.327 598.992C130.257 599.84 129.822 601.122 130.365 601.858Z" fill="#30CFF3"/>
<path id="Vector 33" d="M136.26 609.632C136.803 610.367 138.116 610.28 139.186 609.432C140.257 608.584 140.691 607.303 140.148 606.567C139.604 605.831 138.292 605.918 137.222 606.766C136.151 607.615 135.717 608.896 136.26 609.632Z" fill="#30CFF3"/>
<path id="Vector 34" d="M142.096 617.474C142.589 618.141 143.785 618.063 144.755 617.292C145.733 616.522 146.126 615.354 145.632 614.678C145.139 614.012 143.944 614.09 142.974 614.86C141.995 615.639 141.602 616.808 142.096 617.474Z" fill="#30CFF3"/>
<path id="Vector 35" d="M148.433 624.841C148.927 625.508 150.122 625.43 151.092 624.659C152.07 623.889 152.463 622.721 151.97 622.045C151.477 621.379 150.281 621.456 149.311 622.227C148.325 622.997 147.94 624.167 148.433 624.841Z" fill="#30CFF3"/>
<path id="Vector 36" d="M154.102 632.815C154.595 633.481 155.791 633.403 156.761 632.633C157.739 631.862 158.132 630.694 157.639 630.019C157.146 629.352 155.95 629.43 154.98 630.2C153.993 630.979 153.609 632.149 154.102 632.815Z" fill="#30CFF3"/>
<path id="Vector 37" d="M160.582 640.112C161 640.674 162.003 640.605 162.831 639.957C163.659 639.307 163.985 638.32 163.567 637.749C163.149 637.186 162.145 637.255 161.318 637.905C160.49 638.554 160.164 639.541 160.582 640.112Z" fill="#30CFF3"/>
<path id="Vector 38" d="M166.376 647.947C166.794 648.51 167.797 648.44 168.625 647.791C169.453 647.142 169.779 646.154 169.361 645.584C168.943 645.021 167.94 645.09 167.112 645.739C166.284 646.389 165.958 647.375 166.376 647.947Z" fill="#30CFF3"/>
<path id="Vector 39" d="M172.12 655.868C172.538 656.431 173.541 656.361 174.369 655.712C175.197 655.062 175.523 654.076 175.105 653.504C174.687 652.941 173.684 653.01 172.856 653.66C172.036 654.309 171.702 655.296 172.12 655.868Z" fill="#30CFF3"/>
<path id="Vector 40" d="M177.847 663.763C178.265 664.326 179.269 664.257 180.096 663.607C180.924 662.958 181.25 661.971 180.832 661.4C180.414 660.837 179.411 660.907 178.583 661.555C177.764 662.205 177.429 663.191 177.847 663.763Z" fill="#30CFF3"/>
<path id="Vector 41" d="M183.591 671.683C184.009 672.246 185.013 672.177 185.84 671.528C186.668 670.878 186.994 669.892 186.576 669.32C186.158 668.757 185.155 668.826 184.327 669.476C183.508 670.125 183.173 671.112 183.591 671.683Z" fill="#30CFF3"/>
<path id="Vector 42" d="M189.319 679.579C189.737 680.141 190.74 680.072 191.568 679.423C192.395 678.774 192.721 677.787 192.303 677.215C191.885 676.653 190.882 676.722 190.054 677.372C189.235 678.021 188.901 679.008 189.319 679.579Z" fill="#30CFF3"/>
<path id="Vector 43" d="M195.063 687.491C195.481 688.053 196.484 687.984 197.312 687.335C198.139 686.686 198.466 685.698 198.047 685.128C197.629 684.565 196.626 684.634 195.798 685.283C194.979 685.933 194.645 686.928 195.063 687.491Z" fill="#30CFF3"/>
</g>
<path id="Vector 44" d="M217.617 720.915C218.819 719.862 215.079 713.246 209.265 706.14C203.45 699.034 197.763 694.128 196.561 695.182C195.36 696.235 199.099 702.851 204.914 709.957C210.728 717.063 216.416 721.97 217.617 720.915Z" fill="#7DA5AD"/>
</g>
</g>
</g>
<g id="passport" class="shaker1">
<path id="PASSPORT" opacity="0.1" d="M339.781 826.078L333.193 828.207L332.475 825.615C332.113 824.309 332.521 823.466 333.697 823.087C334.977 822.672 336.006 823.312 336.783 825.005L336.112 825.408C335.549 824.161 334.838 823.677 333.978 823.955C333.247 824.191 332.988 824.694 333.201 825.463L333.669 827.152L339.552 825.251L339.781 826.078ZM338.157 820.217L338.395 821.075L331.056 820.492L330.802 819.576L336.634 814.719L336.887 815.635L335.044 817.133L335.629 819.247L334.875 819.243L334.429 817.633L331.775 819.792L338.157 820.217ZM336.187 814.011L335.403 814.264C335.463 813.514 335.386 812.75 335.17 811.972C334.865 810.873 334.298 810.458 333.469 810.726C332.763 810.954 332.522 811.474 332.747 812.284L332.974 813.107C333.345 814.445 332.932 815.307 331.734 815.694C330.475 816.102 329.608 815.449 329.133 813.735C328.927 812.99 328.827 812.268 328.834 811.567L329.617 811.314C329.549 812.034 329.618 812.766 329.824 813.511C330.146 814.674 330.706 815.126 331.505 814.867C332.211 814.639 332.455 814.131 332.237 813.345L332.01 812.522C331.632 811.16 332.042 810.286 333.24 809.899C334.53 809.481 335.404 810.099 335.861 811.749C336.076 812.527 336.185 813.281 336.187 814.011ZM334.589 808.245L333.806 808.498C333.866 807.748 333.788 806.984 333.572 806.207C333.268 805.107 332.701 804.691 331.872 804.959C331.165 805.188 330.924 805.707 331.149 806.517L331.377 807.341C331.748 808.678 331.334 809.541 330.136 809.928C328.877 810.335 328.01 809.683 327.536 807.968C327.329 807.223 327.229 806.501 327.236 805.801L328.019 805.547C327.951 806.268 328.02 807 328.227 807.745C328.549 808.908 329.109 809.359 329.907 809.102C330.614 808.872 330.858 808.366 330.64 807.579L330.412 806.756C330.035 805.394 330.445 804.52 331.642 804.132C332.932 803.716 333.806 804.333 334.263 805.983C334.479 806.761 334.587 807.515 334.589 808.245ZM333.197 802.315L326.609 804.445L325.891 801.852C325.529 800.547 325.937 799.705 327.113 799.324C328.393 798.91 329.422 799.55 330.199 801.244L329.528 801.645C328.965 800.399 328.254 799.915 327.394 800.192C326.663 800.429 326.404 800.931 326.617 801.7L327.085 803.39L332.968 801.488L333.197 802.315ZM328.14 797.087C329.918 796.513 330.591 795.446 330.159 793.887C329.736 792.361 328.636 791.887 326.858 792.461C325.104 793.028 324.439 794.074 324.861 795.6C325.293 797.159 326.386 797.655 328.14 797.087ZM328.409 797.95C326.176 798.672 324.763 797.963 324.17 795.824C323.587 793.717 324.411 792.302 326.644 791.58C328.864 790.862 330.266 791.557 330.85 793.664C331.443 795.804 330.629 797.233 328.409 797.95ZM350.248 822.692L343.661 824.823L342.905 822.095C342.568 820.88 342.926 820.102 343.98 819.761C344.837 819.484 345.636 819.874 346.377 820.93L348.873 817.731L349.175 818.821L346.777 821.813L346.22 821.993C345.681 820.836 345.028 820.381 344.261 820.63C343.653 820.827 343.443 821.264 343.631 821.944L344.136 823.768L350.019 821.865L350.248 822.692ZM340.848 814.671L341.539 814.448L342.096 816.459L347.993 814.553L348.222 815.38L342.325 817.286L342.883 819.298L342.192 819.521L340.848 814.671Z" fill="black"/>
<path id="Vector 45" opacity="0.1" d="M378.246 845.514L376.532 839.324L374.283 831.221L354.567 760.07L240.273 797.026L240.883 799.216L233.534 801.588L261.251 876.938L263.416 882.825C264.771 886.503 269.01 888.469 272.889 887.222L373.137 854.803C373.873 854.568 374.542 854.231 375.135 853.815C377.769 852.015 379.124 848.673 378.246 845.514Z" fill="black"/>
<g id="Group 5">
<path id="Vector 46" d="M243.606 866.678L245.529 872.65C246.733 876.39 250.889 878.537 254.818 877.456L356.304 849.477C360.233 848.394 362.441 844.49 361.237 840.75L359.314 834.777L334.707 758.276L219 790.176L243.606 866.678Z" fill="#B5414E"/>
<g id="Group 6">
<path id="Vector 47" d="M341.639 754L360.325 834.154L244.618 866.054L225.923 785.9L341.639 754Z" fill="#FA5A6B"/>
<path id="Vector 48" d="M360.325 834.154L361.788 840.413C362.7 844.326 360.258 848.377 356.329 849.458L254.843 877.437C250.914 878.52 246.992 876.226 246.081 872.313L244.618 866.054L360.325 834.154Z" fill="#D94E5D"/>
<g id="Group 7">
<g id="Group 8">
<path id="Vector 49" d="M284.859 839.492C298.19 832.08 303.473 815.421 296.66 802.283C289.846 789.146 273.515 784.504 260.184 791.917C246.853 799.33 241.569 815.988 248.383 829.126C255.197 842.264 271.527 846.905 284.859 839.492Z" stroke="white" stroke-miterlimit="10" stroke-linecap="round" stroke-linejoin="round"/>
<path id="Vector 50" d="M277.151 832.794C291.677 828.547 301.368 817.461 298.796 808.033C296.224 798.606 282.364 794.408 267.838 798.656C253.312 802.904 243.621 813.99 246.193 823.417C248.765 832.844 262.625 837.043 277.151 832.794Z" stroke="white" stroke-miterlimit="10" stroke-linecap="round" stroke-linejoin="round"/>
<path id="Vector 51" d="M270.737 808.027C285.319 804.01 297.944 804.184 298.939 808.425C299.925 812.668 288.906 819.367 274.324 823.384C259.743 827.401 247.118 827.228 246.123 822.986C245.136 818.744 256.156 812.044 270.737 808.027Z" stroke="white" stroke-miterlimit="10" stroke-linecap="round" stroke-linejoin="round"/>
<path id="Vector 52" d="M298.93 808.425L246.123 822.987" stroke="white" stroke-miterlimit="10" stroke-linecap="round" stroke-linejoin="round"/>
<path id="Vector 53" d="M278.152 842.182C287.804 839.985 293.113 826.359 290.011 811.749C286.909 797.137 276.57 787.073 266.918 789.27C257.267 791.467 251.958 805.092 255.06 819.703C258.162 834.315 268.501 844.379 278.152 842.182Z" stroke="white" stroke-miterlimit="10" stroke-linecap="round" stroke-linejoin="round"/>
<path id="Vector 54" d="M280.235 813.583C283.622 828.118 282.928 840.853 278.672 842.03C274.416 843.208 268.221 832.369 264.826 817.834C261.44 803.299 262.134 790.565 266.39 789.387C270.645 788.21 276.841 799.049 280.235 813.583Z" stroke="white" stroke-miterlimit="10" stroke-linecap="round" stroke-linejoin="round"/>
<path id="Vector 55" d="M278.664 842.03L266.39 789.388" stroke="white" stroke-miterlimit="10" stroke-linecap="round" stroke-linejoin="round"/>
</g>
</g>
<path id="Vector 56" d="M317.918 780.134L328.018 823.462C328.771 826.7 326.731 830.085 323.487 830.977C320.243 831.868 316.965 829.954 316.204 826.717L306.104 783.39C305.352 780.152 307.392 776.767 310.636 775.876C313.888 774.984 317.166 776.897 317.918 780.134Z" fill="white"/>
<path id="PASSPORT 2" d="M324.195 819.236L317.521 821.075L316.91 818.455C316.602 817.136 317.044 816.312 318.236 815.984C319.533 815.626 320.535 816.31 321.242 818.036L320.554 818.407C320.043 817.138 319.352 816.624 318.481 816.864C317.74 817.068 317.46 817.559 317.642 818.336L318.04 820.043L324 818.4L324.195 819.236ZM322.814 813.313L323.016 814.181L315.702 813.278L315.487 812.352L321.518 807.757L321.734 808.682L319.829 810.097L320.327 812.234L319.573 812.197L319.194 810.571L316.451 812.611L322.814 813.313ZM321.1 807.03L320.307 807.25C320.398 806.503 320.352 805.737 320.168 804.951C319.909 803.839 319.36 803.4 318.519 803.631C317.804 803.829 317.542 804.337 317.733 805.156L317.926 805.987C318.242 807.34 317.793 808.183 316.579 808.517C315.303 808.869 314.464 808.179 314.06 806.448C313.884 805.695 313.814 804.969 313.85 804.27L314.644 804.051C314.546 804.767 314.584 805.501 314.76 806.254C315.034 807.429 315.575 807.904 316.384 807.682C317.1 807.485 317.365 806.988 317.18 806.193L316.986 805.362C316.665 803.985 317.111 803.13 318.325 802.796C319.631 802.435 320.479 803.089 320.868 804.758C321.052 805.544 321.129 806.301 321.1 807.03ZM319.741 801.203L318.948 801.422C319.039 800.675 318.993 799.909 318.809 799.123C318.55 798.012 318.001 797.572 317.161 797.803C316.445 798.002 316.183 798.509 316.374 799.328L316.568 800.16C316.883 801.512 316.434 802.355 315.22 802.69C313.945 803.041 313.105 802.351 312.701 800.62C312.526 799.867 312.456 799.141 312.491 798.442L313.285 798.223C313.187 798.94 313.226 799.674 313.401 800.427C313.675 801.601 314.216 802.077 315.025 801.855C315.741 801.657 316.006 801.161 315.821 800.366L315.627 799.535C315.306 798.158 315.752 797.303 316.966 796.968C318.273 796.608 319.121 797.262 319.51 798.931C319.693 799.717 319.77 800.474 319.741 801.203ZM318.595 795.221L311.921 797.061L311.31 794.441C311.002 793.121 311.444 792.298 312.636 791.969C313.934 791.612 314.936 792.295 315.643 794.021L314.955 794.393C314.443 793.123 313.752 792.609 312.881 792.849C312.14 793.053 311.861 793.544 312.042 794.321L312.44 796.028L318.4 794.385L318.595 795.221ZM313.755 789.781C315.557 789.285 316.274 788.248 315.906 786.673C315.547 785.131 314.466 784.609 312.665 785.105C310.888 785.596 310.18 786.611 310.539 788.153C310.907 789.728 311.978 790.271 313.755 789.781ZM313.988 790.654C311.726 791.278 310.343 790.508 309.839 788.346C309.343 786.217 310.225 784.841 312.487 784.217C314.737 783.597 316.11 784.351 316.607 786.481C317.111 788.643 316.238 790.034 313.988 790.654ZM334.8 816.312L328.126 818.152L327.483 815.396C327.196 814.168 327.587 813.406 328.654 813.112C329.522 812.873 330.305 813.296 331.002 814.383L333.63 811.298L333.887 812.399L331.366 815.283L330.801 815.438C330.311 814.26 329.677 813.777 328.899 813.991C328.283 814.162 328.055 814.589 328.215 815.276L328.645 817.119L334.605 815.476L334.8 816.312ZM325.733 807.892L326.433 807.7L326.907 809.733L332.881 808.086L333.076 808.922L327.102 810.568L327.576 812.602L326.876 812.794L325.733 807.892Z" fill="#FA5A6B"/>
<path id="Vector 57" d="M327.283 779.633L336.471 819.056L331.823 820.337L322.634 780.914L327.283 779.633Z" fill="#D94E5D"/>
<path id="Vector 58" d="M336.597 782.819L343.269 811.43L338.62 812.711L331.948 784.1L336.597 782.819Z" fill="#D94E5D"/>
<path id="Vector 59" opacity="0.1" d="M244.618 866.054L244.275 864.574L358.419 825.955L360.325 834.154L244.618 866.054Z" fill="black"/>
</g>
</g>
</g>
<g id="camera" class="shaker2">
<path id="Vector 111" d="M45.1991 17.1941L38.9541 12.9609C35.9691 10.9352 35.1241 6.7453 37.0811 3.65482L37.4741 3.03152C39.4301 -0.0590535 43.4771 -0.933376 46.4621 1.09233L52.7081 5.32557C55.6921 7.35127 56.5371 11.5412 54.5801 14.6316L54.1871 15.2549C52.2311 18.3454 48.1841 19.2198 45.1991 17.1941Z" fill="#A7DCE8"/>
<path id="Vector 112" d="M117.906 60.1664L110.415 55.0849C108.676 53.9084 108.191 51.4752 109.328 49.6749L110.791 47.3549C111.928 45.5536 114.278 45.052 116.017 46.2295L123.508 51.311C125.247 52.4885 125.732 54.9207 124.595 56.721L123.132 59.042C121.995 60.8333 119.637 61.3439 117.906 60.1664Z" fill="#FA5A6B"/>
<path id="Vector 113" d="M119.11 67.3086L103.601 56.7901C101.318 55.2411 100.674 52.047 102.171 49.6829L102.347 49.4146C103.843 47.0515 106.928 46.3847 109.211 47.9347L124.72 58.4522C127.003 60.0022 127.647 63.1963 126.15 65.5603L125.975 65.8287C124.478 68.1917 121.393 68.8586 119.11 67.3086Z" fill="#A7DCE8"/>
<path id="Vector 114" d="M79.9141 52.4272L60.2161 39.0695C53.9121 34.793 52.1311 25.963 56.2611 19.4357L57.2141 17.9295C61.3451 11.4022 69.8731 9.5583 76.1771 13.8348L95.8751 27.1923C102.179 31.4688 103.96 40.2987 99.8301 46.826L98.8771 48.332C94.7471 54.8593 86.2101 56.7037 79.9141 52.4272Z" fill="#7DA5AD"/>
<path id="Vector 115" d="M126.403 65.1156L36.6879 4.2915L1.7959 59.4633L91.5109 120.288L126.403 65.1156Z" fill="#A7DCE8"/>
<path id="Vector 116" d="M93.275 121.517L0 58.271L25.509 17.9296C26.329 16.6398 28.001 16.2761 29.247 17.1245L118.007 77.3065C119.252 78.1555 119.604 79.8868 118.784 81.1764L93.275 121.517Z" fill="#B8F2FF"/>
<path id="Vector 117" d="M88.4421 35.296L72.9411 24.7866C71.5201 23.8257 71.1181 21.8346 72.0461 20.3629C72.9741 18.8912 74.8971 18.4757 76.3191 19.4366L91.8201 29.946C93.2411 30.907 93.6431 32.898 92.7151 34.3697C91.7871 35.8413 89.8641 36.2568 88.4421 35.296Z" fill="white"/>
<path id="Vector 118" d="M57.8989 94.1032C76.3699 90.1852 88.2769 71.5052 84.4929 52.3806C80.7089 33.256 62.668 20.9284 44.197 24.8463C25.725 28.7641 13.819 47.4442 17.603 66.5688C21.387 85.6934 39.4279 98.0212 57.8989 94.1032Z" fill="white"/>
<path id="Vector 119" d="M63.4751 90.5416C80.0521 83.4184 87.9141 63.7301 81.0341 46.566C74.1541 29.4016 55.1381 21.2618 38.5611 28.385C21.9831 35.5082 14.1222 55.1971 21.0022 72.3612C27.8812 89.5253 46.8971 97.6647 63.4751 90.5416Z" fill="#B8F2FF"/>
<path id="Vector 120" opacity="0.1" d="M53.464 90.2778C69.894 88.888 82.126 73.9708 80.784 56.959C79.442 39.9469 65.035 27.2823 48.604 28.6716C32.174 30.061 19.942 44.9786 21.284 61.9904C22.626 79.0023 37.033 91.6666 53.464 90.2778Z" fill="black"/>
<path id="Vector 121" d="M56.963 86.8627C71.568 83.4784 80.758 68.4761 77.49 53.3547C74.221 38.2324 59.732 28.7171 45.127 32.1013C30.522 35.4855 21.332 50.488 24.6 65.6094C27.869 80.7319 42.358 90.2471 56.963 86.8627Z" fill="#30CFF3"/>
<path id="Vector 122" d="M48.544 61.7764C54.879 61.7764 60.015 56.4596 60.015 49.9001C60.015 43.3401 54.879 38.0225 48.544 38.0225C42.208 38.0225 37.073 43.3401 37.073 49.9001C37.073 56.4596 42.208 61.7764 48.544 61.7764Z" fill="#98EBFC"/>
<path id="Vector 123" opacity="0.1" d="M65.8679 35.9967C53.3509 27.513 36.5539 31.1316 28.3599 44.0998C20.1669 57.0585 23.6619 74.4508 36.1859 82.9338C48.7029 91.4177 65.4999 87.799 73.6939 74.8313C81.8869 61.8717 78.3839 44.4803 65.8679 35.9967ZM38.5859 73.2733C28.9459 66.7369 26.2449 53.3447 32.5579 43.3637C38.8699 33.3823 51.8049 30.5862 61.4449 37.1221C71.0849 43.6581 73.786 57.0505 67.473 67.0313C61.161 77.0131 48.2259 79.8087 38.5859 73.2733Z" fill="black"/>
<path id="Vector 124" d="M111.92 68.7025L93.685 56.3406C92.18 55.3193 91.753 53.1986 92.74 51.6396C93.726 50.0816 95.775 49.64 97.28 50.6613L115.515 63.0232C117.02 64.0456 117.447 66.1663 116.46 67.7243C115.473 69.2823 113.433 69.7239 111.92 68.7025Z" fill="#7DA5AD"/>
<path id="Vector 125" d="M114.595 66.4513C113.968 67.4475 112.672 67.7239 111.711 67.0751C110.749 66.4252 110.482 65.0835 111.109 64.0882C111.736 63.0929 113.032 62.8156 113.993 63.4654C114.955 64.1233 115.222 65.456 114.595 66.4513Z" fill="#B8F2FF"/>
<path id="Vector 126" d="M109.035 62.6854C108.408 63.6807 107.112 63.958 106.151 63.3092C105.189 62.6594 104.922 61.3177 105.549 60.3224C106.176 59.3271 107.472 59.0497 108.433 59.6986C109.395 60.3564 109.662 61.6901 109.035 62.6854Z" fill="#B8F2FF"/>
<path id="Vector 127" d="M103.475 58.9195C102.848 59.9158 101.552 60.1922 100.591 59.5433C99.6291 58.8935 99.3621 57.5518 99.9891 56.5565C100.616 55.5612 101.912 55.2839 102.873 55.9337C103.835 56.5825 104.111 57.9243 103.475 58.9195Z" fill="#B8F2FF"/>
<path id="Vector 128" d="M97.915 55.1456C97.288 56.1409 95.992 56.4183 95.031 55.7684C94.069 55.1196 93.802 53.7779 94.429 52.7826C95.056 51.7863 96.352 51.51 97.313 52.1588C98.283 52.8166 98.551 54.1503 97.915 55.1456Z" fill="#B8F2FF"/>
<path id="Vector 129" d="M83.3839 99.7202C85.1569 96.9146 88.7849 96.1356 91.4859 97.971C94.1949 99.8063 94.9469 103.563 93.1749 106.36C91.4019 109.164 87.7729 109.943 85.0729 108.108C82.3719 106.273 81.6119 102.516 83.3839 99.7202Z" fill="white"/>
<path id="Vector 130" d="M85.2741 101.001C86.3611 99.2881 88.5851 98.8025 90.2481 99.9279C91.9041 101.053 92.3721 103.356 91.2851 105.071C90.1981 106.785 87.9741 107.269 86.3191 106.144C84.6551 105.027 84.1951 102.725 85.2741 101.001Z" fill="#FA5A6B"/>
<path id="Vector 131" d="M105.819 83.3732L91.4031 73.5996L88.9941 77.4085L103.41 87.1831L105.819 83.3732Z" fill="white"/>
<path id="Vector 132" d="M98.2409 80.9868C99.6959 78.6839 102.723 78.0691 105.005 79.6101C107.279 81.151 107.948 84.2761 106.485 86.579C105.03 88.881 102.004 89.4958 99.7209 87.9548C97.4469 86.4058 96.7859 83.2888 98.2409 80.9868Z" fill="white"/>
</g>
<g id="compass" class="shaker3">
<path id="Vector 133" opacity="0.1" d="M358.395 219.739C347.309 204.079 326.064 200.686 310.939 212.164C296.792 222.899 293.013 242.845 301.658 258.194L297.377 261.44C285.705 249.926 267.403 248.35 253.942 258.565C238.817 270.045 235.54 292.041 246.626 307.701C257.713 323.362 278.958 326.756 294.083 315.276C308.899 304.032 312.335 282.692 302.043 267.11L305.905 264.175C317.435 277.333 336.941 279.61 351.088 268.875C366.205 257.389 369.482 235.391 358.395 219.739ZM289.953 277.273C289.919 277.385 289.877 277.489 289.827 277.602C289.719 277.81 289.576 278 289.384 278.156L262.671 300.802C261.918 301.434 260.815 301.322 260.204 300.551L258.373 298.24C257.763 297.461 257.872 296.318 258.616 295.686L285.329 273.04C285.513 272.884 285.722 272.771 285.948 272.702C286.6 272.503 287.336 272.71 287.796 273.291L289.627 275.602C289.861 275.896 289.986 276.234 290.02 276.58C290.045 276.815 290.02 277.048 289.953 277.273Z" fill="black"/>
<g id="Group 33">
<path id="Vector 134" d="M294.39 254.96L298.384 261.12L307.603 254.712L303.609 248.552L294.39 254.96Z" fill="#BBCED9"/>
<path id="Vector 135" d="M331.986 269.292C350.727 268.595 365.373 252.3 364.7 232.895C364.027 213.491 348.289 198.325 329.548 199.023C310.807 199.72 296.16 216.015 296.833 235.419C297.506 254.823 313.245 269.988 331.986 269.292Z" fill="#D9F0FC"/>
<path id="Vector 136" opacity="0.1" d="M342.459 263.083C357.89 256.393 365.162 238.017 358.701 222.04C352.24 206.062 334.493 198.533 319.061 205.222C303.63 211.912 296.358 230.287 302.819 246.265C309.28 262.243 327.027 269.772 342.459 263.083Z" fill="black"/>
<path id="Vector 137" d="M343.315 257.868C355.96 250.69 360.592 234.257 353.66 221.164C346.728 208.071 330.857 203.275 318.211 210.453C305.566 217.63 300.934 234.063 307.866 247.156C314.798 260.249 330.669 265.045 343.315 257.868Z" fill="#30CFF3"/>
<g id="Group 34">
<path id="Vector 138" d="M341.665 251.691L328.087 236.022L330.771 234.161L333.455 232.3L342.317 251.25C342.51 251.665 341.966 252.047 341.665 251.691Z" fill="#F76A75"/>
<path id="Vector 139" d="M319.86 216.623L333.438 232.292L330.754 234.153L328.07 236.014L319.207 217.064C319.015 216.649 319.559 216.268 319.86 216.623Z" fill="#E0E2E3"/>
<path id="Vector 140" d="M317.677 242.913L329.517 232.23L330.762 234.153L332.008 236.074L317.978 243.381C317.694 243.528 317.435 243.129 317.677 242.913Z" fill="#E0E2E3"/>
<path id="Vector 141" d="M343.847 225.392L332.008 236.075L330.762 234.152L329.517 232.231L343.546 224.924C343.831 224.786 344.09 225.176 343.847 225.392Z" fill="#E0E2E3"/>
<path id="Vector 142" d="M327.251 236.594C325.947 234.586 326.465 231.867 328.405 230.517C330.344 229.167 332.97 229.703 334.274 231.711C335.578 233.72 335.06 236.438 333.12 237.789C331.18 239.139 328.555 238.602 327.251 236.594Z" fill="#F9FBFC"/>
<path id="Vector 143" d="M329.215 235.235C328.639 234.351 328.873 233.149 329.725 232.56C330.578 231.962 331.74 232.205 332.309 233.088C332.886 233.971 332.652 235.174 331.799 235.763C330.946 236.351 329.792 236.118 329.215 235.235Z" fill="#E0E2E3"/>
</g>
<path id="Vector 144" opacity="0.1" d="M356.38 239.373C359.165 224.726 349.951 210.511 335.796 207.628C321.641 204.745 307.92 214.286 305.136 228.941C302.352 243.597 311.566 257.803 325.721 260.686C339.876 263.56 353.596 254.021 356.38 239.373ZM311.474 229.929C313.806 217.627 325.336 209.62 337.217 212.035C349.098 214.45 356.832 226.388 354.499 238.689C352.166 250.991 340.637 258.998 328.756 256.583C316.875 254.168 309.141 242.229 311.474 229.929Z" fill="black"/>
<path id="Vector 145" d="M290.881 307.269C306.449 296.448 310.596 274.606 300.145 258.487C289.693 242.376 268.607 238.083 253.031 248.904C237.462 259.725 233.315 281.567 243.767 297.685C254.218 313.796 275.313 318.09 290.881 307.269ZM257.629 291.115L255.898 288.726C255.313 287.921 255.472 286.786 256.25 286.181L283.841 264.694C284.618 264.088 285.714 264.252 286.299 265.058L288.03 267.447C288.615 268.252 288.456 269.386 287.678 269.992L260.087 291.479C259.31 292.075 258.214 291.911 257.629 291.115Z" fill="#D9F0FC"/>
<path id="Vector 146" opacity="0.1" d="M288.841 304.126C302.728 294.474 306.432 274.988 297.11 260.6C287.787 246.221 268.967 242.386 255.071 252.038C241.183 261.691 237.479 281.178 246.802 295.565C256.124 309.953 274.953 313.788 288.841 304.126ZM257.629 291.115L255.898 288.726C255.313 287.921 255.472 286.787 256.25 286.181L283.841 264.694C284.618 264.089 285.714 264.253 286.299 265.058L288.03 267.447C288.615 268.253 288.456 269.386 287.678 269.992L260.087 291.479C259.31 292.077 258.214 291.911 257.629 291.115Z" fill="black"/>
<path id="Vector 147" d="M266.692 305.79C281.466 308.802 295.805 298.838 298.706 283.532C301.616 268.235 291.993 253.389 277.21 250.385C262.437 247.373 248.098 257.336 245.196 272.642C242.295 287.939 251.919 302.777 266.692 305.79ZM257.629 291.116L255.898 288.727C255.313 287.922 255.472 286.787 256.249 286.181L283.841 264.695C284.618 264.089 285.714 264.253 286.299 265.058L288.029 267.448C288.615 268.253 288.456 269.387 287.678 269.994L260.087 291.479C259.31 292.077 258.214 291.912 257.629 291.116Z" fill="#A9BBC4"/>
<path id="Vector 148" opacity="0.1" d="M291.006 265.318L289.091 262.687C287.896 261.042 285.63 260.712 284.041 261.951L253.624 285.635C252.036 286.874 251.718 289.22 252.914 290.864L254.828 293.496C255.539 294.475 256.618 294.985 257.713 294.985C258.465 294.985 259.226 294.743 259.878 294.24L290.295 270.556C291.065 269.958 291.566 269.084 291.7 268.097C291.826 267.092 291.583 266.114 291.006 265.318ZM287.67 269.993L260.079 291.479C259.301 292.085 258.206 291.92 257.621 291.115L255.89 288.726C255.305 287.921 255.464 286.787 256.241 286.181L283.832 264.694C284.61 264.089 285.705 264.253 286.291 265.059L288.021 267.448C288.607 268.253 288.448 269.386 287.67 269.993Z" fill="black"/>
<path id="Vector 149" opacity="0.1" d="M266.692 305.79C281.466 308.802 295.805 298.838 298.706 283.532C301.616 268.235 291.993 253.389 277.21 250.385C262.437 247.373 248.098 257.336 245.196 272.642C242.295 287.939 251.919 302.777 266.692 305.79ZM249.093 273.136C251.743 259.164 264.836 250.074 278.322 252.818C291.817 255.562 300.596 269.118 297.946 283.082C295.295 297.045 282.202 306.144 268.716 303.4C255.229 300.656 246.442 287.099 249.093 273.136Z" fill="black"/>
</g>
</g>
<g id="plant" class="shaker4">
<path id="Vector 171" opacity="0.1" d="M357.04 127.474C373.06 120.065 384.56 108.159 384.56 108.159C374.81 99.5082 365.56 94.1212 356.95 91.0673C355.44 85.8306 353.3 80.8742 350.62 76.2783C374.42 49.7241 375.45 22.7995 375.45 22.7995C375.45 22.7995 330.59 4.25568 303.94 35.0653C301.54 37.8389 299.49 40.7426 297.75 43.7264C295.16 43.5762 292.54 43.5562 289.88 43.7164C288.4 43.8065 286.93 43.9567 285.48 44.147C280.33 39.1405 273.52 34.6147 264.58 30.9801C264.58 30.9801 263.35 33.313 261.78 37.168C259.98 41.6037 257.73 48.052 256.39 55.3213C250.67 59.2965 245.64 64.1627 241.45 69.6998C217.76 70.2706 196 82.5163 196 82.5163C206.24 99.0375 217.38 109.141 228.36 114.988C228.94 121.847 230.55 128.375 233.04 134.443C229.65 140.511 227.09 147.97 225.78 157.132C225.78 157.132 237.33 160.016 250.91 159.255C263.42 170.059 279.98 176.197 297.77 175.125C297.98 175.115 298.18 175.085 298.39 175.075C315.34 188.503 338.54 187.862 344.17 187.471C344.99 187.411 345.46 187.361 345.46 187.361C345.46 187.361 349.72 180.572 339.24 156.982C347.59 148.962 353.8 138.819 357.04 127.474Z" fill="black"/>
<g id="Group 47">
<path id="Vector 172" d="M347.902 146.533C373.571 120.831 373.571 79.1607 347.902 53.4587C322.233 27.7566 280.616 27.7566 254.947 53.4587C229.278 79.1607 229.278 120.831 254.947 146.533C280.616 172.235 322.233 172.235 347.902 146.533Z" fill="#B8F2FF"/>
<path id="Vector 173" d="M301.43 161.847C335.55 161.847 363.21 134.153 363.21 99.988C363.21 65.824 335.55 38.1284 301.43 38.1284C267.31 38.1284 239.65 65.824 239.65 99.988C239.65 134.153 267.31 161.847 301.43 161.847Z" fill="#A7DCE8"/>
<path id="Vector 174" d="M301.43 152.556C330.425 152.556 353.93 129.021 353.93 99.9885C353.93 70.9562 330.425 47.4209 301.43 47.4209C272.435 47.4209 248.93 70.9562 248.93 99.9885C248.93 129.021 272.435 152.556 301.43 152.556Z" fill="#B09376"/>
<g id="Group 48">
<path id="Vector 175" d="M302.07 99.217C302.07 99.217 330.34 45.4979 276.94 19.9351C276.94 19.9351 238.28 83.3566 302.07 99.217Z" fill="#79B055"/>
<g id="Group 49" opacity="0.05">
<path id="Vector 176" opacity="0.05" d="M276.98 19.9053C279.49 22.4385 281.81 25.152 284.02 27.9656C286.18 30.8093 288.21 33.7631 290.1 36.797C293.86 42.8948 296.98 49.4032 299.35 56.1819C300.5 59.5863 301.45 63.0608 302.15 66.5853C302.86 70.1098 303.4 73.6744 303.52 77.269C303.64 79.0613 303.59 80.8637 303.59 82.656C303.57 83.5571 303.49 84.4483 303.45 85.3394C303.4 86.2305 303.35 87.1317 303.22 88.0129L302.86 90.6763L302.35 93.3097L302.09 94.6214L301.76 95.923L301.1 98.5163L301 98.4963C302.63 91.5774 303.3 84.4082 302.75 77.3191C302.67 75.5368 302.41 73.7845 302.21 72.0123C301.91 70.26 301.67 68.4978 301.27 66.7655C300.55 63.281 299.59 59.8566 298.42 56.4923C296.14 49.7536 293.05 43.3053 289.44 37.1775C285.8 31.0696 281.68 25.2221 276.91 19.9553L276.98 19.9053Z" fill="#222221"/>
</g>
<g id="Group 50" opacity="0.05">
<path id="Vector 177" opacity="0.05" d="M273.82 25.9531C273.31 29.3074 273.05 32.6818 272.89 36.0661C272.69 39.4405 272.62 42.8148 272.72 46.1791C272.91 52.9078 273.51 59.6465 275.17 66.1448C275.95 69.399 276.9 72.6131 278.21 75.6871C279.5 78.771 281.11 81.6948 282.92 84.4984C284.8 87.2519 287.01 89.7852 289.47 92.0581C291.92 94.3511 294.72 96.2535 297.66 97.9457L297.62 98.0358C294.61 96.4738 291.72 94.6715 289.14 92.4586C286.58 90.2258 284.28 87.7025 282.3 84.949C280.37 82.1554 278.73 79.1615 277.38 76.0475C276.02 72.9335 275.03 69.6693 274.21 66.3751C272.6 59.7766 272 52.9579 271.95 46.1791C271.95 39.3904 272.48 32.6017 273.73 25.9331L273.82 25.9531Z" fill="#222221"/>
</g>
<g id="Group 51" opacity="0.05">
<path id="Vector 178" opacity="0.05" d="M277.04 25.1519C278.79 27.6651 280.34 30.3085 281.87 32.9619C283.36 35.6353 284.76 38.3689 286.12 41.1124C288.8 46.6295 291.06 52.3468 293.12 58.1343C295.08 63.9518 296.67 69.9094 297.82 75.9372C299 81.9649 299.51 88.1228 299.54 94.2307H299.44L299.09 89.6648C299.03 88.9038 298.99 88.1429 298.9 87.3819L298.59 85.109C298.37 83.597 298.2 82.0851 297.93 80.5731L297.06 76.0773C295.77 70.1097 294.2 64.2021 292.17 58.4447C290.2 52.6673 287.95 46.9799 285.41 41.4328C282.86 35.8857 280.09 30.4286 276.95 25.2019L277.04 25.1519Z" fill="#222221"/>
</g>
<g id="Group 52" opacity="0.05">
<path id="Vector 179" opacity="0.05" d="M277.63 43.9766C278.18 45.889 278.67 47.8215 279.23 49.7239C279.74 51.6364 280.27 53.5489 280.84 55.4513C281.95 59.2562 283.02 63.0611 284.33 66.7859C285.51 70.5507 286.88 74.2555 288.42 77.8802C288.77 78.8014 289.18 79.6925 289.61 80.5836C290.03 81.4748 290.42 82.3859 290.91 83.237C291.37 84.1082 291.79 85.0093 292.3 85.8504C292.83 86.6815 293.35 87.5226 293.86 88.3837L293.78 88.4437C291.3 85.3197 289.41 81.7952 287.72 78.2006C286.03 74.6059 284.66 70.8611 283.39 67.0963C282.14 63.3214 281.06 59.4965 280.09 55.6416C279.12 51.7866 278.24 47.9116 277.53 43.9966L277.63 43.9766Z" fill="#222221"/>
</g>
<g id="Group 53" opacity="0.05">
<path id="Vector 180" opacity="0.05" d="M294.43 37.4282C295.71 38.7399 296.76 40.2318 297.82 41.7238C298.8 43.2657 299.74 44.8377 300.58 46.4698C301.46 48.0819 302.13 49.7941 302.81 51.4963L303.75 54.0796L304.56 56.713C304.83 57.5942 304.98 58.4953 305.19 59.3865C305.38 60.2876 305.6 61.1688 305.72 62.0799L306.15 64.7934C306.29 65.6946 306.32 66.6158 306.39 67.527C306.56 69.3493 306.51 71.1816 306.53 73.004C306.54 73.9151 306.41 74.8263 306.34 75.7375C306.27 76.6487 306.17 77.5498 306.07 78.451L305.97 78.441C305.98 76.6286 306.08 74.8263 306.01 73.014C305.91 71.2117 305.88 69.3993 305.63 67.607C305.3 64.0024 304.53 60.4578 303.6 56.9634C302.68 53.4689 301.39 50.0745 299.88 46.7903C298.35 43.5161 296.57 40.342 294.36 37.4883L294.43 37.4282Z" fill="#222221"/>
</g>
</g>
<g id="Group 54">
<path id="Vector 181" d="M301.43 102.341C301.43 102.341 287.54 55.5412 315.98 26.3937C344.43 -2.75376 388.09 18.4435 388.09 18.4435C388.09 18.4435 384.74 52.6675 349.06 79.9426C313.38 107.218 301.43 102.341 301.43 102.341Z" fill="#86C95B"/>
<g id="Group 55" opacity="0.05">
<path id="Vector 182" opacity="0.05" d="M388.09 18.4934C385.1 18.0629 382.12 17.6023 379.13 17.2118L374.62 16.8814C373.12 16.7912 371.62 16.591 370.12 16.6511C367.12 16.6711 364.11 16.4909 361.13 16.8413C359.64 16.9815 358.14 17.0316 356.66 17.2318L352.24 17.9828C346.42 19.2444 340.64 20.9366 335.44 23.8603C330.23 26.724 325.53 30.4788 321.56 34.8945C317.55 39.2802 314.25 44.3167 311.62 49.6836C308.97 55.0505 307.03 60.7478 305.47 66.5452C303.94 72.3527 302.92 78.3003 302.27 84.288C301.59 90.2757 301.24 96.3135 301.48 102.351L301.38 102.361C301 96.3235 301.21 90.2557 301.75 84.238C302.3 78.2202 303.25 72.2225 304.72 66.355C306.18 60.4874 308.16 54.73 310.8 49.283C313.44 43.836 316.75 38.7094 320.82 34.2237C324.88 29.7379 329.69 25.943 335.01 23.0593L339.09 21.0768C340.48 20.496 341.92 20.0254 343.34 19.4847C344.74 18.904 346.23 18.6036 347.69 18.2131C349.16 17.8626 350.6 17.392 352.11 17.2218C364.04 15.1391 376.31 15.9902 388.12 18.4133L388.09 18.4934Z" fill="#222221"/>
</g>
<g id="Group 56" opacity="0.05">
<path id="Vector 183" opacity="0.05" d="M307.04 75.3669C307.69 71.3518 308.78 67.4067 310.14 63.5618C311.55 59.7268 313.26 56.002 315.25 52.4274C319.25 45.2783 324.62 38.87 330.99 33.6633C337.45 28.5768 344.94 24.7819 352.86 22.6592C354.85 22.1786 356.83 21.6579 358.86 21.3675C359.87 21.2073 360.87 20.987 361.88 20.8869L364.92 20.5765C365.43 20.5364 365.93 20.4764 366.44 20.4463L367.97 20.4063L371.02 20.3262C373.05 20.3262 375.08 20.4563 377.11 20.5064V20.6065C369.01 20.3662 360.87 21.2073 353.07 23.4001C345.29 25.633 337.93 29.3578 331.61 34.4343C325.3 39.5108 320 45.819 315.92 52.818C313.87 56.3125 312.11 59.9872 310.63 63.752C309.15 67.5269 307.93 71.4118 307.14 75.387L307.04 75.3669Z" fill="#222221"/>
</g>
<g id="Group 57" opacity="0.05">
<path id="Vector 184" opacity="0.05" d="M306.64 85.1892C308.27 81.8148 310.1 78.5306 312 75.2865C313.96 72.0823 316.04 68.9483 318.21 65.8743C320.36 62.7904 322.72 59.8566 325.14 56.9729C327.58 54.0992 330.1 51.2956 332.76 48.6322C335.46 46.0088 338.27 43.4856 341.21 41.1125C344.17 38.7795 347.22 36.5366 350.46 34.5941C353.71 32.6716 357.08 30.9494 360.55 29.4976C364.07 28.1558 367.69 27.0845 371.36 26.3335L371.38 26.4336C367.75 27.3148 364.2 28.5163 360.75 29.9782C357.34 31.5102 354.04 33.2724 350.86 35.2449C347.71 37.2575 344.68 39.4604 341.77 41.8134C338.88 44.1864 336.11 46.7097 333.45 49.3431C328.15 54.6199 323.27 60.3272 318.82 66.3449C314.38 72.3627 310.26 78.6407 306.71 85.2392L306.64 85.1892Z" fill="#222221"/>
</g>
<g id="Group 58" opacity="0.05">
<path id="Vector 185" opacity="0.05" d="M300.98 100.679C305.22 97.9358 309.38 95.0521 313.49 92.1184C317.63 89.2246 321.72 86.2708 325.75 83.2369C329.77 80.183 333.8 77.1591 337.74 74.005C341.68 70.851 345.54 67.6169 349.34 64.3026C353.16 61.0184 356.88 57.614 360.51 54.1195C364.15 50.635 367.58 46.9503 370.97 43.2255C374.35 39.4907 377.49 35.5456 380.39 31.4303C383.31 27.335 385.97 23.0295 388.06 18.4136L388.15 18.4536C386.19 23.1296 383.64 27.5253 380.82 31.7207C377.98 35.9061 374.89 39.9212 371.55 43.7261C364.92 51.376 357.6 58.395 349.99 65.0435C342.35 71.662 334.38 77.9101 326.2 83.8577C318.01 89.7954 309.65 95.4827 301.02 100.759L300.98 100.679Z" fill="#222221"/>
</g>
<g id="Group 59" opacity="0.05">
<path id="Vector 186" opacity="0.05" d="M325.53 71.8323C327.45 70.5706 329.38 69.339 331.25 68.0173C333.15 66.7457 335.03 65.434 336.88 64.0923C340.58 61.4189 344.25 58.6954 347.74 55.7716C351.32 52.948 354.65 49.834 357.94 46.6799C359.54 45.0678 361.17 43.4558 362.65 41.7235C364.27 40.0914 365.59 38.2391 367.12 36.5068L367.2 36.5669C364.58 40.3418 361.68 43.9063 358.5 47.2306C355.29 50.5148 351.93 53.6489 348.37 56.5526C344.8 59.4463 341.11 62.1798 337.31 64.7531C333.5 67.3164 329.6 69.7496 325.57 71.9324L325.53 71.8323Z" fill="#222221"/>
</g>
</g>
<g id="Group 60">
<path id="Vector 187" d="M348.31 180.883C348.31 180.883 310.59 182.836 293.85 156.081C277.11 129.327 301 100.27 301 100.27C301 100.27 326.13 109.021 340.14 140.892C354.14 172.763 348.31 180.883 348.31 180.883Z" fill="#79B055"/>
<g id="Group 61" opacity="0.05">
<path id="Vector 188" opacity="0.05" d="M301.04 100.298C300.19 102.481 299.31 104.644 298.49 106.837L297.44 110.181C297.11 111.303 296.69 112.394 296.47 113.535C295.95 115.808 295.27 118.031 295 120.344C294.84 121.496 294.6 122.627 294.5 123.779L294.27 127.243C294.18 131.849 294.4 136.495 295.65 140.921C296.86 145.346 298.82 149.552 301.41 153.327C303.96 157.131 307.13 160.526 310.67 163.48C314.21 166.453 318.13 168.947 322.18 171.19C326.25 173.412 330.53 175.275 334.9 176.867C339.26 178.499 343.73 179.891 348.31 180.842L348.29 180.942C343.68 180.131 339.16 178.869 334.73 177.367C330.3 175.856 325.97 174.053 321.82 171.88C313.55 167.555 305.87 161.687 300.58 153.887C297.95 150.012 295.97 145.687 294.76 141.151C293.53 136.605 293.28 131.869 293.49 127.193C294.1 117.811 296.98 108.719 300.95 100.258L301.04 100.298Z" fill="#222221"/>
</g>
<g id="Group 62" opacity="0.05">
<path id="Vector 189" opacity="0.05" d="M329.04 171.762C326.12 170.57 323.34 169.048 320.67 167.346C318.03 165.594 315.52 163.641 313.18 161.488C308.5 157.173 304.64 151.946 301.86 146.179C299.21 140.351 297.71 133.983 297.6 127.605C297.61 126.013 297.59 124.421 297.75 122.839C297.82 122.048 297.84 121.257 297.95 120.466L298.28 118.113C298.39 117.332 298.55 116.551 298.73 115.78L299.25 113.467C299.64 111.935 300.12 110.433 300.54 108.921L300.64 108.951C298.99 115.009 298.14 121.307 298.37 127.585C298.63 133.853 300.1 140.081 302.76 145.758C305.43 151.436 309.2 156.582 313.72 160.928C318.25 165.263 323.42 168.978 329.09 171.662L329.04 171.762Z" fill="#222221"/>
</g>
<g id="Group 63" opacity="0.05">
<path id="Vector 190" opacity="0.05" d="M336.36 173.844C334.06 172.062 331.94 170.069 329.82 168.067C327.75 166.014 325.76 163.891 323.83 161.699C319.99 157.313 316.55 152.557 313.46 147.59C310.5 142.544 307.9 137.247 306.15 131.64C305.31 128.826 304.64 125.963 304.2 123.069C303.86 120.155 303.69 117.231 303.89 114.328H303.99C304 117.231 304.25 120.125 304.72 122.979C305.25 125.832 305.98 128.636 306.89 131.39C307.83 134.133 308.94 136.817 310.18 139.43C311.44 142.043 312.83 144.587 314.33 147.07C317.33 152.026 320.73 156.742 324.44 161.198C328.16 165.644 332.13 169.899 336.44 173.764L336.36 173.844Z" fill="#222221"/>
</g>
<g id="Group 64" opacity="0.05">
<path id="Vector 191" opacity="0.05" d="M346.96 180.932C345.64 177.248 344.2 173.603 342.71 169.978C341.27 166.344 339.78 162.719 338.21 159.144C336.62 155.57 335.09 151.975 333.43 148.441C331.77 144.906 330.04 141.401 328.23 137.947C324.7 130.988 320.77 124.239 316.38 117.801C314.21 114.567 311.83 111.473 309.28 108.539C306.76 105.575 304.03 102.762 300.96 100.329L301.02 100.249C304.18 102.582 307.03 105.295 309.67 108.189C312.31 111.092 314.76 114.156 317.02 117.361C321.56 123.749 325.51 130.547 329.13 137.496C332.72 144.465 335.96 151.605 338.94 158.854C341.91 166.103 344.66 173.453 347.06 180.912L346.96 180.932Z" fill="#222221"/>
</g>
<g id="Group 65" opacity="0.05">
<path id="Vector 192" opacity="0.05" d="M329.74 157.173C329.1 155.511 328.51 153.828 327.82 152.196C327.19 150.534 326.54 148.892 325.85 147.26C324.49 143.996 323.11 140.742 321.53 137.587C320.08 134.373 318.34 131.299 316.6 128.235C315.69 126.723 314.8 125.202 313.78 123.76C312.88 122.228 311.74 120.876 310.74 119.384L310.81 119.314C313.17 121.977 315.33 124.811 317.25 127.815C319.14 130.829 320.89 133.933 322.42 137.147C323.94 140.361 325.33 143.645 326.57 146.98C327.8 150.314 328.92 153.698 329.83 157.143L329.74 157.173Z" fill="#222221"/>
</g>
</g>
<g id="Group 66">
<path id="Vector 193" d="M302.21 101.159C302.21 101.159 243.09 137.136 205.4 67.2559C205.39 67.2459 283.93 29.0367 302.21 101.159Z" fill="#86C95B"/>
<g id="Group 67" opacity="0.05">
<path id="Vector 194" opacity="0.05" d="M302.22 101.2C297.94 102.762 293.46 103.733 288.95 104.434C284.43 105.064 279.85 105.305 275.27 105.225C270.69 105.155 266.12 104.604 261.62 103.773C257.11 102.932 252.67 101.72 248.36 100.148C244.07 98.5361 239.87 96.6437 235.89 94.3708L234.39 93.5397C233.9 93.2493 233.41 92.9389 232.93 92.6385L230.01 90.8262L227.2 88.8537L225.8 87.8524L224.46 86.781L221.78 84.6382C220.91 83.8973 220.07 83.1263 219.21 82.3653C217.47 80.8834 215.88 79.2413 214.25 77.6392C213.43 76.8482 212.68 75.9871 211.92 75.126L209.65 72.5727C208.18 70.8305 206.78 69.0382 205.35 67.2759L205.43 67.2158C211.18 74.2449 217.69 80.6731 224.93 86.1502L226.28 87.1915L227.68 88.1527L230.48 90.0853L233.38 91.8675C233.87 92.1579 234.34 92.4683 234.83 92.7487L236.33 93.5597C240.28 95.7926 244.45 97.6249 248.7 99.1969C250.82 100.008 253 100.649 255.17 101.31L258.47 102.151C259.57 102.431 260.69 102.621 261.8 102.872C266.25 103.743 270.77 104.273 275.31 104.444C279.84 104.614 284.39 104.444 288.9 103.913C293.4 103.352 297.89 102.521 302.2 101.109L302.22 101.2Z" fill="#222221"/>
</g>
<g id="Group 68" opacity="0.05">
<path id="Vector 195" opacity="0.05" d="M283.27 99.5172C280.31 99.8276 277.33 99.7374 274.35 99.6173C271.38 99.387 268.42 99.0666 265.48 98.5559C262.53 98.1154 259.63 97.3644 256.75 96.6134L252.45 95.3418L248.23 93.8499C246.82 93.3592 245.47 92.7184 244.1 92.1177C242.74 91.4969 241.35 90.9562 240.04 90.2352L236.06 88.1826C234.73 87.5017 233.49 86.6606 232.22 85.8796C229.64 84.3677 227.27 82.5554 224.85 80.8231C223.63 79.972 222.54 78.9407 221.41 77.9895C220.28 77.0282 219.16 76.047 218.06 75.0557L218.12 74.9756L221.61 77.7191C222.79 78.6203 223.9 79.5915 225.16 80.3926C227.62 82.0447 230.02 83.7869 232.62 85.2087C237.67 88.3027 243.09 90.7559 248.59 92.9086C254.1 95.0714 259.83 96.6434 265.64 97.7849C271.45 98.9064 277.37 99.5772 283.28 99.407L283.27 99.5172Z" fill="#222221"/>
</g>
<g id="Group 69" opacity="0.05">
<path id="Vector 196" opacity="0.05" d="M302.18 101.2C298.3 99.3174 294.39 97.5051 290.47 95.7328C286.57 93.9105 282.65 92.1282 278.71 90.396C270.84 86.9115 262.95 83.4671 254.93 80.3731C246.96 77.1489 238.86 74.2452 230.64 71.792C226.53 70.5605 222.38 69.449 218.17 68.638C213.97 67.7869 209.7 67.1861 205.39 67.2963L205.38 67.1961C209.69 66.9358 214.01 67.4064 218.26 68.1173C222.51 68.8383 226.7 69.8896 230.85 71.0411C235 72.2026 239.11 73.5143 243.18 74.9361C247.25 76.3479 251.29 77.8498 255.3 79.4419C263.32 82.616 271.21 86.0704 279.04 89.685C286.86 93.3197 294.6 97.0946 302.23 101.11L302.18 101.2Z" fill="#222221"/>
</g>
<g id="Group 70" opacity="0.05">
<path id="Vector 197" opacity="0.05" d="M268.49 91.1264C266.93 91.0463 265.39 90.786 263.85 90.5757C262.32 90.3054 260.79 89.9849 259.27 89.6545C256.23 88.9636 253.26 88.0525 250.28 87.1413C248.82 86.6106 247.35 86.0999 245.9 85.5292C244.45 84.9685 242.99 84.4378 241.58 83.777C240.15 83.1562 238.75 82.4853 237.34 81.8245C235.96 81.1035 234.57 80.4026 233.23 79.6116L233.27 79.5215C236.11 80.7531 238.97 81.9446 241.86 83.046C244.74 84.1675 247.67 85.1888 250.6 86.18C253.54 87.1513 256.49 88.0725 259.48 88.8936C262.46 89.7046 265.47 90.4655 268.51 91.0263L268.49 91.1264Z" fill="#222221"/>
</g>
<g id="Group 71" opacity="0.05">
<path id="Vector 198" opacity="0.05" d="M290.86 89.0739C288.22 87.3918 285.5 85.8398 282.75 84.3679C280.02 82.8459 277.26 81.3941 274.46 80.0323C271.65 78.6906 268.86 77.3088 266 76.0772C263.15 74.8356 260.25 73.6942 257.33 72.6328C254.42 71.5314 251.47 70.5601 248.49 69.679C245.51 68.7879 242.48 68.127 239.45 67.4461C236.41 66.8053 233.33 66.3647 230.24 66.0343C227.15 65.6939 224.03 65.5637 220.9 65.6138L220.89 65.5136C224.02 65.3234 227.15 65.3134 230.28 65.5136C233.4 65.7439 236.51 66.1144 239.59 66.6851C245.75 67.8066 251.79 69.5488 257.67 71.6916C263.54 73.8644 269.27 76.4377 274.81 79.3314C280.35 82.2351 285.77 85.3992 290.9 88.9938L290.86 89.0739Z" fill="#222221"/>
</g>
<g id="Group 72" opacity="0.05">
<path id="Vector 199" opacity="0.05" d="M296.71 92.9992C295.05 90.0154 293.03 87.2519 290.83 84.6685C288.67 82.0552 286.33 79.582 283.76 77.3992C278.66 72.9935 272.89 69.3188 266.52 67.136L264.15 66.2649L261.73 65.5339C260.13 65.0032 258.46 64.6828 256.83 64.2523C253.52 63.5514 250.18 63.0107 246.81 62.6302C243.44 62.2497 240.05 62.0294 236.65 61.9794C233.25 61.8892 229.83 61.9393 226.43 62.2497L226.41 62.1496C233.19 61.2784 240.07 61.2484 246.88 61.8492C250.29 62.1296 253.67 62.6903 257.02 63.3611C258.68 63.7717 260.36 64.0921 261.99 64.6128L264.45 65.3337L266.87 66.1948L268.08 66.6253L269.26 67.136L271.61 68.1673C272.38 68.5478 273.12 68.9684 273.88 69.3689C274.64 69.7594 275.39 70.1699 276.1 70.6505L278.27 72.0223L280.34 73.5342C281.04 74.0249 281.69 74.5856 282.35 75.1263C283 75.677 283.68 76.1976 284.29 76.7984C286.84 79.0813 289.15 81.6246 291.26 84.3181C293.36 87.0216 295.27 89.8752 296.81 92.9392L296.71 92.9992Z" fill="#222221"/>
</g>
</g>
<g id="Group 73">
<path id="Vector 200" d="M301.43 99.9882C301.43 99.9882 342.45 54.5098 392.07 104.194C392.07 104.194 335.15 156.491 301.43 99.9882Z" fill="#95D969"/>
<g id="Group 74" opacity="0.05">
<path id="Vector 201" opacity="0.05" d="M301.4 99.9483C304.63 97.5252 308.17 95.5527 311.81 93.8005C315.48 92.1083 319.31 90.7365 323.21 89.6351C327.11 88.5137 331.13 87.8328 335.16 87.3922C339.2 86.9517 343.27 86.8515 347.33 87.1018C351.38 87.3822 355.42 87.9229 359.37 88.8541C361.36 89.2346 363.3 89.8654 365.26 90.376C367.18 91.0369 369.13 91.5876 370.99 92.4087L373.8 93.5501L376.55 94.8318C378.4 95.6528 380.16 96.6441 381.94 97.5953C383.71 98.5566 385.39 99.698 387.11 100.739C388.79 101.851 390.43 103.022 392.09 104.164L392.03 104.244C385.38 99.7381 378.23 95.9532 370.71 93.1396L369.3 92.5989L367.87 92.1383L365.01 91.2171C363.06 90.7265 361.15 90.1157 359.17 89.7552C355.26 88.8641 351.26 88.3635 347.26 88.1132C339.25 87.5725 331.17 88.4235 323.4 90.4061C319.52 91.4074 315.7 92.699 312.02 94.3011C308.35 95.9132 304.75 97.7555 301.46 100.048L301.4 99.9483Z" fill="#222221"/>
</g>
<g id="Group 75" opacity="0.05">
<path id="Vector 202" opacity="0.05" d="M317.89 96.5739C320.32 95.5425 322.87 94.8517 325.42 94.1808C327.99 93.6101 330.59 93.1294 333.21 92.799C335.83 92.4185 338.47 92.3184 341.11 92.2183L345.08 92.1982L349.04 92.3885C350.36 92.4486 351.67 92.6589 352.98 92.809C354.29 92.9893 355.61 93.0994 356.9 93.3798L360.8 94.1207C362.1 94.361 363.36 94.7716 364.64 95.112C367.2 95.7428 369.67 96.694 372.16 97.5652C373.41 97.9857 374.59 98.5965 375.79 99.1171C376.99 99.6578 378.18 100.209 379.36 100.779L379.32 100.869L375.67 99.4275C374.45 98.9669 373.25 98.4163 371.99 98.0658C369.49 97.2848 367.02 96.4237 364.45 95.873C359.39 94.5313 354.18 93.8203 348.97 93.3998C343.75 92.9592 338.5 93.0894 333.29 93.58C328.09 94.1007 322.9 95.0319 317.93 96.674L317.89 96.5739Z" fill="#222221"/>
</g>
<g id="Group 76" opacity="0.05">
<path id="Vector 203" opacity="0.05" d="M301.44 99.938C305.2 100.539 308.98 101.059 312.76 101.56C316.53 102.101 320.3 102.611 324.08 103.082C331.63 104.023 339.19 104.944 346.77 105.525C354.34 106.246 361.93 106.647 369.52 106.667C373.31 106.677 377.11 106.577 380.88 106.206C384.65 105.876 388.43 105.325 392.05 104.153L392.09 104.244C388.5 105.555 384.72 106.256 380.94 106.727C377.15 107.187 373.34 107.368 369.53 107.438C361.9 107.568 354.28 107.157 346.68 106.516C339.08 105.856 331.51 104.924 323.97 103.843C316.43 102.742 308.9 101.5 301.42 100.038L301.44 99.938Z" fill="#222221"/>
</g>
<g id="Group 77" opacity="0.05">
<path id="Vector 204" opacity="0.05" d="M332.55 99.9383C333.89 99.5879 335.26 99.4077 336.62 99.1874C337.99 99.0172 339.36 98.897 340.73 98.7868C343.48 98.5866 346.24 98.6066 348.99 98.6166C350.36 98.6967 351.74 98.7668 353.11 98.877C354.48 98.9871 355.86 99.0672 357.22 99.2775C358.59 99.4477 359.94 99.678 361.3 99.8883C362.65 100.169 364 100.419 365.34 100.769L365.33 100.87C362.61 100.549 359.89 100.259 357.16 100.058C354.43 99.8382 351.7 99.7181 348.96 99.6179C346.22 99.5378 343.49 99.5078 340.75 99.5679C338.01 99.628 335.28 99.7481 332.56 100.048L332.55 99.9383Z" fill="#222221"/>
</g>
<g id="Group 78" opacity="0.05">
<path id="Vector 205" opacity="0.05" d="M314.11 107.348C316.79 108.029 319.47 108.7 322.19 109.231C324.88 109.831 327.59 110.342 330.31 110.783C335.74 111.674 341.2 112.385 346.69 112.695C352.17 113.106 357.66 112.975 363.14 112.575L367.23 112.114L368.25 111.994L369.26 111.804L371.28 111.413C374.03 111.063 376.62 110.132 379.33 109.501L379.37 109.591C374.15 111.443 368.73 112.705 363.22 113.336C357.71 113.887 352.16 114.007 346.63 113.676C341.1 113.296 335.61 112.575 330.17 111.534C324.74 110.472 319.35 109.17 314.08 107.428L314.11 107.348Z" fill="#222221"/>
</g>
<g id="Group 79" opacity="0.05">
<path id="Vector 206" opacity="0.05" d="M308.16 105.505C310.37 107.558 312.75 109.42 315.28 111.042C317.78 112.705 320.38 114.187 323.12 115.388C328.55 117.811 334.36 119.453 340.3 119.694L342.53 119.834L344.76 119.844C346.25 119.884 347.74 119.744 349.23 119.694C352.21 119.453 355.17 119.063 358.13 118.542C361.08 118.021 364.01 117.351 366.91 116.54C369.82 115.769 372.69 114.827 375.51 113.766L375.55 113.856C370.02 116.319 364.2 118.082 358.28 119.303C355.32 119.934 352.31 120.304 349.3 120.595C347.79 120.665 346.28 120.825 344.77 120.795L342.5 120.805L340.23 120.685L339.1 120.625L337.97 120.485L335.72 120.204C334.97 120.074 334.24 119.904 333.49 119.764C332.75 119.624 332.01 119.463 331.28 119.243L329.09 118.632L326.95 117.871C326.23 117.641 325.54 117.321 324.84 117.03C324.15 116.73 323.44 116.459 322.77 116.099C320.03 114.807 317.43 113.235 314.96 111.483C312.5 109.731 310.16 107.788 308.08 105.585L308.16 105.505Z" fill="#222221"/>
</g>
</g>
<g id="Group 80">
<path id="Vector 207" d="M301.43 99.9881C301.43 99.9881 242.55 85.4594 230.64 143.514C230.64 143.514 301.43 165.803 301.43 99.9881Z" fill="#95D969"/>
<g id="Group 81" opacity="0.05">
<path id="Vector 208" opacity="0.05" d="M230.6 143.495C232.45 140.441 234.52 137.537 236.71 134.704C238.95 131.92 241.32 129.237 243.81 126.663C248.81 121.537 254.37 116.941 260.37 112.996C263.39 111.053 266.53 109.291 269.78 107.769C273.02 106.227 276.35 104.845 279.81 103.864C281.52 103.313 283.27 102.923 285.01 102.502C285.88 102.302 286.77 102.162 287.65 101.992C288.53 101.822 289.41 101.661 290.3 101.571L292.97 101.271L295.65 101.131L296.99 101.061L298.33 101.071L301 101.091V101.191C293.9 101.281 286.79 102.352 280.05 104.595C278.35 105.106 276.7 105.777 275.04 106.397C273.41 107.108 271.76 107.769 270.18 108.58C266.98 110.112 263.89 111.884 260.91 113.827C254.93 117.672 249.42 122.218 244.36 127.204C239.32 132.211 234.65 137.628 230.69 143.535L230.6 143.495Z" fill="#222221"/>
</g>
<g id="Group 82" opacity="0.05">
<path id="Vector 209" opacity="0.05" d="M237.23 145.096C240.6 144.775 243.94 144.225 247.25 143.564C250.57 142.943 253.86 142.202 257.1 141.291C263.57 139.479 269.96 137.276 275.86 134.092C278.82 132.55 281.72 130.858 284.38 128.845C287.06 126.852 289.5 124.579 291.78 122.146C294 119.653 295.92 116.9 297.53 113.966C299.16 111.032 300.34 107.858 301.26 104.594L301.36 104.614C300.57 107.918 299.52 111.162 298 114.206C296.45 117.23 294.56 120.074 292.37 122.667C290.13 125.22 287.62 127.523 284.93 129.586C282.24 131.659 279.32 133.411 276.32 134.993C270.31 138.147 263.85 140.37 257.29 142.052C250.72 143.694 244 144.805 237.23 145.206V145.096Z" fill="#222221"/>
</g>
<g id="Group 83" opacity="0.05">
<path id="Vector 210" opacity="0.05" d="M235.67 142.162C237.69 139.859 239.87 137.707 242.08 135.584C244.31 133.491 246.62 131.479 248.96 129.496C253.66 125.561 258.66 121.986 263.77 118.592C268.93 115.278 274.32 112.304 279.89 109.731C285.45 107.137 291.29 105.155 297.21 103.653L297.24 103.753L292.9 105.195C292.18 105.445 291.45 105.665 290.73 105.926L288.61 106.777C287.2 107.358 285.77 107.888 284.38 108.509L280.23 110.442C274.76 113.135 269.41 116.089 264.31 119.443C259.19 122.747 254.22 126.312 249.45 130.107C244.69 133.922 240.07 137.927 235.75 142.242L235.67 142.162Z" fill="#222221"/>
</g>
<g id="Group 84" opacity="0.05">
<path id="Vector 211" opacity="0.05" d="M253.78 137.047C255.51 136.056 257.25 135.114 258.96 134.103C260.69 133.142 262.42 132.171 264.12 131.159C267.54 129.167 270.97 127.204 274.26 125.031C277.62 122.969 280.89 120.756 284.03 118.383C284.84 117.822 285.61 117.201 286.37 116.58C287.13 115.95 287.92 115.359 288.63 114.678C289.36 114.017 290.13 113.396 290.83 112.695C291.5 111.975 292.2 111.274 292.91 110.573L292.99 110.633C290.56 113.797 287.6 116.49 284.52 118.994C281.44 121.507 278.14 123.74 274.8 125.882C271.44 128.005 267.99 129.978 264.49 131.85C260.99 133.723 257.44 135.505 253.82 137.147L253.78 137.047Z" fill="#222221"/>
</g>
<g id="Group 85" opacity="0.05">
<path id="Vector 212" opacity="0.05" d="M243.38 122.308C244.34 120.746 245.53 119.364 246.72 117.972C247.97 116.651 249.28 115.359 250.65 114.147C252 112.906 253.5 111.844 254.98 110.773L257.26 109.231L259.61 107.809C260.4 107.339 261.24 106.968 262.05 106.548C262.87 106.147 263.68 105.717 264.54 105.376L267.07 104.305C267.91 103.954 268.8 103.694 269.66 103.414C271.38 102.803 273.17 102.412 274.94 101.962C275.82 101.731 276.74 101.641 277.63 101.491C278.53 101.341 279.43 101.211 280.33 101.101L280.35 101.201C278.6 101.631 276.82 101.972 275.08 102.472C273.36 103.013 271.6 103.464 269.93 104.145C266.52 105.336 263.26 106.938 260.1 108.68C256.93 110.423 253.96 112.495 251.14 114.748C248.34 117.021 245.69 119.524 243.45 122.358L243.38 122.308Z" fill="#222221"/>
</g>
</g>
</g>
</g>
<g id="card" class="shaker4">
<path id="Vector 213" opacity="0.1" d="M291.432 425.776L291.232 424.905L289.152 415.913L280.012 376.472C279.902 375.992 279.742 375.541 279.542 375.111C279.052 374.039 278.302 373.118 277.392 372.427C275.762 371.176 273.602 370.635 271.452 371.136L191.512 389.699C189.122 390.25 187.292 391.962 186.472 394.105C185.982 395.387 185.852 396.829 186.182 398.26L195.322 437.701L197.402 446.693L197.602 447.564C197.712 448.044 197.872 448.495 198.072 448.926C198.562 449.997 199.312 450.918 200.222 451.609C201.852 452.861 204.012 453.401 206.162 452.901L286.102 434.337C289.922 433.456 292.322 429.601 291.432 425.776Z" fill="black"/>
<g id="Group 86">
<path id="Vector 214" d="M288.453 433.546L207.203 445.121C203.323 445.671 199.693 442.948 199.143 439.063L192.023 388.948C191.473 385.063 194.193 381.429 198.073 380.878L279.323 369.303C283.203 368.752 286.833 371.476 287.383 375.361L294.503 425.475C295.053 429.36 292.333 432.995 288.453 433.546Z" fill="#FCBA5F"/>
<path id="Vector 215" d="M225.283 396.157C226.163 402.335 221.873 408.053 215.703 408.934C209.533 409.815 203.823 405.519 202.943 399.341C202.063 393.164 206.353 387.446 212.523 386.565C218.693 385.694 224.403 389.979 225.283 396.157Z" fill="#DBA253"/>
<path id="Vector 216" d="M229.143 384.202C227.153 384.482 225.363 385.283 223.873 386.425C226.513 388.708 228.393 391.912 228.923 395.637C229.453 399.372 228.553 402.966 226.643 405.9C228.393 406.581 230.333 406.85 232.323 406.56C238.493 405.679 242.783 399.962 241.903 393.784C241.023 387.616 235.303 383.321 229.143 384.202Z" fill="#DBA253"/>
<path id="Vector 217" d="M244.054 409.04L205.107 414.59L205.567 417.822L244.513 412.272L244.054 409.04Z" fill="#C7934B"/>
<path id="Vector 218" d="M234.177 415.779L205.764 419.827L206.224 423.059L234.637 419.01L234.177 415.779Z" fill="#C7934B"/>
<path id="Vector 219" d="M293.06 415.444L197.703 429.034L199.002 438.174L294.359 424.584L293.06 415.444Z" fill="#AD8041"/>
<g id="Group 87">
<path id="Vector 220" d="M199.013 438.181L208.953 436.77C211.563 433.285 214.173 429.811 216.783 426.326L197.723 429.04L199.013 438.181Z" fill="#BF8E48"/>
<path id="Vector 221" d="M233.923 433.204L253.653 430.391C256.253 426.906 258.863 423.432 261.473 419.947L241.763 422.761L233.923 433.204Z" fill="#BF8E48"/>
<path id="Vector 222" d="M286.403 416.403C283.803 419.877 281.193 423.362 278.593 426.836L294.373 424.583L293.073 415.441L286.403 416.403Z" fill="#BF8E48"/>
</g>
<path id="Vector 223" opacity="0.1" d="M279.313 369.303L198.063 380.878C194.183 381.429 191.463 385.063 192.013 388.948L199.133 439.063C199.683 442.948 203.313 445.671 207.193 445.12L288.443 433.546C292.323 432.995 295.043 429.36 294.493 425.475L287.373 375.361C286.823 371.476 283.193 368.742 279.313 369.303ZM290.803 423.092C291.303 426.637 288.823 429.941 285.293 430.442L209.373 441.265C205.833 441.766 202.533 439.283 202.033 435.748L195.723 391.341C195.223 387.797 197.703 384.492 201.233 383.992L277.153 373.168C280.693 372.667 283.993 375.15 284.493 378.685L290.803 423.092Z" fill="black"/>
</g>
<path id="Vector 224" opacity="0.1" d="M312.953 383.34C312.933 383.11 312.904 382.879 312.854 382.659C312.384 380.166 310.604 378.003 308.034 377.172L229.914 352C228.514 351.549 227.074 351.559 225.754 351.94C223.554 352.58 221.694 354.263 220.944 356.606L205.453 404.798C205.303 405.268 205.204 405.739 205.154 406.209C205.104 406.68 205.103 407.151 205.143 407.611C205.183 408.072 205.274 408.522 205.404 408.963C206.044 411.166 207.724 413.028 210.064 413.779L288.184 438.951C291.914 440.153 295.954 438.08 297.154 434.346L299.604 426.716L300.253 424.703L312.643 386.154C312.943 385.212 313.043 384.261 312.953 383.34Z" fill="black"/>
<g id="Group 88">
<path id="Vector 225" d="M290.692 437.601L214.122 408.033C210.462 406.621 208.622 402.466 210.032 398.801L228.222 351.57C229.632 347.906 233.782 346.063 237.442 347.475L314.012 377.043C317.672 378.455 319.512 382.61 318.102 386.275L299.912 433.506C298.492 437.171 294.352 439.013 290.692 437.601Z" fill="#FA5A6B"/>
<path id="Vector 226" d="M253.762 374.108C251.522 379.925 244.992 382.829 239.182 380.576C233.372 378.333 230.472 371.795 232.722 365.977C234.972 360.16 241.492 357.256 247.302 359.509C253.102 361.752 256.002 368.29 253.762 374.108Z" fill="#B5414E"/>
<path id="Vector 227" d="M262.952 365.557C261.072 364.836 259.122 364.646 257.262 364.926C258.462 368.21 258.532 371.915 257.182 375.439C255.832 378.954 253.282 381.657 250.192 383.28C251.382 384.731 252.952 385.913 254.832 386.634C260.642 388.877 267.172 385.983 269.412 380.166C271.662 374.338 268.762 367.8 262.952 365.557Z" fill="#B5414E"/>
<path id="Vector 228" d="M263.892 394.507L227.187 380.334L226.014 383.38L262.719 397.552L263.892 394.507Z" fill="#B5414E"/>
<path id="Vector 229" d="M251.99 395.576L225.212 385.236L224.039 388.282L250.817 398.622L251.99 395.576Z" fill="#B5414E"/>
<path id="Vector 230" d="M303.555 424.033L213.688 389.333L210.371 397.946L300.237 432.646L303.555 424.033Z" fill="#7A2C35"/>
<g id="Group 89">
<path id="Vector 231" d="M210.362 397.969L219.722 401.583C223.692 399.821 227.672 398.059 231.642 396.287L213.672 389.348L210.362 397.969Z" fill="#8F343E"/>
<path id="Vector 232" d="M243.262 410.675L261.852 417.854C265.822 416.092 269.792 414.32 273.762 412.558L255.182 405.378L243.262 410.675Z" fill="#8F343E"/>
<path id="Vector 233" d="M297.262 421.629C293.292 423.391 289.332 425.163 285.362 426.926L300.232 432.663L303.552 424.052L297.262 421.629Z" fill="#8F343E"/>
</g>
<path id="Vector 234" opacity="0.1" d="M314.012 377.052L237.442 347.484C233.782 346.072 229.642 347.914 228.222 351.579L210.032 398.81C208.622 402.475 210.462 406.62 214.122 408.042L290.692 437.61C294.352 439.022 298.492 437.179 299.912 433.515L318.102 386.284C319.512 382.619 317.672 378.464 314.012 377.052ZM297.842 429.62C296.552 432.954 292.782 434.636 289.442 433.344L217.892 405.709C214.562 404.417 212.882 400.642 214.172 397.298L230.292 355.444C231.582 352.11 235.352 350.428 238.692 351.719L310.242 379.355C313.572 380.647 315.252 384.421 313.962 387.766L297.842 429.62Z" fill="black"/>
</g>
</g>
</g>
</svg>
