<svg width="395" height="897" viewBox="0 0 395 897" fill="none" xmlns="http://www.w3.org/2000/svg">
<style>
.shaker {
  animation: shake 7s cubic-bezier(.36,.07,.19,.97) both infinite;
  transform: translate3d(0, 0, 0);
  backface-visibility: hidden;
  perspective: 1000px;
}

@keyframes shake {
  10%, 90% {
    transform: translate3d(-4px, 0, 0);
  }

  20%, 80% {
    transform: translate3d(9px, 0, 0);
  }

  30%, 50%, 70% {
    transform: translate3d(-14px, 0, 0);
  }

  40%, 60% {
    transform: translate3d(6px, 0, 0);
  }
}

.shaker1 {
  animation: shake1 7s cubic-bezier(.16,.87,.29,.71) both infinite;
  transform: translate3d(0, 0, 0);
  backface-visibility: hidden;
  perspective: 1000px;
}

@keyframes shake1 {
  15%, 85% {
    transform: translate3d(4px, 0, 0);
  }

  5%, 70% {
    transform: translate3d(-9px, 0, 0);
  }

  25%, 45%, 97% {
    transform: translate3d(14px, 0, 0);
  }

  35%, 65% {
    transform: translate3d(-16px, 0, 0);
  }
}

.shaker2 {
  animation: shake2 7s cubic-bezier(.16,.87,.29,.71) both infinite;
  transform: translate3d(0, 0, 0);
  backface-visibility: hidden;
  perspective: 1000px;
}

@keyframes shake2 {
  15%, 85% {
    transform: translate3d(0,4px, 0);
  }

  5%, 70% {
    transform: translate3d(0,-9px, 0);
  }

  25%, 45%, 97% {
    transform: translate3d(0,14px, 0);
  }

  35%, 65% {
    transform: translate3d(-16px, 0, 0);
  }
}

.shaker3 {
  animation: shake3 7s cubic-bezier(.19,.68,.59,.1) both infinite;
  transform: translate3d(0, 0, 0);
  backface-visibility: hidden;
  perspective: 1000px;
}

@keyframes shake3 {
  15%, 85% {
    transform: translate3d(-7px,7px, 0);
  }

  5%, 70% {
    transform: translate3d(20px,-11px, 0);
  }

  25%, 45%, 97% {
    transform: translate3d(-15px,4px, 0);
  }

  35%, 65% {
    transform: translate3d(7px,-8px, 0, 0);
  }
}

.shaker4 {
  animation: shake4 7s cubic-bezier(.69,.78,.39,.91) both infinite;
  transform: translate3d(0, 0, 0);
  backface-visibility: hidden;
  perspective: 1000px;
}

@keyframes shake4 {
  15%, 85% {
    transform: translate3d(17px,-11px, 0);
  }

  5%, 70% {
    transform: translate3d(-14px,15px, 0);
  }

  25%, 45%, 97% {
    transform: translate3d(10px,-7px, 0);
  }

  35%, 65% {
    transform: translate3d(-9px,8px, 0, 0);
  }
}

</style>


<g id="Group 98">
<g id="phone" class="shaker">
<g id="Group 9">
<path id="Vector 60" opacity="0.1" d="M305.316 586.39L243.738 550.274C240.318 548.265 235.937 549.521 233.997 553.061L166.307 676.793C164.367 680.334 165.58 684.871 168.999 686.878L230.578 722.995C233.997 725.003 238.378 723.749 240.318 720.207L308.009 596.475C309.948 592.934 308.736 588.399 305.316 586.39Z" fill="black"/>
<g id="Group 10">
<g id="Group 11">
<path id="Vector 61" d="M223.747 714.84L164.267 675.14C160.964 672.932 160.003 668.335 162.135 664.908L236.539 545.382C238.671 541.963 243.111 540.968 246.422 543.175L305.902 582.875C309.204 585.083 310.166 589.679 308.034 593.108L233.621 712.633C231.489 716.053 227.049 717.048 223.747 714.84Z" fill="#218FA8"/>
<path id="Vector 62" d="M223.462 711.958L166.917 674.222C163.74 672.102 162.812 667.678 164.86 664.389L237.191 548.187C239.24 544.898 243.512 543.937 246.689 546.057L303.234 583.793C306.412 585.914 307.34 590.337 305.291 593.628L232.96 709.828C230.912 713.117 226.64 714.079 223.462 711.958Z" fill="#DBCDBF"/>
<g id="Group 12">
<g id="Group 13">
<g id="Group 14">
<path id="Vector 63" d="M291.554 576.002L266.504 559.276L270.961 580.607L291.554 576.002Z" fill="#E3D8CD"/>
</g>
<g id="Group 15">
<path id="Vector 64" d="M266.128 581.689L260.635 555.355L246.697 546.057C243.52 543.937 239.248 544.898 237.199 548.187L235.009 551.702C237.467 563.467 239.925 575.24 242.375 587.005L266.128 581.689Z" fill="#EDE2D7"/>
</g>
<g id="Group 16">
<path id="Vector 65" d="M231.213 557.789L208.279 594.64L237.542 588.088L231.213 557.789Z" fill="#E3D8CD"/>
</g>
<g id="Group 17">
<path id="Vector 66" d="M164.267 665.574C163.063 668.673 164.108 672.344 166.909 674.222L197.669 694.747L209.926 692.003C207.493 680.334 205.051 668.664 202.618 656.986L164.267 665.574Z" fill="#EDE2D7"/>
</g>
<g id="Group 18">
<path id="Vector 67" d="M226.405 651.662L207.409 655.922C207.459 656.061 207.51 656.199 207.543 656.354C209.951 667.877 212.351 679.399 214.758 690.922L233.696 686.679C231.397 674.984 228.964 663.315 226.405 651.662Z" fill="#E3D8CD"/>
</g>
<g id="Group 19">
<path id="Vector 68" d="M238.537 685.606L249.582 683.131L276.086 640.547L231.238 650.581C233.796 662.233 236.23 673.902 238.537 685.606Z" fill="#EDE2D7"/>
</g>
<g id="Group 20">
<path id="Vector 69" d="M223.462 711.958C226.64 714.078 230.912 713.117 232.96 709.828L242.007 695.301C231.146 697.734 220.285 700.166 209.424 702.591L223.462 711.958Z" fill="#EDE2D7"/>
</g>
<g id="Group 21">
<path id="Vector 70" d="M257.214 604.622L233.466 609.937L239.384 638.282L263.132 632.966L257.214 604.622Z" fill="#E3D8CD"/>
</g>
<g id="Group 22">
<path id="Vector 71" d="M193.806 618.819L199.725 647.161L234.549 639.37C232.576 629.925 230.602 620.472 228.629 611.027L193.806 618.819Z" fill="#EDE2D7"/>
</g>
<g id="Group 23">
<path id="Vector 72" d="M189.876 624.194L171.666 653.445L194.893 648.243L189.876 624.194Z" fill="#E3D8CD"/>
</g>
<g id="Group 24">
<path id="Vector 73" d="M262.048 603.547L267.968 631.89L283.661 628.375L305.124 593.913L262.048 603.547Z" fill="#EDE2D7"/>
</g>
</g>
</g>
<g id="Group 25">
<path id="Vector 74" opacity="0.15" d="M246.698 546.058C246.547 545.954 246.388 545.867 246.23 545.781L225.034 567.726L167.804 659.67L265.435 558.567L246.698 546.058Z" fill="white"/>
<path id="Vector 75" opacity="0.15" d="M283.611 570.696L279.757 568.125L173.221 678.43L177.076 681.001C188.188 669.496 199.308 657.991 210.419 646.486C234.817 621.226 259.214 595.956 283.611 570.696Z" fill="white"/>
<path id="Vector 76" opacity="0.15" d="M303.243 583.793L297.934 580.252L191.398 690.558L205.194 699.769L300.927 600.648L305.291 593.636C307.34 590.346 306.42 585.914 303.243 583.793Z" fill="white"/>
<path id="Vector 77" opacity="0.15" d="M223.462 711.959C223.897 712.252 224.357 712.477 224.825 712.659H229.516C230.887 712.149 232.116 711.197 232.961 709.837L258.227 669.246L219.516 709.326L223.462 711.959Z" fill="white"/>
</g>
<path id="Vector 78" d="M282.123 569.7C278.402 567.214 274.79 573.509 271.137 571.075C267.416 568.591 271.463 562.584 267.809 560.15L282.123 569.7Z" fill="#218FA8"/>
<path id="Vector 79" d="M274.18 568.513C273.812 569.102 273.06 569.267 272.491 568.895C271.923 568.513 271.764 567.734 272.123 567.145C272.491 566.558 273.244 566.393 273.812 566.765C274.381 567.145 274.548 567.934 274.18 568.513Z" fill="#F9FBFC"/>
<path id="Vector 80" d="M273.461 568.037C273.352 568.21 273.126 568.262 272.959 568.149C272.792 568.037 272.742 567.804 272.851 567.631C272.959 567.458 273.185 567.406 273.352 567.518C273.519 567.631 273.57 567.864 273.461 568.037Z" fill="#64CCBD"/>
</g>
<g id="Group 26">
<path id="Vector 81" d="M238.404 634.531C237.877 635.284 236.924 635.673 236.004 635.621L233.939 635.491C233.069 635.439 232.417 634.816 232.074 634.037L225.795 633.553C226.891 636.902 229.483 642.738 234.039 646.399C238.989 643.334 242.091 638.132 243.571 634.938L238.404 634.531Z" fill="#FA5A6B"/>
<path id="Vector 82" d="M235.594 619.624C230.151 619.287 225.469 623.58 225.135 629.215C224.809 634.852 228.956 639.699 234.399 640.045C239.842 640.383 244.524 636.089 244.858 630.454C245.193 624.818 241.046 619.971 235.594 619.624ZM234.741 634.358C232.333 634.211 230.494 632.064 230.645 629.571C230.787 627.078 232.86 625.173 235.268 625.328C237.676 625.476 239.516 627.623 239.365 630.117C239.223 632.61 237.149 634.505 234.741 634.358Z" fill="#FA5A6B"/>
</g>
</g>
</g>
</g>
<g id="pencil" class="shaker1">
<path id="Vector 83" d="M353.969 753.292L328.669 763.611C328.46 763.698 328.234 763.758 328.009 763.793L205.788 781.652C201.591 782.267 197.67 779.211 197.076 774.865C196.482 770.519 199.434 766.459 203.631 765.845L325.851 747.986C326.077 747.951 326.303 747.951 326.537 747.968L353.61 750.634C355.006 750.773 355.274 752.764 353.969 753.292Z" fill="#D19A4F"/>
<path id="Vector 84" d="M353.853 752.434L327.975 758.555C327.758 758.607 327.532 758.65 327.306 758.685L205.086 776.544C200.889 777.159 197.285 776.405 197.076 774.873C196.867 773.341 200.128 771.584 204.325 770.969L326.546 753.11C326.771 753.075 326.997 753.049 327.223 753.041L353.719 751.508C355.09 751.413 355.19 752.115 353.853 752.434Z" fill="#FCBA5F"/>
<g id="Group 27">
<path id="Vector 85" d="M225.311 770.744C224.951 768.078 224.742 765.42 224.684 762.78L203.639 765.853C199.442 766.467 196.491 770.528 197.084 774.873C197.678 779.219 201.599 782.275 205.796 781.661L226.841 778.587C226.189 776.025 225.67 773.41 225.311 770.744Z" fill="#D9F0FC"/>
</g>
<path id="Vector 86" d="M221.875 771.246C221.507 768.58 221.306 765.923 221.247 763.282L217.218 763.871C217.284 766.511 217.485 769.169 217.845 771.835C218.204 774.502 218.722 777.116 219.366 779.669L223.396 779.08C222.752 776.527 222.234 773.913 221.875 771.246Z" fill="#C6DBE6"/>
<path id="Vector 87" d="M214.107 772.381C213.748 769.714 213.539 767.056 213.48 764.416L209.45 765.004C209.517 767.645 209.718 770.303 210.077 772.978C210.437 775.644 210.955 778.258 211.599 780.812L215.629 780.224C214.985 777.661 214.467 775.046 214.107 772.381Z" fill="#C6DBE6"/>
<path id="Vector 88" d="M325.968 756.027C326.336 758.755 327.139 761.326 328.276 763.715C328.41 763.68 328.544 763.663 328.669 763.611L353.969 753.292C355.274 752.764 355.006 750.773 353.61 750.634L326.537 747.968C326.403 747.951 326.269 747.968 326.127 747.977C325.676 750.6 325.601 753.301 325.968 756.027Z" fill="white"/>
<g id="Group 28">
<path id="Vector 89" d="M206.332 773.515C205.964 770.848 205.763 768.191 205.704 765.55L203.631 765.853C199.434 766.467 196.482 770.528 197.076 774.873C197.67 779.219 201.591 782.275 205.788 781.66L207.862 781.358C207.218 778.795 206.699 776.181 206.332 773.515Z" fill="#FA5A6B"/>
</g>
<path id="Vector 90" d="M353.61 750.634L347.138 749.994C347.164 750.954 347.214 751.925 347.347 752.903C347.481 753.881 347.682 754.824 347.924 755.76L353.978 753.292C355.274 752.764 355.006 750.773 353.61 750.634Z" fill="#8F333D"/>
</g>
<g id="photos" class="shaker2">
<path id="Vector 91" opacity="0.1" d="M155.398 171.319L84.0117 151.522L64.3638 227.495L60.8018 241.284L132.188 261.074L135.758 247.284L155.398 171.319Z" fill="black"/>
<g id="Group 29">
<path id="Vector 92" d="M154.97 167.647L85.007 143L56.1021 230.962L126.065 255.608L154.97 167.647Z" fill="#D9F0FC"/>
<path id="Vector 93" d="M130.5 242.093L60.5362 217.448L56.0962 230.961L126.059 255.608L130.5 242.093Z" fill="#D9F0FC"/>
<path id="Vector 94" opacity="0.1" d="M126.6 253.985L56.6356 229.338L56.1025 230.961L126.067 255.607L126.6 253.985Z" fill="black"/>
<path id="Vector 95" opacity="0.1" d="M128.768 247.353L60.0742 218.854L60.5342 217.452L130.499 242.106L128.768 247.353Z" fill="black"/>
<path id="Vector 96" d="M150.381 170.901L86.7099 148.471L65.0469 214.395L128.718 236.824L150.381 170.901Z" fill="#FCBA5F"/>
<g id="Group 30">
<path id="Vector 97" opacity="0.1" d="M126.661 232.515L65.283 213.661L65.041 214.405L128.718 236.834L150.381 170.913L126.661 232.515Z" fill="black"/>
<path id="Vector 98" opacity="0.1" d="M150.381 170.912L86.7122 148.474L65.2832 213.66L88.0002 152.196L150.381 170.912Z" fill="black"/>
</g>
</g>
<path id="Vector 99" opacity="0.1" d="M130.9 252.711L130.44 251.067L128.542 244.323L127.957 242.237L105.842 163.485L34.874 184.859L56.086 260.373L56.479 261.793L59.932 274.077L130.9 252.711Z" fill="black"/>
<g id="Group 31">
<path id="Vector 100" d="M92.633 158.966L24 187.34L57.275 273.629L125.908 245.256L92.633 158.966Z" fill="white"/>
<path id="Vector 101" d="M120.803 232.004L52.1699 260.377L57.2819 273.634L125.915 245.261L120.803 232.004Z" fill="white"/>
<path id="Vector 102" opacity="0.1" d="M125.3 243.668L56.667 272.04L57.281 273.632L125.914 245.259L125.3 243.668Z" fill="black"/>
<path id="Vector 103" opacity="0.05" d="M122.79 237.138L52.6999 261.74L52.1729 260.373L120.808 231.995L122.79 237.138Z" fill="black"/>
<path id="Vector 104" d="M91.2042 164.526L28.7441 190.348L53.6822 255.018L116.142 229.197L91.2042 164.526Z" fill="#30CFF3"/>
<path id="Vector 105" d="M99.4459 185.872C98.5349 186.885 97.8489 188.089 97.4479 189.396C95.5919 187.968 93.0919 187.534 90.7839 188.486C89.1289 189.17 87.8829 190.452 87.1559 191.984C85.4579 191.682 83.6609 191.837 81.9469 192.547C79.2879 193.646 77.3649 195.845 76.4539 198.425C75.6339 198.433 74.8059 198.589 73.9949 198.927C73.3349 199.204 72.7329 199.568 72.2059 200.009C72.1729 199.905 72.1559 199.801 72.1229 199.698C71.1279 197.11 68.2929 195.854 65.7929 196.884C63.2929 197.915 62.0809 200.848 63.0759 203.438C63.1429 203.61 63.2349 203.757 63.3189 203.922C62.3649 203.68 61.3289 203.714 60.3499 204.122C57.9839 205.1 56.7969 207.783 57.5159 210.258C56.8389 210.31 56.1529 210.476 55.4839 210.744C51.9559 212.207 50.2339 216.353 51.6469 220.006C53.0599 223.66 57.0649 225.443 60.5929 223.98C60.7019 223.937 60.8019 223.885 60.9019 223.833C63.4519 227.373 68.0679 228.853 72.2229 227.14C72.6909 226.949 73.1339 226.707 73.5519 226.447C73.5859 226.551 73.6019 226.664 73.6439 226.768C74.6389 229.356 77.4739 230.611 79.9739 229.581C82.4729 228.551 83.6859 225.616 82.6909 223.028C82.6489 222.924 82.5909 222.838 82.5489 222.741C83.2259 222.69 83.9029 222.525 84.5639 222.257C88.0919 220.794 89.8139 216.648 88.4009 212.994C88.2009 212.483 87.9499 212.008 87.6569 211.575C88.1419 211.462 88.6269 211.315 89.1119 211.116C92.8489 209.567 95.1399 205.879 95.1899 201.957C95.4249 201.888 95.6589 201.81 95.8929 201.714C97.4229 201.083 98.6179 199.94 99.3539 198.554C100.951 200.382 103.175 201.481 105.525 201.628L99.4459 185.872Z" fill="#B8F2FF"/>
<path id="Vector 106" d="M83.4267 188.851C74.2047 192.66 69.7147 203.489 73.4017 213.038C77.0807 222.586 87.5397 227.235 96.7617 223.417C102.548 221.028 106.461 215.878 107.673 210.008L100.257 190.781C95.4827 187.405 89.2117 186.461 83.4267 188.851Z" fill="#FCBA5F"/>
<path id="Vector 107" d="M110.625 214.873C108.142 212.154 104.229 211.124 100.675 212.596C97.0547 214.093 94.8887 217.738 94.9807 221.547C93.5177 221.071 91.8958 221.097 90.3658 221.729C90.1318 221.824 89.9147 221.936 89.6967 222.049C87.0467 219.245 82.9328 218.196 79.1958 219.746C78.7188 219.946 78.2678 220.188 77.8408 220.447C77.7658 219.919 77.6318 219.4 77.4318 218.889C76.0188 215.236 72.0137 213.453 68.4847 214.916C67.8247 215.192 67.2228 215.557 66.6958 215.997C66.6628 215.894 66.6458 215.79 66.6128 215.686C65.6178 213.098 62.7827 211.843 60.2827 212.872C57.7827 213.903 56.5708 216.838 57.5658 219.426C57.6078 219.53 57.6658 219.625 57.7168 219.72C57.2398 219.833 56.7628 219.972 56.2948 220.171C52.1398 221.885 49.7897 226.248 50.2917 230.636C50.1827 230.671 50.0748 230.706 49.9738 230.749C48.0258 231.554 46.6297 233.182 46.0107 235.086L49.3217 243.674C51.0447 244.609 53.1348 244.799 55.0828 243.994C55.7518 243.717 56.3538 243.345 56.8798 242.903C58.0008 245.215 60.6508 246.314 63.0168 245.336C64.0038 244.929 64.7728 244.219 65.3078 243.363C65.3578 243.535 65.3838 243.717 65.4498 243.89C66.4448 246.479 69.2798 247.734 71.7798 246.704C74.2798 245.674 75.4918 242.739 74.4968 240.15C74.4548 240.046 74.3968 239.96 74.3548 239.865C75.0318 239.813 75.7088 239.649 76.3698 239.38C77.1728 239.051 77.8827 238.566 78.4847 237.995C80.8677 239.224 83.7107 239.441 86.3777 238.341C88.0997 237.631 89.4967 236.463 90.5327 235.026C92.0797 235.623 93.8358 235.658 95.4908 234.974C97.7988 234.022 99.3207 231.918 99.7137 229.563C102.005 230.853 104.806 231.122 107.422 230.039C110.976 228.568 113.133 225.027 113.125 221.287L110.625 214.873Z" fill="white"/>
<path id="Vector 108" d="M31.7733 198.2C33.5453 198.753 35.4933 198.727 37.3493 197.957C39.3143 197.143 40.8023 195.654 41.7053 193.854C42.5413 193.888 43.3943 193.793 44.2393 193.551C45.5773 193.966 47.0483 193.949 48.4443 193.369C49.9833 192.737 51.1453 191.542 51.8143 190.114C53.3943 190.4 55.0663 190.252 56.6633 189.595C58.6453 188.772 60.1663 187.301 61.1363 185.517C62.2403 185.517 63.3693 185.327 64.4563 184.876C65.1163 184.608 65.7183 184.262 66.2703 183.855C67.4403 185.621 69.6733 186.382 71.6713 185.551C73.9953 184.591 75.1243 181.864 74.1963 179.457C74.1383 179.293 74.0463 179.154 73.9703 179.007H73.9793C75.1243 180.859 77.4153 181.673 79.4633 180.825C81.7883 179.864 82.9173 177.138 81.9893 174.73C81.9303 174.566 81.8383 174.428 81.7633 174.281C82.6493 174.506 83.6113 174.471 84.5223 174.091C86.7213 173.181 87.8333 170.688 87.1563 168.385C87.7913 168.333 88.4183 168.186 89.0453 167.927C90.1403 167.476 91.0433 166.74 91.7213 165.831L91.2023 164.489L28.7383 190.313L31.7733 198.2Z" fill="#B8F2FF"/>
<g id="Group 32">
<path id="Vector 109" opacity="0.1" d="M111.871 227.295L53.4023 254.287L53.6873 255.014L116.151 229.19L91.2023 164.515L111.871 227.295Z" fill="black"/>
<path id="Vector 110" opacity="0.1" d="M91.2021 164.515L28.7461 190.338L53.4021 254.287L32.0571 192.295L91.2021 164.515Z" fill="black"/>
</g>
</g>
</g>
<g id="glasses" class="shaker3">
<path id="Vector 150" opacity="0.1" d="M156.646 347.251L145.966 344.508C146.566 335.066 141.726 327.636 138.016 324.172C136.066 322.349 134.136 320.487 131.756 319.295C131.716 319.255 131.676 319.205 131.636 319.165C131.356 318.935 131.026 318.825 130.696 318.815C124.906 316.552 116.326 318.334 99.146 332.793C84.306 345.279 81.336 355.302 83.496 361.45C74.496 364.844 70.066 371.412 68.056 375.668C62.156 372.884 51.876 374.857 37.9957 388.564C22.1757 404.185 19.4957 412.555 21.1057 418.533L19.6457 419.554C18.9657 420.025 18.7957 420.966 19.2657 421.647C19.5457 422.047 19.9757 422.268 20.4257 422.288C20.7457 422.298 21.0657 422.218 21.3457 422.017L22.2457 421.397C23.2157 423.219 24.5157 424.861 25.7857 426.513C28.6057 430.178 34.6057 435.074 42.7757 436.136L44.8557 449.192C45.196 451.315 47.186 452.757 49.306 452.427C50.086 452.306 50.766 451.956 51.306 451.465C52.246 450.614 52.746 449.323 52.526 447.971L50.616 435.945C57.046 434.804 64.366 431.159 72.256 423.359C87.586 408.22 83.666 394.202 77.766 385.39L83.196 378.942L92.566 372.414C100.806 378.992 114.246 383.898 130.526 370.201C137.986 363.923 142.206 357.795 144.296 352.118L154.686 354.791C156.006 355.131 157.336 354.751 158.276 353.9C158.816 353.409 159.226 352.758 159.416 351.997C159.976 349.905 158.726 347.782 156.646 347.251ZM84.896 364.143C85.656 365.275 86.776 366.756 88.236 368.338L81.186 376.699L74.616 381.275C73.136 379.593 71.716 378.271 70.606 377.35C72.326 373.595 76.376 367.257 84.896 364.143Z" fill="black"/>
<g id="Group 35">
<g id="Group 36">
<g id="Group 37">
<path id="Vector 151" d="M12.4979 417.108C12.0479 417.108 11.5979 416.908 11.3079 416.517C10.8079 415.856 10.9279 414.915 11.5879 414.415L114.148 335.683C116.648 333.761 119.858 333.03 122.948 333.671L144.598 338.177C145.408 338.347 145.928 339.138 145.758 339.949C145.588 340.76 144.788 341.28 143.988 341.11L122.338 336.604C120.108 336.134 117.788 336.675 115.978 338.056L13.4179 416.788C13.1379 417.008 12.8179 417.108 12.4979 417.108Z" fill="#49616E"/>
</g>
<g id="Group 38">
<g id="Group 39">
<path id="Vector 152" d="M147.038 342.382C146.138 343.273 144.828 343.724 143.498 343.444L121.848 338.948C120.298 338.627 118.678 338.998 117.418 339.959C115.718 341.271 113.278 340.94 111.968 339.238C110.658 337.536 110.978 335.093 112.688 333.781C115.748 331.438 119.658 330.537 123.428 331.328L145.078 335.824C147.178 336.264 148.528 338.317 148.098 340.43C147.938 341.201 147.558 341.872 147.038 342.382Z" fill="#4D6573"/>
</g>
</g>
</g>
<g id="Group 40">
<g id="Group 41">
<path id="Vector 153" d="M41.9581 443.562C41.2581 443.562 40.6381 443.072 40.4881 442.361L35.9981 420.683C35.3581 417.589 36.0881 414.375 38.0081 411.872L116.678 309.21C117.178 308.549 118.128 308.429 118.778 308.929C119.438 309.43 119.558 310.381 119.058 311.032L40.3981 413.704C39.0081 415.516 38.4781 417.839 38.9381 420.072L43.4281 441.75C43.5981 442.561 43.0781 443.362 42.2681 443.522C42.1681 443.552 42.0581 443.562 41.9581 443.562Z" fill="#49616E"/>
</g>
<g id="Group 42">
<g id="Group 43">
<path id="Vector 154" d="M44.7083 444.814C45.5983 443.923 46.0483 442.601 45.7683 441.27L41.2783 419.592C40.9583 418.04 41.3283 416.418 42.2883 415.156C43.5983 413.454 43.2683 411.011 41.5683 409.699C39.8683 408.387 37.4283 408.708 36.1183 410.42C33.778 413.474 32.878 417.399 33.658 421.174L38.1483 442.852C38.5883 444.954 40.6383 446.306 42.7383 445.876C43.5183 445.705 44.1883 445.335 44.7083 444.814Z" fill="#4D6573"/>
</g>
</g>
</g>
<path id="Vector 155" d="M28.478 382.604C5.65798 407.346 12.128 414.095 18.058 421.073C23.988 428.062 42.5683 439.347 64.3383 415.757C86.0983 392.166 65.3183 373.052 59.6283 369.247C53.9383 365.442 43.0583 366.794 28.478 382.604Z" fill="#5C7A8A"/>
<path id="Vector 156" d="M29.5578 383.796C8.2378 406.916 14.2878 413.214 19.8178 419.742C25.3578 426.27 42.7183 436.814 63.0483 414.776C83.3783 392.737 63.9683 374.874 58.6483 371.32C53.3483 367.765 43.1883 369.027 29.5578 383.796Z" fill="#FCBA5F"/>
<g id="Group 44" opacity="0.2">
<path id="Vector 157" opacity="0.2" d="M29.5578 383.795C8.2378 406.915 14.2878 413.213 19.8178 419.742C21.8078 422.085 25.3278 424.948 29.9678 426.63L29.9778 383.345C29.8378 383.505 29.7078 383.645 29.5578 383.795Z" fill="white"/>
<path id="Vector 158" opacity="0.2" d="M41.0981 373.772C41.1281 391.796 41.0881 409.829 41.1781 427.852C44.1381 427.461 47.2981 426.49 50.6081 424.738C50.5981 424.658 50.5881 424.588 50.5881 424.498C50.7081 406.274 50.7581 388.041 50.7781 369.817C47.9781 370.218 44.7381 371.429 41.0981 373.772Z" fill="white"/>
<path id="Vector 159" opacity="0.2" d="M58.6682 371.319C57.9682 370.848 57.1782 370.468 56.3082 370.188C56.2882 387.179 56.2382 404.171 56.1382 421.173C57.0982 420.442 58.0582 419.611 59.0382 418.73C59.0382 403.02 59.0482 387.299 59.0482 371.589C58.9082 371.489 58.7782 371.399 58.6682 371.319Z" fill="white"/>
<path id="Vector 160" opacity="0.2" d="M66.127 411.07C76.217 397.493 71.7269 385.798 66.1369 378.539L66.127 411.07Z" fill="white"/>
</g>
<path id="Vector 161" d="M86.9781 324.059C111.698 301.209 118.428 307.697 125.408 313.635C132.388 319.573 143.648 338.187 120.078 359.965C96.5081 381.743 77.4281 360.936 73.6281 355.239C69.8281 349.541 71.1781 338.647 86.9781 324.059Z" fill="#5C7A8A"/>
<path id="Vector 162" d="M88.1781 325.13C111.278 303.783 117.558 309.85 124.078 315.398C130.598 320.945 141.128 338.337 119.098 358.683C97.0781 379.029 79.2481 359.584 75.6981 354.268C72.1481 348.941 73.4181 338.768 88.1781 325.13Z" fill="#FCBA5F"/>
<g id="Group 45" opacity="0.2">
<path id="Vector 163" opacity="0.2" d="M75.6982 354.267C76.8782 356.029 79.6282 359.344 83.5782 362.247L83.5882 329.726C73.1982 341.06 72.5582 349.561 75.6982 354.267Z" fill="white"/>
<path id="Vector 164" opacity="0.2" d="M93.8284 320.183L93.8184 367.144C96.7484 367.835 99.9584 367.995 103.368 367.344C103.278 349.391 103.238 331.438 103.238 313.485C100.508 315.047 97.4084 317.23 93.8284 320.183Z" fill="white"/>
<path id="Vector 165" opacity="0.2" d="M108.758 310.961C108.758 329.185 108.798 347.398 108.888 365.622C109.668 365.281 110.458 364.881 111.258 364.45C111.258 346.417 111.268 328.384 111.268 310.351C110.478 310.481 109.648 310.671 108.758 310.961Z" fill="white"/>
<path id="Vector 166" opacity="0.2" d="M121.708 313.435L121.698 356.129C122.458 355.338 123.158 354.557 123.828 353.776C123.828 340.92 123.828 328.053 123.838 315.197C123.128 314.596 122.428 313.995 121.708 313.435Z" fill="white"/>
<path id="Vector 167" opacity="0.2" d="M129.358 322.036V345.616C134.168 336.044 132.508 327.783 129.358 322.036Z" fill="white"/>
</g>
<g id="Group 46">
<path id="Vector 168" d="M58.0879 374.153C57.9979 374.153 57.8979 374.143 57.8079 374.123C56.9979 373.973 56.458 373.182 56.618 372.371C56.738 371.73 59.7979 356.581 76.9679 351.915C77.7679 351.694 78.5879 352.165 78.8079 352.966C79.0279 353.767 78.5479 354.588 77.7479 354.808C62.3779 358.984 59.5879 372.781 59.5679 372.922C59.4179 373.653 58.7879 374.153 58.0879 374.153Z" fill="#49616E"/>
</g>
<path id="Vector 169" d="M16.5778 411.521L11.2778 416.828" stroke="#49616E" stroke-width="3" stroke-miterlimit="10" stroke-linecap="round" stroke-linejoin="round"/>
<path id="Vector 170" d="M113.808 314.216L119.108 308.909" stroke="#49616E" stroke-width="3" stroke-miterlimit="10" stroke-linecap="round" stroke-linejoin="round"/>
</g>
</g>
<g id="pen" class="shaker4">
<path id="Vector 235" opacity="0.1" d="M392.627 9.6403C392.457 9.44004 392.277 9.23978 392.087 9.04954C391.517 8.4788 390.877 8.0082 390.197 7.65775C389.747 7.41744 389.267 7.22719 388.787 7.08701C388.547 7.01692 388.297 6.95685 388.057 6.90678C387.567 6.80665 387.057 6.7666 386.557 6.7666C386.057 6.7666 385.557 6.81667 385.057 6.90678C384.567 7.00691 384.077 7.14709 383.607 7.33734C382.667 7.71782 381.777 8.28856 381.017 9.04954L374.997 14.9872L373.767 16.1987L263.537 124.969C263.467 125.039 263.427 125.119 263.367 125.189C263.357 125.209 263.337 125.229 263.327 125.239C263.257 125.329 263.177 125.409 263.117 125.509L255.887 137.305L252.117 143.453L248.657 149.09C248.377 149.54 248.397 150.031 248.597 150.412C248.667 150.542 248.747 150.652 248.847 150.762C249.257 151.172 249.907 151.333 250.517 150.962L254.947 148.239L256.147 147.508L274.067 136.504C274.187 136.434 274.287 136.333 274.387 136.243C274.457 136.183 274.537 136.133 274.607 136.073L378.997 33.0704L382.027 30.0766L384.837 27.303L386.677 25.4907L387.177 25L390.577 21.6457L390.587 21.6557L392.087 20.1538C393.227 19.0123 393.947 17.5905 394.227 16.1086C394.277 15.8583 394.307 15.608 394.337 15.3576C394.537 13.3451 393.957 11.2824 392.627 9.6403Z" fill="black"/>
<g id="Group 90">
<path id="Vector 236" d="M245.217 141.56L259.797 118.06C259.917 117.86 260.067 117.679 260.227 117.519L378.357 2.26068C381.417 -0.773217 386.407 -0.743181 389.437 2.32076C392.467 5.3847 392.437 10.3811 389.377 13.415L271.247 128.673C271.077 128.834 270.897 128.984 270.697 129.104L247.067 143.442C245.847 144.173 244.457 142.772 245.217 141.56Z" fill="#B5414E"/>
<path id="Vector 237" d="M245.817 142.161L263.327 121.624C263.477 121.454 263.627 121.284 263.797 121.114L381.927 5.85528C384.987 2.82137 388.367 1.22933 389.437 2.31072C390.507 3.39211 388.877 6.75643 385.807 9.79034L267.677 125.059C267.507 125.219 267.337 125.379 267.167 125.519L246.467 142.822C245.397 143.713 244.907 143.222 245.817 142.161Z" fill="#FA5A6B"/>
<path id="Vector 238" d="M389.437 2.32076C386.407 -0.743181 381.427 -0.773217 378.357 2.26068L362.577 17.6605C364.637 19.3226 366.637 21.1049 368.527 23.0274C370.347 24.8698 372.027 26.8022 373.607 28.7948L389.367 13.415C392.437 10.3811 392.457 5.3847 389.437 2.32076Z" fill="#D9F0FC"/>
<path id="Vector 239" opacity="0.1" d="M371.107 20.464C372.937 22.3164 374.627 24.2489 376.207 26.2515L379.257 23.2776C377.667 21.2649 375.967 19.3225 374.137 17.4601C372.257 15.5577 370.277 13.7854 368.227 12.1333L365.177 15.1171C367.237 16.7693 369.217 18.5516 371.107 20.464Z" fill="black"/>
<path id="Vector 240" opacity="0.1" d="M379.977 11.6828C378.107 9.79036 376.147 8.03811 374.117 6.396L371.067 9.37983C373.107 11.0219 375.077 12.7842 376.957 14.6867C378.797 16.5491 380.497 18.5016 382.097 20.5242L385.147 17.5503C383.537 15.5177 381.827 13.5552 379.977 11.6828Z" fill="black"/>
<path id="Vector 241" d="M266.437 122.395C264.537 120.473 262.377 118.921 260.057 117.729C259.967 117.84 259.877 117.94 259.797 118.05L245.217 141.55C244.467 142.762 245.847 144.163 247.067 143.423L270.697 129.084C270.817 129.014 270.917 128.914 271.027 128.834C269.857 126.501 268.337 124.318 266.437 122.395Z" fill="white"/>
<g id="Group 91">
<g id="Group 92">
<path id="Vector 242" d="M382.677 9.00918C384.537 10.8916 386.257 12.8641 387.857 14.9068L389.367 13.4148C392.427 10.3809 392.457 5.39454 389.427 2.32058C386.397 -0.75337 381.417 -0.773397 378.347 2.2605L376.837 3.75242C378.867 5.38452 380.817 7.12676 382.677 9.00918Z" fill="#FCBA5F"/>
</g>
</g>
<path id="Vector 243" d="M247.067 143.432L252.717 140.008C252.137 139.257 251.517 138.526 250.847 137.845C250.167 137.154 249.447 136.534 248.707 135.943L245.217 141.56C244.457 142.772 245.847 144.173 247.067 143.432Z" fill="#8A313B"/>
</g>
</g>
<g id="leaf" class="shaker2">
<g id="Group 93">
<g id="Group 94" opacity="0.1">
<path id="Vector 244" opacity="0.1" d="M123.001 653.882C123.001 653.882 123.109 655.025 123.126 657.136C122.527 662.42 118.734 675.215 100.628 703.216C74.2265 744.045 73.4585 763.129 73.4585 763.129C73.4585 763.129 73.8235 763.292 74.7525 762.842C139.921 748.744 125.077 664.288 123.184 654.766C123.12 654.138 123.001 653.882 123.001 653.882Z" fill="#222221"/>
<path id="Vector 245" opacity="0.1" d="M47.6403 701.323C47.6403 701.323 34.6473 749.371 63.1623 784.302C63.1623 784.302 79.8953 754.017 47.6403 701.323Z" fill="#222221"/>
<path id="Vector 246" opacity="0.1" d="M36.5045 747.339C25.8195 736.415 20.3455 723.663 17.6385 714.984C16.0223 708.803 15.2033 704.756 15.2033 704.756C15.2033 704.756 13.2645 773 57.8915 797.118C57.8915 797.118 54.7325 765.967 36.5045 747.339Z" fill="#222221"/>
<path id="Vector 247" opacity="0.1" d="M134.616 744.264C90.8978 751.656 64.0508 788.494 64.0508 788.494C115.829 791.483 134.616 744.264 134.616 744.264Z" fill="#222221"/>
<path id="Vector 248" opacity="0.1" d="M58.8655 794.649C56.2155 801.226 53.7465 807.861 51.4695 814.573C38.8825 772.679 0.0791016 750.473 0.0791016 750.473C0.629002 760.686 2.97081 769.408 6.37901 776.837C4.52061 787.555 1.5122 824.515 43.0295 844.603C42.4155 847.328 41.9195 850.08 41.4005 852.832C40.9545 855.694 40.4495 858.554 40.1295 861.436C38.6545 872.927 38.4065 884.65 40.3765 896.1L40.6705 896.051C39.7735 884.473 40.6105 873.028 42.4615 861.741C42.6155 860.761 42.7915 859.781 42.9675 858.8C71.5275 860.211 88.1165 847.436 97.3605 835.283C118.078 831.231 131.833 819.062 131.833 819.062C123.672 816.529 115.577 815.264 107.824 814.863C107.843 814.795 107.854 814.755 107.854 814.755C107.854 814.755 107.829 814.792 107.787 814.861C80.6745 813.459 57.7815 822.675 50.9825 825.742C52.3435 821.087 53.7955 816.451 55.3555 811.847C55.6985 810.796 56.0505 809.74 56.4065 808.694C107.559 821.738 128.372 778.74 128.372 778.74C128.372 778.74 117.291 790.737 91.9825 792.007C74.1475 792.905 62.8155 800.561 57.6765 805.007C58.7805 801.847 59.9175 798.704 61.0365 795.548C65.0035 784.732 69.1965 773.972 73.5605 763.209L73.4265 763.134L73.2935 763.06C67.9785 773.344 63.2265 783.923 58.8655 794.649ZM51.1335 815.574C49.8075 819.51 48.5365 823.461 47.3735 827.445C45.8265 832.752 44.4655 838.106 43.2805 843.511C43.0595 839.016 41.1805 822.829 25.6865 807.822C14.7985 797.275 10.2616 787.198 8.3626 780.796C21.6981 805.404 46.6705 814.177 51.1335 815.574ZM45.8535 844.907C46.5005 842.117 47.2015 839.343 47.9115 836.564C48.6755 833.801 49.4125 831.029 50.2445 828.286C50.3145 828.04 50.3885 827.804 50.4585 827.559C58.3505 831.915 66.0105 834.454 73.2805 835.673C56.3835 840.586 47.2665 850.537 43.5605 855.605C43.7055 854.837 43.8595 854.064 43.9905 853.291C44.5875 850.494 45.1525 847.682 45.8535 844.907Z" fill="#222221"/>
</g>
<g id="Group 95">
<path id="Vector 249" d="M74.2728 755.719C74.2728 755.719 73.1078 736.659 95.2278 693.356C117.348 650.054 112.485 642.005 112.485 642.005C112.485 642.005 143.136 734.577 74.2728 755.719Z" fill="#95D969"/>
<path id="Vector 250" opacity="0.05" d="M74.2725 755.719C74.2725 755.719 80.0355 757.687 99.9555 713.331C118.51 671.993 112.492 642 112.492 642C112.492 642 143.135 734.577 74.2725 755.719Z" fill="#222221"/>
<path id="Vector 251" d="M66.1838 777.817C66.1838 777.817 79.7608 745.992 42.3348 696.844C42.3318 696.857 34.2738 745.981 66.1838 777.817Z" fill="#95D969"/>
<path id="Vector 252" opacity="0.05" d="M66.1838 777.817C66.1838 777.817 55.8418 753.981 42.3348 696.844C42.3318 696.857 34.2738 745.981 66.1838 777.817Z" fill="#222221"/>
<path id="Vector 253" d="M62.2415 791.106C62.2415 791.106 55.9435 760.444 35.9215 743.757C15.8988 727.068 10.4141 703.551 10.4141 703.551C10.4141 703.551 15.3984 771.65 62.2415 791.106Z" fill="#95D969"/>
<path id="Vector 254" opacity="0.05" d="M62.2414 791.107C62.2414 791.107 55.0394 778.562 38.7784 759.788C21.7163 740.087 10.4053 703.556 10.4053 703.556C10.4053 703.556 15.3984 771.65 62.2414 791.107Z" fill="#222221"/>
<path id="Vector 255" d="M67.4888 781.914C67.4888 781.914 90.4718 742.531 133.207 730.736C133.207 730.736 119.302 779.613 67.4888 781.914Z" fill="#95D969"/>
<path id="Vector 256" opacity="0.05" d="M67.4888 781.914C67.4888 781.914 97.8418 766.764 133.207 730.736C133.207 730.736 119.302 779.613 67.4888 781.914Z" fill="#222221"/>
<path id="Vector 257" d="M0 750.598C0 750.598 41.6477 769.087 58.0947 810.308C58.0987 810.294 8.0376 801.891 0 750.598Z" fill="#95D969"/>
<path id="Vector 258" opacity="0.05" d="M0 750.598C0 750.598 25.4947 784.748 58.0947 810.308C58.0987 810.294 8.0376 801.891 0 750.598Z" fill="#222221"/>
<path id="Vector 259" d="M56.3408 821.462C56.3408 821.462 94.5748 796.671 138.044 805.426C138.044 805.426 103.629 842.792 56.3408 821.462Z" fill="#95D969"/>
<path id="Vector 260" opacity="0.05" d="M56.3408 821.461C56.3408 821.461 93.4838 823.922 138.044 805.425C138.044 805.425 103.629 842.79 56.3408 821.461Z" fill="#222221"/>
<path id="Vector 261" d="M59.9536 802.454C59.9536 802.454 70.6136 786.384 95.6566 782.557C120.708 778.726 130.512 765.665 130.512 765.665C130.512 765.665 113.759 811.705 59.9536 802.454Z" fill="#95D969"/>
<path id="Vector 262" opacity="0.05" d="M59.9536 802.453C59.9536 802.453 68.5706 794.34 93.6086 790.505C118.66 786.674 130.512 765.665 130.512 765.665C130.512 765.665 113.759 811.705 59.9536 802.453Z" fill="#222221"/>
<path id="Vector 263" d="M52.5526 839.972C52.5526 839.972 51.1826 820.727 31.2796 805.038C11.3728 789.34 9.26901 773.141 9.26901 773.141C9.26901 773.141 1.181 821.469 52.5526 839.972Z" fill="#95D969"/>
<path id="Vector 264" opacity="0.05" d="M52.553 839.971C52.553 839.971 50.138 830.213 30.222 814.519C10.3151 798.822 9.25582 773.136 9.25582 773.136C9.25582 773.136 1.18141 821.467 52.553 839.971Z" fill="#222221"/>
<path id="Vector 265" d="M52.2036 854.066C52.2036 854.066 59.3576 836.156 83.0846 827.264C106.816 818.383 113.754 803.584 113.754 803.584C113.754 803.584 106.757 852.083 52.2036 854.066Z" fill="#95D969"/>
<path id="Vector 266" opacity="0.05" d="M52.2036 854.066C52.2036 854.066 59.0396 844.664 82.7796 835.776C106.512 826.895 113.754 803.584 113.754 803.584C113.754 803.584 106.757 852.083 52.2036 854.066Z" fill="#222221"/>
<g id="Group 96">
<path id="Vector 267" d="M74.4177 755.775C71.1727 766.923 68.0877 778.05 65.2337 789.221C63.8697 794.817 62.4367 800.394 61.2347 806.014C59.9567 811.62 58.7906 817.243 57.8006 822.894C57.2486 825.711 56.7827 828.538 56.3077 831.369C55.8917 834.202 55.4667 837.041 55.1087 839.875C54.6917 842.709 54.4197 845.554 54.1017 848.4C53.9017 851.251 53.5837 854.099 53.4467 856.959C52.7467 868.384 53.0797 879.854 55.1377 891.277L54.8507 891.357C51.7237 880.173 50.7817 868.471 51.0887 856.898C51.1217 853.992 51.3257 851.106 51.4797 848.212C51.7277 845.323 51.9397 842.432 52.2967 839.552C52.9367 833.786 53.7886 828.051 54.8306 822.349C56.9276 810.947 59.7197 799.685 62.9387 788.551C66.1987 777.43 69.8437 766.426 74.1167 755.645L74.4177 755.775Z" fill="#8ECF64"/>
</g>
</g>
</g>
</g>
<g id="arrow" class="shaker3"> 
<path id="Vector 268" opacity="0.1" d="M179.56 30.4111C160.17 19.3168 135.47 26.0555 124.39 45.4705C114.88 62.1219 118.5 82.6883 131.95 95.2044C130.4 96.0555 128.83 96.7664 127.28 97.267C124.56 98.1382 121.87 98.3685 119.33 97.6776L122.61 130.169L152.24 116.512C150.3 114.629 149.13 112.096 148.51 109.202C148.46 108.982 148.42 108.752 148.38 108.532C148.32 108.201 148.27 107.871 148.22 107.53C148.19 107.32 148.16 107.11 148.13 106.899C148.07 106.399 148.03 105.888 148 105.367C147.99 105.127 147.98 104.887 147.97 104.647C147.97 104.556 147.97 104.466 147.96 104.376C165.56 109.633 185.08 102.314 194.59 85.6621C205.68 66.2372 198.95 41.5054 179.56 30.4111ZM148.03 58.9978C151.65 52.6597 159.71 50.4569 166.05 54.0815C172.39 57.7062 174.58 65.7766 170.96 72.1247C167.34 78.4629 159.28 80.6657 152.94 77.041C146.61 73.4064 144.41 65.336 148.03 58.9978Z" fill="black"/>
<g id="Group 97">
<path id="Vector 269" d="M147.71 79.1954L143.38 75.8511C134.93 82.4596 123.44 89.2783 115.24 85.7338L114 118.366L145.23 108.954C139.75 101.895 143.45 89.048 147.71 79.1954Z" fill="#FA5A6B"/>
<path id="Vector 270" opacity="0.1" d="M114.01 118.366L145.24 108.954C139.76 101.895 143.45 89.0483 147.71 79.1956L145.55 77.5234L114.01 118.366Z" fill="black"/>
<path id="Vector 271" d="M143.38 75.8511C137.41 80.5171 129.93 85.2832 123.17 86.4347C125.58 89.6889 128.47 92.6827 131.83 95.2861C135.19 97.8894 138.81 99.932 142.57 101.454C141.98 94.6052 144.71 86.1543 147.71 79.2054L143.38 75.8511Z" fill="#B5414E"/>
<path id="Vector 272" d="M184.19 27.479C166.52 13.8014 141.13 17.0556 127.47 34.7383C113.81 52.431 117.06 77.8537 134.72 91.5313C152.39 105.209 177.78 101.955 191.44 84.272C205.11 66.5792 201.86 41.1565 184.19 27.479ZM151.38 69.9636C145.61 65.4978 144.55 57.1972 149.01 51.4197C153.47 45.6423 161.76 44.5809 167.53 49.0467C173.3 53.5124 174.36 61.8131 169.9 67.5905C165.44 73.368 157.15 74.4293 151.38 69.9636Z" fill="#FA5A6B"/>
<path id="Vector 273" opacity="0.1" d="M170.19 45.611C162.53 39.6834 151.52 41.0852 145.59 48.7651C139.67 56.435 141.07 67.4591 148.74 73.3968C156.4 79.3244 167.41 77.9226 173.34 70.2427C179.26 62.5729 177.85 51.5487 170.19 45.611ZM151.38 69.9624C145.61 65.4966 144.55 57.1959 149.01 51.4185C153.47 45.6411 161.76 44.5797 167.53 49.0455C173.3 53.5112 174.36 61.8119 169.9 67.5893C165.44 73.3667 157.15 74.4281 151.38 69.9624Z" fill="black"/>
<path id="Vector 274" opacity="0.1" d="M184.19 27.479C166.52 13.8014 141.13 17.0556 127.47 34.7383C113.81 52.431 117.06 77.8537 134.72 91.5313C152.39 105.209 177.78 101.955 191.44 84.272C205.11 66.5792 201.86 41.1565 184.19 27.479ZM137.25 88.2671C121.39 75.9813 118.47 53.152 130.74 37.2716C143.01 21.3911 165.81 18.4674 181.67 30.7532C197.53 43.039 200.45 65.8683 188.18 81.7487C175.92 97.6292 153.11 100.543 137.25 88.2671Z" fill="black"/>
</g>
</g>
</g>
</svg>
