<svg width="426" height="416" viewBox="0 0 600 600" fill="none" xmlns="http://www.w3.org/2000/svg">
<style>

.moveme{
  animation: move 7s cubic-bezier(.36,.07,.19,.97) both infinite;
  transform: translate3d(0, 0, 0);
  backface-visibility: hidden;
  perspective: 1000px;

}
@keyframes move {
  0% {
    transform: translate3d(0px, 0, 0);
  }

  50% {
    transform: translate3d(0px, 30px, 0);
  }
  75% {
      transform: translate3d(25px, 45px,0);
    }

  100%{
      transform:translate3d(0px,0,0);
  }

}

</style>
<g id="okay" class="moveme">
<path d="M58.2899 119.44C58.2899 119.44 202.7 -9.48006 268.79 38.7499C334.88 86.9799 280.64 138.69 309.36 139.68C338.08 140.67 395.8 88.0499 421.18 144.65C446.56 201.25 342.6 269.48 361.14 272.38C379.68 275.28 410.89 265.05 410.89 286.32C410.89 307.59 322.4 391.9 262.62 386.09C202.84 380.28 289.15 322.68 254.17 327.92C219.19 333.16 159.43 414.15 112.03 364.91C64.6299 315.67 153.79 224.83 114.25 237.63C49.1699 258.69 -27.5101 202.67 58.2899 119.44Z" fill="#D6ECE1"/>
<path d="M241.52 121.8C251.11 115.86 246.56 101.32 237.28 96.18C228 91.04 232.57 89.05 233 77.34C233.71 57.55 221.72 56.78 221.72 56.78C221.72 56.78 210.44 56.13 210.44 77.34C210.44 89.06 215.44 91.04 206.16 96.18C196.88 101.32 192.34 115.86 201.92 121.8C213.47 128.96 189.04 132.54 193.19 152.64C196.01 166.28 210.87 166.02 221.72 166.28C232.57 166.02 247.43 166.28 250.25 152.64C254.41 132.54 229.97 128.96 241.52 121.8Z" fill="#70CACD"/>
<path d="M221.4 162.07C221.65 161.19 222.77 98.8101 221.4 87.2101C220.9 83.0201 219.28 169.49 221.4 162.07Z" fill="#008EA7"/>
<path d="M208.91 102.17C208.91 102.17 219.5 118.14 221.2 117.76C222.9 117.39 234.23 102.65 233.07 101.84C232.68 101.57 221.02 116.08 221.02 116.08C221.02 116.08 208.18 99.28 208.91 102.17Z" fill="#008EA7"/>
<path d="M208.91 117.01C208.91 117.01 219.5 132.98 221.2 132.6C222.9 132.23 234.23 117.49 233.07 116.68C232.68 116.41 221.02 130.92 221.02 130.92C221.02 130.92 208.18 114.12 208.91 117.01Z" fill="#008EA7"/>
<path d="M208.91 135.77C208.91 135.77 219.5 151.74 221.2 151.36C222.9 150.99 234.23 136.25 233.07 135.44C232.68 135.17 221.02 149.68 221.02 149.68C221.02 149.68 208.18 132.89 208.91 135.77Z" fill="#008EA7"/>
<path d="M296.75 176.16V152.26H149.61V176.16C120.57 176.16 96.9399 199.79 96.9399 228.83C96.9399 257.87 120.57 281.5 149.61 281.5C152.18 281.5 154.71 281.31 157.19 280.95C167.62 301.71 187.56 316.85 211.3 320.66V379.83H190.75C180.12 379.83 171.5 388.45 171.5 399.08H211.29V399.53H234.82V399.08H274.61C274.61 388.45 265.99 379.83 255.36 379.83H234.81V320.66C258.56 316.85 278.51 301.69 288.93 280.92C291.48 281.3 294.09 281.5 296.74 281.5C325.78 281.5 349.41 257.87 349.41 228.83C349.42 199.79 325.79 176.16 296.75 176.16ZM149.61 265.5C129.39 265.5 112.94 249.05 112.94 228.83C112.94 208.61 129.39 192.16 149.61 192.16V242.1C149.46 244.02 149.36 245.95 149.36 247.9C149.36 253.95 150.1 259.82 151.48 265.44C150.86 265.48 150.23 265.5 149.61 265.5ZM296.75 265.5C296.04 265.5 295.34 265.47 294.64 265.43C296.01 259.81 296.75 253.95 296.75 247.9V192.16C316.97 192.16 333.42 208.61 333.42 228.83C333.42 249.05 316.97 265.5 296.75 265.5Z" fill="#FAB217"/>
<path d="M172.88 199.13C172.88 182.11 177.32 166.12 185.09 152.26H149.6V176.16C120.56 176.16 96.9299 199.79 96.9299 228.83C96.9299 257.87 120.56 281.5 149.6 281.5C152.17 281.5 154.7 281.31 157.18 280.95C167.61 301.71 187.55 316.85 211.29 320.66V379.83H190.74C180.11 379.83 171.49 388.45 171.49 399.08H211.28V399.53H234.81V399.08H274.6C274.6 388.45 265.98 379.83 255.35 379.83H234.8V320.66C253.01 317.74 268.97 308.14 280.13 294.47C276.43 294.9 272.68 295.13 268.86 295.13C215.87 295.13 172.88 252.15 172.88 199.13ZM149.61 265.5C129.39 265.5 112.94 249.05 112.94 228.83C112.94 208.61 129.39 192.16 149.61 192.16V242.1C149.46 244.02 149.36 245.95 149.36 247.9C149.36 253.95 150.1 259.82 151.48 265.44C150.86 265.48 150.23 265.5 149.61 265.5Z" fill="#F58A28"/>
<path d="M139.64 169.73L110.73 208.82C105.09 216.45 110.53 227.25 120.02 227.25H177.84C187.33 227.25 192.78 216.45 187.13 208.82L158.22 169.73C153.61 163.48 144.26 163.48 139.64 169.73Z" fill="#FFFAEF"/>
<path d="M156.96 114.09H140.91V187.04H156.96V114.09Z" fill="#FFFAEF"/>
<path d="M156.2 112.14H141.68C138.99 112.14 136.79 114.34 136.79 117.03C136.79 119.72 138.99 121.92 141.68 121.92H156.2C158.89 121.92 161.09 119.72 161.09 117.03C161.08 114.34 158.89 112.14 156.2 112.14Z" fill="#FFFAEF"/>
<path d="M177.48 208.18L165.44 191.9H132.44L120.4 208.18C116.18 213.88 120.25 221.95 127.34 221.95H170.53C177.62 221.95 181.69 213.88 177.48 208.18Z" fill="#605575"/>
<path d="M48.84 287.51C58.43 281.57 53.88 267.03 44.6 261.89C35.32 256.75 39.89 254.76 40.32 243.05C41.03 223.26 29.04 222.49 29.04 222.49C29.04 222.49 17.76 221.84 17.76 243.05C17.76 254.77 22.76 256.75 13.48 261.89C4.19999 267.03 -0.340012 281.57 9.23999 287.51C20.79 294.67 -3.64002 298.25 0.509985 318.35C3.32998 331.99 18.19 331.73 29.04 331.99C39.89 331.73 54.75 331.99 57.57 318.35C61.72 298.25 37.29 294.67 48.84 287.51Z" fill="#70CACD"/>
<path d="M28.72 327.78C28.97 326.9 30.09 264.52 28.72 252.92C28.22 248.73 26.6 335.2 28.72 327.78Z" fill="#008EA7"/>
<path d="M16.2299 267.88C16.2299 267.88 26.8199 283.85 28.5199 283.47C30.2199 283.09 41.5499 268.36 40.3899 267.55C39.9999 267.28 28.3399 281.79 28.3399 281.79C28.3399 281.79 15.4999 264.99 16.2299 267.88Z" fill="#008EA7"/>
<path d="M16.2299 282.72C16.2299 282.72 26.8199 298.69 28.5199 298.31C30.2199 297.93 41.5499 283.2 40.3899 282.39C39.9999 282.12 28.3399 296.63 28.3399 296.63C28.3399 296.63 15.4999 279.84 16.2299 282.72Z" fill="#008EA7"/>
<path d="M16.2299 301.49C16.2299 301.49 26.8199 317.46 28.5199 317.08C30.2199 316.71 41.5499 301.97 40.3899 301.16C39.9999 300.88 28.3399 315.4 28.3399 315.4C28.3399 315.4 15.4999 298.6 16.2299 301.49Z" fill="#008EA7"/>
<path d="M191.39 227.79H41.78V399.51H191.39V227.79Z" fill="#FFFAEF"/>
<path d="M191.39 225.58H41.78V252.31H191.39V225.58Z" fill="#F05757"/>
<path d="M191.39 252.6H41.78V264H191.39V252.6Z" fill="#D6ECE1"/>
<path d="M171.92 242.36C168.75 242.36 166.15 239.76 166.15 236.59V220.72C166.15 217.55 168.75 214.95 171.92 214.95C175.09 214.95 177.69 217.55 177.69 220.72V236.59C177.69 239.76 175.1 242.36 171.92 242.36Z" fill="#383A45"/>
<path d="M61.24 242.36C58.07 242.36 55.47 239.76 55.47 236.59V220.72C55.47 217.55 58.07 214.95 61.24 214.95C64.41 214.95 67.01 217.55 67.01 220.72V236.59C67.01 239.76 64.42 242.36 61.24 242.36Z" fill="#383A45"/>
<path d="M115.353 357.368H62.2114V349.959L90.286 318.765C94.4452 314.049 97.3047 310.224 98.8644 307.29C100.461 304.319 101.26 301.256 101.26 298.099C101.26 293.866 99.9784 290.393 97.4161 287.683C94.8537 284.972 91.4372 283.616 87.1666 283.616C82.0419 283.616 78.0498 285.083 75.1904 288.017C72.368 290.913 70.9569 294.961 70.9569 300.16H60.6517C60.6517 292.696 63.047 286.661 67.8375 282.057C72.6651 277.452 79.1082 275.149 87.1666 275.149C94.7052 275.149 100.665 277.136 105.047 281.11C109.429 285.046 111.62 290.301 111.62 296.874C111.62 304.858 106.533 314.365 96.3577 325.394L74.6333 348.956H115.353V357.368ZM131.005 316.704L135.127 276.263H176.682V285.789H143.873L141.422 307.903C145.395 305.563 149.907 304.394 154.958 304.394C162.348 304.394 168.215 306.845 172.56 311.746C176.905 316.611 179.077 323.203 179.077 331.521C179.077 339.877 176.812 346.468 172.282 351.296C167.788 356.086 161.494 358.482 153.398 358.482C146.231 358.482 140.382 356.495 135.851 352.521C131.321 348.548 128.74 343.052 128.109 336.033H137.857C138.488 340.675 140.141 344.185 142.814 346.561C145.488 348.901 149.016 350.071 153.398 350.071C158.189 350.071 161.939 348.437 164.65 345.169C167.398 341.901 168.772 337.389 168.772 331.633C168.772 326.211 167.287 321.866 164.316 318.598C161.382 315.293 157.464 313.64 152.563 313.64C148.069 313.64 144.541 314.625 141.979 316.593L139.249 318.821L131.005 316.704Z" fill="#383A45"/>
<path d="M355.974 399.521L355.974 352.831L196.304 352.831L196.304 399.521L355.974 399.521Z" fill="#70CACD"/>
<path d="M346.962 372.365L346.962 352.835L344.732 352.835L344.732 372.365L346.962 372.365Z" fill="#008EA7"/>
<path d="M330.165 372.362L330.165 352.832L327.935 352.832L327.935 372.362L330.165 372.362Z" fill="#008EA7"/>
<path d="M352.564 362.412L352.564 352.832L350.334 352.832L350.334 362.412L352.564 362.412Z" fill="#008EA7"/>
<path d="M341.624 362.412L341.624 352.832L339.394 352.832L339.394 362.412L341.624 362.412Z" fill="#008EA7"/>
<path d="M335.957 362.409L335.957 352.829L333.727 352.829L333.727 362.409L335.957 362.409Z" fill="#008EA7"/>
<path d="M312.763 372.364L312.763 352.834L310.533 352.834L310.533 372.364L312.763 372.364Z" fill="#008EA7"/>
<path d="M324.222 362.414L324.222 352.834L321.992 352.834L321.992 362.414L324.222 362.414Z" fill="#008EA7"/>
<path d="M318.555 362.411L318.555 352.831L316.325 352.831L316.325 362.411L318.555 362.411Z" fill="#008EA7"/>
<path d="M295.038 372.359L295.038 352.829L292.808 352.829L292.808 372.359L295.038 372.359Z" fill="#008EA7"/>
<path d="M306.498 362.408L306.498 352.828L304.268 352.828L304.268 362.408L306.498 362.408Z" fill="#008EA7"/>
<path d="M300.831 362.415L300.831 352.835L298.601 352.835L298.601 362.415L300.831 362.415Z" fill="#008EA7"/>
<path d="M277.636 372.361L277.636 352.831L275.406 352.831L275.406 372.361L277.636 372.361Z" fill="#008EA7"/>
<path d="M289.096 362.41L289.096 352.83L286.866 352.83L286.866 362.41L289.096 362.41Z" fill="#008EA7"/>
<path d="M283.428 362.408L283.428 352.828L281.198 352.828L281.198 362.408L283.428 362.408Z" fill="#008EA7"/>
<path d="M259.254 372.363L259.254 352.833L257.024 352.833L257.024 372.363L259.254 372.363Z" fill="#008EA7"/>
<path d="M270.714 362.413L270.714 352.833L268.484 352.833L268.484 362.413L270.714 362.413Z" fill="#008EA7"/>
<path d="M265.046 362.41L265.046 352.83L262.816 352.83L262.816 362.41L265.046 362.41Z" fill="#008EA7"/>
<path d="M241.852 372.365L241.852 352.835L239.622 352.835L239.622 372.365L241.852 372.365Z" fill="#008EA7"/>
<path d="M253.311 362.415L253.311 352.835L251.081 352.835L251.081 362.415L253.311 362.415Z" fill="#008EA7"/>
<path d="M247.644 362.412L247.644 352.832L245.414 352.832L245.414 362.412L247.644 362.412Z" fill="#008EA7"/>
<path d="M223.959 372.358L223.959 352.828L221.729 352.828L221.729 372.358L223.959 372.358Z" fill="#008EA7"/>
<path d="M235.419 362.417L235.419 352.837L233.189 352.837L233.189 362.417L235.419 362.417Z" fill="#008EA7"/>
<path d="M229.751 362.415L229.751 352.835L227.521 352.835L227.521 362.415L229.751 362.415Z" fill="#008EA7"/>
<path d="M206.557 372.36L206.557 352.83L204.327 352.83L204.327 372.36L206.557 372.36Z" fill="#008EA7"/>
<path d="M218.017 362.41L218.017 352.83L215.787 352.83L215.787 362.41L218.017 362.41Z" fill="#008EA7"/>
<path d="M212.349 362.417L212.349 352.837L210.119 352.837L210.119 362.417L212.349 362.417Z" fill="#008EA7"/>
<path d="M407.74 277.73C417.33 271.79 412.78 257.25 403.5 252.11C394.22 246.97 398.79 244.98 399.22 233.27C399.93 213.48 387.94 212.71 387.94 212.71C387.94 212.71 376.66 212.06 376.66 233.27C376.66 244.99 381.66 246.97 372.38 252.11C363.1 257.25 358.56 271.79 368.14 277.73C379.69 284.89 355.26 288.47 359.41 308.57C362.23 322.21 377.09 321.95 387.94 322.21C398.79 321.95 413.65 322.21 416.47 308.57C420.63 288.47 396.19 284.89 407.74 277.73Z" fill="#70CACD"/>
<path d="M387.62 318C387.87 317.12 388.99 254.74 387.62 243.14C387.13 238.95 385.5 325.42 387.62 318Z" fill="#008EA7"/>
<path d="M375.13 258.1C375.13 258.1 385.72 274.07 387.42 273.69C389.12 273.32 400.45 258.58 399.29 257.77C398.9 257.5 387.24 272.01 387.24 272.01C387.24 272.01 374.41 255.22 375.13 258.1Z" fill="#008EA7"/>
<path d="M375.13 272.94C375.13 272.94 385.72 288.91 387.42 288.53C389.12 288.16 400.45 273.42 399.29 272.61C398.9 272.34 387.24 286.85 387.24 286.85C387.24 286.85 374.41 270.06 375.13 272.94Z" fill="#008EA7"/>
<path d="M375.13 291.71C375.13 291.71 385.72 307.68 387.42 307.3C389.12 306.93 400.45 292.19 399.29 291.38C398.9 291.11 387.24 305.62 387.24 305.62C387.24 305.62 374.41 288.83 375.13 291.71Z" fill="#008EA7"/>
<path d="M330.66 290.73H314.96C312.27 290.73 310.07 292.93 310.07 295.62C310.07 297.7 311.39 299.48 313.22 300.18V366.33C313.22 371.62 317.51 375.91 322.8 375.91C328.09 375.91 332.38 371.62 332.38 366.33V300.18C334.22 299.48 335.53 297.7 335.53 295.62C335.54 292.93 333.34 290.73 330.66 290.73Z" fill="#FFFAEF"/>
<path d="M322.81 372.65C318.9 372.65 315.7 369.45 315.7 365.54V333.74C315.7 329.83 318.9 326.63 322.81 326.63C326.72 326.63 329.92 329.83 329.92 333.74V365.54C329.92 369.45 326.72 372.65 322.81 372.65Z" fill="#F05757"/>
<path d="M329.91 309.23H315.69V333.32H329.91V309.23Z" fill="#F05757"/>
<path d="M359.52 290.73H343.82C341.13 290.73 338.93 292.93 338.93 295.62C338.93 297.7 340.25 299.48 342.08 300.18V366.33C342.08 371.62 346.37 375.91 351.66 375.91C356.95 375.91 361.24 371.62 361.24 366.33V300.18C363.08 299.48 364.39 297.7 364.39 295.62C364.41 292.93 362.21 290.73 359.52 290.73Z" fill="#FFFAEF"/>
<path d="M351.67 372.65C347.76 372.65 344.56 369.45 344.56 365.54V354.52C344.56 350.61 347.76 347.41 351.67 347.41C355.58 347.41 358.78 350.61 358.78 354.52V365.54C358.78 369.45 355.58 372.65 351.67 372.65Z" fill="#70CACD"/>
<path d="M358.78 339.23H344.56V363.32H358.78V339.23Z" fill="#70CACD"/>
<path d="M388.68 290.73H372.98C370.29 290.73 368.09 292.93 368.09 295.62C368.09 297.7 369.41 299.48 371.24 300.18V366.33C371.24 371.62 375.53 375.91 380.82 375.91C386.11 375.91 390.4 371.62 390.4 366.33V300.18C392.24 299.48 393.55 297.7 393.55 295.62C393.57 292.93 391.37 290.73 388.68 290.73Z" fill="#FFFAEF"/>
<path d="M380.83 372.65C376.92 372.65 373.72 369.45 373.72 365.54V354.52C373.72 350.61 376.92 347.41 380.83 347.41C384.74 347.41 387.94 350.61 387.94 354.52V365.54C387.95 369.45 384.75 372.65 380.83 372.65Z" fill="#FAB217"/>
<path d="M387.94 312.95H373.72V363.32H387.94V312.95Z" fill="#FAB217"/>
<path d="M304.51 295.8H286.01V398.8H304.51V295.8Z" fill="#605575"/>
<path d="M419.13 295.8H400.63V398.8H419.13V295.8Z" fill="#605575"/>
<path d="M415.829 337.159L415.829 318.659L294.579 318.659L294.579 337.159L415.829 337.159Z" fill="#605575"/>
<path d="M418.71 388.69H401.05C398.14 388.69 395.79 393.54 395.79 399.52H423.97C423.97 393.54 421.61 388.69 418.71 388.69Z" fill="#605575"/>
<path d="M304.09 388.69H286.43C283.52 388.69 281.17 393.54 281.17 399.52H309.35C309.35 393.54 307 388.69 304.09 388.69Z" fill="#605575"/>
<path d="M150.09 360.85H18.16C8.15003 360.85 0.0300293 352.73 0.0300293 342.72C0.0300293 332.71 8.15003 324.59 18.16 324.59H150.09V360.85Z" fill="#605575"/>
<path d="M150.04 330.73H13.27V354.71H150.04V330.73Z" fill="#FFFAEF"/>
<path d="M150.04 330.95H13.27V344.2H150.04V330.95Z" fill="#D6ECE1"/>
<path d="M202.78 330.68C202.78 330.68 202.32 328.73 200.81 329.61C199.3 330.49 200.69 333 202.24 333.6C203.78 334.19 202.78 330.68 202.78 330.68Z" fill="#E57373"/>
<path d="M213.41 330.38C213.41 330.38 213.87 328.43 215.38 329.31C216.9 330.19 215.5 332.7 213.95 333.3C212.42 333.89 213.41 330.38 213.41 330.38Z" fill="#E57373"/>
<path d="M213.86 324.94C214.07 325.69 213.44 337.05 208.69 338.23C203.94 339.4 201.95 330.54 202.28 325.41C202.61 320.29 212.08 318.69 213.86 324.94Z" fill="#E57373"/>
<path d="M222.99 403.75L227.89 405.14C227.76 405.96 225.84 414.59 225.28 414.6C224.72 414.6 224.93 407.65 224.93 407.65C224.93 407.65 222.81 407.35 222.54 407.18C222.3 407.03 222.99 403.75 222.99 403.75Z" fill="#383A45"/>
<path d="M187.39 404.94L182.57 406.61C182.74 407.42 185.15 415.93 185.71 415.91C186.27 415.89 185.66 408.96 185.66 408.96C185.66 408.96 187.76 408.54 188.02 408.35C188.27 408.17 187.39 404.94 187.39 404.94Z" fill="#383A45"/>
<path d="M203 387.52C203 387.52 228.38 376.22 240.53 385.68C256.35 398.01 187.39 409.18 187.39 409.18L185.54 405.11C185.54 405.11 232.33 387.12 224.99 389.97C217.65 392.82 194.45 397.7 203 387.52Z" fill="#027878"/>
<path d="M209.81 385.33C209.81 385.33 181.43 376.81 169.22 386.18C157 395.55 222.67 410.54 222.67 410.54L225.19 404C225.19 404 179.18 386.99 186.46 389.97C198.04 394.69 218.37 395.51 209.81 385.33Z" fill="#027878"/>
<path d="M198.04 353.14C198.04 353.14 176.62 364.67 180.49 373.43C184.36 382.19 194 387.19 195.22 389.02C196.44 390.85 197.07 393.69 197.07 393.69C197.07 393.69 196.11 392.69 192.81 391.67C189.51 390.65 173.61 382.14 173.61 371.17C173.61 360.2 191.39 346.01 194.6 344.27C197.82 342.51 198.04 353.14 198.04 353.14Z" fill="#E57373"/>
<path d="M219.03 352.77C219.03 352.77 237.64 366.59 233.78 375.34C229.91 384.1 222.11 387.18 220.89 389.01C219.67 390.84 219.04 393.68 219.04 393.68C219.04 393.68 220 392.68 223.3 391.66C226.6 390.64 241.17 382.46 241.17 371.49C241.17 360.52 224.73 346 221.51 344.26C218.28 342.51 219.03 352.77 219.03 352.77Z" fill="#E57373"/>
<path d="M191.02 389.59H222.22C222.22 389.59 224.1 345.11 221.66 343.77C213.65 339.4 194.64 341.77 193.68 343.77C192.71 345.77 191.02 389.59 191.02 389.59Z" fill="#605575"/>
<path d="M190.96 375.88C190.96 375.88 189.8 397.39 190.96 397.82C192.12 398.25 220.97 398.22 222.03 397.82C223.09 397.42 222.79 375.88 222.79 375.88C222.79 375.88 199.63 374.67 190.96 375.88Z" fill="#D6ECE1"/>
<path d="M190.96 396.28C190.96 396.28 189.8 398.81 190.96 398.86C192.12 398.91 220.97 398.91 222.03 398.86C223.09 398.81 222.79 396.28 222.79 396.28C222.79 396.28 199.63 396.14 190.96 396.28Z" fill="#9BD5CA"/>
<path d="M210.91 332.89C210.91 332.89 212.4 341.34 211.84 342.26C211.28 343.18 209.78 345.11 208.39 345.11C207 345.11 205.44 342.26 205.34 341.8C205.24 341.34 205.34 331.57 205.34 331.57C205.34 331.57 209.33 329.64 210.91 332.89Z" fill="#E57373"/>
<path d="M203.47 322.25C203.47 322.25 204.41 318.13 206.96 318.54C209.51 318.95 213.34 318.25 214.56 319.59C215.78 320.93 216.32 323.86 213.67 324.41C211.02 324.95 204.84 321.85 204.07 324.32C202.06 330.73 204.83 333.82 204.83 333.82C206.42 334.23 210.94 333.89 211.96 333.3C213.89 332.18 211.95 323.32 212.86 323.42C213.78 323.52 214.49 323.95 214.39 326.18C214.29 328.41 213.77 338.62 211.84 339.4C210.53 339.93 205.74 339.72 204.97 339.03C203.5 337.7 200.64 327.6 201.46 325.16C202.28 322.71 202.29 322.35 203.47 322.25Z" fill="#383A45"/>
<path d="M197.14 354.86C197.14 354.86 189.61 361.22 188.23 362.4C186.85 363.58 180.48 356.92 180.48 355.72C180.48 354.52 192.68 344.36 193.67 343.77C194.67 343.18 197.89 349.5 197.14 354.86Z" fill="#605575"/>
<path d="M218.19 354.86C218.19 354.86 225.72 361.22 227.1 362.4C228.48 363.58 234.85 356.92 234.85 355.72C234.85 354.52 222.65 344.36 221.66 343.77C220.66 343.18 217.44 349.5 218.19 354.86Z" fill="#605575"/>
<path d="M87.09 143.32C87.09 143.32 66.77 153.11 50.34 146.32C34.01 139.57 32.09 139.64 29.59 140.73C27.09 141.82 33.3 134.82 45.84 140.73C49.68 142.54 69.93 142.57 85.65 131.71C85.64 131.71 90.77 140.33 87.09 143.32Z" fill="#E57373"/>
<path d="M124.17 87.0601C124.17 87.0601 126.94 85.2801 128.93 85.6801C130.92 86.0801 131.25 83.8301 131.25 83.8301C131.25 83.8301 131.68 86.2801 128.93 87.0601C126.17 87.8301 123.92 87.3601 124.17 92.9701C124.42 98.5801 136.7 131.58 110.43 138.85C110.43 138.85 105.42 129.78 106.17 127.55C106.92 125.33 118.45 119.49 118.69 109.78C118.92 100.09 119.41 88.4401 124.17 87.0601Z" fill="#E57373"/>
<path d="M79.89 168.28C79.89 168.28 74.57 181.54 60.51 183.12C46.45 184.7 35.56 169.74 35.56 169.74L30.39 173C30.39 173 37.31 190.87 55.8 194.87C74.29 198.87 87.27 184.91 87.27 184.91C87.27 184.91 91.17 187.01 89.67 202.98C87.79 223.03 85.92 234.59 85.92 234.59H92.1C92.1 234.59 100.97 213.35 102.45 198.14C104.18 180.42 101.17 171.37 101.17 171.37L79.89 168.28Z" fill="#383A45"/>
<path d="M35.43 171.1L32.32 167.49C31.68 167.92 25.12 172.95 25.33 173.43C25.55 173.91 31.35 170.99 31.35 170.99C31.35 170.99 32.44 172.67 32.69 172.83C32.92 172.98 35.43 171.1 35.43 171.1Z" fill="#383A45"/>
<path d="M87.3199 233.72L87.7199 238.47C88.4899 238.5 96.7599 238.27 96.8599 237.76C96.9599 237.25 90.5499 236.2 90.5499 236.2C90.5499 236.2 90.6499 234.2 90.5399 233.92C90.4499 233.67 87.3199 233.72 87.3199 233.72Z" fill="#383A45"/>
<path d="M76.79 173.49C76.79 173.49 84.9 152.6 85.04 136.24C85.15 124.24 109.41 126.6 110.24 131.94C112.1 143.84 103.33 182.95 103.33 182.95L76.79 173.49Z" fill="#FAB217"/>
<path d="M101.91 127.89C101.91 127.89 111.67 122.22 112.14 121.94C112.61 121.65 122.61 131.72 122.61 131.72C122.61 131.72 113.54 141.07 108.69 141.49C103.84 141.91 99.49 128.24 101.91 127.89Z" fill="#FAB217"/>
<path d="M70.47 137.43C70.47 137.43 71.31 147.92 72.14 148.47C72.98 149.02 87.67 145.67 88.86 144.36C90.05 143.05 91.69 128.83 90.91 129.2C90.13 129.57 71.67 136.83 70.47 137.43Z" fill="#FAB217"/>
<path d="M97.53 116.93C97.53 116.93 97.43 114.07 96.1 114.35C94.77 114.62 93.81 117.43 94.52 118.46C95.24 119.49 97.55 119.31 97.53 116.93Z" fill="#E57373"/>
<path d="M106.38 113.62C106.38 113.62 109.13 121.52 104.37 122.85C99.61 124.18 100.48 119.14 100.67 120.09C100.86 121.04 102.07 128.88 102.07 128.88C102.07 128.88 99.66 131.95 95.12 129.29C94.4 128.87 97.06 116.63 97.61 110.41C97.84 107.71 104.66 110.42 106.38 113.62Z" fill="#E57373"/>
<path d="M98.06 107.98C98.06 107.98 99.13 104.28 101.41 105.15C103.69 106.02 103.38 107.27 105.03 106.57C106.68 105.87 108.37 108.46 107.5 110.11C106.35 112.28 106.37 112.94 103.22 112.23C100.07 111.52 98.42 110.42 97.71 111.68C97 112.94 98.26 116.16 97.32 116.56C96.38 116.95 96.45 114.44 95.75 115.38C95.04 116.32 93.94 118.74 95.83 118.43C97.72 118.13 96.32 120.65 95.6 120.57C94.88 120.49 91.6 117.8 91.97 114.2C92.21 111.92 94.6 113.1 93.94 111.45C93.28 109.79 94.79 106.25 98.06 107.98Z" fill="#383A45"/>
<path d="M150.43 397H18.5C8.49 397 0.369995 388.88 0.369995 378.87C0.369995 368.86 8.49 360.74 18.5 360.74H150.43V397Z" fill="#FAB217"/>
<path d="M150.09 360.85H17.94C8.24 360.85 0.380005 368.71 0.380005 378.41H150.09V360.85Z" fill="#F58A28"/>
<path d="M35.96 360.75H21.73V397.24H35.96V360.75Z" fill="#605575"/>
<path d="M141.14 360.75H126.91V397.24H141.14V360.75Z" fill="#605575"/>
<path d="M114.37 367.21H46.4V387.93H114.37V367.21Z" fill="#605575"/>
<path d="M342.92 211.09L329.14 201.92C325.21 199.3 324.13 193.94 326.75 190.01L343.13 165.4C345.75 161.47 351.11 160.39 355.04 163.01L368.82 172.18C372.75 174.8 373.83 180.16 371.21 184.09L354.83 208.7C352.21 212.63 346.85 213.7 342.92 211.09Z" fill="#70CACD"/>
<path d="M287.92 300.07L269.18 287.6C266.61 285.89 265.91 282.39 267.62 279.82L287.3 250.25C289.01 247.68 292.51 246.98 295.08 248.69L313.82 261.16C316.39 262.87 317.09 266.37 315.38 268.94L295.7 298.51C293.99 301.08 290.49 301.78 287.92 300.07Z" fill="#F05757"/>
<path d="M330.76 349.56H303.7V398.7H330.76V349.56Z" fill="#FFFAEF"/>
<path d="M330.76 353.98H303.7V372.12H330.76V353.98Z" fill="#383A45"/>
<path d="M345.05 382.95H289.41C280.26 382.95 272.84 390.37 272.84 399.52H361.62C361.62 390.37 354.2 382.95 345.05 382.95Z" fill="#383A45"/>
<path d="M313.68 362.79C289.95 362.79 268.62 349.59 258.01 328.35C256.04 324.4 257.64 319.59 261.59 317.62C265.54 315.64 270.35 317.25 272.32 321.2C280.2 336.98 296.04 346.79 313.67 346.79C339.14 346.79 359.86 326.07 359.86 300.6C359.86 275.13 339.14 254.41 313.67 254.41C309.25 254.41 305.67 250.83 305.67 246.41C305.67 241.99 309.25 238.41 313.67 238.41C347.96 238.41 375.86 266.31 375.86 300.6C375.87 334.89 347.97 362.79 313.68 362.79Z" fill="#FFFAEF"/>
<path d="M311.45 315.67H225.8V328.83H311.45V315.67Z" fill="#383A45"/>
<path d="M298.53 293.45L270.24 274.62C267.89 273.05 267.24 269.85 268.81 267.49L330.39 174.97C331.96 172.62 335.16 171.97 337.52 173.54L365.81 192.37C368.16 193.94 368.81 197.14 367.24 199.5L305.66 292.02C304.09 294.37 300.88 295.01 298.53 293.45Z" fill="#383A45"/>
<path d="M329.68 261.66C337.677 261.66 344.16 255.177 344.16 247.18C344.16 239.183 337.677 232.7 329.68 232.7C321.683 232.7 315.2 239.183 315.2 247.18C315.2 255.177 321.683 261.66 329.68 261.66Z" fill="#70CACD"/>
<path d="M329.68 253.89C333.678 253.89 336.92 250.649 336.92 246.65C336.92 242.652 333.678 239.41 329.68 239.41C325.681 239.41 322.44 242.652 322.44 246.65C322.44 250.649 325.681 253.89 329.68 253.89Z" fill="#383A45"/>
<path d="M166.15 100.25C170.728 100.25 174.44 96.5384 174.44 91.9599C174.44 87.3815 170.728 83.6699 166.15 83.6699C161.572 83.6699 157.86 87.3815 157.86 91.9599C157.86 96.5384 161.572 100.25 166.15 100.25Z" fill="#605575"/>
<path d="M177.57 81.0599C183.336 81.0599 188.01 76.3858 188.01 70.6199C188.01 64.8541 183.336 60.1799 177.57 60.1799C171.804 60.1799 167.13 64.8541 167.13 70.6199C167.13 76.3858 171.804 81.0599 177.57 81.0599Z" fill="#605575"/>
<path d="M404.01 245.04C409.776 245.04 414.45 240.366 414.45 234.6C414.45 228.834 409.776 224.16 404.01 224.16C398.244 224.16 393.57 228.834 393.57 234.6C393.57 240.366 398.244 245.04 404.01 245.04Z" fill="#605575"/>
<path d="M335.15 286.33C339.938 286.33 343.82 282.448 343.82 277.66C343.82 272.872 339.938 268.99 335.15 268.99C330.362 268.99 326.48 272.872 326.48 277.66C326.48 282.448 330.362 286.33 335.15 286.33Z" fill="#F05757"/>
<path d="M365.44 251.67C370.228 251.67 374.11 247.788 374.11 243C374.11 238.212 370.228 234.33 365.44 234.33C360.652 234.33 356.77 238.212 356.77 243C356.77 247.788 360.652 251.67 365.44 251.67Z" fill="#FAB217"/>
<path d="M115.17 58.0499C128.248 58.0499 138.85 47.448 138.85 34.3699C138.85 21.2918 128.248 10.6899 115.17 10.6899C102.092 10.6899 91.49 21.2918 91.49 34.3699C91.49 47.448 102.092 58.0499 115.17 58.0499Z" fill="#FFCC05"/>
<path d="M121.32 69.0399L115.17 34.3799L91.86 38.5199C91.86 38.5199 93.76 49.9799 103.35 55.7499C110.53 60.0699 112.41 70.6299 112.41 70.6299L121.32 69.0399Z" fill="#FFCC05"/>
<path d="M121.17 69.06L115.02 34.4L138.33 30.26C138.33 30.26 140.49 41.67 133.47 50.39C128.21 56.92 130.09 67.47 130.09 67.47L121.17 69.06Z" fill="#FFCC05"/>
<path d="M114.59 70.7399C114.32 70.7899 114.06 70.6099 114.01 70.3399L109.64 45.7199C109.6 45.4799 109.73 45.2399 109.96 45.1599C110.19 45.0799 110.44 45.1699 110.56 45.3799C112.05 48.0099 113.83 50.2799 114.38 50.2599C114.37 50.2499 114.5 50.1199 114.6 49.5699C114.5 49.4199 114.41 49.2499 114.33 49.0699C113.68 47.6799 113.33 44.9399 114.16 44.4299C114.39 44.2899 114.66 44.3099 114.88 44.4699C115.51 44.9599 115.81 47.5799 115.64 49.2899C115.99 49.7099 116.38 49.8199 116.86 49.6599C117.25 49.5299 117.54 49.2499 117.72 48.8499C117.04 48.2099 116.59 47.3199 116.37 46.5199C116.11 45.5799 116.08 44.4099 116.76 43.9599C117.03 43.7799 117.35 43.7799 117.64 43.9599C118.46 44.4599 119.1 46.5199 118.92 48.1299C118.91 48.2499 118.89 48.3599 118.87 48.4699C119.13 48.6099 119.41 48.6999 119.72 48.7199C120.02 48.7399 120.26 48.6099 120.44 48.3599C119.68 47.1599 119.01 45.5099 119.07 44.4899C119.11 43.7499 119.51 43.4699 119.75 43.3699C120.15 43.1999 120.58 43.3099 120.92 43.6599C121.7 44.4699 122.12 46.7499 121.59 48.2699C121.77 48.5199 121.94 48.7099 122.06 48.8099C122.41 48.1299 122.78 45.4599 122.93 43.1599C122.95 42.9099 123.15 42.7099 123.4 42.6899C123.65 42.6799 123.88 42.8499 123.92 43.0999L128.01 66.1499C128.06 66.4199 127.88 66.6799 127.61 66.7299C127.34 66.7799 127.08 66.5999 127.03 66.3299L123.56 46.7799C123.34 48.1799 123.02 49.3999 122.56 49.7399C122.44 49.8299 122.13 49.9999 121.69 49.7599C121.49 49.6499 121.27 49.4499 121.04 49.1799C120.68 49.5499 120.21 49.7299 119.66 49.7099C119.25 49.6899 118.87 49.5799 118.53 49.4199C118.23 49.9899 117.76 50.3999 117.17 50.5999C116.52 50.8199 115.91 50.7499 115.39 50.3999C115.13 51.0499 114.74 51.2199 114.44 51.2399C113.47 51.3099 112.13 49.6899 111.06 48.0999L114.97 70.1299C115.04 70.4299 114.86 70.6899 114.59 70.7399ZM117.25 44.9499C117.18 45.1999 117.16 45.7499 117.41 46.4999C117.53 46.8799 117.72 47.2599 117.96 47.6099C117.97 46.4499 117.55 45.3299 117.25 44.9499ZM120.13 44.3099C120.12 44.3299 120.04 44.5099 120.11 44.9799C120.21 45.6099 120.49 46.3499 120.83 47.0099C120.9 45.6699 120.41 44.3999 120.13 44.3099Z" fill="#FFFAEF"/>
<path d="M133.04 32.4599C132.99 32.4699 132.93 32.4799 132.88 32.4799C131.79 32.5699 130.79 31.6199 130.66 30.3699C129.59 20.1099 122.32 19.2999 122.01 19.2699C120.91 19.1699 120.05 18.0699 120.09 16.8099C120.13 15.5599 121.05 14.6199 122.16 14.7299C125.96 15.0899 133.46 18.7599 134.63 30.0399C134.75 31.2499 134.05 32.2899 133.04 32.4599Z" fill="#FFFAEF"/>
<path d="M130.044 64.6681L111.711 67.9229L114.42 83.1842L132.753 79.9294L130.044 64.6681Z" fill="#383A45"/>
<path d="M128.78 73.2775L115.458 75.6426L117.374 86.4338L130.695 84.0687L128.78 73.2775Z" fill="#383A45"/>
<path d="M116.57 17.7699C117.78 17.7699 118.76 16.7894 118.76 15.5799C118.76 14.3704 117.78 13.3899 116.57 13.3899C115.361 13.3899 114.38 14.3704 114.38 15.5799C114.38 16.7894 115.361 17.7699 116.57 17.7699Z" fill="#FFFAEF"/>
<path d="M69.0099 277.78C69.0099 277.78 77.6299 279 83.3299 286.38L78.0499 291.44C78.0499 291.44 69.3099 288.37 69.3099 286.1C69.3199 285.22 69.0099 277.78 69.0099 277.78Z" fill="#605575"/>
<path d="M71.35 271.18C71.55 270.83 71.89 269.55 73.96 270.31C76.03 271.08 76.17 267.97 76.59 268.28C77.01 268.58 77.12 270.17 76.23 270.86C75.34 271.55 72.11 271.65 72.44 273.35C72.77 275.05 88.58 285.97 87.25 288.98C85.92 292 82.76 292.5 80.09 290.43C77.39 288.36 68.67 275.89 71.35 271.18Z" fill="#E57373"/>
<path d="M62.6199 265.34C62.6199 265.34 62.5199 262.48 61.1899 262.76C59.8599 263.03 58.8999 265.84 59.6099 266.87C60.3299 267.9 62.6399 267.73 62.6199 265.34Z" fill="#E57373"/>
<path d="M99.7599 342.77L100.33 347.5C101.1 347.5 109.36 346.98 109.44 346.47C109.52 345.96 103.08 345.14 103.08 345.14C103.08 345.14 103.11 343.13 102.99 342.86C102.89 342.61 99.7599 342.77 99.7599 342.77Z" fill="#383A45"/>
<path d="M87.2899 350.82L86.0399 355.42C86.7599 355.71 94.5999 358.33 94.8699 357.89C95.1399 357.44 89.4699 354.27 89.4699 354.27C89.4699 354.27 90.2499 352.42 90.2499 352.13C90.2499 351.85 87.2899 350.82 87.2899 350.82Z" fill="#383A45"/>
<path d="M63.61 277.28C63.61 277.28 57.52 276.9 54.47 279.18C51.42 281.46 52.38 325.44 52.38 325.44L71.99 320.87C71.99 320.87 73.32 280.32 70.85 278.61C68.36 276.9 63.61 277.28 63.61 277.28Z" fill="#605575"/>
<path d="M52.3799 319.53C52.3799 319.53 84.5499 293.45 95.3999 304.87C106.25 316.29 103.39 344.46 103.39 344.46H98.8199C98.8199 344.46 97.1099 312.48 89.6799 310.77C82.2599 309.06 74.5099 318.26 74.5099 318.26C74.5099 318.26 85.8799 315.91 92.1599 321.81C96.5499 325.93 90.8299 353.6 90.8299 353.6H86.2599C86.2599 353.6 89.8899 325.25 83.5099 325.43C77.1299 325.62 52.3799 325.43 52.3799 325.43V319.53Z" fill="#F05757"/>
<path d="M35.4299 320.61L97.3099 275.23L115.38 270.17L103.2 284.44L40.3799 330.12L35.4299 320.61Z" fill="#F9B57C"/>
<path d="M97.3099 275.23L94.8799 280.06L99.7599 280.41L98.9999 284.15L103.2 284.44L40.4499 330.95L35.4299 320.61L97.3099 275.23Z" fill="#FAB217"/>
<path d="M105.41 272.96L108.97 277.68L115.38 270.17L105.41 272.96Z" fill="#383A45"/>
<path d="M47.58 294.95C47.58 294.95 46.21 310.58 49.83 310.71C53.45 310.84 65.87 304.07 67.08 303.84C69.1 303.46 71.17 304.96 71.38 304.79C71.59 304.62 71.13 301.98 66.79 301.34C63.22 300.81 53.84 304.62 53.13 303.09C52.42 301.56 55.36 279.18 55.36 279.18C55.36 279.18 47.33 281.84 47.58 294.95Z" fill="#E57373"/>
<path d="M45.4299 292.69C45.4299 292.69 53.0799 296.14 54.1499 294.95C55.2199 293.76 58.7799 277.56 58.7799 277.56C58.7799 277.56 48.6399 277.68 45.4299 292.69Z" fill="#605575"/>
<path d="M70.8399 258.75C70.8399 258.75 74.2099 269.93 69.4599 271.26C64.7099 272.59 65.5699 267.55 65.7599 268.5C65.9499 269.45 67.1599 277.29 67.1599 277.29C67.1599 277.29 64.7499 280.36 60.2099 277.7C59.4899 277.28 62.1499 265.04 62.6999 258.82C62.9299 256.12 69.1299 255.55 70.8399 258.75Z" fill="#E57373"/>
<path d="M46.9299 269.25C49.6799 264.84 54.4899 266.91 54.5899 262.73C54.6899 258.55 59.4299 252.23 67.9299 254.67C71.9999 255.84 71.8399 258.49 68.0599 258.4C64.2799 258.31 64.1499 261.25 63.8399 262.74C63.5299 264.23 62.5499 265.9 62.2899 265.11C61.2999 262.1 60.0799 263.64 60.0799 263.64C60.0799 263.64 58.6299 266.01 60.0799 266.69C61.5299 267.37 62.0999 266.55 62.2899 267.54C62.4699 268.53 63.5199 274.5 59.3799 274.67C55.2399 274.84 56.6499 277.35 52.1099 278.29C47.5599 279.24 44.4299 273.27 46.9299 269.25Z" fill="#383A45"/>
<path d="M321.44 148.03L321.92 152.77C322.69 152.78 330.95 152.42 331.05 151.91C331.15 151.4 324.71 150.46 324.71 150.46C324.71 150.46 324.78 148.46 324.67 148.18C324.57 147.93 321.44 148.03 321.44 148.03Z" fill="#383A45"/>
<path d="M304.61 187.41L303.65 192.08C304.38 192.33 312.37 194.46 312.62 194C312.87 193.54 307.01 190.71 307.01 190.71C307.01 190.71 307.68 188.82 307.65 188.52C307.63 188.25 304.61 187.41 304.61 187.41Z" fill="#383A45"/>
<path d="M289.87 128.78C289.87 128.78 302.16 104.86 316.29 106.53C330.42 108.2 326.24 148.43 326.24 148.43H320.7C320.7 148.43 319.5 118.91 314.67 118.98C309.84 119.05 293.7 141.63 293.7 141.63C293.7 141.63 314.73 139.84 317.55 154.17C320.98 171.59 308.98 189.57 308.98 189.57L302.2 189.31C302.2 189.31 315.13 158.9 307.84 154.45C296.62 147.6 275.01 159.91 266.44 143.76L289.87 128.78Z" fill="#007F86"/>
<path d="M274.12 96.8599C274.12 96.8599 289.44 102.59 297.27 99.3099C305.1 96.0299 313.93 79.8199 318.93 79.6299C323.93 79.4399 324.12 77.6599 324.12 77.6599C324.12 77.6599 323.73 82.1299 320.48 82.2999C317.23 82.4699 313.36 101.07 300.84 106.04C288.33 111.01 275.29 107.01 275.29 107.01C275.29 107.01 272.38 98.9299 274.12 96.8599Z" fill="#E57373"/>
<path d="M280.92 96.2C280.92 96.2 254.43 86.48 266.46 143.76C266.46 143.76 293.98 134.97 289.87 128.78C287.01 124.47 285.92 127.36 285.35 120.4C284.78 113.44 300.45 112.59 280.92 96.2Z" fill="#605575"/>
<path d="M269.47 74.0201C269.6 73.6401 274.17 66.7101 281.51 71.2501C284.6 73.1701 284.65 76.8101 288.45 77.7501C292.26 78.6901 297.79 75.0301 299.76 81.3301C301.73 87.6301 299.48 89.3501 302.89 90.0501C306.3 90.7601 308.89 90.3301 308.06 95.1801C306.87 102.15 296.19 102.35 294.88 98.3901C291.57 88.3701 285.93 100.23 283.07 91.3201C281.63 86.8201 262.6 93.7401 269.47 74.0201Z" fill="#383A45"/>
<path d="M278.5 83.8301C278.5 83.8301 279.93 81.25 281.26 81.52C282.59 81.79 282.22 84.3301 281.51 85.3601C280.79 86.3901 278.48 86.2101 278.5 83.8301Z" fill="#E57373"/>
<path d="M268.86 79.67C268.86 79.67 266.9 88.42 271.66 89.75C276.42 91.08 275.55 86.04 275.36 86.99C275.17 87.94 273.96 95.78 273.96 95.78C273.96 95.78 276.37 98.85 280.91 96.19C281.63 95.77 278.97 83.53 278.42 77.31C278.19 74.61 270.5 74.09 268.86 79.67Z" fill="#E57373"/>
<path d="M276.95 106.45C276.95 106.45 291.52 113.89 299.67 111.53C307.82 109.17 318.45 94.0698 323.43 94.4598C328.41 94.8498 328.81 93.0898 328.81 93.0898C328.81 93.0898 327.91 97.4798 324.66 97.2898C321.41 97.0998 315.44 115.12 302.43 118.63C289.43 122.14 276.93 116.67 276.93 116.67C276.93 116.67 274.98 108.31 276.95 106.45Z" fill="#E57373"/>
<path d="M280.92 96.2C280.92 96.2 287.62 100.14 288.65 100.2C289.68 100.27 288.65 107.17 288.65 107.17C288.65 107.17 279.31 102.54 280.92 96.2Z" fill="#605575"/>
<path d="M274.95 103.84C274.95 103.84 283.82 107.28 284.39 108.53C284.97 109.78 283.4 120.33 281.03 119.67C278.66 119.01 270.66 117.67 270.5 112.51C270.34 107.34 271.99 102.63 274.95 103.84Z" fill="#605575"/>
<path d="M324.12 95.58C336.508 95.58 346.55 85.5377 346.55 73.15C346.55 60.7622 336.508 50.72 324.12 50.72C311.732 50.72 301.69 60.7622 301.69 73.15C301.69 85.5377 311.732 95.58 324.12 95.58Z" fill="#F05757"/>
<path d="M317.22 73.1399C317.23 73.4699 317.24 73.8099 317.24 74.1399H323.62V73.1399H317.22Z" fill="#FFFAEF"/>
<path d="M324.62 73.1399V74.1399H331C331 73.8099 331.01 73.4699 331.02 73.1399H324.62Z" fill="#FFFAEF"/>
<path d="M346.52 74.1399C346.53 73.8099 346.54 73.4799 346.54 73.1499V73.1399H332.01C332 73.4699 331.99 73.8099 331.99 74.1399H346.52Z" fill="#FFFAEF"/>
<path d="M301.69 73.1399V73.1499C301.69 73.4799 301.7 73.8099 301.71 74.1399H316.24C316.24 73.8099 316.23 73.4699 316.22 73.1399H301.69Z" fill="#FFFAEF"/>
<path d="M324.62 50.73C324.45 50.73 324.29 50.72 324.12 50.72C323.95 50.72 323.79 50.73 323.62 50.73V73.13V74.13V95.56C323.79 95.56 323.95 95.57 324.12 95.57C324.29 95.57 324.45 95.56 324.62 95.56V74.13V73.13V50.73Z" fill="#FFFAEF"/>
<path d="M331.99 74.39C331.99 74.3 331.99 74.22 331.99 74.13C331.99 73.8 332 73.46 332.01 73.13C332.27 66.07 334.72 59.83 338.38 55.84C338.13 55.63 337.87 55.43 337.61 55.23C333.8 59.41 331.27 65.85 331.01 73.13C331 73.46 330.99 73.8 330.99 74.13C330.99 74.22 330.99 74.3 330.99 74.39C330.99 81.31 333.04 87.55 336.32 91.96C336.59 91.78 336.86 91.6 337.13 91.41C333.97 87.17 331.99 81.12 331.99 74.39Z" fill="#FFFAEF"/>
<path d="M310.62 55.24C310.36 55.44 310.1 55.64 309.85 55.85C313.52 59.85 315.96 66.08 316.22 73.14C316.23 73.47 316.24 73.81 316.24 74.14C316.24 74.23 316.24 74.31 316.24 74.4C316.24 81.12 314.26 87.18 311.1 91.42C311.37 91.61 311.64 91.79 311.91 91.97C315.19 87.56 317.24 81.32 317.24 74.4C317.24 74.31 317.24 74.23 317.24 74.14C317.24 73.81 317.23 73.47 317.22 73.14C316.96 65.86 314.43 59.42 310.62 55.24Z" fill="#FFFAEF"/>
<path d="M109.27 0.919983C108.53 1.04998 108.02 1.76998 108.16 2.50998L108.77 5.95998C108.9 6.69998 109.62 7.20998 110.36 7.06998C111.1 6.92999 111.61 6.21999 111.47 5.47998L110.86 2.02998C110.74 1.28998 110.02 0.789983 109.27 0.919983Z" fill="#FFCC05"/>
<path d="M119.62 0.260044C118.87 0.150044 118.17 0.670044 118.06 1.42004L117.55 4.88005C117.44 5.63005 117.96 6.33004 118.71 6.44004C119.46 6.55004 120.16 6.03004 120.27 5.28004L120.78 1.82005C120.89 1.08005 120.37 0.380044 119.62 0.260044Z" fill="#FFCC05"/>
<path d="M129.95 2.19995C129.31 1.78995 128.46 1.96995 128.05 2.60995L126.15 5.54995C125.74 6.18995 125.92 7.03995 126.56 7.44995C127.2 7.85995 128.05 7.67995 128.46 7.03995L130.36 4.09995C130.77 3.45995 130.58 2.60995 129.95 2.19995Z" fill="#FFCC05"/>
<path d="M136.99 7.77005C136.43 7.27005 135.55 7.32006 135.05 7.88006L132.72 10.4901C132.22 11.0501 132.27 11.9301 132.83 12.4301C133.39 12.9301 134.27 12.8801 134.77 12.3201L137.1 9.71005C137.6 9.14005 137.56 8.27005 136.99 7.77005Z" fill="#FFCC05"/>
<path d="M143.71 15.94C143.41 15.25 142.6 14.92 141.9 15.22L138.68 16.6C137.99 16.9 137.66 17.71 137.96 18.41C138.26 19.1 139.07 19.43 139.77 19.13L142.99 17.75C143.69 17.44 144.01 16.63 143.71 15.94Z" fill="#FFCC05"/>
<path d="M148.28 23.5801C148.18 22.8301 147.49 22.2901 146.74 22.3901L143.27 22.8301C142.52 22.9301 141.98 23.6201 142.08 24.3701C142.18 25.1201 142.87 25.6601 143.62 25.5601L147.09 25.1201C147.84 25.0201 148.37 24.3301 148.28 23.5801Z" fill="#FFCC05"/>
<path d="M149.83 32.5301C149.82 31.7701 149.19 31.1701 148.43 31.1801L144.93 31.2501C144.17 31.2601 143.57 31.8901 143.58 32.6501C143.59 33.4101 144.22 34.0101 144.98 34.0001L148.48 33.9301C149.24 33.9201 149.85 33.2901 149.83 32.5301Z" fill="#FFCC05"/>
<path d="M149.26 41.0701C149.44 40.3301 148.98 39.5901 148.24 39.4101L144.84 38.5901C144.1 38.4101 143.36 38.8701 143.18 39.6101C143 40.3501 143.46 41.0901 144.2 41.2701L147.6 42.0901C148.34 42.2601 149.08 41.8101 149.26 41.0701Z" fill="#FFCC05"/>
<path d="M147.19 49.7101C147.56 49.0501 147.32 48.2101 146.66 47.8401L143.6 46.1401C142.94 45.7701 142.1 46.0101 141.73 46.6701C141.36 47.3301 141.6 48.1701 142.26 48.5401L145.32 50.2401C145.98 50.6101 146.83 50.3701 147.19 49.7101Z" fill="#FFCC05"/>
<path d="M141.51 55.62C142.13 55.19 142.29 54.33 141.86 53.71L139.88 50.83C139.45 50.21 138.59 50.05 137.97 50.48C137.35 50.91 137.19 51.77 137.62 52.39L139.6 55.27C140.03 55.89 140.89 56.05 141.51 55.62Z" fill="#FFCC05"/>
<path d="M100.51 3.66001C101.17 3.30001 102.01 3.55001 102.37 4.21001L104.04 7.29001C104.4 7.95002 104.15 8.79002 103.49 9.15002C102.83 9.51002 101.99 9.26001 101.63 8.60001L99.9599 5.52001C99.5999 4.86001 99.8499 4.02001 100.51 3.66001Z" fill="#FFCC05"/>
<path d="M91.48 9.03005C91.94 8.43005 92.8 8.31005 93.41 8.76005L96.2 10.8701C96.8 11.3301 96.92 12.1901 96.47 12.8001C96.01 13.4001 95.15 13.5201 94.54 13.0701L91.75 10.9601C91.15 10.5001 91.03 9.63005 91.48 9.03005Z" fill="#FFCC05"/>
<path d="M86.78 16.6801C87.14 16.0101 87.97 15.7601 88.64 16.1101L91.73 17.7601C92.4 18.1201 92.65 18.9501 92.3 19.6201C91.94 20.2901 91.11 20.5401 90.44 20.1901L87.35 18.5401C86.68 18.1801 86.43 17.3501 86.78 16.6801Z" fill="#FFCC05"/>
<path d="M83.28 26.6601C83.32 25.9001 83.97 25.3201 84.73 25.3601L88.22 25.5501C88.98 25.5901 89.56 26.2401 89.52 27.0001C89.48 27.7601 88.83 28.3401 88.07 28.3001L84.58 28.1101C83.83 28.0701 83.24 27.4201 83.28 26.6601Z" fill="#FFCC05"/>
<path d="M81.63 35.4101C81.46 34.6701 81.93 33.9301 82.66 33.7601L86.07 32.9801C86.81 32.8101 87.55 33.2801 87.72 34.0101C87.89 34.7401 87.42 35.4901 86.69 35.6601L83.28 36.4401C82.54 36.6101 81.8 36.1501 81.63 35.4101Z" fill="#FFCC05"/>
<path d="M83.25 44.3501C83 43.6401 83.39 42.8501 84.1 42.6001L87.41 41.4601C88.12 41.2101 88.91 41.6001 89.16 42.3101C89.41 43.0201 89.02 43.8101 88.31 44.0601L85 45.2001C84.28 45.4501 83.5 45.0701 83.25 44.3501Z" fill="#FFCC05"/>
<path d="M86.73 52.1701C86.31 51.5401 86.48 50.6801 87.11 50.2601L90.02 48.3201C90.65 47.9001 91.51 48.0701 91.93 48.7001C92.35 49.3301 92.18 50.1901 91.55 50.6101L88.64 52.5501C88 52.9701 87.14 52.8001 86.73 52.1701Z" fill="#FFCC05"/>
<path d="M91.64 59.57C91.07 59.08 91 58.2 91.5 57.63L93.78 54.98C94.27 54.41 95.15 54.34 95.72 54.84C96.29 55.33 96.36 56.21 95.86 56.78L93.58 59.43C93.09 60 92.21 60.06 91.64 59.57Z" fill="#FFCC05"/>
<path d="M99.01 63.17C98.28 62.98 97.83 62.23 98.02 61.5L98.89 58.11C99.08 57.38 99.83 56.93 100.56 57.12C101.29 57.31 101.74 58.06 101.55 58.79L100.68 62.18C100.5 62.91 99.74 63.35 99.01 63.17Z" fill="#FFCC05"/>
<path d="M243.9 311.1L243.86 315.86C243.09 315.95 234.83 316.35 234.69 315.85C234.55 315.35 240.86 313.82 240.86 313.82C240.86 313.82 240.61 311.83 240.69 311.55C240.77 311.29 243.9 311.1 243.9 311.1Z" fill="#383A45"/>
<path d="M255.67 311.11L255.48 315.87C254.71 315.93 246.44 316.08 246.31 315.57C246.18 315.06 252.54 313.73 252.54 313.73C252.54 313.73 252.35 311.73 252.44 311.45C252.54 311.2 255.67 311.11 255.67 311.11Z" fill="#383A45"/>
<path d="M261.28 252.39C261.28 252.39 267.18 210.1 261.29 204.09C252.08 194.69 236 201.73 235.35 202.81C232.71 207.19 232.47 251.31 232.47 251.31L261.28 252.39Z" fill="#7DD0E6"/>
<path d="M232.47 251.31C232.47 251.31 218.7 269 220.99 277.91C223.27 286.82 238.99 312.31 238.99 312.31H245.66C245.66 312.31 231.4 280.78 232.48 277.52C233.56 274.26 246.89 261.12 246.89 261.12C246.89 261.12 247.66 296.11 251.75 312.31H256.4C256.4 312.31 261.34 273.19 261.3 250.58L232.47 251.31Z" fill="#383A45"/>
<path d="M255.66 200.44L254.78 277.58H262.35C262.35 277.58 264.95 208.72 263.91 204.95C262.87 201.18 255.66 200.44 255.66 200.44Z" fill="#FBE4D3"/>
<path d="M221.65 268.19L226.1 271.58C226.1 271.58 239.35 252.78 238.98 250.58C238.61 248.38 240.78 200.44 240.78 200.44C240.78 200.44 235.98 200.65 235.01 204.3C232.13 215.19 232.47 248.89 232.47 248.89C232.47 248.89 225.54 259.84 221.65 268.19Z" fill="#FBE4D3"/>
<path d="M249.2 186.98C249.2 186.98 249.3 184.12 250.63 184.4C251.96 184.67 252.92 187.48 252.21 188.51C251.49 189.54 249.18 189.37 249.2 186.98Z" fill="#E57373"/>
<path d="M240.35 183.68C240.35 183.68 237.6 191.58 242.36 192.91C247.12 194.24 246.25 189.2 246.06 190.15C245.87 191.1 244.97 200.22 244.97 200.22C244.97 200.22 247.06 202.02 251.61 199.36C251.61 199.36 249.67 186.7 249.12 180.48C248.89 177.76 242.07 180.48 240.35 183.68Z" fill="#E57373"/>
<path d="M248.67 178.04C248.67 178.04 247.6 174.34 245.32 175.21C243.04 176.08 243.35 177.33 241.7 176.63C240.05 175.93 238.36 178.52 239.23 180.17C240.38 182.34 240.36 183 243.51 182.29C246.66 181.58 248.31 180.48 249.02 181.74C249.73 183 248.47 186.22 249.41 186.62C250.35 187.02 250.28 184.5 250.98 185.44C251.69 186.38 252.79 188.8 250.9 188.49C249.01 188.19 250.41 190.71 251.13 190.63C251.85 190.55 255.13 187.86 254.76 184.26C254.52 181.98 252.13 183.16 252.79 181.51C253.45 179.85 251.94 176.31 248.67 178.04Z" fill="#383A45"/>
<path d="M264.15 252.39C264.15 252.39 260.04 249.47 265.42 243.72C269.92 238.91 280.96 227.05 277.15 222.72C273.34 218.39 264.15 215.02 264.15 215.02L262.26 202.73C262.26 202.73 282.55 210.6 286.67 221.85C290.57 232.48 268.28 245.17 266.4 246.77C263.89 248.9 264.15 252.39 264.15 252.39Z" fill="#E57373"/>
<path d="M235.36 202.81C235.36 202.81 213.93 209.59 212.93 224.59C211.93 239.59 232.55 245.19 231.22 247.72C230.14 249.79 226.68 250.46 227.68 250.32C228.68 250.18 234.16 252.29 232.55 245.19C230.93 238.09 215.52 232.84 222.43 223.59C226.12 218.65 233.58 216.01 233.58 216.01C233.58 216.01 234.37 206.08 235.36 202.81Z" fill="#E57373"/>
<path d="M263.01 216L272.93 219.59C272.93 219.59 278.99 212.26 278.59 211.95C278.2 211.64 268.31 203.04 257.74 200.82C257.74 200.81 260.51 213.88 263.01 216Z" fill="#FBE4D3"/>
<path d="M236.67 216C236.67 216 229.34 218.17 226 221.34C226 221.34 218.26 213.21 218.45 213.01C218.64 212.81 225.54 204.93 238.8 200.82L236.67 216Z" fill="#FBE4D3"/>
<path d="M239.22 190.05C239.22 190.05 240.71 188.82 242.46 190.05C244.21 191.28 249.06 189.63 248.86 186.15L250.29 185.33C250.29 185.33 249.08 194.15 244.21 194.77C239.34 195.39 238.47 190.45 239.22 190.05Z" fill="#383A45"/>
</g>
</svg>
