<svg width="244" height="244" viewBox="0 0 244 244" fill="none" xmlns="http://www.w3.org/2000/svg">
<style>
.spinner{

    animation:spin 5s linear infinite;
    transform-origin: 50% 50%;

}
@keyframes spin {
0% { transform: rotate(0deg);}
100% { transform: rotate(360deg);}
}
</style>
<g id="coffee" class="spinner">
<path opacity="0.1" d="M217.858 144.539C225.385 95.2304 191.513 49.1564 142.205 41.6299C92.8961 34.1034 46.8221 67.9746 39.2956 117.283C31.7691 166.592 65.6403 212.666 114.949 220.192C164.258 227.719 210.332 193.848 217.858 144.539Z" fill="black"/>
<path d="M122.007 212.305C171.884 212.305 212.317 171.872 212.317 121.994C212.317 72.1171 171.884 31.6836 122.007 31.6836C72.1294 31.6836 31.6959 72.1171 31.6959 121.994C31.6959 171.872 72.1294 212.305 122.007 212.305Z" fill="#D9F0FC"/>
<path d="M183 183C216.689 149.311 216.689 94.6894 183 61C149.311 27.3106 94.6894 27.3106 61 61C27.3106 94.6894 27.3106 149.311 61 183C94.6894 216.689 149.311 216.689 183 183Z" fill="white"/>
<path d="M200.532 134.234C207.286 90.87 177.607 50.2412 134.243 43.4871C90.8793 36.733 50.2505 66.4113 43.4964 109.775C36.7423 153.139 66.4205 193.768 109.785 200.522C153.149 207.276 193.777 177.598 200.532 134.234Z" fill="#D9F0FC"/>
<path opacity="0.1" d="M154.773 176.238C184.725 158.153 194.345 119.212 176.261 89.2601C158.176 59.3082 119.235 49.6878 89.2833 67.7723C59.3314 85.8567 49.711 124.798 67.7955 154.75C85.88 184.702 124.821 194.322 154.773 176.238Z" fill="black"/>
<path opacity="0.1" d="M174.717 130.638C179.499 101.529 159.777 74.0551 130.668 69.2734C101.559 64.4916 74.0846 84.213 69.3029 113.322C64.5211 142.432 84.2425 169.906 113.352 174.687C142.461 179.469 169.935 159.748 174.717 130.638Z" fill="black"/>
<path d="M94.9162 107.161C92.4677 111.688 86.745 113.396 82.218 110.948L62.1743 100.114C57.6474 97.6659 55.9391 91.9432 58.3876 87.4163C60.8362 82.8893 66.5589 81.181 71.0858 83.6296L91.1296 94.4629C95.6565 96.9257 97.3647 102.634 94.9162 107.161Z" fill="white"/>
<path d="M162.414 146.177C175.934 123.74 168.705 94.5906 146.268 81.0706C123.831 67.5505 94.6814 74.7795 81.1614 97.2168C67.6413 119.654 74.8702 148.803 97.3076 162.323C119.745 175.844 148.894 168.615 162.414 146.177Z" fill="white"/>
<path d="M141.716 157.836C161.653 146.837 168.897 121.758 157.898 101.822C146.898 81.8857 121.82 74.6411 101.884 85.6407C81.9473 96.6402 74.7027 121.719 85.7022 141.655C96.7018 161.591 121.78 168.836 141.716 157.836Z" fill="#D1AF8C"/>
<path opacity="0.1" d="M103.714 88.2133C85.2218 98.2067 78.3317 121.297 88.3109 139.789C98.3043 158.281 121.394 165.185 139.887 155.192C158.379 145.199 165.283 122.108 155.289 103.616C145.296 85.1242 122.206 78.2199 103.714 88.2133ZM129.979 145.981C115.743 153.669 97.9484 148.373 90.2612 134.123C82.5739 119.888 87.8696 102.093 102.119 94.4058C116.355 86.7186 134.15 92.0142 141.837 106.264C149.524 120.5 144.214 138.294 129.979 145.981Z" fill="black"/>
</g>
</svg>
