<svg width="381" height="295" viewBox="0 0 381 295" fill="none" xmlns="http://www.w3.org/2000/svg">
<style>
.moveme{
  animation: move 7s cubic-bezier(.36,.07,.19,.97) both infinite;
  transform: translate3d(0, 0, 0);
  backface-visibility: hidden;
  perspective: 1000px;

}
@keyframes move {
  0% {
    transform: translate3d(0px, 0, 0);
  }

  50% {
    transform: translate3d(-50px, 0, 0);
  }

  100%{
      transform:translate3d(0px,0,0);
  }

}

</style>
<g id="Group">
<g id="Group_2">
<g id="Group_3">
<path id="Vector" d="M318.461 112.192L347.456 117.115L334.443 183.508C334.443 183.508 342.923 199.803 342.728 235.246L343.626 266.352L338.273 267.407L321.978 184.172C322.017 184.172 315.139 143.688 318.461 112.192Z" fill="#303748"/>
</g>
<g id="Group_4">
<path id="Vector_2" d="M334.834 117.115L363.868 123.016L349.449 183.703C349.449 183.703 360.586 198.279 366.526 233.214L372.739 263.734L367.659 265.687L337.296 186.478C337.296 186.517 329.91 142.203 334.834 117.115Z" fill="#303748"/>
</g>
<g id="Group_5">
<g id="Group_6">
<path id="Vector_3" d="M262.306 19.6952C262.306 19.6952 257.617 10.0822 255.155 9.84775C253.084 9.65237 245.581 12.2705 258.985 22.4698L262.306 19.6952Z" fill="#FE7A42"/>
</g>
<g id="Group_7">
<path id="Vector_4" d="M337.335 54.904L293.49 75.4196L257.539 21.9618L261.994 17.7805L295.757 55.412L335.928 39.9764C335.928 39.9764 349.058 33.685 352.497 42.79C352.536 42.79 346.323 50.6836 337.335 54.904Z" fill="#171B23"/>
</g>
</g>
<g id="Group_8">
<path id="Vector_5" d="M370.707 43.4936C370.707 43.4936 375.553 49.785 376.374 63.6575C377.155 77.5299 368.636 94.5286 368.636 94.5286L363.322 125.243L318.422 112.231L319.711 79.7964L327.371 71.5511L324.635 61.3519L342.728 34.3104L370.707 43.4936Z" fill="#D55C3E"/>
</g>
<g id="Group_9">
<path id="Vector_6" d="M345.033 264.359L336.632 263.538L336.241 270.064L334.443 272.682L321.431 281.201L324.518 281.123L336.944 278.896L337.96 279.834L342.532 279.638L345.033 264.359Z" fill="#7A92CE"/>
</g>
<g id="Group_10">
<path id="Vector_7" d="M372.7 258.575L363.986 262.678L366.839 268.579L366.409 271.862L357.695 286.75L360.743 284.913L371.919 275.847L373.404 276.043L377.859 273.268L372.7 258.575Z" fill="#7A92CE"/>
</g>
<g id="Group_11">
<g id="Group_12">
<path id="Vector_8" d="M362.696 53.8489C363.439 53.7707 364.142 53.6925 364.846 53.5362L364.689 52.7938C355.193 54.6695 342.415 50.2538 334.443 46.7759L334.014 47.4011C341.516 50.6836 353.279 54.7867 362.696 53.8489Z" fill="#EAC4AC"/>
</g>
<g id="Group_13">
<path id="Vector_9" d="M366.057 46.6588C366.76 46.5807 367.503 46.4634 368.206 46.3462L368.05 45.6037C358.984 47.4013 346.948 43.4545 338.898 40.0548L338.468 40.6801C346.01 43.8844 357.069 47.5576 366.057 46.6588Z" fill="#EAC4AC"/>
</g>
<g id="Group_14">
<path id="Vector_10" d="M361.954 62.5634C362.774 62.4852 363.556 62.368 364.337 62.2117L364.181 61.4692C353.161 63.6575 338.156 58.1086 329.481 54.2399L329.051 54.8651C337.179 58.4993 350.973 63.6575 361.954 62.5634Z" fill="#EAC4AC"/>
</g>
<g id="Group_15">
<path id="Vector_11" d="M362.501 72.2545C363.4 72.1763 364.299 72.02 365.158 71.8637L365.002 71.1212C352.145 73.7003 334.482 66.8618 325.026 62.5242L325.26 63.462C334.326 67.5652 350.035 73.544 362.501 72.2545Z" fill="#EAC4AC"/>
</g>
<g id="Group_16">
<path id="Vector_12" d="M365.08 82.2583C365.979 82.1801 366.878 82.0238 367.737 81.8675L367.581 81.125C354.373 83.7432 336.124 76.4748 326.823 72.1763L326.276 72.7624C334.991 76.8265 351.872 83.626 365.08 82.2583Z" fill="#EAC4AC"/>
</g>
<g id="Group_17">
<path id="Vector_13" d="M364.416 93.2782C365.393 93.2001 366.331 93.0438 367.269 92.8484L367.112 92.1059C350.973 95.3102 327.8 84.8375 319.711 80.8125L319.672 81.6332C327.644 85.5409 348.511 94.8804 364.416 93.2782Z" fill="#EAC4AC"/>
</g>
<g id="Group_18">
<path id="Vector_14" d="M366.057 103.594C366.408 103.555 366.76 103.477 367.112 103.438L367.268 102.617C350.426 105.001 327.409 94.5675 319.359 90.5425L319.32 91.3631C327.448 95.4272 349.371 105.275 366.057 103.594Z" fill="#EAC4AC"/>
</g>
<g id="Group_19">
<path id="Vector_15" d="M365.51 112.7C347.886 111.84 327.722 102.93 319.008 98.6318L318.969 99.4524C327.917 103.829 347.847 112.582 365.393 113.481L365.51 112.7Z" fill="#EAC4AC"/>
</g>
</g>
<g id="Group_20">
<g id="Group_21">
<path id="Vector_16" d="M317.25 121.297C317.25 121.297 306.542 121.766 305.331 123.876C304.315 125.673 303.729 133.645 318.461 125.439L317.25 121.297Z" fill="#FE7A42"/>
</g>
<g id="Group_22">
<path id="Vector_17" d="M377.702 63.0714L380.359 111.371L317.484 126.533L315.999 121.336L362.501 102.11L362.462 59.0855C362.462 59.0855 361.29 44.5878 370.981 44.5878C370.981 44.5487 376.999 53.1457 377.702 63.0714Z" fill="#171B23"/>
</g>
</g>
<g id="Group_23">
<path id="Vector_18" d="M353.786 11.6454C353.786 11.6454 343.431 9.80876 342.141 21.0631C340.5 35.5608 347.417 35.8343 342.141 47.1277C342.141 47.1277 360.351 29.6992 354.568 15.0842L353.786 11.6454Z" fill="#11141B"/>
</g>
<g id="Group_24">
<path id="Vector_19" d="M357.186 27.9799L360.352 39.8594C360.352 39.8594 345.659 50.4104 347.104 44.4706C348.472 38.9607 349.254 27.9799 349.254 27.9799H357.186Z" fill="#FE7A42"/>
</g>
<g id="Group_25">
<path id="Vector_20" d="M357.186 14.2633C358.163 16.7251 360.078 21.4535 358.71 24.6579C357.303 27.8622 355.271 33.6066 351.598 34.9743C347.925 36.342 346.987 32.2389 346.205 30.8712C345.424 29.5035 343.47 15.9827 349.371 12.7392C353.826 10.2774 356.444 12.3875 357.186 14.2633Z" fill="#FF8155"/>
</g>
<g id="Group_26">
<path id="Vector_21" d="M353.669 11.6452C353.669 11.6452 359.453 10.512 363.204 14.2634C368.714 19.7343 370.941 32.4345 352.888 47.8701C352.888 47.8701 363.009 19.3435 352.888 15.0841L353.669 11.6452Z" fill="#11141B"/>
</g>
<g id="Group_27">
<path id="Vector_22" d="M351.52 15.7486C351.52 15.7486 354.92 22.8998 359.765 24.3847C359.765 24.3847 363.712 12.4661 353.669 11.0983C350.27 10.6294 343.509 10.5513 344.643 21.4148C344.643 21.4148 351.051 19.2656 351.52 15.7486Z" fill="#191D26"/>
</g>
<g id="Group_28">
<path id="Vector_23" d="M362.501 102.07V88.2759L367.112 104.845L345.072 109.729L362.501 102.07Z" fill="#0A0C0F"/>
</g>
</g>
<g id="Phone" class="moveme">
<path id="Vector_24" d="M286.026 268.266C286.065 275.066 280.555 280.576 273.795 280.615L136.438 281.005C129.677 281.005 124.128 275.535 124.128 268.735L123.386 12.7392C123.386 5.93974 128.857 0.429875 135.656 0.390798L273.013 0C279.813 0 285.323 5.47083 285.323 12.2703L286.026 268.266Z" fill="#303748"/>
<path id="Vector_25" d="M271.962 17.4359L135.66 17.8176L136.286 241.262L272.588 240.88L271.962 17.4359Z" fill="#ECEBE4"/>
<path id="Vector_26" d="M216.586 259.747C216.586 266.117 211.466 271.275 205.097 271.314C198.727 271.314 193.53 266.156 193.53 259.825C193.491 253.456 198.649 248.298 205.019 248.259C211.349 248.219 216.546 253.378 216.586 259.747Z" fill="#ECEBE4"/>
<g id="Group_29">
<path id="Vector_27" d="M256.406 50.4492H152.968V183.82H256.406V50.4492Z" fill="#F9F9F7"/>
<path id="Vector_28" d="M242.768 136.927H161.76V175.653H242.768V136.927Z" fill="#D3D2CD"/>
<path id="Vector_29" d="M242.768 60.5701H161.76V66.0409H242.768V60.5701Z" fill="#D3D2CD"/>
<path id="Vector_30" d="M242.768 72.8794H161.76V78.3503H242.768V72.8794Z" fill="#D3D2CD"/>
<path id="Vector_31" d="M242.768 87.6509H161.76V93.1217H242.768V87.6509Z" fill="#D3D2CD"/>
<path id="Vector_32" d="M242.768 99.9602H161.76V105.431H242.768V99.9602Z" fill="#D3D2CD"/>
</g>
</g>
<g id="Group_30">
<g id="Group_31">
<g id="Group_32">
<path id="Vector_33" d="M65.4738 56.1151L86.5756 89.7999L135.969 70.1439L134.484 65.9235L94.1566 75.0677L73.7973 46.1504C73.7973 46.1504 67.7012 35.873 61.2144 40.4841C61.2144 40.5232 61.2534 49.1203 65.4738 56.1151Z" fill="#FE7A42"/>
</g>
<g id="Group_33">
<path id="Vector_34" d="M133.664 66.5879C133.664 66.5879 140.62 61.2343 142.535 61.9377C144.137 62.5239 148.709 67.2131 135.11 69.8313L133.664 66.5879Z" fill="#FE7A42"/>
</g>
</g>
<g id="Group_34">
<g id="Group_35">
<path id="Vector_35" d="M6.81856 66.2753L27.9203 99.96L77.3141 80.304L75.8292 76.0837L35.5013 85.2278L15.1421 56.3105C15.1421 56.3105 9.04598 46.0332 2.55914 50.6443C2.55914 50.6834 2.59821 59.2804 6.81856 66.2753Z" fill="#FE7A42"/>
</g>
<g id="Group_36">
<path id="Vector_36" d="M74.9696 76.748C74.9696 76.748 81.9254 71.3553 83.8401 72.0978C85.4423 72.6839 90.0143 77.3733 76.4154 79.9915L74.9696 76.748Z" fill="#FE7A42"/>
</g>
</g>
<g id="Group_37">
<path id="Vector_37" d="M21.668 281.474L24.4816 281.709L24.9895 286.046L26.0056 288L33.8601 294.37L19.7141 289.759L21.668 281.474Z" fill="#DB2C39"/>
</g>
<g id="Group_38">
<path id="Vector_38" d="M11.5076 273.893L13.735 275.652L11.7421 279.52L11.5467 281.709L14.5556 291.361L5.29437 279.716L11.5076 273.893Z" fill="#DB2C39"/>
</g>
<g id="Group_39">
<path id="Vector_39" d="M7.87354 124.93L15.8453 212.659L18.6979 284.991H25.5365L32.375 209.806L40.9329 124.93H7.87354Z" fill="#7A92CE"/>
</g>
<g id="Group_40">
<path id="Vector_40" d="M70.5537 124.93L68.2481 204.961L14.7121 278.153L7.87354 274.753L44.8798 208.673L31.7889 129.463V124.93H70.5537Z" fill="#7A92CE"/>
</g>
<g id="Group_41">
<path id="Vector_41" d="M7.87354 124.93H70.5537L63.7151 81.0465V37.1625L38.7447 32.1606L7.87354 34.9742V77.3341V124.93Z" fill="#171B23"/>
</g>
<g id="Group_42">
<path id="Vector_42" d="M61.136 37.3971C61.136 37.3971 50.9368 43.2197 68.0917 61.8205L78.2519 50.8398C78.2128 50.8398 70.5927 35.0916 61.136 37.3971Z" fill="#171B23"/>
</g>
<g id="Group_43">
<path id="Vector_43" d="M9.67114 34.8571C9.67114 34.8571 -1.9739 33.2549 0.292593 58.4597L15.0248 55.9587C15.0248 55.9196 18.5808 38.8038 9.67114 34.8571Z" fill="#171B23"/>
</g>
<g id="Group_44">
<g id="Group_45">
<path id="Vector_44" d="M33.5085 34.8177C33.3912 37.006 42.2618 37.006 42.3399 34.8177C42.6135 28.409 41.4802 23.7197 41.4802 23.7197L34.9153 21.2969C34.9153 21.2969 33.782 30.2066 33.5085 34.8177Z" fill="#FE7A42"/>
</g>
<g id="Group_46">
<path id="Vector_45" d="M40.3472 27.276C40.9334 27.3542 46.4824 28.292 47.303 25.5566C48.1627 22.8603 47.8891 12.8956 46.5996 10.4728C45.31 8.04996 41.0506 6.64322 39.0576 7.46384C37.0647 8.32355 31.672 14.0679 34.6419 23.8763C34.6419 23.8763 37.0647 26.9634 40.3472 27.276Z" fill="#FE7A42"/>
</g>
<g id="Group_47">
<path id="Vector_46" d="M47.8109 10.4726C47.8109 10.4726 47.3029 13.8723 44.9191 13.5988C42.4964 13.3253 38.3933 12.5828 37.9244 14.4585C37.4945 16.2951 39.253 22.5866 37.9244 24.1497C36.5957 25.7128 33.3523 27.5495 32.6489 25.283C31.9455 23.0165 30.4997 8.90953 37.9244 5.62702C37.9244 5.62702 45.3099 4.06389 47.8109 10.4726Z" fill="#171B23"/>
</g>
</g>
</g>
</g>
</svg>
