<svg width="249" height="373" viewBox="0 0 249 373" fill="none" xmlns="http://www.w3.org/2000/svg">

<style>
.shakeme{
  animation: shake 7s cubic-bezier(.36,.07,.19,.97) both infinite;
  transform: translate3d(0, 0, 0);
  backface-visibility: hidden;
  perspective: 1000px;

}
@keyframes shake {
  10%, 90% {
    transform: translate3d(-1px, 0, 0);
  }

  20%, 60% {
    transform: translate3d(2px, 0, 0);
  }

  25%, 30%, 40% {
    transform: translate3d(-4px, 0, 0);
  }

  65%, 80% {
    transform: translate3d(4px, 0, 0);
  }
  75%, 100% {
    transform: translate3d(-8px, 0, 0);
  }
}
.shakeme2{
  animation: shake1 7s cubic-bezier(.36,.07,.19,.97) both infinite;
  transform: translate3d(0, 0, 0);
  backface-visibility: hidden;
  perspective: 1000px;

}
@keyframes shake1 {
  10%, 90% {
    transform: translate3d(7px, 0, 0);
  }

  20%, 60% {
    transform: translate3d(-2px, 0, 0);
  }

  25%, 30%, 40% {
    transform: translate3d(4px, 0, 0);
  }

  65%, 80% {
    transform: translate3d(7px, 0, 0);
  }
  75%, 100% {
    transform: translate3d(-5px, 0, 0);
  }

}

.shakebox{
  animation: shakedbox 7s cubic-bezier(.42,.1,.19,.69) both infinite;
  transform: translate3d(0, 0, 0);
  backface-visibility: hidden;
  perspective: 1000px;

}
@keyframes shakedbox {
  10%, 90% {
    transform: translate3d(-9px, 2px, 0);
  }

  20%, 60% {
    transform: translate3d(7px, -3px, 0);
  }

  65%, 30%, 40% {
    transform: translate3d(-4px, 3px, 0);
  }

  55%, 80% {
    transform: translate3d(5px, -4px, 0);
  }
  75%, 100% {
    transform: translate3d(-4px, -1px, 0);
  }

}


</style>


<g id="Group">
<g id="Group_2">
<path id="Vector" d="M45.8293 192.129C45.8293 192.129 23.1505 195.094 16.8597 210.28C10.5289 225.466 11.0498 246.863 5.19976 260.205C-0.610186 273.548 -5.97938 306.124 15.1768 321.591C34.2094 335.494 65.4229 348.797 106.253 338.459C147.043 328.122 187.752 313.857 181.422 291.499C175.091 269.141 178.817 235.964 148.004 232.358C128.291 230.074 104.69 209.158 93.3106 201.024C81.9311 192.93 62.6581 186.519 45.8293 192.129Z" fill="#7A92CE"/>
</g>
<g id="Group_3">
<path id="Vector_2" d="M148.004 232.398C128.371 229.433 104.69 209.198 93.3106 201.064C82.3318 193.211 64.0605 187 47.6725 191.568C41.2214 202.106 27.6782 227.149 32.9272 244.419C39.7389 266.777 49.3954 269.181 50.8779 282.804C52.3605 296.388 72.7554 319.707 113.064 309.009C142.194 301.276 164.392 295.065 178.817 282.243C178.777 280.6 178.577 278.998 178.136 277.435C171.805 255.117 175.652 236.565 148.004 232.398Z" fill="#6884BC"/>
</g>
<g id="Group_4">
<g id="Group_5">
<path id="Vector_3" d="M117.432 259.684L209.43 347.315L217.884 343.388L163.912 252.112L117.432 259.684Z" fill="#171B23"/>
</g>
<g id="Group_6">
<path id="Vector_4" d="M74.318 233.4C74.318 233.4 50.6374 279.118 100.523 277.436C150.408 275.753 161.387 277.476 161.387 277.476L125.045 334.894L128.531 343.348C128.531 343.348 201.135 262.209 201.977 252.914C202.818 243.658 216.321 234.161 74.318 233.4Z" fill="#20252D"/>
</g>
<g id="Group_7">
<path id="Vector_5" d="M198.611 181.351C198.611 181.351 210.431 177.544 212.635 179.387C214.478 180.95 218.325 189.364 198.972 186.319L198.611 181.351Z" fill="#FE7A42"/>
</g>
<g id="Group_8">
<path id="Vector_6" d="M86.8194 113.355C86.8194 113.355 77.9242 116.881 77.5636 123.251C77.203 129.622 75.3598 133.469 69.1492 139.479C62.9385 145.529 53.3621 155.947 55.8865 162.959C59.8933 174.138 53.0416 181.591 57.3289 187.281C61.5762 192.97 69.069 188.523 70.9122 184.797C72.7553 181.07 88.0215 161.917 89.6242 155.506C91.227 149.136 99.6815 151.66 102.126 147.052C104.61 142.444 101.525 136.394 102.566 133.829C106.453 124.534 101.444 118.042 95.7948 114.036C90.1451 110.149 86.8194 113.355 86.8194 113.355Z" fill="#11141B"/>
</g>
<g id="Group_9">
<path id="Vector_7" d="M104.65 161.397L130.895 211.082L201.696 187L199.933 180.149L142.795 191.007L116.39 148.615C116.39 148.615 108.657 133.629 99.0803 139.599C99.0803 139.559 99.2807 151.219 104.65 161.397Z" fill="#552226"/>
</g>
<g id="Group_10">
<path id="Vector_8" d="M69.9106 148.816C69.9106 148.816 64.2609 156.108 63.3794 172.216C62.4979 188.323 72.3147 208.037 72.3147 208.037L70.3914 238.89L146.321 235.083L129.092 190.968L120.197 181.431L123.362 169.571L102.366 138.197L69.9106 148.816Z" fill="#D55C3E"/>
</g>
<g id="Group_11">
<path id="Vector_9" d="M85.5374 131.065L81.8511 144.889C81.8511 144.889 98.9203 157.15 97.2374 150.218C95.6747 143.807 94.7532 131.065 94.7532 131.065H85.5374Z" fill="#FE7A42"/>
</g>
<g id="Group_12">
<path id="Vector_10" d="M85.5373 115.157C84.4154 117.962 82.1716 123.491 83.7743 127.218C85.3771 130.944 87.7411 137.596 92.0285 139.198C96.2757 140.801 97.3977 136.033 98.3192 134.43C99.2408 132.828 101.485 117.161 94.6329 113.394C89.424 110.549 86.3788 112.993 85.5373 115.157Z" fill="#FF8155"/>
</g>
<g id="Group_13">
<path id="Vector_11" d="M92.1082 116.88C92.1082 116.88 88.1815 125.174 82.5319 126.897C82.5319 126.897 81.6103 113.795 89.624 112.152C89.624 112.152 99.2404 111.551 100.082 123.452C100.082 123.452 92.6291 120.967 92.1082 116.88Z" fill="#191D26"/>
</g>
<g id="Group_14">
<path id="Vector_12" d="M124.564 331.047L133.7 339.822L127.689 345.992L126.848 350.28L131.496 372.517L128.451 368.911L118.273 352.924L116.35 352.563L111.982 347.234L124.564 331.047Z" fill="#552226"/>
</g>
<g id="Group_15">
<path id="Vector_13" d="M207.266 346.994L218.925 342.026L222.211 349.999L225.817 352.444L248.095 356.971L243.608 358.334L224.896 361.379L223.774 362.982L217.162 364.945L207.266 346.994Z" fill="#552226"/>
</g>
<g id="Group_16">
<g id="Group_17">
<g id="Group_18">
<path id="Vector_14" d="M191.118 196.136L191.198 228.792L142.835 256.72L142.755 224.064L191.118 196.136Z" fill="#EAC4AC"/>
</g>
</g>
<g id="Group_19">
<path id="Vector_15" d="M117.432 242.055L142.715 227.149L142.876 256.72L117.432 242.055Z" fill="#E0B3A0"/>
</g>
</g>
<g id="Group_20">
<path id="Vector_16" d="M131.977 239.129C131.977 239.129 144.398 239.65 145.8 242.175C147.002 244.258 147.643 253.474 130.574 243.978L131.977 239.129Z" fill="#FE7A42"/>
</g>
<g id="Group_21">
<g id="Group_22">
<path id="Vector_17" d="M131.977 239.129C131.977 239.129 144.398 239.65 145.801 242.175C147.003 244.258 147.644 253.474 130.575 243.978L131.977 239.129Z" fill="#FE7A42"/>
</g>
<g id="Group_23">
<path id="Vector_18" d="M61.8167 171.534L58.7314 227.59L131.736 245.18L133.459 239.13L79.487 216.811L79.5671 166.846C79.5671 166.846 80.9295 150.017 69.6702 150.017C69.5901 150.057 62.6181 160.034 61.8167 171.534Z" fill="#552226"/>
</g>
</g>
</g>
<g id="messagebox2" class="shakeme">
<path id="Vector_19" d="M216.241 41.4708C216.241 50.326 209.069 57.4982 200.214 57.4982H165.635C156.779 57.4982 149.607 50.326 149.607 41.4708V16.0274C149.607 7.17225 156.779 0 165.635 0H200.214C209.069 0 216.241 7.17225 216.241 16.0274V41.4708Z" fill="#EB8B4B"/>
<path id="Vector_20" d="M216.241 38.9866C216.241 38.9866 218.525 80.1369 181.421 75.2886C181.421 75.2886 209.99 62.7071 197.689 40.99L216.241 38.9866Z" fill="#EB8B4B"/>
<path id="Vector_21" d="M206.344 17.3496H159.464V21.6769H206.344V17.3496Z" fill="#CC6621"/>
<path id="Vector_22" d="M206.344 26.0042H159.464V30.3317H206.344V26.0042Z" fill="#CC6621"/>
<path id="Vector_23" d="M206.344 34.6592H159.464V38.9866H206.344V34.6592Z" fill="#CC6621"/>
</g>
<g id="messagebox1" class="shakeme2">
<path id="Vector_24" d="M6.48279 64.2302C6.48279 75.5695 15.6585 84.7452 26.9979 84.7452H71.2337C82.533 84.7452 91.7488 75.5695 91.7488 64.2302V31.6545C91.7488 20.3151 82.5731 11.1394 71.2337 11.1394H26.9979C15.6986 11.1394 6.48279 20.3151 6.48279 31.6545V64.2302Z" fill="#7A92CE"/>
<path id="Vector_25" d="M6.48185 61.0249C6.48185 61.0249 3.55684 113.635 51.0382 107.505C51.0382 107.505 1.313 92.8394 30.2025 63.6293L6.48185 61.0249Z" fill="#7A92CE"/>
<path id="Vector_26" d="M79.1265 33.3372H19.1838V38.8666H79.1265V33.3372Z" fill="#6380BA"/>
<path id="Vector_27" d="M79.1265 44.436H19.1838V49.9655H79.1265V44.436Z" fill="#6380BA"/>
<path id="Vector_28" d="M79.1265 55.4949H19.1838V61.0243H79.1265V55.4949Z" fill="#6380BA"/>
</g>
<g id="messagebox3" class="shakebox">
<path id="Vector_29" d="M233.671 123.852C233.671 128.46 229.904 132.226 225.297 132.226H207.226C202.618 132.226 198.851 128.46 198.851 123.852V110.549C198.851 105.941 202.578 102.175 207.226 102.175H225.297C229.944 102.175 233.671 105.941 233.671 110.549V123.852Z" fill="#303748"/>
<path id="Vector_30" d="M233.671 122.53C233.671 122.53 234.873 144.007 215.48 141.522C215.48 141.522 235.795 135.552 223.974 123.571L233.671 122.53Z" fill="#303748"/>
<path id="Vector_31" d="M228.462 111.23H203.98V113.474H228.462V111.23Z" fill="#212835"/>
<path id="Vector_32" d="M228.462 115.758H203.98V118.002H228.462V115.758Z" fill="#212835"/>
<path id="Vector_33" d="M228.462 120.246H203.98V122.49H228.462V120.246Z" fill="#212835"/>
</g>
</g>
</svg>
