<svg width="300" height="334" viewBox="0 0 400 334" fill="none" xmlns="http://www.w3.org/2000/svg">
<style>
.moveme{
  animation: move 7s cubic-bezier(.36,.07,.19,.97) both infinite;
  transform: translate3d(0, 0, 0);
  backface-visibility: hidden;
  perspective: 1000px;

}
@keyframes move {
  0% {
    transform: translate3d(0px, 0, 0);
  }

  50% {
    transform: translate3d(50px, 0px, 0);
  }

  100%{
      transform:translate3d(0px,0,0);
  }

}

</style>

<g id="Group" class="moveme">
<g id="Group_2">
<path id="Vector" d="M89.969 268.254H203.135V324.05H89.969V268.254Z" fill="#ECEBE4"/>
<path id="Vector_2" d="M89.969 290.435H203.135V302.295H89.969V290.435Z" fill="#D3D2CD"/>
<path id="Vector_3" d="M43.2807 322.478H248.25V333.158H43.2807V322.478Z" fill="#303748"/>
<path id="Vector_4" d="M2.88297 287.028C2.88297 288.895 4.29187 290.402 6.02835 290.402H296.511C298.247 290.402 299.656 288.895 299.656 287.028V107.024C299.656 105.157 298.247 103.649 296.511 103.649H6.02835C4.29187 103.649 2.88297 105.157 2.88297 107.024V287.028Z" fill="#303748"/>
<path id="Vector_5" d="M13.1708 113.478H290.188V270.121H13.1708V113.478Z" fill="#CBE1FF"/>
<path id="Vector_6" d="M13.1708 113.184H290.188V127.894H13.1708V113.184Z" fill="#FFFFFD"/>
<path id="Vector_7" d="M41.675 127.37H264.861V262.717H41.675V127.37Z" fill="#FFFFFD"/>
<path id="Vector_8" d="M180.167 132.678H254.573V253.215H180.167V132.678Z" fill="#CBE1FF"/>
<g id="Group_3">
<path id="Vector_9" d="M116.081 132.678H171.485V137.625H116.081V132.678Z" fill="#CBE1FF"/>
<path id="Vector_10" d="M140.785 141.884H171.485V146.832H140.785V141.884Z" fill="#CBE1FF"/>
<path id="Vector_11" d="M116.081 151.517H171.485V156.464H116.081V151.517Z" fill="#CBE1FF"/>
<path id="Vector_12" d="M135.936 160.723H171.485V165.671H135.936V160.723Z" fill="#CBE1FF"/>
<path id="Vector_13" d="M156.151 172.06H171.485V177.957H156.151V172.06Z" fill="#0061F7"/>
</g>
<g id="Group_4">
<path id="Vector_14" d="M116.081 192.046H171.485V196.993H116.081V192.046Z" fill="#CBE1FF"/>
<path id="Vector_15" d="M140.785 201.252H171.485V206.2H140.785V201.252Z" fill="#CBE1FF"/>
<path id="Vector_16" d="M116.081 210.885H171.485V215.832H116.081V210.885Z" fill="#CBE1FF"/>
<path id="Vector_17" d="M135.936 220.092H171.485V225.039H135.936V220.092Z" fill="#CBE1FF"/>
<path id="Vector_18" d="M156.151 231.427H171.485V237.325H156.151V231.427Z" fill="#0061F7"/>
</g>
<path id="Vector_19" d="M51.963 132.678H102.615V254.657H51.963V132.678Z" fill="#98C1FF"/>
<path id="Vector_20" d="M53.5684 118.065H256.179V122.652H53.5684V118.065Z" fill="#6BD4E5"/>
<path id="Vector_21" d="M142.358 282.015C142.358 285.258 144.979 287.879 148.223 287.879C151.466 287.879 154.087 285.258 154.087 282.015C154.087 278.771 151.466 276.15 148.223 276.15C144.979 276.183 142.358 278.804 142.358 282.015Z" fill="#CBE1FF"/>
<path id="Vector_22" d="M280.948 120.817C280.948 122.357 282.193 123.57 283.733 123.57C285.273 123.57 286.518 122.324 286.518 120.817C286.518 119.277 285.273 118.032 283.733 118.032C282.193 118.065 280.948 119.277 280.948 120.817Z" fill="#DF7A4C"/>
<path id="Vector_23" d="M272.266 120.817C272.266 122.357 273.511 123.57 275.05 123.57C276.59 123.57 277.835 122.324 277.835 120.817C277.835 119.277 276.59 118.032 275.05 118.032C273.511 118.032 272.266 119.277 272.266 120.817Z" fill="#EDDE00"/>
<path id="Vector_24" d="M263.55 120.817C263.55 122.357 264.795 123.57 266.335 123.57C267.875 123.57 269.12 122.324 269.12 120.817C269.12 119.277 267.875 118.032 266.335 118.032C264.795 118.065 263.55 119.277 263.55 120.817Z" fill="#7BF1BF"/>
</g>
<g id="Group_5">
<g id="Group_6">
<path id="Vector_25" d="M131.644 183.855L136.002 179.923L143.341 185.165L147.731 186.279L168.569 183.331L141.572 198.107L131.644 183.855Z" fill="#171B23"/>
</g>
<g id="Group_7">
<path id="Vector_26" d="M52.6837 171.568L56.7137 174.353L53.5683 181.07L53.4045 184.739L59.4658 200.793L42.3958 181.889L52.6837 171.568Z" fill="#171B23"/>
</g>
<g id="Group_8">
<path id="Vector_27" d="M40.2333 81.239C40.2333 81.239 82.7606 91.5923 97.8319 98.9314C102.386 101.159 105.269 107.679 99.4373 117.803C92.131 130.516 54.4201 179.956 54.4201 179.956L48.5881 175.009L76.601 114.265L14.2191 99.6194L40.2333 81.239Z" fill="#C64C34"/>
</g>
<g id="Group_9">
<path id="Vector_28" d="M11.4013 100.34C11.4013 100.34 10.8444 115.117 27.4883 119.507C27.4883 119.507 42.8545 118.917 70.7363 119.802L133.61 186.181L139.671 182.249L97.8318 115.248C97.8318 115.248 91.7377 104.993 88.3631 102.994C76.8631 96.1793 31.551 89.856 31.551 89.856L11.4013 100.34Z" fill="#D55C3E"/>
</g>
<g id="Group_10">
<g id="Group_11">
<g id="Group_12">
<path id="Vector_29" d="M113.297 8.27428C113.297 8.27428 116.835 0.279956 118.801 0.0178465C120.472 -0.211499 126.697 1.68879 116.081 10.4367L113.297 8.27428Z" fill="#FE7A42"/>
</g>
<g id="Group_13">
<path id="Vector_30" d="M51.1442 36.9753L87.0531 53.2916L117.196 10.0108L113.69 7.32422L85.3166 36.9753L52.6186 24.1975C52.6186 24.1975 38.2026 18.5294 39.0872 26.3927C39.5131 30.3898 43.8379 33.5024 51.1442 36.9753Z" fill="#7494C9"/>
</g>
</g>
<g id="Group_14">
<g id="Group_15">
<g id="Group_16">
<path id="Vector_31" d="M8.7477 32.0279C8.7477 32.0279 44.0997 20.2002 48.1952 20.6917C52.3234 21.1831 48.1624 41.2345 48.8177 46.2801C49.7678 53.6519 52.2906 64.1035 50.4231 72.7531C48.5555 81.4027 52.7493 85.9569 52.7493 85.9569L7.60095 109.579L8.09239 71.4426L8.7477 32.0279Z" fill="#303748"/>
</g>
</g>
</g>
<g id="Group_17">
<path id="Vector_32" d="M26.5386 17.5792L25.0315 27.5066C25.0315 27.5066 37.9077 34.7474 36.204 30.0622C34.6313 25.7046 32.9931 16.8584 32.9931 16.8584L26.5386 17.5792Z" fill="#FE7A42"/>
</g>
<g id="Group_18">
<path id="Vector_33" d="M25.326 6.47244C24.769 8.53655 23.6222 12.5665 24.9983 15.0237C26.4072 17.5138 28.6024 21.9696 31.6822 22.756C34.762 23.5423 36.2364 20.6919 36.5968 19.4796C37.1538 17.481 36.5968 6.63626 31.5184 4.53939C27.685 2.93397 25.7519 4.89978 25.326 6.47244Z" fill="#FF8155"/>
</g>
<g id="Group_19">
<path id="Vector_34" d="M33.6484 6.30849C33.6484 6.30849 31.7808 8.63471 28.3733 8.17602C24.9658 7.71733 25.7522 10.9282 25.8177 11.3213C25.8504 11.6817 26.9317 16.2686 25.785 16.4652C24.6382 16.6618 22.4758 11.0265 23.7208 6.96377C24.9986 2.83555 31.1583 1.6233 33.6484 6.30849Z" fill="#DDB39B"/>
</g>
<g id="Group_20">
<path id="Vector_35" d="M26.768 18.0707C26.768 18.0707 30.4703 20.9539 33.8776 20.1348C36.04 19.6105 36.728 15.6789 36.6297 14.8598C36.5314 14.0407 38.4644 22.0023 33.7138 22.7886C28.9303 23.6077 26.768 18.0707 26.768 18.0707Z" fill="#EFCCB9"/>
</g>
<g id="Group_21">
<g id="Group_22">
<path id="Vector_36" d="M51.4388 95.262C51.4388 95.262 60.1538 95.6879 61.1367 97.4571C61.9558 98.9315 62.3818 105.419 50.4231 98.6366L51.4388 95.262Z" fill="#FE7A42"/>
</g>
<g id="Group_23">
<path id="Vector_37" d="M2.49003 47.3941L-4.19617e-05 86.7433L51.1769 99.5211L52.4218 95.2618L14.6126 79.2731L14.9403 44.1833C14.9403 44.1833 15.1368 28.6861 8.05989 32.3228C4.52142 34.1576 3.1453 39.3015 2.49003 47.3941Z" fill="#7494C9"/>
</g>
</g>
</g>
</g>
</g>
</svg>
