<svg width="561" height="253" viewBox="0 0 561 253" fill="none" xmlns="http://www.w3.org/2000/svg">
<style>
.moveme{
  animation: move 7s cubic-bezier(.36,.07,.19,.97) both infinite;
  transform: translate3d(0, 0, 0);
  backface-visibility: hidden;
  perspective: 1000px;

}
@keyframes move {
  0% {
    transform: translate3d(0px, 0, 0);
  }

  50% {
    transform: translate3d(-30px, 0, 0);
  }

  75%{
    transform: translate3d(30px,0,0);
  }

  100%{
      transform:translate3d(0px,0,0);
  }

}


</style>


<g id="Group 3">
<g id="Group">
<path id="Vector" d="M190.599 192.07H3.05176e-05V226.979H190.599V192.07Z" fill="#11141B"/>
<path id="Vector_2" d="M190.598 192.07H93.7361V226.979H190.598V192.07Z" fill="#030405"/>
<path id="Vector_3" d="M190.567 197.453H5.35118V221.596H190.567V197.453Z" fill="#ECEBE4"/>
<path id="Vector_4" d="M190.598 197.453H93.7361V221.596H190.598V197.453Z" fill="#D3D2CD"/>
<path id="Vector_5" d="M198.399 192.07H174.256V197.453H198.399V192.07Z" fill="#030405"/>
<path id="Vector_6" d="M198.399 221.596H174.256V226.979H198.399V221.596Z" fill="#030405"/>
<g id="Group_2">
<path id="Vector_7" d="M208.037 167.089H17.4388V192.07H208.037V167.089Z" fill="#7A92CE"/>
<path id="Vector_8" d="M208.037 167.089H111.175V192.07H208.037V167.089Z" fill="#6884BC"/>
<path id="Vector_9" d="M208.005 170.924H22.7897V188.234H208.005V170.924Z" fill="#ECEBE4"/>
<path id="Vector_10" d="M208.037 170.924H111.175V188.234H208.037V170.924Z" fill="#D3D2CD"/>
<path id="Vector_11" d="M215.87 167.089H191.695V170.957H215.87V167.089Z" fill="#6884BC"/>
<path id="Vector_12" d="M215.87 188.234H191.695V192.07H215.87V188.234Z" fill="#6884BC"/>
</g>
<g id="Group_3">
<path id="Vector_13" d="M214.161 105.587H80.0688V130.568H214.161V105.587Z" fill="#EFCCB9"/>
<path id="Vector_14" d="M214.161 105.587H146.019V130.568H214.161V105.587Z" fill="#DDB39B"/>
<path id="Vector_15" d="M214.161 109.423H83.8399V126.732H214.161V109.423Z" fill="#ECEBE4"/>
<path id="Vector_16" d="M214.161 109.423H146.019V126.732H214.161V109.423Z" fill="#D3D2CD"/>
<path id="Vector_17" d="M219.641 105.587H202.654V109.423H219.641V105.587Z" fill="#DDB39B"/>
<path id="Vector_18" d="M219.641 126.732H202.654V130.568H219.641V126.732Z" fill="#DDB39B"/>
</g>
<g id="Group_4">
<path id="Vector_19" d="M183.668 130.568H35.1997V167.089H183.668V130.568Z" fill="#D55C3E"/>
<path id="Vector_20" d="M183.669 130.568H108.209V167.089H183.669V130.568Z" fill="#C64F38"/>
<path id="Vector_21" d="M183.701 136.177H39.3902V161.48H183.701V136.177Z" fill="#ECEBE4"/>
<path id="Vector_22" d="M183.669 136.177H108.209V161.48H183.669V136.177Z" fill="#D3D2CD"/>
<path id="Vector_23" d="M189.793 130.568H170.968V136.177H189.793V130.568Z" fill="#C64F38"/>
<path id="Vector_24" d="M189.793 161.48H170.968V167.089H189.793V161.48Z" fill="#C64F38"/>
</g>
</g>
<g id="phone" class="moveme">
<path id="Vector_25" d="M173.966 227.656C166.23 227.624 159.944 221.306 160.009 213.538L160.911 56.7206C160.976 48.9845 167.294 42.699 175.03 42.7634L467.326 44.4396C475.094 44.504 481.348 50.8219 481.283 58.558L480.381 215.375C480.316 223.111 474.03 229.397 466.262 229.333L173.966 227.656Z" fill="#303748"/>
<path id="Vector_26" d="M205.362 212.635L206.264 56.946L461.395 58.461L460.492 214.086L205.362 212.635Z" fill="#ECEBE4"/>
<path id="Vector_27" d="M184.378 148.425C177.093 148.393 171.258 142.462 171.291 135.177C171.355 127.892 177.286 122.026 184.539 122.09C191.824 122.122 197.658 128.053 197.658 135.338C197.594 142.591 191.663 148.457 184.378 148.425Z" fill="#ECEBE4"/>
<path id="Vector_28" d="M301.58 89.7601L287.203 81.4116L288.622 97.9797L292.812 95.3044L299.678 106.135L304.255 103.234L297.389 92.4033L301.58 89.7601Z" fill="#7A92CE"/>
</g>
<g id="Group_5">
<g id="Group_6">
<g id="Group_7">
<path id="Vector_29" d="M455.753 230.138L453.207 232.104L455.463 236.521L455.689 239.002L452.272 249.93L462.78 236.714L455.753 230.138Z" fill="#DB2C39"/>
</g>
<g id="Group_8">
<path id="Vector_30" d="M435.897 235.876L432.738 236.521L432.771 241.485L431.868 243.773L423.906 252.025L439.217 244.934L435.897 235.876Z" fill="#DB2C39"/>
</g>
<g id="Group_9">
<path id="Vector_31" d="M393.478 104.781L403.18 170.86L452.208 235.876L459.364 230.364L419.684 168.249L435.124 104.781H393.478Z" fill="#491D22"/>
</g>
<g id="Group_10">
<path id="Vector_32" d="M447.147 103.202L410.917 104.781L423.552 175.276L433.126 240.034H438.38L435.124 173.89L447.147 103.202Z" fill="#552226"/>
</g>
</g>
<g id="Group_11">
<g id="Group_12">
<g id="Group_13">
<path id="Vector_33" d="M341.517 8.62768C341.517 8.62768 337.842 0.311381 335.779 0.0212754C334.039 -0.236596 327.592 1.76186 338.584 10.8518L341.517 8.62768Z" fill="#FE7A42"/>
</g>
<g id="Group_14">
<path id="Vector_34" d="M406.178 38.4762L368.819 55.4634L337.456 10.4327L341.131 7.62842L370.657 38.4762L404.663 25.1636C404.663 25.1636 419.652 19.2649 418.749 27.4523C418.266 31.6104 413.785 34.866 406.178 38.4762Z" fill="#171B23"/>
</g>
</g>
<g id="Group_15">
<path id="Vector_35" d="M450.274 33.3508C450.274 33.3508 413.527 21.0697 409.24 21.5532C404.953 22.069 401.859 36.3163 401.182 41.5704C400.183 49.242 399.248 67.5508 401.182 76.5441C403.116 85.5695 393.478 104.749 393.478 104.749L451.466 114.032L450.918 74.3522L450.274 33.3508Z" fill="#7A92CE"/>
</g>
<g id="Group_16">
<path id="Vector_36" d="M431.772 18.33L433.351 28.677C433.351 28.677 419.974 36.2197 421.747 31.3202C423.391 26.7752 425.067 17.5886 425.067 17.5886L431.772 18.33Z" fill="#FE7A42"/>
</g>
<g id="Group_17">
<path id="Vector_37" d="M433.029 6.75809C433.609 8.88552 434.802 13.076 433.351 15.6547C431.901 18.2334 429.612 22.875 426.389 23.6809C423.165 24.519 421.65 21.5534 421.296 20.2641C420.716 18.1689 421.296 6.91924 426.582 4.72734C430.579 3.08341 432.578 5.11416 433.029 6.75809Z" fill="#FF8155"/>
</g>
<g id="Group_18">
<path id="Vector_38" d="M424.358 6.56494C424.358 6.56494 426.324 8.98247 429.838 8.49897C433.383 8.01547 432.578 11.3677 432.513 11.7545C432.449 12.1413 431.353 16.9119 432.513 17.1375C433.674 17.3631 435.962 11.4966 434.673 7.24182C433.416 2.987 426.969 1.69769 424.358 6.56494Z" fill="#DDB39B"/>
</g>
<g id="Group_19">
<path id="Vector_39" d="M431.546 18.8136C431.546 18.8136 427.678 21.8113 424.165 20.9733C421.908 20.4253 421.199 16.3316 421.296 15.4935C421.392 14.6554 419.362 22.9072 424.326 23.7453C429.29 24.5834 431.546 18.8136 431.546 18.8136Z" fill="#EFCCB9"/>
</g>
<g id="Group_20">
<g id="Group_21">
<path id="Vector_40" d="M405.888 99.1079C405.888 99.1079 396.798 99.5592 395.799 101.396C394.961 102.944 394.51 109.681 406.952 102.621L405.888 99.1079Z" fill="#FE7A42"/>
</g>
<g id="Group_22">
<path id="Vector_41" d="M456.785 49.3069L459.364 90.2438L406.114 103.524L404.825 99.1081L444.15 82.5077L443.827 45.9868C443.827 45.9868 443.634 29.902 450.951 33.6411C454.69 35.5429 456.109 40.8938 456.785 49.3069Z" fill="#171B23"/>
</g>
</g>
</g>
</g>
<g id="Group_23">
<path id="Vector_42" d="M518.352 188.557C518.352 188.557 466.359 152.358 482.024 104.813C482.024 104.813 516.772 142.914 518.352 188.557Z" fill="#02797D"/>
<path id="Vector_43" d="M525.346 192.328C525.346 192.328 580.079 140.335 553.035 87.1816C553.035 87.1816 518.964 138.304 525.346 192.328Z" fill="#02797D"/>
<path id="Vector_44" d="M516.192 192.328C516.192 192.328 560.352 131.084 523.928 83.8616C523.928 83.8616 499.914 140.4 516.192 192.328Z" fill="#036D6D"/>
<path id="Vector_45" d="M544.01 228.333L504.491 228.172L492.887 179.112H556.227L544.01 228.333Z" fill="#7494C9"/>
</g>
</g>
</svg>
