<svg width="722" height="547" viewBox="0 0 722 547" fill="none" xmlns="http://www.w3.org/2000/svg">
<path d="M290.297 535.537C290.297 541.871 247.697 547 195.139 547C142.58 547 99.9802 541.871 99.9802 535.537C99.9802 529.203 142.58 524.074 195.139 524.074C247.697 524.093 290.297 529.222 290.297 535.537Z" fill="#8A0500"/>
<path d="M624.934 529.815C678.068 529.815 721.141 525.968 721.141 521.223C721.141 516.478 678.068 512.631 624.934 512.631C571.801 512.631 528.728 516.478 528.728 521.223C528.728 525.968 571.801 529.815 624.934 529.815Z" fill="#8A0500"/>
<path d="M29.7279 424.085H18.4069V413.752H11.3419V424.085H0V430.554H11.3419V440.887H18.4069V430.554H29.7279V424.085Z" fill="#343434"/>
<path d="M40.0425 405.064C40.0425 408.585 36.9188 411.456 33.0403 411.456C29.1618 411.456 26.0381 408.585 26.0381 405.064C26.0381 401.524 29.1618 398.672 33.0403 398.672C36.9188 398.672 40.0425 401.524 40.0425 405.064Z" fill="#1C1D22"/>
<path d="M624.83 487.81H91.7831C70.4621 487.81 53.0405 471.889 53.0405 452.446V76.4506C53.0405 56.9887 70.4831 41.0862 91.7831 41.0862H624.83C646.151 41.0862 663.572 57.0078 663.572 76.4506V452.446C663.572 471.908 646.13 487.81 624.83 487.81Z" fill="#1C1D22"/>
<path d="M96.6679 471.908C82.7684 471.908 71.4894 461.613 71.4894 448.925V79.991C71.4894 67.3034 82.7684 57.0079 96.6679 57.0079H619.924C633.823 57.0079 645.102 67.3034 645.102 79.991V448.925C645.102 461.613 633.823 471.908 619.924 471.908H96.6679Z" fill="#343434"/>
<path d="M613.802 459.909H102.79C93.7958 459.909 86.5211 453.269 86.5211 445.059V83.8373C86.5211 75.6277 93.7958 68.9873 102.79 68.9873H613.823C622.817 68.9873 630.092 75.6277 630.092 83.8373V445.059C630.092 453.269 622.796 459.909 613.802 459.909Z" fill="white"/>
<path d="M16.3734 459.048C28.6167 477.477 50.8183 489.858 76.0387 489.858H640.553C665.773 489.858 687.975 477.477 700.218 459.048H16.3734Z" fill="#1C1D22"/>
<path d="M23.6691 468.1H692.922C695.627 465.287 698.08 462.263 700.218 459.048H16.3734C18.5118 462.263 20.9646 465.287 23.6691 468.1Z" fill="#343434"/>
<path d="M281.219 301.363H129.247V379H281.219V301.363Z" fill="#DB5A28"/>
<path d="M335.077 102.629H277.907V109.825H335.077V102.629Z" fill="#30C5CC"/>
<path d="M238.892 102.629H203.986V109.825H238.892V102.629Z" fill="#30C5CC"/>
<path d="M193.42 102.629H124.278V109.825H193.42V102.629Z" fill="#30C5CC"/>
<path d="M264.804 102.629H249.814V109.825H264.804V102.629Z" fill="#30C5CC"/>
<path d="M384.407 102.629H349.627V109.825H384.407V102.629Z" fill="#30C5CC"/>
<path d="M299.354 123.622H277.907V130.818H299.354V123.622Z" fill="#30C5CC"/>
<path d="M329.333 123.622H307.886V130.818H329.333V123.622Z" fill="#30C5CC"/>
<path d="M203.336 123.622H168.43V130.818H203.336V123.622Z" fill="#30C5CC"/>
<path d="M158.513 123.622H124.278V130.818H158.513V123.622Z" fill="#30C5CC"/>
<path d="M270.402 123.622H212.917V130.818H270.402V123.622Z" fill="#30C5CC"/>
<path d="M225.097 522.352C221.491 511.769 214.468 466.971 212.896 449.422C212.56 445.71 167.843 429.769 167.843 429.769C141.658 429.157 128.199 438.534 128.199 438.534L191.05 457.919C191.05 483.792 215.223 522.83 215.223 522.83C215.223 522.811 225.097 522.352 225.097 522.352Z" fill="#2F2F8E"/>
<path d="M171.176 463.048L152.518 522.39L163.189 524.514C167.843 510.506 194.698 462.55 195.432 456.828C195.747 454.398 195.558 452.523 194.552 451.757C193.545 450.992 163.419 434.553 154.677 432.754C142.958 430.343 125.536 426.497 125.536 426.497C125.536 426.497 115.725 435.874 117.632 451.106C119.54 466.358 171.176 463.048 171.176 463.048Z" fill="#4C49A2"/>
<path d="M145.998 358.696C145.998 358.696 125.536 360.342 124.614 365.451C123.691 370.542 134.383 402.768 134.383 402.768L123.985 428.085C123.985 428.085 153.482 434.706 167.864 429.769C169.226 430.343 171.553 403.189 171.553 403.189L176.669 389.85L183.168 409.982L198.032 429.08L207.801 421.866L196.963 404.471C196.963 404.471 180.191 369.527 175.725 365.451C167.36 357.816 145.998 358.696 145.998 358.696Z" fill="white"/>
<path d="M162.203 360.035L160.61 340.822H145.264V358.753C143.314 358.945 147.36 373.278 159.708 373.278C159.729 373.297 165.495 371.383 162.203 360.035Z" fill="#E67750"/>
<path d="M131.113 392.587C132.895 398.385 134.362 402.768 134.362 402.768L123.964 428.085C123.964 428.085 146.417 433.118 161.7 431.128C160.337 430.209 142.224 419.072 141.343 414.211C139.478 404.031 131.113 392.587 131.113 392.587Z" fill="#EFEFEF"/>
<path d="M175.872 321.456C174.572 316.538 166.166 315.122 152.895 316.538C143.859 317.514 141.826 325.092 141.574 330.737C141.448 330.776 141.302 330.776 141.176 330.814C138.052 331.694 135.83 334.45 135.998 337.473C136.081 339.004 136.668 340.421 137.779 341.55C138.953 343.291 140.945 344.458 143.251 344.726C143.901 344.803 144.53 344.765 145.138 344.688C148.891 351.826 155.788 360.744 165.474 359.672C179.667 350.639 175.872 321.456 175.872 321.456Z" fill="#FD9E71"/>
<path d="M145.452 334.393C145.452 334.393 142.517 327.963 149.142 323.427C155.767 318.892 156.207 325.59 163.189 326.413C170.17 327.235 177.046 326.719 176.291 330.929C180.505 321.418 174.405 315.983 167.591 312.998C160.757 310.013 150.086 308.73 142.643 314.395C135.222 320.059 136.228 333.627 136.228 333.627C141.113 331.465 142.434 333.225 145.452 334.393Z" fill="#201251"/>
<path d="M142.643 314.395C142.643 314.395 136.48 299.277 124.802 303.028C113.125 306.778 118.387 328.25 117.108 337.588C115.829 346.927 108.492 347.348 105.85 343.195C100.965 351.673 120.106 360.284 126.333 352.132C132.559 343.98 128.974 323.351 132.958 321.246C136.941 319.141 140.945 321.877 140.945 321.877L142.643 314.395Z" fill="#201251"/>
<path d="M125.075 363.748C120.169 366.331 111.133 397.237 111.133 402.327C111.133 407.418 154.677 432.774 154.677 432.774C154.677 432.774 156.69 426.516 161.344 425.253C160.421 424.832 128.807 397.256 128.807 397.256L137.171 375.651C137.151 375.632 137.15 357.395 125.075 363.748Z" fill="white"/>
<path d="M151.323 436.658L195.705 435.434L224.531 445.174L175.746 447.547L151.323 436.658Z" fill="#30C5CC"/>
<path d="M175.746 447.547L151.323 438.917V436.659L177.675 445.346L175.746 447.547Z" fill="#0B9B9B"/>
<path d="M175.746 447.547L190.422 410.996L238.934 413.369L224.531 446.035L175.746 447.547Z" fill="#0B9B9B"/>
<path d="M205.537 427.167C204.09 429.808 204.531 432.659 206.501 433.577C208.472 434.477 211.26 433.08 212.707 430.439C214.154 427.798 213.713 424.947 211.743 424.028C209.772 423.129 206.984 424.526 205.537 427.167Z" fill="#30C5CC"/>
<path d="M161.323 425.234C161.323 425.234 178.975 437.96 177.13 438.802C175.264 439.644 167.361 439.644 163.189 437.52C158.996 435.395 154.677 432.755 154.677 432.755C154.677 432.755 156.207 425.674 161.323 425.234Z" fill="#FD9E71"/>
<path d="M163.65 521.548C166.794 524.457 177.444 528.839 182.707 530.026C188.346 531.308 187.361 535.614 183.231 535.614C175.138 535.614 157.172 534.695 148.304 534.695C146.899 530.868 149.31 525.778 152.14 522.333C153 521.28 163.188 521.127 163.65 521.548Z" fill="#201251"/>
<path d="M227.319 521.548C230.464 524.457 241.114 528.839 246.376 530.026C252.016 531.308 251.03 535.614 246.9 535.614C238.808 535.614 220.841 534.695 211.973 534.695C210.569 530.868 212.979 525.778 215.81 522.333C216.669 521.28 226.858 521.127 227.319 521.548Z" fill="#201251"/>
<path d="M172.686 271.184H130.064V281.901H172.686V271.184Z" fill="#31D0A8"/>
<path d="M281.24 271.184H238.619V281.901H281.24V271.184Z" fill="#31D0A8"/>
<path d="M226.963 271.184H184.342V281.901H226.963V271.184Z" fill="#31D0A8"/>
<path d="M408.267 64.4554L273.214 94.6781L285.548 140.603L420.602 110.38L408.267 64.4554Z" fill="#FEBA40"/>
<path d="M381.491 77.0566L282.028 99.3148L283.735 105.671L383.198 83.4128L381.491 77.0566Z" fill="#FEDB9B"/>
<path d="M368.167 91.9941L285.054 110.593L286.761 116.95L369.874 98.3503L368.167 91.9941Z" fill="#FEDB9B"/>
<path d="M327.81 114.144L288.371 122.969L290.079 129.326L329.518 120.5L327.81 114.144Z" fill="#FEDB9B"/>
<path d="M393.425 86.5144L372.311 91.2394L374.013 97.5771L395.127 92.8521L393.425 86.5144Z" fill="white"/>
<path d="M280.15 146.395H128.471V259.377H280.15V146.395Z" fill="#DB5A28"/>
<path d="M589.777 211.555H291.492V262.496H589.777V211.555Z" fill="#4CB0DD"/>
<path d="M580.846 218.922H500.132V255.129H580.846V218.922Z" fill="white"/>
<path d="M489 221.123H302.415V228.108H489V221.123Z" fill="#75D5EF"/>
<path d="M489 233.543H302.415V240.528H489V233.543Z" fill="#75D5EF"/>
<path d="M428.035 245.943H302.415V252.928H428.035V245.943Z" fill="#75D5EF"/>
<path d="M578.204 298.894H291.555V421.655H578.204V298.894Z" fill="#C8FFFF" fill-opacity="0.54"/>
<path d="M578.204 298.894H291.555V319.255H578.204V298.894Z" fill="#FDBE44"/>
<path d="M464.031 348.19H298.515V358.543H464.031V348.19Z" fill="#98DBE5"/>
<path d="M446.945 366.618H298.515V376.991H446.945V366.618Z" fill="#98DBE5"/>
<path d="M398.621 385.047H298.515V395.419H398.621V385.047Z" fill="#98DBE5"/>
<path d="M358.18 331.216H298.515V341.588H358.18V331.216Z" fill="#98DBE5"/>
<path d="M566.757 330.718H480.174V409.752H566.757V330.718Z" fill="#86D2E8"/>
<path d="M532.313 369.719C533.675 368.054 534.493 365.987 534.493 363.729V357.682C534.493 352.132 529.566 347.616 523.466 347.616C517.386 347.616 512.438 352.113 512.438 357.682V363.729C512.438 366.083 513.34 368.245 514.828 369.967C504.702 373.221 497.469 382.024 497.469 392.357H551.998C551.977 392.376 549.86 374.369 532.313 369.719Z" fill="#F6FFFA"/>
<path d="M306.377 314.72C309.48 314.72 311.995 312.424 311.995 309.591C311.995 306.759 309.48 304.463 306.377 304.463C303.274 304.463 300.758 306.759 300.758 309.591C300.758 312.424 303.274 314.72 306.377 314.72Z" fill="#DB5A28"/>
<path d="M324.407 314.72C327.51 314.72 330.025 312.424 330.025 309.591C330.025 306.759 327.51 304.463 324.407 304.463C321.304 304.463 318.788 306.759 318.788 309.591C318.788 312.424 321.304 314.72 324.407 314.72Z" fill="#FFE780"/>
<path d="M345.329 314.72C348.432 314.72 350.948 312.424 350.948 309.591C350.948 306.759 348.432 304.463 345.329 304.463C342.226 304.463 339.711 306.759 339.711 309.591C339.711 312.424 342.226 314.72 345.329 314.72Z" fill="#1FB288"/>
<path d="M581.013 97.7304H480.614V189.376H581.013V97.7304Z" fill="#DB5A28"/>
<path d="M621.182 504.804C621.182 504.804 622.041 507.215 613.949 510.583C605.856 513.951 597.303 512.764 595.207 515.597C593.11 518.429 592.628 521.108 592.628 521.108H638.708C638.708 521.108 638.352 509.492 633.131 504.344C633.781 505.454 621.182 504.804 621.182 504.804Z" fill="#9E472D"/>
<path d="M671.371 504.784C671.371 504.784 672.21 507.1 664.411 510.353C656.633 513.587 648.394 512.458 646.381 515.176C644.369 517.893 643.886 520.476 643.886 520.476H688.185C688.185 520.476 687.849 509.301 682.839 504.344C683.488 505.416 671.371 504.784 671.371 504.784Z" fill="#9E472D"/>
<path d="M612.104 283.642L578.644 289L555.122 243.034L591.139 240.355L612.104 283.642Z" fill="#E5E5E5"/>
<path d="M570.322 278.992H570.343C570.237 279.031 570.216 279.031 570.322 278.992Z" fill="#262845"/>
<path d="M635.27 197.394C635.27 197.394 630.867 205.45 630.867 212.837C630.867 218.004 631.58 225.448 632.02 229.467C632.188 230.921 633.76 231.897 635.291 231.457L641.895 229.601L641.517 238.327L659.924 238.04L663.95 202.752C663.929 202.771 648.498 187.328 635.27 197.394Z" fill="#FD9E71"/>
<path d="M636.654 215.918C636.654 215.918 637.681 208.933 643.467 210.387C649.232 211.842 642.628 218.884 642.628 218.884L648.142 227.936C652.188 229.275 656.654 229.371 661.014 227.591C661.014 227.591 667.136 210.579 667.136 205.221C667.136 199.862 661.769 196.226 661.769 196.226C661.769 196.226 647.408 189.682 639.672 190.007C631.957 190.351 631.224 197.394 631.224 197.394C631.224 197.394 628.289 202.771 631.224 205.106C634.159 207.46 636.654 215.918 636.654 215.918Z" fill="#201251"/>
<path d="M660.742 233.198L659.903 238.059L640.888 238.136C640.888 238.116 644.578 232.739 660.742 233.198Z" fill="#6AA5CC"/>
<path d="M579.378 276.6C579.378 276.6 580.72 272.792 575.332 270.553C575.479 269.654 574.263 265.214 573.131 264.18C571.999 263.147 571.286 268.888 571.286 268.888C571.286 268.888 566.024 260.334 564.661 262.516C563.298 264.697 576.548 281.537 576.925 282.207C577.303 282.858 579.378 276.6 579.378 276.6Z" fill="#FD9E71"/>
<path d="M628.897 331.847L616.15 430.286L618.729 506.584L634.767 505.531C634.767 505.531 639.295 465.402 639.673 455.336C640.05 445.27 636.737 429.827 636.737 429.827L652.922 368.972L655.606 369.412L656.339 429.367L671.077 505.512L684.558 506.105C684.558 506.105 684.893 466.837 683.782 457.096C682.671 447.356 676.927 427.894 676.927 427.894L682.818 365.815C682.818 365.815 688.709 349.491 678.163 331.139C676.801 331.292 628.897 331.847 628.897 331.847Z" fill="#201251"/>
<path d="M640.888 238.116C640.888 238.116 618.1 244.833 613.928 248.622C609.756 252.43 597.806 291.622 597.806 291.622L579.798 275.146L574.221 287.087C574.221 287.087 595.29 315.715 601.915 316.615C608.54 317.514 623.488 280.37 623.488 280.37C623.488 280.37 624.85 300.655 627.408 310.797C630.343 322.432 628.876 331.828 628.876 331.828C649.274 335.215 666.612 334.507 678.142 331.158L683.845 292.082C683.845 292.082 691.623 292.904 694.076 290.455C696.529 287.986 685.25 247.493 682.797 244.374C680.344 241.236 659.903 238.04 659.903 238.04L640.888 238.116Z" fill="#96C4EA"/>
<path d="M663.09 264.984C662.964 264.18 661.539 264.391 661.559 265.176C662.251 281.997 661.622 298.397 658.729 315.045C658.54 316.155 660.364 316.672 660.637 315.524C664.537 299.047 665.669 281.69 663.09 264.984Z" fill="#6AA5CC"/>
<path d="M684.013 277.442C683.887 276.887 682.964 277.021 682.943 277.576C682.755 287.412 681.413 296.808 679.379 306.453C677.556 315.026 675.899 323.619 676.507 332.383C676.591 333.608 678.667 333.627 678.625 332.383C678.164 322.26 680.407 312.481 682.44 302.588C684.096 294.359 685.836 285.766 684.013 277.442Z" fill="#6AA5CC"/>
<path d="M625.584 277.136C619.462 280.695 617.156 287.642 614.829 293.555C611.664 301.554 608.498 309.419 601.58 315.409C600.552 316.308 602.083 317.686 603.131 316.825C615.877 306.357 615.269 289.23 626.129 277.787C626.465 277.461 626.045 276.868 625.584 277.136Z" fill="#6AA5CC"/>
<path d="M678.394 328.269C678.394 328.269 647.513 331.847 628.876 326.47C629.358 326.47 628.876 331.847 628.876 331.847C628.876 331.847 652.628 339.98 679.861 333.646C679.652 333.57 678.394 328.269 678.394 328.269Z" fill="#9E472D"/>
<path d="M358.851 442.84C358.851 442.84 356.294 447.93 351.87 448.772C347.447 449.614 335.832 451.949 333.966 453.441C332.1 454.934 332.1 458.742 332.1 458.742H368.977C368.977 458.742 368.914 448.542 366.776 443.261C367.677 443.28 358.851 442.84 358.851 442.84Z" fill="#1A133A"/>
<path d="M429.963 442.84C429.963 442.84 427.406 447.93 422.982 448.772C418.559 449.614 406.944 451.949 405.078 453.441C403.212 454.934 403.213 458.742 403.213 458.742H440.089C440.089 458.742 440.026 448.542 437.888 443.261C438.79 443.28 429.963 442.84 429.963 442.84Z" fill="#1A133A"/>
<path d="M425.435 111.987C425.435 111.987 415.162 109.595 414.533 111.088C413.904 112.581 430.404 117.039 430.404 117.039L445.267 154.643L439.712 166.68L449.943 176.86C449.943 176.86 461.096 163.063 462.018 159.044C462.941 155.006 435.519 114.494 435.519 114.494C435.519 114.494 430.068 98.7066 429.251 97.9411C428.412 97.1757 418.601 97.6541 416.378 97.6924C414.156 97.7306 422.856 105.768 422.856 105.768L425.435 111.987Z" fill="#E79673"/>
<path d="M385.476 139.812C385.476 139.812 380.592 146.089 379.543 152.767C378.495 159.446 379.9 165.818 379.9 165.818L388.894 165.551V173.224H406.756C406.756 173.224 407.112 167.407 407.804 164.23C408.496 161.053 413.38 155.006 413.38 155.006L405.372 134.32L393.862 133.363L385.476 139.812Z" fill="#E79673"/>
<path d="M389.984 149.591C389.984 149.591 393.129 142.912 396.965 145.457C400.802 148.002 395.917 153.418 395.917 153.418C395.917 153.418 398.349 162.642 402.542 163.924C406.735 165.206 406.735 165.206 406.735 165.206C406.735 165.206 417.532 155.982 419.293 153.437C421.033 150.892 416.504 136.253 413.36 133.076C410.215 129.899 396.63 130.205 395.582 128.617C394.533 127.029 391.053 124.158 387.573 125.44C384.093 126.722 384.785 137.209 384.785 137.209C384.785 137.209 389.103 140.596 389.376 143.046C389.67 145.495 387.657 148.73 387.657 148.73L389.984 149.591Z" fill="#201251"/>
<path d="M373.107 173.703C373.107 173.703 390.927 171.33 401.158 171.119C411.389 170.909 427.657 175.789 427.657 175.789L439.502 164.211L454.576 177.147C454.576 177.147 441.746 194.447 437.595 198.466C433.464 202.503 430.446 221.372 429.502 227.113C428.58 232.835 426.253 266.362 426.253 266.362C426.253 266.362 415.33 278.246 370.487 265.31C370.026 264.889 372.353 240.7 372.122 234.768C371.891 228.835 366.084 208.684 364.91 203.805C363.757 198.925 345.224 189.165 345.224 189.165C345.224 189.165 342.939 177.281 351.493 171.56C352.562 172.172 373.107 173.703 373.107 173.703Z" fill="#201251"/>
<path d="M331.66 125.096C331.66 125.096 324.931 130.818 324.449 133.152C323.987 135.487 333.715 162.068 333.715 162.068L351.451 171.54L345.183 189.146C345.183 189.146 325.832 176.841 323.044 173.244C320.256 169.646 315.371 133.573 315.371 133.573C315.371 133.573 309.102 126.359 308.641 124.445C308.18 122.532 306.712 116.293 307.803 115.068C308.872 113.844 316.063 107.05 317.132 109.059C318.18 111.069 322.059 125.766 322.059 125.766C322.059 125.766 330.025 122.551 331.66 125.096Z" fill="#E79673"/>
<path d="M370.466 265.31L360.361 352.285L355.141 444.562L372.562 445.193C372.562 445.193 383.38 383.976 383.548 374.656C383.715 365.337 383.38 354.199 383.38 354.199L394.533 307.735H400.802L413.695 368.188L426.944 443.28L440.886 443.911C440.886 443.911 442.982 397.141 440.886 387.592C438.789 378.043 435.666 368.819 435.666 368.819L429.397 306.128C429.397 306.128 434.974 283.853 426.253 266.362C424.492 263.185 370.466 265.31 370.466 265.31Z" fill="#4C49A2"/>
<path d="M263.966 166.354H252.645V156.021H245.58V166.354H234.238V172.822H245.58V183.156H252.645V172.822H263.966V166.354Z" fill="#FDBE44"/>
<path d="M158.534 246.154C148.765 246.154 140.819 238.901 140.819 229.983C140.819 221.066 148.765 213.813 158.534 213.813C168.304 213.813 176.25 221.066 176.25 229.983C176.25 238.92 168.304 246.154 158.534 246.154ZM158.534 222.271C153.859 222.271 150.065 225.735 150.065 230.003C150.065 234.27 153.859 237.734 158.534 237.734C163.21 237.734 167.004 234.27 167.004 230.003C167.004 225.735 163.189 222.271 158.534 222.271Z" fill="#30C5CC"/>
<path d="M703.174 97.6348H691.853V87.3011H684.788V97.6348H673.467V104.084H684.788V114.437H691.853V104.084H703.174V97.6348Z" fill="#343434"/>
<path d="M646.57 27.0591C646.57 30.5802 643.446 33.4508 639.568 33.4508C635.689 33.4508 632.565 30.5802 632.565 27.0591C632.565 23.5189 635.689 20.6675 639.568 20.6675C643.446 20.6675 646.57 23.5189 646.57 27.0591Z" fill="#1C1D22"/>
<path d="M509.901 139.257C500.132 139.257 492.186 132.004 492.186 123.086C492.186 114.169 500.132 106.916 509.901 106.916C519.671 106.916 527.616 114.169 527.616 123.086C527.616 132.004 519.671 139.257 509.901 139.257ZM509.901 115.355C505.226 115.355 501.432 118.819 501.432 123.086C501.432 127.354 505.226 130.818 509.901 130.818C514.576 130.818 518.371 127.354 518.371 123.086C518.371 118.819 514.556 115.355 509.901 115.355Z" fill="#FEBA40"/>
<path d="M604.012 32.3408C594.242 32.3408 586.297 25.0881 586.297 16.1704C586.297 7.25277 594.242 0 604.012 0C613.781 0 621.727 7.25277 621.727 16.1704C621.727 25.0881 613.781 32.3408 604.012 32.3408ZM604.012 8.43922C599.337 8.43922 595.542 11.903 595.542 16.1704C595.542 20.4379 599.337 23.9016 604.012 23.9016C608.687 23.9016 612.481 20.4379 612.481 16.1704C612.481 11.9221 608.687 8.43922 604.012 8.43922Z" fill="#1C1D22"/>
</svg>
