<svg width="450" height="450" viewBox="0 0 450 450" fill="none" xmlns="http://www.w3.org/2000/svg">
<g clip-path="url(#clip0)">
<path d="M353.086 342.065C423.103 272.048 423.103 158.528 353.086 88.5104C283.068 18.4933 169.548 18.4933 99.5312 88.5104C29.5141 158.528 29.5141 272.048 99.5312 342.065C169.548 412.082 283.068 412.082 353.086 342.065Z" fill="#B0E1D5"/>
<path d="M93.78 246.98L89.86 243.99L76.81 258.99L76.78 266.01L93.78 246.98Z" fill="#67BFD5"/>
<path d="M95.8455 226.886L88.3555 226.9L88.3718 235.41L95.8618 235.396L95.8455 226.886Z" fill="#15808B"/>
<path d="M105.17 211.85L90.92 217.06C92.1011 221.353 92.7724 225.77 92.92 230.22C92.92 245.02 85.22 244.74 83.2 254.9C80.27 269.62 102.06 277.06 95.29 284.67C87.13 293.88 76 268.45 76 268.45C76 268.45 69.9 272.32 69.91 276.15C71.5559 277.236 72.9505 278.661 74 280.33C78.75 287.6 83.06 309.61 105.32 309.56L105.17 211.85Z" fill="#EFC55F"/>
<g style="mix-blend-mode:multiply" opacity="0.81">
<path d="M100.65 304.76C89.82 302.86 85.14 293.9 81.51 286C83.96 288.58 86.73 290.55 89.69 291C92.1158 291.251 94.551 290.624 96.5544 289.233C98.5577 287.843 99.9965 285.78 100.61 283.42L100.65 304.76ZM100.6 279.63C99.84 276.14 97.13 273.18 94.29 270.07C90.78 266.22 87.15 262.25 87.14 257.64C87.1403 257.009 87.204 256.379 87.33 255.76C87.97 252.54 89.33 250.76 91.03 248.49C93.75 244.86 97.15 240.35 97.13 230.21C97.0584 226.736 96.6498 223.276 95.91 219.88L100.48 218.2L100.6 279.63Z" fill="#EACEA3"/>
</g>
<path d="M82.7401 239.36C84.3627 239.36 85.9489 238.879 87.2978 237.977C88.6467 237.075 89.6977 235.793 90.3178 234.293C90.9378 232.794 91.099 231.144 90.781 229.553C90.463 227.962 89.68 226.501 88.5312 225.355C87.3824 224.209 85.9195 223.429 84.3275 223.115C82.7355 222.801 81.0862 222.966 79.5882 223.59C78.0902 224.214 76.8109 225.268 75.9123 226.619C75.0137 227.97 74.5361 229.557 74.5401 231.18C74.5454 233.351 75.4116 235.432 76.9488 236.965C78.4861 238.499 80.5687 239.36 82.7401 239.36V239.36Z" fill="#67BFD5"/>
<path d="M108.32 313.62L108.12 208.78L105.17 210.89L105.36 311.08L108.32 313.62Z" fill="#67BFD5"/>
<path d="M79.5701 229.42C79.9656 229.42 80.3523 229.303 80.6812 229.083C81.0101 228.863 81.2665 228.551 81.4178 228.185C81.5692 227.82 81.6088 227.418 81.5316 227.03C81.4545 226.642 81.264 226.285 80.9843 226.006C80.7046 225.726 80.3482 225.536 79.9603 225.458C79.5723 225.381 79.1702 225.421 78.8047 225.572C78.4393 225.724 78.1269 225.98 77.9071 226.309C77.6874 226.638 77.5701 227.024 77.5701 227.42C77.5701 227.95 77.7808 228.459 78.1559 228.834C78.5309 229.209 79.0396 229.42 79.5701 229.42Z" fill="white"/>
<path d="M93.81 262.2C94.7084 262.2 95.5865 261.934 96.3334 261.434C97.0802 260.935 97.6621 260.225 98.0054 259.395C98.3487 258.565 98.438 257.652 98.2621 256.771C98.0861 255.89 97.6527 255.081 97.0167 254.446C96.3808 253.812 95.5709 253.38 94.6896 253.206C93.8083 253.032 92.8951 253.123 92.0657 253.469C91.2363 253.814 90.5279 254.397 90.0303 255.145C89.5326 255.893 89.2681 256.772 89.27 257.67C89.27 258.266 89.3875 258.856 89.6158 259.406C89.8441 259.956 90.1787 260.456 90.6004 260.877C91.0221 261.298 91.5226 261.631 92.0734 261.858C92.6242 262.085 93.2143 262.201 93.81 262.2V262.2Z" fill="#EFC55F"/>
<path d="M104.86 111.34L141.28 111.28V106.43C141.26 96.8 133.09 89 123 89C112.91 89 104.8 96.83 104.82 106.46L104.86 111.34Z" fill="white"/>
<path d="M141.284 111.263L104.864 111.327L104.97 172.017L141.39 171.953L141.284 111.263Z" fill="#2EA7B8"/>
<g style="mix-blend-mode:multiply" opacity="0.43">
<path d="M141.285 111.278L123.075 111.307L123.17 171.997L141.38 171.968L141.285 111.278Z" fill="#73A89E"/>
</g>
<g style="mix-blend-mode:multiply" opacity="0.81">
<path d="M111.53 134.28C111.769 134.28 112.005 134.233 112.225 134.141C112.445 134.05 112.645 133.916 112.813 133.746C112.982 133.577 113.115 133.377 113.205 133.156C113.296 132.935 113.341 132.699 113.34 132.46V119.82C113.34 119.579 113.292 119.341 113.2 119.119C113.107 118.897 112.971 118.695 112.8 118.526C112.629 118.357 112.426 118.223 112.203 118.133C111.98 118.043 111.741 117.997 111.5 118V118C111.261 117.999 111.024 118.045 110.803 118.136C110.583 118.227 110.382 118.361 110.214 118.531C110.045 118.7 109.912 118.901 109.822 119.123C109.732 119.344 109.687 119.581 109.69 119.82V132.46C109.69 132.699 109.737 132.935 109.829 133.155C109.92 133.375 110.055 133.575 110.224 133.744C110.393 133.912 110.594 134.045 110.814 134.135C111.035 134.226 111.272 134.271 111.51 134.27L111.53 134.28Z" fill="#A09281"/>
</g>
<g style="mix-blend-mode:multiply" opacity="0.81">
<path d="M117.63 134.27C118.111 134.27 118.572 134.08 118.913 133.74C119.255 133.401 119.447 132.941 119.45 132.46V119.81C119.45 119.569 119.402 119.33 119.309 119.108C119.215 118.886 119.078 118.684 118.906 118.516C118.734 118.347 118.529 118.215 118.305 118.126C118.081 118.038 117.841 117.995 117.6 118V118C117.362 118 117.125 118.047 116.905 118.139C116.685 118.23 116.485 118.364 116.317 118.534C116.148 118.703 116.015 118.903 115.925 119.124C115.835 119.345 115.789 119.581 115.79 119.82V132.46C115.793 132.941 115.986 133.401 116.327 133.74C116.668 134.08 117.129 134.27 117.61 134.27H117.63Z" fill="#A09281"/>
</g>
<g style="mix-blend-mode:multiply" opacity="0.81">
<path d="M123.74 134.26C124.22 134.26 124.68 134.07 125.02 133.73C125.359 133.391 125.55 132.93 125.55 132.45V119.8C125.547 119.319 125.354 118.859 125.013 118.52C124.672 118.181 124.211 117.99 123.73 117.99C123.491 117.99 123.255 118.037 123.035 118.129C122.815 118.221 122.615 118.355 122.447 118.524C122.278 118.693 122.145 118.894 122.055 119.115C121.964 119.335 121.919 119.572 121.92 119.81V132.45C121.919 132.689 121.965 132.926 122.056 133.147C122.147 133.368 122.281 133.568 122.451 133.737C122.62 133.905 122.821 134.038 123.043 134.128C123.264 134.218 123.501 134.263 123.74 134.26V134.26Z" fill="#A09281"/>
</g>
<g style="mix-blend-mode:multiply" opacity="0.81">
<path d="M129.84 134.25C130.323 134.25 130.786 134.058 131.127 133.717C131.468 133.376 131.66 132.913 131.66 132.43V119.79C131.661 119.552 131.615 119.316 131.525 119.096C131.434 118.876 131.301 118.675 131.133 118.507C130.965 118.339 130.764 118.205 130.544 118.115C130.324 118.025 130.088 117.979 129.85 117.98V117.98C129.608 117.975 129.368 118.018 129.143 118.107C128.918 118.196 128.713 118.33 128.541 118.499C128.368 118.669 128.231 118.871 128.139 119.095C128.046 119.318 127.999 119.558 128 119.8V132.44C128 132.678 128.047 132.915 128.139 133.135C128.23 133.355 128.365 133.555 128.534 133.723C128.703 133.892 128.904 134.025 129.124 134.115C129.345 134.205 129.582 134.251 129.82 134.25H129.84Z" fill="#A09281"/>
</g>
<path d="M138.64 171.982L107.68 172.031L107.689 177.991L138.649 177.942L138.64 171.982Z" fill="#5F7371"/>
<path d="M118.16 198.83L126.98 198.82L127.91 190.99L117.28 191L118.16 198.83Z" fill="#5F7371"/>
<g style="mix-blend-mode:multiply" opacity="0.81">
<path d="M138.38 172.19H122.29V178.14H138.38V172.19Z" fill="#C8BAAB"/>
</g>
<path d="M129.65 190.98L134.07 177.93L111.07 177.97L114.72 191.01L129.65 190.98Z" fill="#5F7371"/>
<path opacity="0.25" d="M114.72 191.01L123.19 191L123.17 177.95L111.07 177.97L114.72 191.01Z" fill="white"/>
<g style="mix-blend-mode:multiply" opacity="0.81">
<path d="M122.61 198.82H126.98L127.91 190.99L122.59 191L122.61 198.82Z" fill="#C8BAAB"/>
</g>
<path d="M122.65 224.34C122.856 224.342 123.06 224.302 123.25 224.224C123.44 224.147 123.614 224.032 123.76 223.887C123.905 223.742 124.021 223.57 124.1 223.38C124.179 223.19 124.22 222.986 124.22 222.78V198.78H121V222.78C121 222.993 121.043 223.203 121.127 223.399C121.211 223.594 121.334 223.77 121.488 223.916C121.643 224.063 121.826 224.175 122.025 224.248C122.225 224.321 122.438 224.353 122.65 224.34Z" fill="#666666"/>
<g style="mix-blend-mode:multiply" opacity="0.85">
<path d="M124.19 209.37V205.38L121.05 202.25V206.24L124.19 209.37Z" fill="#CCCCCC"/>
</g>
<g style="mix-blend-mode:multiply" opacity="0.85">
<path d="M121.07 213.56L124.2 216.67V212.69L121.06 209.56L121.07 213.56Z" fill="#CCCCCC"/>
</g>
<g style="mix-blend-mode:multiply" opacity="0.85">
<path d="M123.92 223.68C124.114 223.42 124.219 223.104 124.22 222.78V220L121.08 216.87V220.87L123.92 223.68Z" fill="#CCCCCC"/>
</g>
<g style="mix-blend-mode:multiply" opacity="0.85">
<path d="M123.92 223.68C124.114 223.42 124.219 223.104 124.22 222.78V220L121.08 216.87V220.87L123.92 223.68Z" fill="#CCCCCC"/>
</g>
<g style="mix-blend-mode:multiply" opacity="0.85">
<path d="M124.2 216.67V212.69L121.06 209.56L121.07 213.56L124.2 216.67Z" fill="#CCCCCC"/>
</g>
<g style="mix-blend-mode:multiply" opacity="0.85">
<path d="M124.19 209.37V205.38L121.05 202.25V206.24L124.19 209.37Z" fill="#CCCCCC"/>
</g>
<g style="mix-blend-mode:multiply" opacity="0.43">
<path d="M111.06 166.38C111.596 166.378 112.119 166.217 112.564 165.918C113.008 165.618 113.354 165.194 113.557 164.698C113.761 164.202 113.812 163.657 113.706 163.131C113.599 162.606 113.34 162.124 112.959 161.747C112.579 161.369 112.095 161.113 111.569 161.01C111.043 160.907 110.498 160.963 110.004 161.17C109.509 161.377 109.087 161.726 108.791 162.173C108.495 162.619 108.338 163.144 108.34 163.68C108.345 164.398 108.634 165.085 109.144 165.59C109.653 166.096 110.342 166.38 111.06 166.38V166.38Z" fill="#73A89E"/>
</g>
<path opacity="0.25" d="M130.58 166.35C131.116 166.348 131.639 166.188 132.083 165.889C132.527 165.59 132.873 165.166 133.077 164.67C133.28 164.175 133.332 163.63 133.227 163.105C133.121 162.58 132.862 162.098 132.483 161.72C132.103 161.342 131.62 161.085 131.095 160.982C130.57 160.878 130.025 160.932 129.531 161.137C129.036 161.343 128.613 161.69 128.316 162.136C128.019 162.581 127.86 163.105 127.86 163.64C127.86 163.997 127.93 164.35 128.067 164.68C128.204 165.009 128.405 165.308 128.657 165.56C128.91 165.812 129.21 166.011 129.54 166.147C129.87 166.282 130.223 166.351 130.58 166.35V166.35Z" fill="white"/>
<path d="M123.07 111.31H141.28V106.46C141.26 96.8 133.09 89 123 89C120.317 89.0044 117.666 89.577 115.22 90.68C117.388 90.9845 119.373 92.0638 120.807 93.7183C122.24 95.3728 123.027 97.4906 123.02 99.68L123.07 111.31Z" fill="#CCCCCC"/>
<path d="M141.32 134.24L155.27 132.04L177.12 128.59L177.08 109.44L166.39 109.98L163.16 110.15L160.13 110.31L156.9 110.48L153.87 110.63L150.63 110.8L147.61 110.96L144.38 111.13L141.28 111.28L141.32 134.24Z" fill="#2EA7B8"/>
<path d="M189.87 140C190.203 139.997 190.52 139.863 190.755 139.627C190.989 139.391 191.12 139.072 191.12 138.74L191.05 99.91C191.047 99.5802 190.915 99.2648 190.68 99.0325C190.446 98.8003 190.13 98.67 189.8 98.67H175.4C175.235 98.6686 175.071 98.7004 174.918 98.7633C174.765 98.8263 174.626 98.9192 174.51 99.0366C174.393 99.154 174.301 99.2935 174.24 99.447C174.178 99.6004 174.147 99.7646 174.15 99.93L174.21 138.75C174.21 138.915 174.243 139.078 174.306 139.231C174.37 139.383 174.463 139.521 174.58 139.637C174.697 139.754 174.836 139.845 174.989 139.908C175.141 139.97 175.305 140.001 175.47 140H189.87Z" fill="#445A86"/>
<g style="mix-blend-mode:multiply" opacity="0.81">
<path d="M182.67 140H189.88C190.211 139.997 190.527 139.865 190.761 139.631C190.995 139.397 191.127 139.081 191.13 138.75L191.06 99.9199C191.06 99.5884 190.928 99.2705 190.694 99.036C190.46 98.8016 190.142 98.6699 189.81 98.6699H182.6L182.67 140Z" fill="#C8BAAB"/>
</g>
<path d="M174.144 104.786L170.704 104.792L170.75 133.851L174.19 133.846L174.144 104.786Z" fill="#5671A8"/>
<path opacity="0.25" d="M131.21 157.49C131.541 157.49 131.859 157.358 132.094 157.124C132.328 156.889 132.46 156.572 132.46 156.24V143.08C132.46 142.915 132.427 142.753 132.364 142.601C132.3 142.449 132.207 142.311 132.09 142.196C131.972 142.081 131.833 141.99 131.681 141.929C131.528 141.867 131.364 141.837 131.2 141.84H129.95C129.618 141.84 129.3 141.972 129.066 142.206C128.832 142.441 128.7 142.758 128.7 143.09V156.24C128.7 156.405 128.733 156.568 128.796 156.721C128.859 156.873 128.952 157.011 129.07 157.127C129.187 157.244 129.326 157.336 129.479 157.398C129.631 157.46 129.795 157.491 129.96 157.49H131.21Z" fill="white"/>
<g style="mix-blend-mode:multiply" opacity="0.43">
<path d="M111.66 157.52C111.825 157.521 111.988 157.49 112.14 157.428C112.292 157.365 112.431 157.273 112.547 157.157C112.663 157.041 112.755 156.902 112.818 156.75C112.88 156.598 112.911 156.435 112.91 156.27V143.12C112.91 142.789 112.778 142.471 112.544 142.236C112.31 142.002 111.992 141.87 111.66 141.87H110.41C110.079 141.87 109.761 142.002 109.526 142.236C109.292 142.471 109.16 142.789 109.16 143.12V156.27C109.159 156.435 109.19 156.598 109.253 156.75C109.315 156.902 109.407 157.041 109.523 157.157C109.64 157.273 109.778 157.365 109.93 157.428C110.082 157.49 110.246 157.521 110.41 157.52H111.66Z" fill="#73A89E"/>
</g>
<path d="M155.16 141.8C155.686 138.571 155.723 135.28 155.27 132.04L141.27 134.24V140.38C145.941 139.535 150.756 140.027 155.16 141.8V141.8Z" fill="#F3A61E"/>
<g style="mix-blend-mode:multiply" opacity="0.35">
<path d="M146 123.54C146.213 123.539 146.423 123.495 146.619 123.413C146.815 123.33 146.993 123.21 147.143 123.058C147.292 122.907 147.41 122.728 147.491 122.531C147.571 122.334 147.611 122.123 147.61 121.91V111L144.38 111.17V121.96C144.39 122.383 144.566 122.785 144.868 123.08C145.171 123.375 145.577 123.54 146 123.54V123.54Z" fill="#A09281"/>
</g>
<g style="mix-blend-mode:multiply" opacity="0.35">
<path d="M152.27 122.9C152.482 122.9 152.692 122.858 152.888 122.776C153.084 122.695 153.262 122.575 153.412 122.425C153.562 122.274 153.68 122.096 153.76 121.899C153.841 121.703 153.881 121.492 153.88 121.28V110.63L150.64 110.8V121.28C150.64 121.493 150.682 121.705 150.764 121.902C150.846 122.099 150.967 122.278 151.118 122.429C151.27 122.58 151.449 122.699 151.647 122.779C151.845 122.86 152.056 122.901 152.27 122.9V122.9Z" fill="#A09281"/>
</g>
<g style="mix-blend-mode:multiply" opacity="0.35">
<path d="M158.53 121.84C158.959 121.837 159.369 121.666 159.673 121.363C159.976 121.059 160.147 120.649 160.15 120.22V110.31L156.92 110.48V120.22C156.923 120.647 157.093 121.056 157.394 121.359C157.695 121.662 158.103 121.835 158.53 121.84V121.84Z" fill="#A09281"/>
</g>
<g style="mix-blend-mode:multiply" opacity="0.35">
<path d="M164.8 120.16C165.226 120.155 165.633 119.982 165.933 119.678C166.232 119.375 166.4 118.966 166.4 118.54V110L163.17 110.17V118.57C163.178 118.996 163.353 119.402 163.659 119.7C163.964 119.997 164.374 120.163 164.8 120.16V120.16Z" fill="#A09281"/>
</g>
<g style="mix-blend-mode:multiply" opacity="0.75">
<path d="M149.27 140.21L153.87 110.63L147.6 110.95L144.37 111.12L141.28 111.28L141.33 140.38C143.952 139.912 146.631 139.855 149.27 140.21Z" fill="#73A89E"/>
</g>
<path d="M177.78 103.78C178.107 103.78 178.426 103.683 178.698 103.501C178.969 103.319 179.181 103.061 179.305 102.759C179.43 102.457 179.462 102.125 179.398 101.804C179.333 101.484 179.175 101.19 178.943 100.96C178.711 100.729 178.416 100.573 178.096 100.51C177.775 100.448 177.443 100.482 177.142 100.608C176.84 100.735 176.583 100.948 176.403 101.221C176.223 101.493 176.128 101.813 176.13 102.14C176.13 102.356 176.173 102.57 176.256 102.77C176.339 102.97 176.461 103.151 176.614 103.303C176.767 103.456 176.949 103.576 177.149 103.658C177.349 103.74 177.564 103.781 177.78 103.78Z" fill="#5671A8"/>
<path d="M187.72 103.76C188.047 103.76 188.366 103.663 188.638 103.481C188.909 103.299 189.121 103.041 189.245 102.739C189.37 102.437 189.402 102.105 189.338 101.784C189.273 101.464 189.115 101.17 188.883 100.94C188.651 100.709 188.357 100.553 188.036 100.49C187.715 100.428 187.383 100.462 187.082 100.588C186.78 100.715 186.523 100.928 186.343 101.201C186.163 101.473 186.068 101.793 186.07 102.12C186.07 102.336 186.113 102.55 186.196 102.75C186.279 102.95 186.401 103.131 186.554 103.283C186.707 103.436 186.889 103.556 187.089 103.638C187.29 103.72 187.504 103.761 187.72 103.76V103.76Z" fill="#5671A8"/>
<path d="M177.7 138C178.027 138 178.346 137.903 178.618 137.721C178.889 137.54 179.101 137.281 179.225 136.979C179.35 136.677 179.382 136.345 179.318 136.025C179.253 135.704 179.095 135.41 178.863 135.18C178.631 134.95 178.337 134.793 178.016 134.731C177.695 134.668 177.363 134.702 177.062 134.829C176.76 134.955 176.503 135.168 176.323 135.441C176.143 135.713 176.048 136.033 176.05 136.36C176.049 136.577 176.091 136.791 176.173 136.992C176.256 137.192 176.377 137.374 176.531 137.526C176.685 137.679 176.867 137.8 177.068 137.881C177.269 137.962 177.483 138.003 177.7 138Z" fill="#5671A8"/>
<path d="M187.64 138C187.967 138 188.286 137.903 188.558 137.721C188.829 137.54 189.041 137.281 189.165 136.979C189.29 136.677 189.322 136.345 189.258 136.025C189.193 135.704 189.035 135.41 188.803 135.18C188.571 134.95 188.276 134.793 187.956 134.731C187.635 134.668 187.303 134.702 187.002 134.829C186.7 134.955 186.443 135.168 186.263 135.441C186.083 135.713 185.988 136.033 185.99 136.36C185.993 136.796 186.168 137.213 186.477 137.52C186.786 137.828 187.204 138 187.64 138Z" fill="#5671A8"/>
<path d="M277.84 87.9302L277.73 87.9902L277.61 87.9302H277.84Z" fill="#D3DBDA"/>
<path d="M277.72 88.0001L277.61 87.9401L273.74 85.7001L277.35 82.7001L272.91 81.0001L275.91 77.3701L271.27 76.5501L273.62 72.4501H268.89L270.54 68.0001L265.89 68.8101L266.71 64.1501L262.26 65.7601V61.0601L258.16 63.4501L257.34 58.7801L253.71 61.7801L252.09 57.3301L249.09 60.9401L246.72 56.8501L244.31 61.0001L241.31 57.3701L239.7 61.8101L236.07 58.8101L235.25 63.4801L231.15 61.0901V65.8001L226.7 64.1901L227.52 68.8401L222.86 68.0401L224.47 72.4801H219.75L222.11 76.5701L217.45 77.3901L220.45 81.0201L216 82.6401L219.63 85.6401L215.76 87.8701L215.65 87.9401L215.76 88.0101L219.63 90.2501L216 93.2501L220.45 95.0001L217.45 98.6301L222.12 99.4601L219.76 103.54H224.48L222.82 108L227.48 107.19L226.66 111.84L231.11 110.23V114.97L235.21 112.58L236.03 117.25L239.66 114.25L241.27 118.68L244.27 115.05L246.64 119.17L249.01 115.06L252.01 118.68L253.62 114.24L257.26 117.24L258.08 112.57L262.18 114.96V110.22L266.63 111.84L265.81 107.18L270.46 107.99L268.85 103.54H273.58L271.22 99.4401L275.87 98.6201L272.87 94.9901L277.31 93.3701L273.7 90.3701L277.57 88.1301L277.72 88.0001ZM271.14 88.0701C271.011 94.4703 268.377 100.565 263.805 105.045C259.233 109.526 253.087 112.036 246.685 112.036C240.283 112.036 234.137 109.526 229.565 105.045C224.993 100.565 222.359 94.4703 222.23 88.0701V87.9401C222.359 81.5399 224.993 75.4454 229.565 70.9648C234.137 66.4843 240.283 63.9746 246.685 63.9746C253.087 63.9746 259.233 66.4843 263.805 70.9648C268.377 75.4454 271.011 81.5399 271.14 87.9401V88.0701Z" fill="white"/>
<path d="M277.84 88.0602H277.61L277.73 87.9902L277.84 88.0602Z" fill="#D3DBDA"/>
<path d="M246.69 63.6001C240.225 63.6 234.023 66.1592 229.44 70.7182C224.857 75.2773 222.264 81.4655 222.23 87.9301V88.0601C222.359 94.4603 224.993 100.555 229.565 105.035C234.137 109.516 240.283 112.026 246.685 112.026C253.087 112.026 259.233 109.516 263.805 105.035C268.377 100.555 271.011 94.4603 271.14 88.0601V87.9301C271.108 81.4664 268.518 75.2782 263.936 70.7189C259.355 66.1595 253.154 63.6 246.69 63.6001V63.6001ZM246.69 94.3001C245.448 94.2863 244.237 93.906 243.21 93.2069C242.183 92.5078 241.385 91.5211 240.916 90.3704C240.448 89.2197 240.329 87.9563 240.576 86.7386C240.822 85.5209 241.423 84.403 242.302 83.5251C243.181 82.6473 244.3 82.0486 245.518 81.804C246.736 81.5594 247.999 81.6798 249.149 82.1503C250.299 82.6207 251.285 83.4201 251.982 84.4483C252.68 85.4765 253.058 86.6877 253.07 87.9301V88.0601C253.038 89.7329 252.349 91.326 251.151 92.494C249.953 93.662 248.343 94.3109 246.67 94.3001H246.69Z" fill="#8CAFCD"/>
<path opacity="0.29" d="M261.62 68.7199L248.4 81.9299C247.832 81.764 247.242 81.6832 246.65 81.6899C244.971 81.6846 243.358 82.3444 242.165 83.525C240.971 84.7057 240.293 86.311 240.28 87.9899C240.29 88.5967 240.384 89.1991 240.56 89.7799L227.38 103C225.708 100.882 224.409 98.4946 223.54 95.9399L254.54 64.9399C257.095 65.7957 259.488 67.0734 261.62 68.7199V68.7199Z" fill="#FCFCFC"/>
<path opacity="0.29" d="M270.9 84.9301L243.63 112.19C239.421 111.682 235.42 110.075 232.03 107.53L245.38 94.1701C245.798 94.2544 246.223 94.298 246.65 94.3001C248.314 94.2978 249.912 93.643 251.099 92.4764C252.286 91.3098 252.969 89.7243 253 88.0601V87.9301C252.991 87.5128 252.941 87.0974 252.85 86.6901L266.2 73.3501C268.751 76.7334 270.372 80.7259 270.9 84.9301Z" fill="#FCFCFC"/>
<path d="M284.91 93.5303H197.25V98.6503H284.91V93.5303Z" fill="#ACD8D7"/>
<g style="mix-blend-mode:multiply" opacity="0.81">
<path d="M284.9 96.0898H197.25V98.6498H284.9V96.0898Z" fill="#B1B3BB"/>
</g>
<g style="mix-blend-mode:multiply" opacity="0.81">
<path d="M271.34 99.3999L272.38 101.2H221.08L222.11 99.4199L217.77 98.6499H275.61L271.34 99.3999Z" fill="#B1B3BB"/>
</g>
<path d="M290.32 80.2599L286.89 80.9499L280.38 82.2599C280.063 80.6752 279.635 79.1147 279.1 77.5899L285.47 75.6599C282.004 65.5769 274.758 57.2339 265.26 52.3899L262.45 58.3899C260.928 57.6011 259.346 56.9324 257.72 56.3899L259.84 50.0999L261.08 46.4399C261.08 46.3199 261.16 46.2199 261.2 46.1199C261.325 45.6941 261.539 45.2996 261.828 44.9626C262.117 44.6256 262.474 44.3536 262.875 44.1646C263.277 43.9756 263.714 43.8739 264.158 43.8662C264.602 43.8585 265.042 43.945 265.45 44.1199H265.58C266.58 44.5399 267.58 44.9799 268.49 45.4699C279.946 51.2479 288.662 61.3083 292.75 73.4699L293.03 74.3499V74.4399C293.61 76.5899 292.43 79.8399 290.32 80.2599Z" fill="#526CA0"/>
<g style="mix-blend-mode:multiply" opacity="0.81">
<path d="M290.32 80.2599L286.89 80.9499L280.38 82.2599C280.063 80.6752 279.635 79.1147 279.1 77.5899L285.47 75.6599C283.729 70.5883 281.011 65.9068 277.47 61.8799L283.41 57.1499C287.563 61.9249 290.737 67.4701 292.75 73.4699L293.03 74.3499V74.4399C293.61 76.5899 292.43 79.8399 290.32 80.2599Z" fill="#B1B3BB"/>
</g>
<path d="M281.06 88.5399C281.063 90.2132 280.942 91.8843 280.7 93.5399H268C268.404 91.8837 268.605 90.1847 268.6 88.4799C268.609 85.3899 267.963 82.333 266.704 79.5111C265.445 76.6891 263.602 74.1663 261.296 72.1092C258.991 70.052 256.275 68.5074 253.328 67.5771C250.381 66.6469 247.271 66.3522 244.202 66.7126C241.133 67.073 238.175 68.0802 235.524 69.6678C232.873 71.2554 230.589 73.3872 228.823 75.9225C227.056 78.4579 225.847 81.3391 225.276 84.3759C224.705 87.4127 224.785 90.5361 225.51 93.5399H212.8C212.119 88.8762 212.406 84.1221 213.644 79.5743C214.881 75.0264 217.043 70.7823 219.993 67.1067C222.943 63.431 226.619 60.4026 230.791 58.2103C234.964 56.0181 239.543 54.7089 244.244 54.3646C248.944 54.0203 253.665 54.6482 258.113 56.2091C262.56 57.77 266.638 60.2304 270.092 63.4369C273.547 66.6435 276.303 70.5273 278.19 74.8463C280.077 79.1653 281.054 83.8267 281.06 88.5399V88.5399Z" fill="#48AEC0"/>
<g style="mix-blend-mode:multiply" opacity="0.81">
<path d="M268.59 88.4701C268.595 90.1748 268.394 91.8738 267.99 93.53H264.48C264.896 91.9811 265.104 90.3838 265.1 88.78C265.1 83.9107 263.166 79.2407 259.722 75.7976C256.279 72.3544 251.609 70.42 246.74 70.42C241.871 70.42 237.201 72.3544 233.758 75.7976C230.314 79.2407 228.38 83.9107 228.38 88.78C228.379 90.3843 228.591 91.9815 229.01 93.53H225.5C224.789 90.5318 224.72 87.4169 225.298 84.3901C225.876 81.3633 227.088 78.4931 228.855 75.9681C230.621 73.4432 232.902 71.3207 235.547 69.74C238.193 68.1594 241.142 67.1564 244.203 66.797C247.263 66.4376 250.365 66.7299 253.305 67.6548C256.244 68.5796 258.955 70.116 261.258 72.1631C263.561 74.2101 265.406 76.7214 266.669 79.5319C267.933 82.3424 268.587 85.3885 268.59 88.4701V88.4701Z" fill="#B1B3BB"/>
</g>
<path d="M250.37 87.9999C250.37 88.7159 250.158 89.4157 249.76 90.011C249.362 90.6064 248.797 91.0703 248.135 91.3443C247.474 91.6183 246.746 91.69 246.044 91.5503C245.342 91.4107 244.697 91.0659 244.19 90.5596C243.684 90.0533 243.339 89.4083 243.2 88.7061C243.06 88.0039 243.132 87.276 243.406 86.6146C243.68 85.9531 244.144 85.3877 244.739 84.99C245.334 84.5922 246.034 84.3799 246.75 84.3799C247.71 84.3799 248.631 84.7613 249.31 85.4402C249.989 86.119 250.37 87.0398 250.37 87.9999V87.9999Z" fill="#5B6E6D"/>
<g style="mix-blend-mode:multiply" opacity="0.81">
<path d="M277.22 88.4702C277.218 90.1655 277.078 91.8578 276.8 93.5302H268C268.404 91.874 268.605 90.1749 268.6 88.4702C268.609 85.3802 267.963 82.3233 266.704 79.5014C265.445 76.6794 263.602 74.1566 261.296 72.0995C258.991 70.0423 256.275 68.4976 253.328 67.5674C250.381 66.6371 247.271 66.3425 244.202 66.7029C241.133 67.0633 238.175 68.0705 235.524 69.6581C232.873 71.2456 230.589 73.3775 228.823 75.9128C227.056 78.4481 225.847 81.3293 225.276 84.3662C224.705 87.403 224.785 90.5264 225.51 93.5302H216.71C216.428 91.8584 216.287 90.1657 216.29 88.4702C216.29 84.4649 217.079 80.4988 218.612 76.7984C220.145 73.0979 222.391 69.7356 225.223 66.9035C228.056 64.0713 231.418 61.8247 235.118 60.2919C238.819 58.7591 242.785 57.9702 246.79 57.9702C250.795 57.9702 254.762 58.7591 258.462 60.2919C262.162 61.8247 265.525 64.0713 268.357 66.9035C271.189 69.7356 273.436 73.0979 274.968 76.7984C276.501 80.4988 277.29 84.4649 277.29 88.4702H277.22Z" fill="#B5D4D2"/>
</g>
<path d="M233.43 68.5699C234.111 68.2931 234.73 67.885 235.253 67.3687C235.775 66.8525 236.191 66.2382 236.476 65.5612C236.761 64.8841 236.91 64.1575 236.914 63.4229C236.918 62.6883 236.778 61.9601 236.5 61.2799L235.9 60.1699L229.74 48.8999L229.34 48.1699C229.21 47.9769 229.063 47.7962 228.9 47.6299V47.6299C223.67 39.4299 207.45 51.2899 210.56 57.1399C214.13 63.8699 222.56 52.8099 224.02 57.9799L225.79 64.2799L226.12 65.4799C226.397 66.1629 226.806 66.7846 227.323 67.3096C227.84 67.8346 228.456 68.2525 229.135 68.5395C229.814 68.8264 230.542 68.9768 231.279 68.982C232.016 68.9873 232.747 68.8472 233.43 68.5699V68.5699Z" fill="#445A86"/>
<path d="M234.18 87.9302C234.18 88.4447 233.976 88.9381 233.612 89.302C233.248 89.6658 232.755 89.8702 232.24 89.8702H220.18C219.666 89.8702 219.172 89.6658 218.808 89.302C218.444 88.9381 218.24 88.4447 218.24 87.9302V87.9302C218.232 87.6704 218.276 87.4117 218.37 87.1693C218.464 86.927 218.606 86.706 218.787 86.5194C218.968 86.3329 219.184 86.1846 219.424 86.0834C219.663 85.9821 219.92 85.9301 220.18 85.9302H232.24C232.5 85.9301 232.757 85.9821 232.997 86.0834C233.236 86.1846 233.453 86.3329 233.633 86.5194C233.814 86.706 233.956 86.927 234.05 87.1693C234.144 87.4117 234.188 87.6704 234.18 87.9302V87.9302Z" fill="#5B6E6D"/>
<path d="M286.28 104.07C286.282 104.604 286.135 105.129 285.856 105.584C285.577 106.04 285.177 106.409 284.7 106.65C284.606 106.709 284.505 106.756 284.4 106.79L283.63 106.97H283.39C282.807 106.979 282.234 106.813 281.747 106.492C281.259 106.172 280.879 105.713 280.656 105.174C280.433 104.635 280.377 104.041 280.495 103.47C280.614 102.898 280.901 102.376 281.32 101.97H281.38C281.912 101.441 282.63 101.143 283.38 101.14C283.763 101.14 284.143 101.216 284.497 101.364C284.851 101.511 285.172 101.728 285.441 102C285.711 102.273 285.924 102.596 286.068 102.951C286.212 103.306 286.284 103.687 286.28 104.07V104.07Z" fill="#F2E619"/>
<path d="M282.4 112.28C282.4 112.811 282.189 113.319 281.814 113.694C281.439 114.07 280.93 114.28 280.4 114.28C280.317 114.296 280.233 114.296 280.15 114.28C279.702 114.24 279.281 114.05 278.955 113.74C278.628 113.431 278.415 113.021 278.351 112.576C278.286 112.131 278.373 111.678 278.598 111.288C278.823 110.899 279.172 110.597 279.59 110.43C279.842 110.321 280.115 110.266 280.39 110.27C280.654 110.269 280.916 110.32 281.161 110.421C281.405 110.521 281.627 110.669 281.814 110.856C282.001 111.043 282.149 111.265 282.25 111.509C282.35 111.754 282.401 112.016 282.4 112.28V112.28Z" fill="#F2E619"/>
<path d="M283.63 107L271 109.82L281.32 102C280.901 102.406 280.614 102.928 280.495 103.5C280.377 104.071 280.433 104.664 280.656 105.203C280.879 105.742 281.259 106.202 281.747 106.522C282.234 106.843 282.807 107.009 283.39 107H283.63Z" fill="#F6C715"/>
<path d="M280.13 114.28L268.94 113L279.57 110.43C279.152 110.597 278.803 110.899 278.578 111.288C278.353 111.677 278.266 112.131 278.331 112.576C278.395 113.021 278.608 113.431 278.935 113.74C279.261 114.05 279.682 114.24 280.13 114.28V114.28Z" fill="#F6C715"/>
<path d="M254.68 327.92V330.92H256.56V332.7H254.68V335.7H256.57V337.52H254.7V340.52H256.58V346.34C256.58 346.41 256.58 346.48 256.58 346.55C256.585 346.607 256.585 346.664 256.58 346.72C256.565 346.798 256.545 346.875 256.52 346.95L256.46 347.15C256.372 347.329 256.269 347.5 256.15 347.66C256.098 347.702 256.052 347.749 256.01 347.8C255.913 347.894 255.81 347.981 255.7 348.06L255.53 348.16C255.351 348.257 255.159 348.327 254.96 348.37C254.82 348.386 254.68 348.386 254.54 348.37L206.28 348.44C206.006 348.436 205.735 348.488 205.482 348.593C205.229 348.697 205 348.853 204.81 349.05C204.713 349.141 204.626 349.241 204.55 349.35C204.48 349.465 204.42 349.585 204.37 349.71C204.253 349.964 204.194 350.241 204.2 350.52V351.24C204.198 351.59 204.287 351.935 204.46 352.24L204.56 352.41C204.638 352.52 204.725 352.624 204.82 352.72C205.009 352.913 205.235 353.065 205.484 353.168C205.733 353.271 206 353.323 206.27 353.32H181.44C181.712 353.32 181.981 353.266 182.231 353.162C182.482 353.057 182.709 352.903 182.9 352.71L183.04 352.56C183.172 352.406 183.277 352.23 183.35 352.04C183.377 351.978 183.4 351.915 183.42 351.85C183.454 351.756 183.477 351.659 183.49 351.56C183.49 351.46 183.49 351.35 183.49 351.24V350.52C183.505 350.414 183.505 350.306 183.49 350.2C183.476 350.099 183.456 349.999 183.43 349.9C183.43 349.83 183.38 349.77 183.36 349.71C183.285 349.522 183.176 349.35 183.04 349.2C183.005 349.144 182.961 349.093 182.91 349.05C182.72 348.856 182.493 348.703 182.242 348.6C181.991 348.497 181.721 348.446 181.45 348.45H179.1C178.551 348.45 178.025 348.232 177.636 347.844C177.248 347.456 177.03 346.929 177.03 346.38V324.28C177.03 323.73 177.248 323.203 177.636 322.813C178.024 322.423 178.55 322.203 179.1 322.2L254.51 322.1C255.06 322.1 255.588 322.318 255.977 322.706C256.367 323.094 256.587 323.62 256.59 324.17V327.93L254.68 327.92Z" fill="#48AEC0"/>
<path d="M196.4 285.34L196.49 346.34C196.49 346.89 196.272 347.418 195.884 347.807C195.496 348.197 194.97 348.417 194.42 348.42H179.1C178.551 348.42 178.025 348.202 177.636 347.814C177.248 347.426 177.03 346.899 177.03 346.35L176.94 285.35C176.94 284.8 177.158 284.273 177.546 283.883C177.934 283.493 178.46 283.273 179.01 283.27H194.32C194.593 283.269 194.863 283.321 195.115 283.425C195.368 283.528 195.597 283.68 195.79 283.873C195.984 284.065 196.137 284.294 196.242 284.546C196.346 284.797 196.4 285.067 196.4 285.34V285.34Z" fill="#526CA0"/>
<g style="mix-blend-mode:multiply" opacity="0.81">
<path d="M254.7 337.47V340.47H256.58V346.29C256.58 346.36 256.58 346.43 256.58 346.5C256.585 346.557 256.585 346.614 256.58 346.67C256.565 346.748 256.545 346.825 256.52 346.9L256.46 347.1C256.372 347.279 256.269 347.45 256.15 347.61C256.098 347.652 256.052 347.699 256.01 347.75C255.913 347.845 255.81 347.931 255.7 348.01L255.53 348.11C255.351 348.207 255.159 348.277 254.96 348.32C254.821 348.336 254.68 348.336 254.54 348.32L206.28 348.39C206.006 348.386 205.735 348.438 205.482 348.543C205.229 348.648 205 348.803 204.81 349C204.42 349.39 204.2 349.919 204.2 350.47V351.19C204.2 351.463 204.253 351.734 204.358 351.986C204.463 352.238 204.616 352.467 204.81 352.66C204.999 352.853 205.225 353.005 205.474 353.108C205.723 353.211 205.99 353.263 206.26 353.26H181.43C181.702 353.26 181.971 353.206 182.221 353.102C182.472 352.997 182.699 352.843 182.89 352.65L183.03 352.5C183.162 352.346 183.267 352.17 183.34 351.98C183.367 351.918 183.39 351.855 183.41 351.79C183.471 351.593 183.502 351.387 183.5 351.18V350.46C183.502 350.25 183.471 350.041 183.41 349.84C183.41 349.77 183.36 349.71 183.34 349.65C183.265 349.462 183.156 349.29 183.02 349.14C182.985 349.084 182.941 349.033 182.89 348.99C182.7 348.796 182.473 348.643 182.222 348.54C181.971 348.437 181.701 348.386 181.43 348.39H194.43C194.98 348.387 195.506 348.167 195.894 347.777C196.282 347.388 196.5 346.86 196.5 346.31V322.14H208.87V331.28L213.94 337.51L256.61 337.45H254.7V337.47Z" fill="#9FBBBE"/>
</g>
<g style="mix-blend-mode:multiply" opacity="0.81">
<path d="M196.48 340.8V346.34C196.48 346.89 196.262 347.417 195.874 347.807C195.486 348.197 194.96 348.417 194.41 348.42H179.09C178.541 348.42 178.015 348.202 177.626 347.814C177.238 347.426 177.02 346.899 177.02 346.35L176.93 285.35C176.93 284.8 177.148 284.273 177.536 283.883C177.924 283.493 178.45 283.273 179 283.27H186.66L186.71 315.85L192.43 329.85V340.85L196.48 340.8Z" fill="#B1B3BB"/>
</g>
<path d="M252.8 322.09H239.68C238.86 314.15 238.17 309.09 237.06 304.93C236.42 302.56 234.38 302.06 232.81 302.06H232.54H232.11C231.96 302.06 224.72 302.53 215.97 303.12H215.51L201.29 304.12L196.83 304.41H196.43V289.91H196.84C198.33 289.91 200.24 289.97 202.42 290.06C215.25 290.61 237.36 292.38 237.36 292.38C237.36 292.38 244.73 291.91 246.58 298.81C248.43 305.71 252.8 322.09 252.8 322.09Z" fill="#526CA0"/>
<g style="mix-blend-mode:multiply" opacity="0.81">
<path d="M215.54 303.2L201.29 304.15L196.83 304.45V289.95C198.28 289.95 200.2 290 202.4 290.09L215.52 303.16L215.54 303.2Z" fill="#B1B3BB"/>
</g>
<g style="mix-blend-mode:multiply" opacity="0.81">
<path d="M243.895 327.907L222.485 327.94L222.489 330.88L243.899 330.847L243.895 327.907Z" fill="#9FBBBE"/>
</g>
<g style="mix-blend-mode:multiply" opacity="0.81">
<path d="M243.894 332.669L222.484 332.699L222.488 335.629L243.898 335.599L243.894 332.669Z" fill="#9FBBBE"/>
</g>
<path d="M243.9 337.386L222.49 337.42L222.494 340.35L243.904 340.316L243.9 337.386Z" fill="#48AEC0"/>
<g style="mix-blend-mode:multiply" opacity="0.81">
<path d="M254.68 327.92V330.85L249.48 330.9L249.46 327.97L254.68 327.92Z" fill="#9FBBBE"/>
</g>
<g style="mix-blend-mode:multiply" opacity="0.81">
<path d="M254.68 332.67L254.69 335.6L249.51 335.65L249.49 332.72L254.68 332.67Z" fill="#9FBBBE"/>
</g>
<path d="M254.69 337.39L254.7 340.33L249.55 340.38L249.53 337.44L254.69 337.39Z" fill="#48AEC0"/>
<path d="M213.89 353.29H176.5V357.43H213.89V353.29Z" fill="#E7ECE5"/>
<g style="mix-blend-mode:multiply" opacity="0.81">
<path d="M213.91 355.316L176.52 355.381L176.524 357.451L213.914 357.386L213.91 355.316Z" fill="#C8DADC"/>
</g>
<path d="M184.78 288.94C184.782 289.275 184.685 289.602 184.5 289.881C184.316 290.161 184.052 290.379 183.744 290.508C183.435 290.638 183.095 290.673 182.766 290.609C182.438 290.545 182.136 290.384 181.899 290.148C181.661 289.912 181.499 289.611 181.433 289.283C181.367 288.955 181.4 288.615 181.528 288.305C181.655 287.996 181.872 287.732 182.15 287.545C182.428 287.359 182.755 287.26 183.09 287.26C183.312 287.257 183.532 287.299 183.738 287.382C183.943 287.465 184.13 287.589 184.287 287.745C184.445 287.902 184.569 288.088 184.654 288.293C184.738 288.498 184.781 288.718 184.78 288.94V288.94Z" fill="#526CA0"/>
<path d="M190.42 330.24C190.422 330.606 190.315 330.965 190.113 331.27C189.911 331.576 189.623 331.815 189.285 331.956C188.947 332.098 188.575 332.136 188.215 332.066C187.856 331.995 187.525 331.82 187.265 331.562C187.006 331.303 186.829 330.974 186.756 330.615C186.684 330.255 186.72 329.883 186.86 329.544C187 329.206 187.237 328.916 187.541 328.712C187.846 328.509 188.204 328.4 188.57 328.4C189.059 328.4 189.528 328.593 189.875 328.938C190.221 329.283 190.417 329.751 190.42 330.24V330.24Z" fill="#526CA0"/>
<path d="M206.65 326.47C206.652 326.846 206.542 327.215 206.335 327.528C206.127 327.842 205.831 328.087 205.484 328.233C205.137 328.378 204.755 328.417 204.386 328.345C204.016 328.273 203.677 328.092 203.41 327.827C203.143 327.562 202.961 327.223 202.887 326.854C202.813 326.486 202.85 326.103 202.994 325.755C203.137 325.408 203.381 325.11 203.693 324.901C204.006 324.692 204.374 324.58 204.75 324.58C205.251 324.583 205.732 324.782 206.087 325.136C206.443 325.49 206.645 325.969 206.65 326.47V326.47Z" fill="#48AEC0"/>
<path d="M219.8 341.3C219.8 341.695 219.683 342.082 219.463 342.411C219.243 342.74 218.931 342.996 218.565 343.148C218.2 343.299 217.798 343.339 217.41 343.261C217.022 343.184 216.666 342.994 216.386 342.714C216.106 342.434 215.916 342.078 215.838 341.69C215.761 341.302 215.801 340.9 215.952 340.534C216.104 340.169 216.36 339.857 216.689 339.637C217.018 339.417 217.404 339.3 217.8 339.3C218.33 339.3 218.839 339.511 219.214 339.886C219.589 340.261 219.8 340.769 219.8 341.3Z" fill="#48AEC0"/>
<path d="M216.41 306C212.354 306.159 208.341 306.889 204.49 308.17C204.21 308.31 203.31 308.6 202.57 309.01C201.918 307.458 201.487 305.822 201.29 304.15L215.54 303.2H216C216.215 304.12 216.352 305.057 216.41 306V306Z" fill="#F3A61E"/>
<path d="M194.7 364.36L193.35 365.35L194.7 366.33L196.05 367.32L194.71 368.32L193.35 369.31L194.71 370.3L196.06 371.28L194.71 372.27L193.36 373.27L194.71 374.26L196.06 375.24L194.72 376.23L193.36 377.23L194.72 378.21L196.06 379.2L194.72 380.2L193.37 381.19L194.73 382.17L196.07 383.16L194.73 384.15L193.38 385.14L186.81 382.35L186.77 357.44L193.34 357.43L194.69 358.42L196.04 359.4L194.69 360.39L193.34 361.39L194.7 362.37L196.04 363.36L194.7 364.36Z" fill="white"/>
<g style="mix-blend-mode:multiply" opacity="0.81">
<path d="M196.04 359.4L194.69 360.39L194.49 360.54L186.78 360.55L186.77 357.44L193.34 357.43L194.69 358.42L196.04 359.4Z" fill="#B1B3BB"/>
</g>
<path d="M197.64 386.93L201.09 382.9L197.99 364.95L197.64 386.93Z" fill="#F6C715"/>
<path d="M201.57 375.94L203.38 373.34L199.33 361.03L201.57 375.94Z" fill="#F6C715"/>
<path d="M285.45 286.57V320.21C285.45 320.501 285.508 320.788 285.619 321.057C285.731 321.325 285.895 321.568 286.101 321.773C286.308 321.977 286.553 322.139 286.822 322.248C287.091 322.358 287.379 322.413 287.67 322.41L341.67 322.35C342.258 322.347 342.821 322.113 343.237 321.697C343.653 321.281 343.887 320.718 343.89 320.13L343.84 286.5C343.84 285.914 343.607 285.352 343.193 284.937C342.778 284.523 342.216 284.29 341.63 284.29L287.63 284.36C287.05 284.37 286.497 284.608 286.09 285.021C285.682 285.434 285.453 285.99 285.45 286.57V286.57Z" fill="#DFAD63"/>
<g style="mix-blend-mode:multiply" opacity="0.81">
<path d="M285.45 286.57V303.38L343.83 303.31V286.5C343.83 285.914 343.597 285.352 343.183 284.937C342.768 284.523 342.206 284.29 341.62 284.29L287.62 284.36C287.042 284.373 286.491 284.611 286.086 285.024C285.681 285.437 285.453 285.992 285.45 286.57V286.57Z" fill="#CBBAA4"/>
</g>
<path d="M284.72 285.82V320.97C284.723 321.582 284.967 322.168 285.4 322.601C285.832 323.033 286.418 323.278 287.03 323.28H289.15L288.65 316.72L289.7 314.04L289.78 312.29L288.64 307.59L290 307L292.62 305.76L290.17 302.86L288.68 301L290.28 300.31L290.33 299.16L288.68 297.16L290.41 296.54L288.68 292.71L290.59 283.45H287C286.694 283.455 286.393 283.521 286.113 283.643C285.833 283.765 285.579 283.941 285.368 284.161C285.156 284.382 284.989 284.642 284.878 284.926C284.767 285.211 284.713 285.515 284.72 285.82V285.82Z" fill="#EFC55F"/>
<path d="M304.61 197.59L304.73 288.25C304.735 290.877 305.783 293.396 307.643 295.252C309.502 297.108 312.023 298.15 314.65 298.15C315.952 298.15 317.242 297.893 318.445 297.395C319.648 296.896 320.741 296.165 321.661 295.244C322.581 294.323 323.311 293.229 323.809 292.025C324.306 290.822 324.561 289.532 324.56 288.23L324.45 197.56C324.453 195.596 323.872 193.675 322.782 192.042C321.691 190.409 320.14 189.136 318.325 188.386C316.51 187.636 314.512 187.442 312.587 187.829C310.661 188.216 308.894 189.167 307.51 190.56C306.583 191.48 305.849 192.575 305.351 193.783C304.853 194.99 304.601 196.284 304.61 197.59V197.59ZM320.04 197.59C320.042 198.679 319.721 199.745 319.118 200.652C318.514 201.559 317.656 202.267 316.65 202.686C315.645 203.105 314.538 203.217 313.469 203.007C312.4 202.797 311.417 202.275 310.645 201.507C309.872 200.739 309.345 199.759 309.129 198.691C308.914 197.623 309.019 196.515 309.433 195.508C309.847 194.5 310.55 193.637 311.453 193.029C312.357 192.421 313.421 192.094 314.51 192.09C315.971 192.098 317.368 192.684 318.397 193.721C319.426 194.757 320.003 196.159 320 197.62L320.04 197.59Z" fill="#EFC55F"/>
<g style="mix-blend-mode:multiply" opacity="0.81">
<path d="M304.61 197.59L304.73 288.25C304.735 290.877 305.783 293.395 307.643 295.252C309.502 297.108 312.023 298.15 314.65 298.15L314.53 203.15C313.071 203.15 311.672 202.57 310.641 201.539C309.609 200.508 309.03 199.109 309.03 197.65C309.03 196.191 309.609 194.792 310.641 193.761C311.672 192.729 313.071 192.15 314.53 192.15V187.69C311.902 187.701 309.386 188.751 307.531 190.612C305.676 192.473 304.633 194.992 304.63 197.62L304.61 197.59Z" fill="#CBBAA4"/>
</g>
<path d="M340.33 309.14L341.5 309.49L340.68 313.69L339.9 317.69L341.13 323.25H342.41C343.024 323.248 343.611 323.002 344.044 322.567C344.477 322.132 344.72 321.544 344.72 320.93V285.78C344.715 285.167 344.468 284.581 344.034 284.149C343.6 283.717 343.013 283.473 342.4 283.47H338.83L340.77 291L340.28 299L339.71 300.26L338.31 303.32L339.99 304.07L340.79 304.43L340.11 305.55L338.32 308.5L340.33 309.14Z" fill="#EFC55F"/>
<path d="M381.369 199.249L381.359 208.359L390.929 208.369L390.939 199.259L381.369 199.249Z" fill="#3E4C4B"/>
<path d="M380.09 168.05V197.19C380.085 197.529 380.132 197.866 380.23 198.19C380.412 198.875 380.821 199.478 381.39 199.9C381.824 200.232 382.354 200.411 382.9 200.41H389.44C389.983 200.412 390.511 200.233 390.94 199.9C391.512 199.481 391.922 198.877 392.1 198.19C392.202 197.867 392.253 197.529 392.25 197.19V168.05C392.28 167.654 392.231 167.257 392.106 166.88C391.981 166.503 391.783 166.155 391.522 165.855C391.262 165.556 390.945 165.311 390.589 165.135C390.233 164.959 389.846 164.855 389.45 164.83H382.91C382.512 164.853 382.123 164.955 381.765 165.13C381.407 165.304 381.087 165.549 380.825 165.849C380.562 166.148 380.362 166.497 380.236 166.875C380.11 167.253 380.06 167.653 380.09 168.05V168.05ZM389.74 171.31C389.735 172.255 389.357 173.16 388.689 173.829C388.02 174.497 387.115 174.875 386.17 174.88V174.88C385.255 174.832 384.393 174.434 383.762 173.769C383.131 173.104 382.779 172.222 382.779 171.305C382.779 170.388 383.131 169.507 383.762 168.841C384.393 168.176 385.255 167.779 386.17 167.73V167.73C386.64 167.73 387.105 167.823 387.538 168.003C387.972 168.183 388.366 168.447 388.698 168.779C389.03 169.112 389.292 169.507 389.471 169.941C389.65 170.375 389.741 170.84 389.74 171.31V171.31Z" fill="#F5CA4B"/>
<g style="mix-blend-mode:multiply" opacity="0.49">
<path d="M380.09 168.05V197.19C380.085 197.528 380.132 197.866 380.23 198.19C380.412 198.875 380.821 199.478 381.39 199.9C381.824 200.231 382.354 200.411 382.9 200.41H386.17V174.88C385.255 174.831 384.393 174.434 383.762 173.769C383.131 173.103 382.779 172.222 382.779 171.305C382.779 170.388 383.131 169.506 383.762 168.841C384.393 168.176 385.255 167.778 386.17 167.73V167.73V164.84H382.9C382.504 164.864 382.117 164.966 381.76 165.141C381.404 165.316 381.086 165.56 380.825 165.858C380.564 166.157 380.364 166.504 380.238 166.88C380.112 167.257 380.062 167.654 380.09 168.05V168.05Z" fill="#CBBAA4"/>
</g>
<path d="M393.05 252.25L393.1 211.25C393.1 209.393 392.363 207.613 391.05 206.3C389.737 204.987 387.957 204.25 386.1 204.25C384.244 204.25 382.463 204.987 381.15 206.3C379.838 207.613 379.1 209.393 379.1 211.25V252.25H393.05Z" fill="#5F7371"/>
<path opacity="0.25" d="M390.91 252.25V211.25C390.91 210.296 390.627 209.363 390.097 208.569C389.567 207.775 388.813 207.156 387.932 206.79C387.05 206.424 386.08 206.327 385.143 206.513C384.207 206.698 383.346 207.156 382.67 207.83C382.221 208.277 381.865 208.809 381.623 209.394C381.381 209.979 381.258 210.607 381.26 211.24L381.21 252.24L390.91 252.25Z" fill="white"/>
<path opacity="0.25" d="M390.93 231.32L390.94 221.31L381.3 211.65L381.28 221.67L390.93 231.32Z" fill="white"/>
<path opacity="0.25" d="M390.92 243.84V238.02L381.27 228.36V234.17L390.92 243.84Z" fill="white"/>
<path d="M393.05 256.23V252.25L379.11 252.23L379.1 256.21L387.78 256.22L388.05 254.95L388.39 256.22H389.29L389.77 254.23L390.27 256.22L393.05 256.23Z" fill="#D9D9D9"/>
<path d="M394.72 198.2C394.72 197.843 394.65 197.489 394.513 197.159C394.376 196.829 394.176 196.529 393.923 196.277C393.671 196.024 393.371 195.824 393.041 195.687C392.711 195.55 392.357 195.48 392 195.48H380.29C379.932 195.477 379.576 195.546 379.245 195.682C378.913 195.817 378.611 196.017 378.357 196.27C378.103 196.523 377.902 196.824 377.765 197.155C377.629 197.487 377.559 197.842 377.56 198.2V198.2C377.559 198.558 377.628 198.912 377.764 199.243C377.901 199.573 378.101 199.874 378.354 200.126C378.607 200.379 378.907 200.579 379.238 200.716C379.568 200.852 379.923 200.921 380.28 200.92H391.99C392.714 200.92 393.409 200.632 393.92 200.12C394.432 199.608 394.72 198.914 394.72 198.19V198.2Z" fill="#F5CA4B"/>
<path opacity="0.25" d="M394.72 198.2H377.56C377.564 198.924 377.851 199.617 378.36 200.13C378.612 200.382 378.912 200.581 379.241 200.716C379.571 200.852 379.924 200.921 380.28 200.92H391.99C392.712 200.92 393.405 200.634 393.917 200.124C394.429 199.614 394.717 198.923 394.72 198.2V198.2Z" fill="white"/>
<g style="mix-blend-mode:multiply" opacity="0.81">
<path d="M394.72 198.2C394.72 197.843 394.65 197.489 394.513 197.159C394.376 196.829 394.176 196.529 393.923 196.277C393.671 196.024 393.371 195.824 393.041 195.687C392.711 195.55 392.357 195.48 392 195.48H380.28C379.923 195.479 379.568 195.548 379.238 195.684C378.907 195.821 378.607 196.021 378.354 196.274C378.101 196.527 377.901 196.827 377.764 197.158C377.628 197.488 377.559 197.842 377.56 198.2H394.72Z" fill="#CBBAA4"/>
</g>
<path d="M367.074 242.186L355.594 242.198L355.604 252.538L367.084 252.526L367.074 242.186Z" fill="#3E4C4B"/>
<path d="M354.23 252.25L354.29 310.69H368.03L368 252.23C368.035 251.307 367.884 250.385 367.555 249.522C367.226 248.658 366.726 247.87 366.085 247.204C365.444 246.538 364.675 246.008 363.824 245.646C362.974 245.285 362.059 245.098 361.135 245.098C360.211 245.098 359.296 245.285 358.446 245.646C357.595 246.008 356.826 246.538 356.185 247.204C355.544 247.87 355.044 248.658 354.715 249.522C354.386 250.385 354.235 251.307 354.27 252.23L354.23 252.25Z" fill="#5F7371"/>
<path opacity="0.25" d="M355.54 254.4L355 310.69H367.32L366.67 254.41C366.69 253.66 366.562 252.914 366.293 252.213C366.025 251.513 365.621 250.872 365.104 250.328C364.588 249.784 363.969 249.347 363.284 249.042C362.599 248.737 361.86 248.57 361.11 248.55C360.372 248.552 359.642 248.706 358.966 249.002C358.29 249.298 357.682 249.729 357.18 250.27C356.132 251.391 355.546 252.866 355.54 254.4V254.4Z" fill="white"/>
<path d="M351.58 240.28C351.58 243.45 358.87 243.28 361.04 243.22H361.13C363.3 243.22 370.58 243.43 370.58 240.22C370.58 237.01 366.65 239.04 366.64 233.22C366.63 227.4 370.64 215.99 370.64 207.83C370.64 199.67 367.26 191.96 361.07 191.83H361C354.81 191.92 351.45 199.7 351.46 207.83C351.47 215.96 355.52 227.43 355.52 233.21C355.52 238.99 351.58 237 351.58 240.28ZM356.23 200.23C356.226 199.278 356.505 198.347 357.03 197.553C357.556 196.76 358.305 196.14 359.183 195.773C360.061 195.406 361.028 195.307 361.962 195.489C362.896 195.672 363.755 196.127 364.431 196.798C365.106 197.469 365.566 198.325 365.755 199.258C365.943 200.191 365.851 201.159 365.489 202.039C365.127 202.919 364.512 203.673 363.722 204.203C362.932 204.734 362.002 205.018 361.05 205.02C359.776 205.023 358.553 204.52 357.649 203.622C356.746 202.724 356.235 201.504 356.23 200.23V200.23Z" fill="#DE5235"/>
<g style="mix-blend-mode:multiply" opacity="0.81">
<path d="M351.58 240.28C351.58 243.45 358.87 243.28 361.04 243.22V205.02C360.391 205.05 359.742 204.947 359.133 204.719C358.524 204.491 357.968 204.142 357.498 203.693C357.028 203.244 356.654 202.704 356.398 202.106C356.143 201.508 356.011 200.865 356.011 200.215C356.011 199.565 356.143 198.921 356.398 198.324C356.654 197.726 357.028 197.186 357.498 196.737C357.968 196.288 358.524 195.939 359.133 195.711C359.742 195.483 360.391 195.38 361.04 195.41V191.92H361C354.81 192.01 351.45 199.79 351.46 207.92C351.47 216.05 355.52 227.52 355.52 233.3C355.52 239.08 351.58 237 351.58 240.28Z" fill="#CBBAA4"/>
</g>
<path opacity="0.25" d="M355.08 300.37L365.41 310.68H367.3L367.23 304.5L355.16 292.45L355.08 300.37Z" fill="white"/>
<path opacity="0.25" d="M355.29 279.98L367.09 291.77L367.03 286.76L355.33 275.09L355.29 279.98Z" fill="white"/>
<path opacity="0.25" d="M355.41 267.85L366.94 279.36L366.89 275.23L355.44 263.8L355.41 267.85Z" fill="white"/>
<path d="M140.6 280.33H125.76V326.95H140.6V280.33Z" fill="white"/>
<path d="M133.18 280.33H125.76V326.94H133.18V280.33Z" fill="#CCCCCC"/>
<path d="M141.73 236.6H124.55V278.52H141.73V236.6Z" fill="#445A86"/>
<g style="mix-blend-mode:multiply" opacity="0.59">
<path d="M133.14 236.61H124.54V278.54H133.14V236.61Z" fill="#CCCCCC"/>
</g>
<path d="M144.75 279.8C144.75 279.382 144.667 278.967 144.507 278.581C144.347 278.194 144.111 277.843 143.815 277.548C143.519 277.253 143.167 277.019 142.78 276.859C142.393 276.7 141.978 276.619 141.56 276.62H124.74C123.895 276.623 123.085 276.96 122.487 277.557C121.89 278.155 121.553 278.965 121.55 279.81V279.81C121.551 280.229 121.635 280.644 121.797 281.03C121.958 281.417 122.194 281.768 122.491 282.063C122.789 282.358 123.141 282.592 123.529 282.751C123.916 282.91 124.331 282.991 124.75 282.99H141.57C141.988 282.99 142.403 282.908 142.789 282.747C143.176 282.587 143.527 282.352 143.822 282.055C144.118 281.759 144.352 281.407 144.511 281.02C144.67 280.633 144.751 280.219 144.75 279.8V279.8Z" fill="#445A86"/>
<path d="M144.72 236.59C144.72 236.172 144.637 235.757 144.477 235.371C144.317 234.984 144.081 234.633 143.785 234.338C143.489 234.043 143.137 233.809 142.75 233.649C142.363 233.49 141.948 233.409 141.53 233.41H124.71C124.29 233.41 123.875 233.493 123.487 233.654C123.099 233.815 122.747 234.051 122.451 234.348C122.154 234.645 121.92 234.998 121.76 235.386C121.6 235.775 121.519 236.19 121.52 236.61V236.61C121.521 237.028 121.605 237.441 121.766 237.826C121.927 238.212 122.162 238.561 122.459 238.856C122.755 239.15 123.106 239.383 123.492 239.542C123.879 239.701 124.292 239.781 124.71 239.78H141.53C142.376 239.78 143.187 239.444 143.786 238.846C144.384 238.248 144.72 237.436 144.72 236.59V236.59Z" fill="#445A86"/>
<path opacity="0.25" d="M144.76 279.81H121.55C121.55 280.229 121.633 280.643 121.793 281.029C121.953 281.416 122.189 281.767 122.485 282.062C122.781 282.358 123.133 282.592 123.52 282.751C123.907 282.91 124.322 282.991 124.74 282.99H141.57C142.414 282.99 143.224 282.655 143.822 282.059C144.42 281.463 144.757 280.654 144.76 279.81V279.81Z" fill="white"/>
<path opacity="0.17" d="M144.72 236.59H121.52C121.52 237.008 121.603 237.423 121.763 237.809C121.923 238.196 122.159 238.547 122.455 238.842C122.751 239.137 123.103 239.371 123.49 239.531C123.877 239.69 124.292 239.771 124.71 239.77H141.54C142.383 239.77 143.192 239.435 143.789 238.838C144.385 238.242 144.72 237.433 144.72 236.59V236.59Z" fill="white"/>
<g style="mix-blend-mode:multiply">
<path d="M144.76 279.81C144.76 278.964 144.424 278.153 143.826 277.554C143.227 276.956 142.416 276.62 141.57 276.62H124.74C124.322 276.619 123.907 276.7 123.52 276.859C123.133 277.019 122.781 277.253 122.485 277.548C122.189 277.843 121.953 278.194 121.793 278.581C121.633 278.967 121.55 279.382 121.55 279.8L144.76 279.81Z" fill="#CCCCCC"/>
</g>
<g style="mix-blend-mode:multiply">
<path d="M144.72 236.59C144.72 236.172 144.637 235.757 144.477 235.371C144.317 234.984 144.081 234.633 143.785 234.338C143.489 234.043 143.137 233.809 142.75 233.649C142.363 233.49 141.948 233.409 141.53 233.41H124.7C124.282 233.41 123.867 233.493 123.481 233.653C123.094 233.814 122.743 234.049 122.448 234.345C122.152 234.641 121.918 234.993 121.759 235.38C121.6 235.767 121.519 236.182 121.52 236.6L144.72 236.59Z" fill="#CCCCCC"/>
</g>
<path d="M130.76 269.71C130.761 269.434 130.708 269.16 130.603 268.905C130.498 268.649 130.343 268.417 130.148 268.222C129.953 268.027 129.721 267.872 129.465 267.767C129.21 267.662 128.936 267.609 128.66 267.61H124.55V271.81H128.67C128.946 271.811 129.219 271.758 129.474 271.653C129.729 271.547 129.96 271.393 130.154 271.197C130.349 271.002 130.503 270.77 130.607 270.514C130.711 270.259 130.763 269.986 130.76 269.71V269.71Z" fill="#4A6292"/>
<path d="M130.75 262.24C130.747 261.686 130.526 261.156 130.135 260.765C129.744 260.374 129.214 260.153 128.66 260.15H124.54V264.37H128.66C128.938 264.369 129.212 264.312 129.468 264.204C129.723 264.096 129.955 263.939 130.149 263.741C130.344 263.543 130.497 263.308 130.6 263.05C130.703 262.793 130.754 262.517 130.75 262.24V262.24Z" fill="#4A6292"/>
<path d="M130.75 254.81C130.751 254.535 130.698 254.263 130.594 254.009C130.489 253.755 130.335 253.524 130.141 253.329C129.947 253.135 129.716 252.981 129.461 252.877C129.207 252.772 128.935 252.719 128.66 252.72H124.54V256.92H128.66C128.936 256.919 129.209 256.863 129.463 256.757C129.717 256.65 129.948 256.494 130.142 256.298C130.336 256.102 130.49 255.87 130.594 255.615C130.698 255.359 130.751 255.086 130.75 254.81V254.81Z" fill="#4A6292"/>
<path d="M130.75 247.35C130.745 246.796 130.522 246.266 130.129 245.875C129.736 245.484 129.204 245.263 128.65 245.26H124.53V249.48H128.65C128.928 249.479 129.203 249.423 129.459 249.315C129.715 249.207 129.948 249.05 130.143 248.852C130.338 248.654 130.492 248.419 130.596 248.162C130.7 247.904 130.753 247.628 130.75 247.35V247.35Z" fill="#4A6292"/>
<path d="M145.71 340.32V332.11C145.705 330.736 145.156 329.42 144.184 328.45C143.211 327.479 141.894 326.933 140.52 326.93H125.86C124.487 326.935 123.172 327.485 122.203 328.457C121.234 329.43 120.69 330.747 120.69 332.12V340.33C120.691 341.591 121.153 342.808 121.989 343.751C122.826 344.694 123.979 345.299 125.23 345.45C125.441 345.491 125.656 345.508 125.87 345.5H140.54C141.912 345.498 143.227 344.951 144.196 343.979C145.166 343.008 145.71 341.692 145.71 340.32V340.32Z" fill="#5F7371"/>
<path opacity="0.25" d="M126.66 330.27C126.048 330.273 125.462 330.517 125.029 330.95C124.597 331.382 124.353 331.968 124.35 332.58V339.89C124.35 340.5 124.592 341.085 125.024 341.516C125.455 341.948 126.04 342.19 126.65 342.19H139.73C140.342 342.187 140.928 341.943 141.36 341.511C141.793 341.078 142.037 340.492 142.04 339.88V332.58C142.04 331.967 141.797 331.38 141.363 330.947C140.93 330.513 140.343 330.27 139.73 330.27H126.66Z" fill="white"/>
<path d="M160.87 329.51C160.87 329.171 160.803 328.834 160.673 328.521C160.542 328.207 160.351 327.922 160.111 327.682C159.87 327.443 159.585 327.253 159.27 327.124C158.956 326.995 158.62 326.929 158.28 326.93H152.94C152.599 326.93 152.261 326.998 151.947 327.128C151.632 327.259 151.346 327.451 151.105 327.692C150.864 327.934 150.674 328.221 150.544 328.536C150.415 328.851 150.349 329.189 150.35 329.53V342.9C150.35 343.587 150.623 344.246 151.109 344.732C151.594 345.217 152.253 345.49 152.94 345.49H158.29C158.63 345.489 158.967 345.421 159.28 345.289C159.594 345.158 159.879 344.966 160.118 344.725C160.358 344.483 160.548 344.197 160.677 343.882C160.806 343.567 160.871 343.23 160.87 342.89V329.51Z" fill="#5F7371"/>
<path d="M150.36 331.25H145.62V341.32H150.36V331.25Z" fill="#3E4C4B"/>
<g style="mix-blend-mode:multiply" opacity="0.81">
<path d="M140.6 318.42L125.76 314.65L125.77 326.95L140.61 326.94L140.6 318.42Z" fill="#CCCCCC"/>
</g>
<path d="M125.23 345.46C123.978 345.309 122.826 344.704 121.989 343.761C121.153 342.818 120.691 341.601 120.69 340.34V334.34C105.04 334.34 104.21 325.16 104.21 325.16H99.6801C99.6901 339.42 115.57 345 125.23 345.46Z" fill="#3E4C4B"/>
<path d="M339.68 123.62L298.91 123.57C297.234 125.138 295.025 126.01 292.73 126.01C288.89 126.01 241.54 131.83 231.73 125.94C227.64 123.48 214.52 133.8 214.52 135.64C214.52 139.74 222.52 146.09 225.52 147.94C227.41 149.08 243.52 145.09 278.42 142.68C298.84 141.27 338.13 142.34 338.13 142.34L339.68 123.62Z" fill="#E9B96A"/>
<path d="M323.8 179.63C323.8 179.63 324.1 179.13 324.62 178.15C324.69 178.02 324.78 177.87 324.86 177.71C324.94 177.55 325.06 177.31 325.18 177.09C325.3 176.87 325.38 176.71 325.49 176.5C325.6 176.29 325.75 175.97 325.9 175.69L326.23 175L327.31 172.75C327.4 172.53 327.51 172.31 327.61 172.08C327.9 171.46 328.19 170.8 328.49 170.08C335.229 154.531 338.802 137.795 339 120.85H364.18L364.1 180.26C362.828 180.637 361.532 180.925 360.22 181.12L359.13 174.74L357.96 181.45C357.16 181.54 356.28 181.64 355.31 181.72L354.59 178.26L353.26 181.87C343.386 182.325 333.492 181.572 323.8 179.63V179.63Z" fill="#4A5B84"/>
<path d="M323.8 179.63C323.8 179.63 324.1 179.13 324.62 178.15C324.69 178.02 324.78 177.87 324.86 177.71C324.94 177.55 325.06 177.31 325.18 177.09C325.3 176.87 325.38 176.71 325.49 176.5C325.6 176.29 325.75 175.97 325.9 175.69L326.23 175L327.31 172.75C327.4 172.53 327.51 172.31 327.61 172.08C327.9 171.46 328.19 170.8 328.49 170.08C340.44 172.83 353.62 172.82 364.07 170V180.26C362.798 180.637 361.502 180.925 360.19 181.12L359.1 174.74L357.93 181.45C357.13 181.54 356.25 181.64 355.28 181.72L354.56 178.26L353.23 181.87C343.365 182.322 333.483 181.57 323.8 179.63Z" fill="white"/>
<path d="M244.53 127.23C257.9 127.97 277.88 126.16 286.99 125.35C290.28 125.05 292.45 124.85 293.21 124.86C293.49 124.876 293.77 124.876 294.05 124.86L295.6 143.41C289.53 143.5 283.76 143.7 279.03 144.02C263.63 145.1 251.76 146.49 243.34 147.58L244.53 127.23Z" fill="#2EA7B8"/>
<g style="mix-blend-mode:multiply" opacity="0.81">
<path d="M265.67 145.06L266.36 133.97L267.9 144.86L265.67 145.06Z" fill="#C7AA9D"/>
</g>
<g style="mix-blend-mode:multiply" opacity="0.81">
<path d="M249.81 146.73L250.49 133.95L252.13 146.45C251.33 146.55 250.57 146.65 249.81 146.73Z" fill="#C7AA9D"/>
</g>
<g style="mix-blend-mode:multiply" opacity="0.81">
<path d="M287.12 143.57V130.06L289.68 143.49L287.12 143.57Z" fill="#C7AA9D"/>
</g>
<g style="mix-blend-mode:multiply" opacity="0.81">
<path d="M282.12 138.35L278.23 126.1C278.9 126.1 279.55 126 280.18 125.94L282.12 138.35Z" fill="#C7AA9D"/>
</g>
<g style="mix-blend-mode:multiply" opacity="0.81">
<path d="M276.48 143.15L269 126.79L271.05 126.65L276.48 143.15Z" fill="#C7AA9D"/>
</g>
<g style="mix-blend-mode:multiply" opacity="0.81">
<path d="M258.56 140.06L255.56 127.37L257.95 127.31L258.56 140.06Z" fill="#C7AA9D"/>
</g>
<g style="mix-blend-mode:multiply" opacity="0.81">
<path d="M328 130.11H299.57C298.194 131.366 296.474 132.181 294.63 132.45C294.161 132.527 293.686 132.567 293.21 132.57C292.53 132.57 290.52 132.73 287.64 132.99H287.09L281.32 133.49C281.07 133.49 280.81 133.49 280.56 133.55C278.35 133.73 275.97 133.93 273.48 134.11L272.35 134.18C270.42 134.31 268.43 134.45 266.41 134.56L266.32 133.97V134.57C263.66 134.73 260.97 134.85 258.32 134.94H257.32C255.05 135 252.79 135.05 250.61 135.05H250.41C248.2 135.05 246.06 135.05 244.06 134.91C237.96 134.64 232.95 133.91 230.42 132.42C227.42 130.68 219.88 135.28 215.67 138.8C214.996 137.867 214.591 136.767 214.5 135.62C214.5 133.77 227.62 123.45 231.71 125.91C234.11 127.35 238.71 128.09 244.43 128.38L244.51 127.2C247.85 127.39 251.61 127.41 255.51 127.34L257.89 127.28C261.61 127.18 265.38 126.98 269.01 126.75L271.01 126.62C273.52 126.44 275.94 126.26 278.17 126.08C278.41 126.08 278.64 126.08 278.87 126.02L279.87 125.93H280.08L286.9 125.34C290.18 125.04 292.35 124.84 293.12 124.84C293.396 124.86 293.674 124.86 293.95 124.84L294.04 125.92C295.834 125.648 297.501 124.835 298.82 123.59H338.82C338.76 125.8 338.65 127.98 338.46 130.1C338.138 134.186 337.597 138.252 336.84 142.28L326.78 142.09C327.38 138.3 327.79 134.3 328 130.11Z" fill="#CBBAA4"/>
</g>
<g style="mix-blend-mode:multiply" opacity="0.81">
<path d="M338.76 127.3L338.9 120.85L364.13 120.88L364.12 127.33L338.76 127.3Z" fill="#B9B9BF"/>
</g>
<path d="M162.26 168.31H149.96V275.03H162.26V168.31Z" fill="#F3E3C3"/>
<g style="mix-blend-mode:multiply">
<path d="M162.26 211.56H149.96V275.02H162.26V211.56Z" fill="#CBBEA9"/>
</g>
<path d="M295.46 168.31H283.16V275.03H295.46V168.31Z" fill="#F3E3C3"/>
<g style="mix-blend-mode:multiply">
<path d="M295.49 211.56H283.16V275.02H295.49V211.56Z" fill="#CBBEA9"/>
</g>
<path d="M283.18 174.71H162.26V186.41H283.18V174.71Z" fill="#F5CA4B"/>
<g style="mix-blend-mode:multiply" opacity="0.81">
<path d="M177.4 186.41H162.26V174.71H172.48L177.4 186.41Z" fill="#CBBAA4"/>
</g>
<g style="mix-blend-mode:multiply" opacity="0.81">
<path d="M283.16 186.41H279.24L272.95 174.71H283.16V186.41Z" fill="#CBBAA4"/>
</g>
<path d="M252.55 160.08V268.24H273.21V160.08H252.55ZM258.89 168.95C258.129 168.95 257.399 168.648 256.861 168.109C256.322 167.571 256.02 166.841 256.02 166.08C256.02 165.319 256.322 164.589 256.861 164.051C257.399 163.512 258.129 163.21 258.89 163.21C259.651 163.21 260.381 163.512 260.919 164.051C261.458 164.589 261.76 165.319 261.76 166.08C261.76 166.841 261.458 167.571 260.919 168.109C260.381 168.648 259.651 168.95 258.89 168.95Z" fill="#F5CA4B"/>
<g style="mix-blend-mode:multiply" opacity="0.81">
<path d="M252.55 160.08V268.24H262.89V160.08H252.55ZM258.89 168.95C258.129 168.95 257.399 168.648 256.861 168.109C256.322 167.571 256.02 166.841 256.02 166.08C256.02 165.319 256.322 164.589 256.861 164.051C257.399 163.512 258.129 163.21 258.89 163.21C259.651 163.21 260.381 163.512 260.919 164.051C261.458 164.589 261.76 165.319 261.76 166.08C261.76 166.841 261.458 167.571 260.919 168.109C260.381 168.648 259.651 168.95 258.89 168.95Z" fill="#CBBAA4"/>
</g>
<g style="mix-blend-mode:multiply">
<path d="M273.22 164.87H266.13V167.33H273.22V164.87Z" fill="#A3A381"/>
</g>
<g style="mix-blend-mode:multiply">
<path d="M273.21 169.97H267.62V171.91H273.21V169.97Z" fill="#A3A381"/>
</g>
<g style="mix-blend-mode:multiply">
<path d="M273.21 174.82H267.62V176.76H273.21V174.82Z" fill="#A3A381"/>
</g>
<g style="mix-blend-mode:multiply">
<path d="M273.21 179.66H267.62V181.6H273.21V179.66Z" fill="#A3A381"/>
</g>
<g style="mix-blend-mode:multiply">
<path d="M273.22 184.24H266.13V186.7H273.22V184.24Z" fill="#A3A381"/>
</g>
<g style="mix-blend-mode:multiply">
<path d="M273.21 189.34H267.62V191.28H273.21V189.34Z" fill="#A3A381"/>
</g>
<g style="mix-blend-mode:multiply">
<path d="M273.21 194.19H267.62V196.13H273.21V194.19Z" fill="#A3A381"/>
</g>
<g style="mix-blend-mode:multiply">
<path d="M273.21 199.03H267.62V200.97H273.21V199.03Z" fill="#A3A381"/>
</g>
<g style="mix-blend-mode:multiply">
<path d="M273.22 203.62H266.13V206.08H273.22V203.62Z" fill="#A3A381"/>
</g>
<g style="mix-blend-mode:multiply">
<path d="M273.21 208.72H267.62V210.66H273.21V208.72Z" fill="#A3A381"/>
</g>
<g style="mix-blend-mode:multiply">
<path d="M273.21 213.56H267.62V215.5H273.21V213.56Z" fill="#A3A381"/>
</g>
<g style="mix-blend-mode:multiply">
<path d="M273.21 218.4H267.62V220.34H273.21V218.4Z" fill="#A3A381"/>
</g>
<g style="mix-blend-mode:multiply">
<path d="M273.22 222.99H266.13V225.45H273.22V222.99Z" fill="#A3A381"/>
</g>
<g style="mix-blend-mode:multiply">
<path d="M273.21 228.09H267.62V230.03H273.21V228.09Z" fill="#A3A381"/>
</g>
<g style="mix-blend-mode:multiply">
<path d="M273.21 232.93H267.62V234.87H273.21V232.93Z" fill="#A3A381"/>
</g>
<g style="mix-blend-mode:multiply">
<path d="M273.21 237.78H267.62V239.72H273.21V237.78Z" fill="#A3A381"/>
</g>
<g style="mix-blend-mode:multiply">
<path d="M273.22 242.36H266.13V244.82H273.22V242.36Z" fill="#A3A381"/>
</g>
<g style="mix-blend-mode:multiply">
<path d="M273.22 261.73H266.13V264.19H273.22V261.73Z" fill="#A3A381"/>
</g>
<g style="mix-blend-mode:multiply">
<path d="M273.21 247.46H267.62V249.4H273.21V247.46Z" fill="#A3A381"/>
</g>
<g style="mix-blend-mode:multiply">
<path d="M273.21 252.31H267.62V254.25H273.21V252.31Z" fill="#A3A381"/>
</g>
<g style="mix-blend-mode:multiply">
<path d="M273.21 257.15H267.62V259.09H273.21V257.15Z" fill="#A3A381"/>
</g>
<path d="M247.55 153.58H245.45C244.654 153.58 243.891 153.896 243.329 154.459C242.766 155.021 242.45 155.784 242.45 156.58V157.81C239.05 157.53 235.38 157.37 231.52 157.37C227.66 157.37 224 157.55 220.59 157.83V156.61C220.59 155.814 220.274 155.051 219.711 154.489C219.149 153.926 218.386 153.61 217.59 153.61H215.51C214.714 153.61 213.951 153.926 213.389 154.489C212.826 155.051 212.51 155.814 212.51 156.61V185.69C212.512 186.49 212.828 187.256 213.388 187.826C213.949 188.396 214.711 188.724 215.51 188.74L247.63 188.69C248.028 188.697 248.424 188.624 248.793 188.476C249.163 188.328 249.5 188.108 249.784 187.829C250.068 187.55 250.293 187.217 250.447 186.85C250.601 186.482 250.68 186.088 250.68 185.69V156.59C250.682 156.184 250.601 155.782 250.443 155.408C250.285 155.034 250.052 154.696 249.76 154.415C249.467 154.133 249.12 153.914 248.74 153.771C248.361 153.627 247.956 153.562 247.55 153.58V153.58ZM219.55 184.09C219.554 184.397 219.497 184.701 219.382 184.986C219.267 185.27 219.097 185.529 218.881 185.746C218.665 185.964 218.407 186.137 218.124 186.254C217.841 186.372 217.537 186.431 217.23 186.43C216.911 186.451 216.59 186.406 216.289 186.298C215.987 186.19 215.711 186.022 215.477 185.803C215.244 185.584 215.058 185.319 214.93 185.026C214.803 184.732 214.737 184.415 214.737 184.095C214.737 183.775 214.803 183.458 214.93 183.164C215.058 182.871 215.244 182.606 215.477 182.387C215.711 182.168 215.987 182 216.289 181.892C216.59 181.784 216.911 181.739 217.23 181.76C217.534 181.761 217.835 181.823 218.116 181.941C218.396 182.059 218.65 182.231 218.864 182.447C219.078 182.664 219.247 182.92 219.361 183.202C219.475 183.484 219.533 183.786 219.53 184.09H219.55ZM248.45 184.09C248.45 184.551 248.313 185.001 248.057 185.384C247.801 185.768 247.437 186.066 247.012 186.243C246.586 186.419 246.117 186.465 245.665 186.375C245.213 186.285 244.798 186.063 244.472 185.738C244.147 185.412 243.925 184.996 243.835 184.545C243.745 184.093 243.791 183.624 243.967 183.198C244.144 182.773 244.442 182.409 244.826 182.153C245.209 181.897 245.659 181.76 246.12 181.76C246.729 181.765 247.312 182.009 247.744 182.439C248.176 182.869 248.422 183.451 248.43 184.06L248.45 184.09ZM242.45 178.89H220.58V165.51C223.99 165.79 227.65 165.96 231.51 165.95C235.37 165.94 239.04 165.78 242.44 165.49L242.45 178.89Z" fill="#445A86"/>
<path d="M248.43 184.06C248.43 184.521 248.293 184.971 248.037 185.354C247.781 185.738 247.417 186.036 246.992 186.213C246.566 186.389 246.097 186.435 245.645 186.345C245.193 186.255 244.778 186.033 244.452 185.708C244.127 185.382 243.905 184.967 243.815 184.515C243.725 184.063 243.771 183.594 243.947 183.168C244.124 182.743 244.422 182.379 244.806 182.123C245.189 181.867 245.639 181.73 246.1 181.73C246.718 181.73 247.311 181.975 247.748 182.412C248.185 182.849 248.43 183.442 248.43 184.06V184.06Z" fill="#E5E5E5"/>
<path d="M219.53 184.09C219.534 184.397 219.477 184.701 219.362 184.985C219.247 185.27 219.077 185.528 218.861 185.746C218.645 185.964 218.388 186.137 218.104 186.254C217.821 186.371 217.517 186.431 217.21 186.43C216.891 186.451 216.57 186.406 216.269 186.298C215.967 186.19 215.691 186.022 215.457 185.803C215.224 185.584 215.038 185.319 214.91 185.026C214.783 184.732 214.717 184.415 214.717 184.095C214.717 183.775 214.783 183.458 214.91 183.164C215.038 182.87 215.224 182.606 215.457 182.387C215.691 182.168 215.967 182 216.269 181.892C216.57 181.784 216.891 181.739 217.21 181.76C217.516 181.759 217.819 181.818 218.102 181.935C218.384 182.051 218.641 182.223 218.857 182.44C219.073 182.657 219.244 182.914 219.359 183.197C219.475 183.481 219.533 183.784 219.53 184.09Z" fill="#CCCCCC"/>
<path d="M247.62 188.75L242.84 193.05L245.93 195.83L242.86 198.61L245.94 201.37L242.85 204.15L245.96 206.94L242.86 209.72L245.96 212.5L242.87 215.27L245.97 218.04L242.88 220.82L245.97 223.59L242.88 226.36L245.98 229.14L242.88 231.93L245.99 234.69L242.89 237.48L245.98 240.25L242.9 243.03L246 245.8L242.9 248.57L246 251.35L242.9 254.14L246 256.91L242.91 259.69L246 262.46L242.92 265.23L247.7 269.52L223.78 269.56L217.27 188.78L247.62 188.75Z" fill="#67BFD5"/>
<path opacity="0.17" d="M218.68 206.15L244.35 230.59L242.88 231.93L245.99 234.69L242.89 237.48L245.99 240.25L242.9 243.03L246 245.8L242.9 248.57L246 251.35L242.9 254.14L246 256.91L242.91 259.69L246.01 262.46L242.92 265.23L247.7 269.52H242.01L222.1 248.76L218.68 206.15Z" fill="white"/>
<g style="mix-blend-mode:multiply" opacity="0.43">
<path d="M247.62 188.75L242.84 193.05L244.23 194.31L217.53 192.04L217.27 188.78L247.62 188.75Z" fill="#73A89E"/>
</g>
<g style="mix-blend-mode:multiply" opacity="0.81">
<path d="M231.5 166V157.45C227.65 157.45 223.98 157.61 220.58 157.9V156.68C220.58 156.282 220.501 155.888 220.347 155.52C220.193 155.153 219.968 154.82 219.684 154.541C219.4 154.262 219.063 154.042 218.693 153.894C218.324 153.746 217.928 153.673 217.53 153.68H215.45C214.654 153.68 213.891 153.996 213.329 154.559C212.766 155.121 212.45 155.884 212.45 156.68V185.75C212.452 186.55 212.768 187.316 213.328 187.886C213.889 188.457 214.651 188.784 215.45 188.8H217.25H231.49V178.92H220.55V165.51C224 165.79 227.64 166 231.5 166ZM217.21 186.48C216.589 186.48 215.994 186.234 215.555 185.795C215.116 185.356 214.87 184.761 214.87 184.14C214.87 183.52 215.116 182.924 215.555 182.485C215.994 182.047 216.589 181.8 217.21 181.8C217.831 181.8 218.426 182.047 218.865 182.485C219.303 182.924 219.55 183.52 219.55 184.14C219.55 184.761 219.303 185.356 218.865 185.795C218.426 186.234 217.831 186.48 217.21 186.48V186.48Z" fill="#CCCCCC"/>
</g>
<path d="M209.11 187.28H195.04V247.3H209.11V187.28Z" fill="#E0390B"/>
<g style="mix-blend-mode:multiply">
<path d="M202.08 187.28H195.04V247.3H202.08V187.28Z" fill="#C7A89C"/>
</g>
<path d="M206.07 179.89H204.61L203.71 182.03L202.86 179.89H201.13L200.53 181.16L199.91 179.89H198.31L199 178L199.58 176.28C199.74 175.99 199.79 175.9 200.03 175.9H204.43C204.65 175.9 204.71 175.99 204.86 176.28L205.45 178.01L206.07 179.89Z" fill="#4D4D4D"/>
<g style="mix-blend-mode:multiply">
<path d="M202.07 175.83V179.89H201.13L200.53 181.15L199.91 179.89H198.31L199 178L199.58 176.28C199.74 175.99 199.79 175.9 200.03 175.9L202.07 175.83Z" fill="#9E9E9E"/>
</g>
<path d="M209.12 187.29H195.04L198.91 177.86L198.97 177.96L199.91 179.89L200.53 181.16L201.13 179.89L202.07 177.86L202.86 179.89L203.71 182.03L204.61 179.89L205.42 177.97L205.47 177.86L209.12 187.29Z" fill="#F3E3C3"/>
<g style="mix-blend-mode:multiply">
<path d="M209.12 187.29H202.07V177.86L202.86 179.89L203.71 182.03L204.61 179.89L205.43 177.97L205.47 177.86L209.12 187.29Z" fill="#D0C3B3"/>
</g>
<path d="M188.53 216.97H175.96V228.95H188.53V216.97Z" fill="#3E4C4B"/>
<path d="M190.23 269.93C190.291 270.975 189.94 272.002 189.252 272.791C188.564 273.58 187.594 274.068 186.55 274.15H178C176.955 274.07 175.982 273.584 175.292 272.794C174.602 272.005 174.249 270.977 174.31 269.93V231.62C174.249 230.573 174.602 229.545 175.292 228.755C175.982 227.966 176.955 227.479 178 227.4H186.6C187.644 227.482 188.614 227.97 189.302 228.759C189.99 229.548 190.341 230.575 190.28 231.62L190.23 269.93Z" fill="#F5CA4B"/>
<g style="mix-blend-mode:multiply" opacity="0.49">
<path d="M182.25 227.4V274.15H178C176.953 274.07 175.979 273.582 175.288 272.791C174.598 271.999 174.247 270.968 174.31 269.92V231.63C174.247 230.582 174.598 229.55 175.288 228.759C175.979 227.968 176.953 227.479 178 227.4H182.25Z" fill="#CBBAA4"/>
</g>
<path d="M191.41 159.3V213.14C191.41 214.343 191.173 215.534 190.713 216.646C190.252 217.757 189.578 218.767 188.727 219.617C187.877 220.468 186.867 221.143 185.755 221.603C184.644 222.063 183.453 222.3 182.25 222.3C181.047 222.3 179.856 222.063 178.745 221.603C177.633 221.143 176.624 220.468 175.773 219.617C174.922 218.767 174.248 217.757 173.787 216.646C173.327 215.534 173.09 214.343 173.09 213.14V159.3H191.41Z" fill="#5F7371"/>
<path opacity="0.25" d="M188.59 159.3V213.14C188.624 213.995 188.485 214.847 188.181 215.647C187.878 216.446 187.416 217.176 186.823 217.792C186.231 218.409 185.52 218.899 184.733 219.234C183.946 219.57 183.1 219.742 182.245 219.742C181.39 219.742 180.544 219.57 179.757 219.234C178.97 218.899 178.259 218.409 177.667 217.792C177.074 217.176 176.612 216.446 176.309 215.647C176.005 214.847 175.866 213.995 175.9 213.14V159.3H188.59Z" fill="white"/>
<path opacity="0.25" d="M188.59 186.79V199.95L175.9 212.63V199.47L188.59 186.79Z" fill="white"/>
<path opacity="0.25" d="M188.59 170.35V177.99L175.9 190.67V183.03L188.59 170.35Z" fill="white"/>
<path d="M191.41 154.07V159.3H173.09V154.07H184.49L184.84 155.75L185.29 154.07H186.47L187.09 156.69L187.76 154.07H191.41Z" fill="#D9D9D9"/>
<path d="M193.52 230.32C193.52 231.269 193.143 232.18 192.471 232.851C191.8 233.523 190.889 233.9 189.94 233.9H174.55C173.601 233.9 172.69 233.523 172.019 232.851C171.347 232.18 170.97 231.269 170.97 230.32V230.32C170.969 229.849 171.06 229.382 171.24 228.947C171.419 228.511 171.682 228.116 172.015 227.782C172.348 227.449 172.743 227.184 173.178 227.003C173.613 226.823 174.079 226.73 174.55 226.73H189.94C190.411 226.73 190.877 226.823 191.312 227.003C191.747 227.184 192.142 227.449 192.475 227.782C192.808 228.116 193.071 228.511 193.25 228.947C193.43 229.382 193.521 229.849 193.52 230.32Z" fill="#F5CA4B"/>
<path opacity="0.25" d="M193.52 230.32H171C171.001 229.848 171.095 229.381 171.277 228.945C171.459 228.509 171.725 228.113 172.06 227.78C172.393 227.456 172.788 227.2 173.22 227.029C173.653 226.857 174.115 226.773 174.58 226.78H189.97C190.908 226.785 191.807 227.16 192.471 227.822C193.135 228.485 193.512 229.382 193.52 230.32V230.32Z" fill="white"/>
<g style="mix-blend-mode:multiply" opacity="0.81">
<path d="M193.52 230.32C193.52 231.27 193.143 232.18 192.471 232.852C191.8 233.523 190.889 233.9 189.94 233.9H174.55C173.601 233.898 172.692 233.52 172.021 232.849C171.351 232.178 170.973 231.269 170.97 230.32H193.52Z" fill="#CBBAA4"/>
</g>
<path d="M283.16 257.08H162.26V275.03H283.16V257.08Z" fill="#DE5235"/>
<path d="M283.16 253.87H162.26V257.08H283.16V253.87Z" fill="#521F1E"/>
<path d="M283.16 235.94H162.26V253.87H283.16V235.94Z" fill="#DE5235"/>
<path d="M283.16 232.7H162.26V235.93H283.16V232.7Z" fill="#521F1E"/>
<path d="M283.16 214.77H162.26V232.7H283.16V214.77Z" fill="#DE5235"/>
<g opacity="0.51">
<g opacity="0.34">
<path opacity="0.34" d="M185.31 232.7H181C180.46 232.42 180 232.14 179.48 231.83C176.78 230.2 172.3 227.75 171.26 224.48C169.8 220.01 174.26 217.05 178.33 214.77H181.03C177.2 216.89 172.03 219.95 173.96 223.77C175.82 227.33 180.75 231 185.31 232.7Z" fill="#E4D8BE"/>
</g>
<g opacity="0.34">
<path opacity="0.34" d="M198.31 232.7H192.37C188.005 230.894 183.929 228.458 180.27 225.47C174.11 220.47 179.82 216.97 185.76 214.77H189.81C183.62 216.83 176.02 220.43 184.13 225.36C188.63 228.11 193.33 231 198.31 232.7Z" fill="#E4D8BE"/>
</g>
<g opacity="0.34">
<path opacity="0.34" d="M228 214.77C226.62 226 210.67 229.77 200.79 228.77C196.7 228.37 186.1 226.15 186.91 220.47C187.22 218.35 191.36 217.2 192.91 216.78C194.99 216.21 197.1 215.43 199.18 214.72H207.09C206.912 214.834 206.71 214.902 206.5 214.92C204.02 215.17 202.08 216.5 199.72 217.09C199.35 217.2 186.29 220.27 191.98 223.56C196.082 226.005 200.838 227.126 205.6 226.77C213.31 226.26 224.42 223.42 225.36 214.77H228Z" fill="#E4D8BE"/>
</g>
<g opacity="0.34">
<path opacity="0.34" d="M220.57 214.77C219.02 219.08 215.62 222.54 210.57 222.15C208.91 222.01 206.13 221.36 207.42 219.15C208.42 217.52 210.07 216.34 211.14 214.76H213.62C212.962 215.617 212.244 216.426 211.47 217.18C210.8 217.92 208.72 219.89 210.57 220.48C214.63 221.74 216.96 218.22 218.06 214.76L220.57 214.77Z" fill="#E4D8BE"/>
</g>
<g opacity="0.34">
<path opacity="0.34" d="M235.49 214.77C234.16 218.83 233.69 224.29 230.79 227.16C229.79 228.16 225.79 230.73 224.6 232.7H221.84C222.84 230.93 225.38 229.27 226.42 228.39C230.56 224.91 231.01 219.62 232.76 214.77H235.49Z" fill="#E4D8BE"/>
</g>
<g opacity="0.34">
<path opacity="0.34" d="M246.92 232.7H241.48C240.333 232.069 239.339 231.192 238.569 230.133C237.8 229.073 237.274 227.856 237.03 226.57C236.14 222.06 238.16 218.4 240.36 214.77H242.83C240.83 217.77 238.83 221.22 239.51 224.57C240.38 229.13 243.11 231.77 246.92 232.7Z" fill="#E4D8BE"/>
</g>
<g opacity="0.34">
<path opacity="0.34" d="M259.83 232.7H255.5C251.11 230.7 246.29 228.11 245.56 222.93C245.08 219.39 248.32 217.53 249.87 214.77H252.57C251.64 216.35 250.21 217.7 249.05 219.67C245.39 226.09 255.22 230.25 259.58 232.31C259.83 232.42 259.89 232.56 259.83 232.7Z" fill="#E4D8BE"/>
</g>
<g opacity="0.34">
<path opacity="0.34" d="M260.11 228C256.93 228 252.91 226 252.32 222.49C251.84 219.75 253.32 217.13 254.82 214.74H257.47C256.325 216.31 255.503 218.091 255.05 219.98C254.63 222.68 257.33 226.54 260.4 226.2C262.65 225.94 260.28 221.95 260.11 220.79C259.8 218.68 260.48 216.79 260.73 214.79H263.29C262.96 216.57 262.42 218.34 262.84 220.12C263.16 221.46 263.84 222.76 264.08 224.12C264.47 226.6 262.53 228 260.11 228Z" fill="#E4D8BE"/>
</g>
<g opacity="0.34">
<path opacity="0.34" d="M272.08 226.17C271.573 228.116 270.802 229.983 269.79 231.72C269.52 232.08 269.219 232.414 268.89 232.72H266.22C267.91 231.15 268.72 228.58 269.34 226.45C270.56 222.33 268.58 218.56 267.15 214.79H270.15C271.57 218.43 273.37 222.21 272.08 226.17Z" fill="#E4D8BE"/>
</g>
<g opacity="0.34">
<path opacity="0.34" d="M283.16 217.76V218.63C279.05 220.29 277.62 228.76 275.79 232.7H273.4C276.3 227.07 277 219.7 283.16 217.76Z" fill="#E4D8BE"/>
</g>
<g opacity="0.34">
<path opacity="0.34" d="M167.72 214.77C166.613 217.622 164.72 220.101 162.26 221.92V223.5C165.55 221.22 168.59 218.8 170.19 214.77H167.72Z" fill="#E4D8BE"/>
</g>
<g opacity="0.34">
<path opacity="0.34" d="M172.53 250.69C172.05 251.17 169.35 252.74 168.05 253.87H164.59C165.3 252.54 167.59 251.59 168.7 250.87C175.48 246.68 169.15 238.01 163.22 236.8C162.57 236.66 162.31 236.29 162.34 235.93H167.43C169.205 236.848 170.759 238.141 171.985 239.719C173.211 241.297 174.079 243.123 174.53 245.07C174.702 246.1 174.608 247.156 174.258 248.139C173.908 249.123 173.314 250.001 172.53 250.69Z" fill="#E4D8BE"/>
</g>
<g opacity="0.34">
<path opacity="0.34" d="M180.44 253.87H177C176.162 252.631 175.839 251.114 176.1 249.64C176.4 247.17 177.36 244.64 176.55 242.16C175.751 239.931 174.622 237.834 173.2 235.94H176.44C178.49 238.94 180.12 242.16 179.33 245.94C178.67 249.05 178.21 252.12 180.44 253.87Z" fill="#E4D8BE"/>
</g>
<g opacity="0.34">
<path opacity="0.34" d="M198 252.15C198.767 252.881 199.662 253.465 200.64 253.87H196.25C195.097 252.688 194.062 251.395 193.16 250.01C189.87 245.01 185.84 238.92 180.16 236.39C179.89 236.27 179.86 236.11 179.97 235.94H183.91C186.78 237.68 188.91 240.24 191.22 242.78C193.75 245.56 195.3 249.7 198 252.15Z" fill="#E4D8BE"/>
<path opacity="0.34" d="M201.63 257.081H203.29C203.254 257.09 203.216 257.09 203.18 257.081C202.666 257.161 202.144 257.161 201.63 257.081V257.081Z" fill="#E4D8BE"/>
<path opacity="0.34" d="M220 235.94C219.277 237.292 218.283 238.48 217.08 239.43C213.08 242.78 211.51 246.43 209.43 251.05C208.997 252.019 208.506 252.961 207.96 253.87H203.4C206.33 252.63 207.91 247.53 209.54 244.94C211.54 241.68 215.81 239.31 217.47 235.94H220Z" fill="#E4D8BE"/>
</g>
<g opacity="0.34">
<path opacity="0.34" d="M209.57 235.94C206.92 239.37 209.37 249.17 202.39 248.1C197.07 247.25 193.13 240.1 190.46 235.94H193.67C195.67 238.75 202.67 248.21 203.83 246.83C206.3 243.91 205.04 238.83 207.37 235.94H209.57Z" fill="#E4D8BE"/>
</g>
<g opacity="0.34">
<path opacity="0.34" d="M222.26 253.87H219.05C217.11 249.25 222.4 240.38 225.16 235.94H227.78C225.13 240.16 218.85 250.26 222.26 253.87Z" fill="#E4D8BE"/>
</g>
<g opacity="0.34">
<path opacity="0.34" d="M236.53 253.87H232C229.18 252.23 226.6 249.87 226.29 247.14C225.78 242.38 230.62 239.93 231.89 235.94H234.42C233.12 239.15 229.36 241.23 229.02 244.83C228.59 248.8 232.79 252.23 236.53 253.87Z" fill="#E4D8BE"/>
</g>
<g opacity="0.34">
<path opacity="0.34" d="M241.65 248.13C244.651 250.626 248.07 252.569 251.75 253.87H245.9C242.75 252.4 239.9 250.43 238.36 248.26C235.36 244.16 234.56 239.03 238.84 235.94H241.23C237.17 238.75 238.08 245 241.65 248.13Z" fill="#E4D8BE"/>
<path opacity="0.34" d="M268.64 248.38C267.833 250.619 266.334 252.542 264.36 253.87H261.27C265.04 252.15 267.43 248.41 264.95 244.02C263.008 240.554 260.081 237.742 256.54 235.94H260.73C265.12 238.75 270.11 243.73 268.64 248.38Z" fill="#E4D8BE"/>
</g>
<g opacity="0.34">
<path opacity="0.34" d="M256.93 248.52C254.29 250.52 250.21 249.73 247.73 247.93C246.04 246.72 243.31 244.83 242.73 242.66C242.15 240.49 242.93 238.16 243.52 235.94H246.08C245.49 237.85 244.62 240.13 245.46 241.94C246.581 244.048 248.254 245.811 250.3 247.04C251.2 247.6 255.23 250.04 255.06 247.66C254.983 246.829 254.734 246.022 254.33 245.29C253.2 243.07 249.51 238.85 250.47 235.95H252.92C252.32 239.82 260.65 245.68 256.93 248.52Z" fill="#E4D8BE"/>
</g>
<g opacity="0.34">
<path opacity="0.34" d="M283.16 249.2V251.3C276.33 249.45 270.69 241.93 268.36 235.94H271.36C272.88 239.71 274.71 242.89 278 245.51C279.632 246.859 281.356 248.092 283.16 249.2V249.2Z" fill="#E4D8BE"/>
</g>
<g opacity="0.34">
<path opacity="0.34" d="M283.16 239.26V243.48C281.168 241.173 279.45 238.643 278.04 235.94H281.19C281.84 237.06 282.49 238.19 283.16 239.26Z" fill="#E4D8BE"/>
</g>
<g opacity="0.34">
<path opacity="0.34" d="M283.16 262.31V263.83C274.72 264.98 270.44 270.53 264.79 275.03H261.86C262.739 274.34 263.574 273.595 264.36 272.8C266.762 270.181 269.445 267.833 272.36 265.8C275.635 263.802 279.335 262.606 283.16 262.31V262.31Z" fill="#E4D8BE"/>
</g>
<g opacity="0.34">
<path opacity="0.34" d="M276.41 257.08C266.84 262 260 270.38 250.23 275H245.23C252.33 272.52 258.46 268.24 264.71 262.56C267.277 260.289 270.182 258.43 273.32 257.05L276.41 257.08Z" fill="#E4D8BE"/>
</g>
<g opacity="0.34">
<path opacity="0.34" d="M230.76 257.08C229.21 260.08 225.19 264.5 227.52 267.74C233.07 275.42 243.14 267.21 248.52 264.47C253.05 262.17 257.41 258.99 262.17 257.08H264.68C257.68 259.19 249.68 264.95 243.54 268.47C240.284 270.388 236.676 271.632 232.93 272.13C230.79 272.41 227.36 271.96 225.93 269.99C222.3 264.99 226.18 261.75 228.32 257.1L230.76 257.08Z" fill="#E4D8BE"/>
</g>
<g opacity="0.34">
<path opacity="0.34" d="M243 257.08H246.75C244.19 258.82 242.75 261.24 240.38 263.46C238.634 264.926 236.439 265.752 234.16 265.8C232.84 265.85 229.92 265.91 229.52 264.08C228.93 261.38 231.6 259.61 231.77 257.08H234.45C234.145 258.31 233.649 259.484 232.98 260.56C231.41 263.56 233.88 264.45 236.44 263.56C239.46 262.45 240.8 259.16 243 257.08Z" fill="#E4D8BE"/>
</g>
<g opacity="0.34">
<path opacity="0.34" d="M219.75 265.94C218.57 269.07 217.75 272.27 218.69 275.03H215.69C215.348 273.438 215.399 271.787 215.84 270.22C216.68 266.81 220.84 260.17 217.66 257.22C217.66 257.16 217.55 257.11 217.55 257.06H220.96C222.54 259.69 220.77 263.29 219.75 265.94Z" fill="#E4D8BE"/>
</g>
<g opacity="0.34">
<path opacity="0.34" d="M209.54 266.5C207.54 268.02 199.24 271.62 199.69 275.03H196.82C196.31 268.44 214.82 266.36 210.69 257.08H213.62C214.75 260.82 212.86 264 209.54 266.5Z" fill="#E4D8BE"/>
</g>
<g opacity="0.34">
<path opacity="0.34" d="M208.69 257.08C208.115 259.32 206.849 261.321 205.072 262.801C203.295 264.28 201.097 265.161 198.79 265.32C193.22 265.43 189.9 262.17 187.79 257.24C187.79 257.18 187.73 257.13 187.79 257.08H190.79C191.95 259.72 193.79 262.67 196.79 263.29C197.803 263.499 198.847 263.503 199.861 263.302C200.876 263.101 201.84 262.7 202.697 262.122C203.554 261.543 204.287 260.799 204.852 259.933C205.418 259.067 205.805 258.097 205.99 257.08H208.69Z" fill="#E4D8BE"/>
</g>
<g opacity="0.34">
<path opacity="0.34" d="M192.77 275H190.43C190.558 274.332 190.509 273.643 190.29 273C189.235 270.561 187.864 268.271 186.21 266.19C183.84 263.01 183 260.7 183.05 257.02H185.78C185.98 262.16 189.05 264.86 191.61 269.4C192.652 271.069 193.063 273.055 192.77 275V275Z" fill="#E4D8BE"/>
</g>
<g opacity="0.34">
<path opacity="0.34" d="M185.16 275H182.86C185.86 270 177.34 261.41 175.37 257.05H178.37C180.43 261.52 184.59 264.56 185.61 269.79C186.088 271.525 185.928 273.373 185.16 275V275Z" fill="#E4D8BE"/>
</g>
<g opacity="0.34">
<path opacity="0.34" d="M173.57 268.3C173.284 270.882 172.072 273.272 170.16 275.03H167.75C172.3 270.13 170.31 264.03 170.05 257.24C170.045 257.21 170.048 257.18 170.058 257.152C170.069 257.124 170.087 257.099 170.11 257.08H172.81C173 260.79 174 264.65 173.57 268.3Z" fill="#E4D8BE"/>
</g>
<g opacity="0.34">
<path opacity="0.34" d="M169.91 257.08C169.547 258.599 169.086 260.092 168.53 261.55C168.159 262.76 167.558 263.888 166.76 264.87C165.466 266.196 163.941 267.273 162.26 268.05V266.28C163.244 265.737 164.089 264.974 164.73 264.05C166.038 261.911 166.902 259.53 167.27 257.05L169.91 257.08Z" fill="#E4D8BE"/>
</g>
</g>
<g style="mix-blend-mode:multiply" opacity="0.81">
<path d="M175.37 214.77H162.26V275.03H175.37V214.77Z" fill="#C8BAAB"/>
</g>
<g style="mix-blend-mode:multiply" opacity="0.81">
<path d="M282.97 214.77H273.4V275.03H282.97V214.77Z" fill="#C8BAAB"/>
</g>
<path d="M75.59 136.23V204.23H96.25V136.23H75.59ZM81.94 143.65C81.3165 143.65 80.7071 143.465 80.1889 143.118C79.6707 142.772 79.2669 142.279 79.0288 141.703C78.7907 141.127 78.7289 140.493 78.8512 139.882C78.9736 139.27 79.2746 138.709 79.7161 138.269C80.1577 137.829 80.7199 137.53 81.3316 137.409C81.9433 137.289 82.577 137.353 83.1524 137.593C83.7278 137.833 84.219 138.238 84.564 138.757C84.9089 139.277 85.0919 139.887 85.09 140.51C85.0873 141.344 84.7543 142.142 84.1638 142.731C83.5734 143.319 82.7737 143.65 81.94 143.65V143.65Z" fill="#E8EFF0"/>
<g style="mix-blend-mode:multiply" opacity="0.81">
<path d="M75.59 136.23V204.46H85.92V136.23H75.59ZM81.94 137.36C82.5634 137.358 83.1734 137.541 83.6927 137.886C84.2121 138.231 84.6174 138.722 84.8573 139.298C85.0973 139.873 85.1611 140.507 85.0407 141.118C84.9202 141.73 84.621 142.292 84.1809 142.734C83.7408 143.175 83.1795 143.476 82.5682 143.599C81.9569 143.721 81.323 143.659 80.7468 143.421C80.1707 143.183 79.6781 142.779 79.3315 142.261C78.985 141.743 78.8 141.133 78.8 140.51C78.8 139.676 79.1305 138.877 79.719 138.286C80.3076 137.696 81.1063 137.363 81.94 137.36V137.36Z" fill="#CBBAA4"/>
</g>
<g style="mix-blend-mode:multiply">
<path d="M96.25 141.02H89.16V143.48H96.25V141.02Z" fill="#A3A381"/>
</g>
<g style="mix-blend-mode:multiply">
<path d="M96.24 146.12H90.65V148.06H96.24V146.12Z" fill="#A3A381"/>
</g>
<g style="mix-blend-mode:multiply">
<path d="M96.24 150.96H90.65V152.9H96.24V150.96Z" fill="#A3A381"/>
</g>
<g style="mix-blend-mode:multiply">
<path d="M96.24 155.81H90.65V157.75H96.24V155.81Z" fill="#A3A381"/>
</g>
<g style="mix-blend-mode:multiply">
<path d="M96.25 160.39H89.16V162.85H96.25V160.39Z" fill="#A3A381"/>
</g>
<g style="mix-blend-mode:multiply">
<path d="M96.24 165.49H90.65V167.43H96.24V165.49Z" fill="#A3A381"/>
</g>
<g style="mix-blend-mode:multiply">
<path d="M96.24 170.34H90.65V172.28H96.24V170.34Z" fill="#A3A381"/>
</g>
<g style="mix-blend-mode:multiply">
<path d="M96.24 175.18H90.65V177.12H96.24V175.18Z" fill="#A3A381"/>
</g>
<g style="mix-blend-mode:multiply">
<path d="M96.25 179.76H89.16V182.22H96.25V179.76Z" fill="#A3A381"/>
</g>
<g style="mix-blend-mode:multiply">
<path d="M96.24 184.87H90.65V186.81H96.24V184.87Z" fill="#A3A381"/>
</g>
<g style="mix-blend-mode:multiply">
<path d="M96.24 189.71H90.65V191.65H96.24V189.71Z" fill="#A3A381"/>
</g>
<g style="mix-blend-mode:multiply">
<path d="M96.24 194.55H90.65V196.49H96.24V194.55Z" fill="#A3A381"/>
</g>
<g style="mix-blend-mode:multiply">
<path d="M96.25 199.14H89.16V201.6H96.25V199.14Z" fill="#A3A381"/>
</g>
<path d="M318.29 76.0887L305.555 88.8237L335.317 118.586L348.052 105.851L318.29 76.0887Z" fill="#DF572D"/>
<g style="mix-blend-mode:multiply">
<path d="M311.935 82.4649L305.564 88.8359L335.326 118.598L341.697 112.227L311.935 82.4649Z" fill="#C7A89C"/>
</g>
<path d="M308.86 72.1599L307.53 73.4899L308.65 76.2399L306 75.0699L304.43 76.6399L305.04 78.3199L303.33 77.7399L301.88 79.1899L300.73 76.8499L299.73 74.7699C299.62 74.3699 299.58 74.2399 299.79 74.0199L303.79 70.0199C303.99 69.8099 304.13 69.8499 304.52 69.9699L306.63 70.9699L308.86 72.1599Z" fill="#4D4D4D"/>
<g style="mix-blend-mode:multiply">
<path d="M301.56 72.1099L305.24 75.7899L304.38 76.6399L304.99 78.3199L303.28 77.7399L301.83 79.1899L300.68 76.8499L299.68 74.7699C299.57 74.3699 299.53 74.2399 299.74 74.0199L301.56 72.1099Z" fill="#9E9E9E"/>
</g>
<path d="M318.31 76.1099L305.57 88.8499L300.54 76.8099L300.68 76.8499L303.28 77.7399L304.99 78.3299L304.38 76.6399L303.4 73.9499L305.95 75.0699L308.65 76.2399L307.53 73.4899L306.54 71.0199L306.48 70.8799L318.31 76.1099Z" fill="#F3E3C3"/>
<g style="mix-blend-mode:multiply">
<path d="M318.31 76.1101L311.94 82.4801L303.4 73.9501L305.95 75.0701L308.65 76.2401L307.54 73.4901L306.54 71.0101L306.48 70.8701L318.31 76.1101Z" fill="#D0C3B3"/>
</g>
<path d="M275.38 336.91C272.581 339.716 271.006 343.517 271 347.48H264.36C264.357 344.646 264.913 341.838 265.998 339.22C267.082 336.601 268.674 334.222 270.68 332.22L275.38 336.91Z" fill="#F6A61E"/>
<path d="M311 348.12C310.997 353.908 308.696 359.458 304.603 363.549C300.509 367.641 294.958 369.94 289.17 369.94H288.43H264C263.752 369.94 263.515 369.842 263.339 369.668C263.163 369.494 263.063 369.257 263.06 369.01V356.54C263.06 356.291 263.159 356.051 263.335 355.875C263.512 355.699 263.751 355.6 264 355.6H266.35C266.595 355.586 266.826 355.482 266.999 355.309C267.172 355.135 267.276 354.904 267.29 354.66V348.12C267.29 342.333 269.589 336.783 273.681 332.691C277.773 328.599 283.323 326.3 289.11 326.3C294.897 326.3 300.447 328.599 304.539 332.691C308.631 336.783 310.93 342.333 310.93 348.12H311Z" fill="#455A86"/>
<g style="mix-blend-mode:multiply" opacity="0.59">
<path d="M311 348.12H267.32C267.32 345.254 267.884 342.417 268.981 339.77C270.078 337.122 271.685 334.717 273.711 332.691C275.737 330.665 278.143 329.057 280.79 327.961C283.437 326.864 286.275 326.3 289.14 326.3C292.006 326.3 294.843 326.864 297.49 327.961C300.138 329.057 302.543 330.665 304.569 332.691C306.595 334.717 308.203 337.122 309.299 339.77C310.396 342.417 310.96 345.254 310.96 348.12H311Z" fill="#CCCCCC"/>
</g>
<path d="M303.75 348.12C303.75 351.012 302.893 353.838 301.286 356.242C299.68 358.647 297.396 360.521 294.725 361.627C292.053 362.734 289.114 363.023 286.278 362.459C283.442 361.895 280.837 360.503 278.792 358.458C276.747 356.413 275.355 353.808 274.791 350.972C274.227 348.136 274.516 345.197 275.623 342.525C276.729 339.854 278.603 337.57 281.008 335.964C283.412 334.357 286.238 333.5 289.13 333.5C291.05 333.499 292.952 333.876 294.726 334.61C296.501 335.344 298.113 336.421 299.471 337.779C300.829 339.137 301.906 340.749 302.64 342.524C303.374 344.298 303.751 346.2 303.75 348.12V348.12Z" fill="#F3BA12"/>
<g style="mix-blend-mode:multiply" opacity="0.81">
<path d="M303.75 348.12C303.801 350.072 303.461 352.013 302.749 353.831C302.038 355.649 300.969 357.306 299.607 358.704C298.245 360.103 296.617 361.214 294.818 361.973C293.019 362.732 291.087 363.122 289.135 363.122C287.183 363.122 285.251 362.732 283.452 361.973C281.653 361.214 280.025 360.103 278.663 358.704C277.301 357.306 276.232 355.649 275.521 353.831C274.809 352.013 274.469 350.072 274.52 348.12H279.81C279.81 350.592 280.792 352.963 282.54 354.71C284.288 356.458 286.658 357.44 289.13 357.44C291.602 357.44 293.972 356.458 295.72 354.71C297.468 352.963 298.45 350.592 298.45 348.12H303.75Z" fill="#CBBAA4"/>
</g>
<path d="M298.46 348.12C298.46 349.963 297.914 351.764 296.89 353.297C295.866 354.829 294.411 356.024 292.709 356.729C291.007 357.435 289.133 357.62 287.326 357.261C285.518 356.903 283.857 356.016 282.553 354.714C281.25 353.411 280.361 351.751 280 349.944C279.64 348.137 279.823 346.263 280.527 344.56C281.231 342.857 282.424 341.401 283.955 340.375C285.486 339.35 287.287 338.802 289.13 338.8C291.603 338.8 293.974 339.781 295.724 341.529C297.473 343.277 298.457 345.647 298.46 348.12V348.12Z" fill="#FACF14"/>
<path d="M263.09 365.54H232.67V367.73H263.09V365.54Z" fill="white"/>
<path d="M233.7 361.79H230.42V367.73H233.7V361.79Z" fill="#666666"/>
<g style="mix-blend-mode:multiply" opacity="0.86">
<path d="M270.71 366.49V369.93H266.81V366.49C266.815 365.974 267.019 365.479 267.38 365.11C267.56 364.927 267.775 364.783 268.012 364.685C268.249 364.587 268.504 364.538 268.76 364.54C269.273 364.553 269.762 364.762 270.125 365.125C270.488 365.488 270.697 365.977 270.71 366.49V366.49Z" fill="#CCCCCC"/>
</g>
<g style="mix-blend-mode:multiply" opacity="0.86">
<path d="M276.27 366.49V369.93H272.35V366.49C272.358 365.972 272.565 365.477 272.93 365.11C273.211 364.856 273.557 364.687 273.93 364.622C274.303 364.557 274.687 364.599 275.036 364.744C275.386 364.888 275.688 365.129 275.906 365.438C276.125 365.747 276.251 366.112 276.27 366.49V366.49Z" fill="#CCCCCC"/>
</g>
<g style="mix-blend-mode:multiply" opacity="0.86">
<path d="M281.83 366.49V369.93H277.91V366.48C277.915 365.964 278.119 365.469 278.48 365.1C278.661 364.919 278.876 364.775 279.113 364.677C279.35 364.579 279.604 364.529 279.86 364.53C280.378 364.538 280.874 364.747 281.241 365.112C281.609 365.478 281.82 365.972 281.83 366.49Z" fill="#CCCCCC"/>
</g>
<g style="mix-blend-mode:multiply" opacity="0.86">
<path d="M287.37 366.49V369.93H283.47V366.49C283.47 365.973 283.675 365.477 284.041 365.111C284.407 364.745 284.903 364.54 285.42 364.54C285.937 364.54 286.433 364.745 286.799 365.111C287.165 365.477 287.37 365.973 287.37 366.49V366.49Z" fill="#CCCCCC"/>
</g>
<path d="M283.06 349.12C283.45 349.539 283.989 349.787 284.56 349.81C285.23 349.81 285.67 349.52 285.67 349C285.67 348.48 285.31 348 283.83 348V346.89C285.05 346.89 285.44 346.52 285.44 345.97C285.44 345.42 285.14 345.22 284.6 345.22C284.113 345.251 283.656 345.466 283.32 345.82L282.53 344.82C283.112 344.27 283.879 343.959 284.68 343.95C286.09 343.95 287.03 344.63 287.03 345.83C287.024 346.17 286.91 346.499 286.705 346.77C286.501 347.042 286.215 347.241 285.89 347.34V347.34C286.275 347.419 286.62 347.628 286.868 347.932C287.116 348.237 287.251 348.618 287.25 349.01C287.25 350.28 286.08 351.01 284.71 351.01C284.264 351.031 283.819 350.952 283.407 350.779C282.995 350.606 282.627 350.344 282.33 350.01L283.06 349.12Z" fill="#CC740F"/>
<path d="M288.47 345.63H289.76L289.87 346.32C290.068 346.078 290.315 345.88 290.594 345.739C290.873 345.598 291.178 345.516 291.49 345.5C291.797 345.475 292.105 345.548 292.369 345.708C292.632 345.867 292.839 346.106 292.96 346.39C293.163 346.133 293.417 345.921 293.706 345.767C293.995 345.614 294.313 345.523 294.64 345.5C295.79 345.5 296.3 346.31 296.3 347.65V351H294.72V347.89C294.72 347.12 294.52 346.89 294.07 346.89C293.708 346.937 293.378 347.124 293.15 347.41V351H291.57V347.89C291.57 347.12 291.37 346.89 290.92 346.89C290.561 346.939 290.235 347.125 290.01 347.41V351H288.43L288.47 345.63Z" fill="#CC740F"/>
<path d="M179.16 77.7003L175.89 85.3403L169.38 61.3603L174.36 60.0103L179.16 77.7003Z" fill="white"/>
<g style="mix-blend-mode:multiply" opacity="0.81">
<path d="M174.355 60.0165L169.375 61.3677L170.441 65.2957L175.421 63.9445L174.355 60.0165Z" fill="#CCCCCC"/>
</g>
<path d="M179.25 56.0998C179.409 56.7294 179.315 57.3964 178.988 57.9573C178.661 58.5183 178.126 58.9285 177.5 59.0998L166.23 62.1698C165.6 62.3263 164.935 62.2311 164.374 61.9042C163.814 61.5774 163.404 61.0448 163.23 60.4198V60.4198C163.071 59.7902 163.165 59.1233 163.492 58.5624C163.819 58.0014 164.354 57.5912 164.98 57.4198L176.25 54.3498C176.886 54.1784 177.565 54.2664 178.137 54.5944C178.708 54.9225 179.127 55.4638 179.3 56.0998H179.25Z" fill="#738C8A"/>
<path d="M186.95 86.5L179.43 90.04L190.49 67.79L195.12 70.08L186.95 86.5Z" fill="white"/>
<g style="mix-blend-mode:multiply" opacity="0.81">
<path d="M190.498 67.803L188.686 71.4473L193.306 73.7448L195.118 70.1005L190.498 67.803Z" fill="#CCCCCC"/>
</g>
<path d="M201.37 70.42C201.224 70.7168 201.021 70.9816 200.772 71.199C200.523 71.4164 200.233 71.5821 199.92 71.6863C199.606 71.7906 199.275 71.8313 198.945 71.8062C198.616 71.7811 198.294 71.6906 198 71.54L187.54 66.34C186.956 66.0385 186.513 65.5189 186.309 64.8937C186.105 64.2685 186.156 63.5882 186.45 63V63C186.596 62.707 186.798 62.4457 187.044 62.2308C187.291 62.016 187.578 61.8519 187.888 61.7478C188.198 61.6438 188.526 61.602 188.852 61.6246C189.178 61.6473 189.497 61.7341 189.79 61.88L200.25 67.08C200.84 67.3762 201.288 67.8935 201.498 68.5192C201.708 69.1449 201.662 69.8281 201.37 70.42V70.42Z" fill="#738C8A"/>
<path d="M170.28 84.2403L171.58 92.4403L153.3 75.6103L156.79 71.8203L170.28 84.2403Z" fill="white"/>
<g style="mix-blend-mode:multiply" opacity="0.81">
<path d="M156.803 71.8357L153.307 75.6309L156.3 78.3884L159.796 74.5932L156.803 71.8357Z" fill="#CCCCCC"/>
</g>
<path d="M158.86 65.9001C159.101 66.1204 159.297 66.3863 159.434 66.6826C159.572 66.9788 159.65 67.2994 159.663 67.6259C159.676 67.9523 159.624 68.2781 159.51 68.5844C159.396 68.8907 159.223 69.1713 159 69.4101L151.09 78.0001C150.868 78.2405 150.601 78.4349 150.304 78.5721C150.007 78.7092 149.686 78.7865 149.359 78.7995C149.032 78.8125 148.706 78.761 148.399 78.6478C148.092 78.5347 147.81 78.3622 147.57 78.1401V78.1401C147.33 77.9191 147.136 77.6529 146.999 77.3567C146.862 77.0606 146.785 76.7403 146.772 76.4142C146.758 76.0881 146.81 75.7627 146.923 75.4565C147.036 75.1504 147.208 74.8695 147.43 74.6301L155.35 66.0401C155.57 65.7981 155.835 65.6021 156.131 65.4634C156.427 65.3248 156.747 65.2462 157.074 65.2322C157.4 65.2183 157.726 65.2692 158.033 65.3822C158.339 65.4951 158.621 65.6677 158.86 65.8901V65.9001Z" fill="#738C8A"/>
</g>
<defs>
<clipPath id="clip0">
<rect width="450" height="450" fill="white"/>
</clipPath>
</defs>
</svg>
