<svg width="702" height="250" viewBox="0 0 702 250" fill="none" xmlns="http://www.w3.org/2000/svg">
<g id="Machine">
<path id="Vector" d="M622.428 163.43L590.118 127.166L566.815 147.927L599.125 184.192L622.428 163.43Z" fill="#E8505B"/>
<path id="Vector_2" d="M625.2 167.32C624.511 167.935 623.654 168.331 622.739 168.459C621.824 168.588 620.892 168.441 620.06 168.04C619.228 167.638 618.534 166.998 618.066 166.202C617.598 165.405 617.376 164.488 617.429 163.566C617.483 162.643 617.808 161.758 618.365 161.02C618.922 160.283 619.684 159.728 620.557 159.424C621.43 159.12 622.373 159.082 623.267 159.315C624.161 159.547 624.966 160.04 625.58 160.73C626.398 161.657 626.817 162.869 626.746 164.103C626.675 165.337 626.119 166.493 625.2 167.32Z" fill="#455A64"/>
<path id="Vector_3" d="M620.78 161.78L620.62 164.44L624.81 164.62" stroke="white" stroke-miterlimit="10"/>
<path id="Vector_4" d="M589.11 173.63C589.02 173.52 594.19 168.76 600.66 162.99C607.13 157.22 612.46 152.64 612.55 152.75C612.64 152.86 607.48 157.62 601.01 163.38C594.54 169.14 589.21 173.74 589.11 173.63Z" fill="#263238"/>
<path id="Vector_5" d="M609.74 175.55C609.64 175.64 602.18 167.41 593.1 157.15C584.02 146.89 576.74 138.5 576.85 138.41C576.96 138.32 584.4 146.55 593.49 156.81C602.58 167.07 609.85 175.45 609.74 175.55Z" fill="#FAFAFA"/>
<path id="Vector_6" d="M576.92 159.19C576.82 159.08 581.97 154.36 588.42 148.65C594.87 142.94 600.17 138.39 600.27 138.5C600.37 138.61 595.21 143.33 588.76 149.04C582.31 154.75 577.01 159.29 576.92 159.19Z" fill="#FAFAFA"/>
<path id="Vector_7" d="M594.04 178.88C593.94 178.77 599.14 174.02 605.63 168.26C612.12 162.5 617.47 157.93 617.57 158.04C617.67 158.15 612.48 162.89 605.98 168.65C599.48 174.41 594.14 178.98 594.04 178.88Z" fill="#FAFAFA"/>
<path id="Vector_8" d="M586.69 149.59C586.433 149.382 586.213 149.132 586.04 148.85C585.524 148.124 585.091 147.342 584.75 146.52C584.235 145.291 583.918 143.988 583.81 142.66C583.695 141.85 583.788 141.024 584.08 140.26C584.258 139.817 584.589 139.453 585.013 139.233C585.437 139.012 585.925 138.951 586.39 139.06C586.836 139.15 587.255 139.343 587.613 139.625C587.97 139.906 588.257 140.267 588.45 140.68C588.789 141.412 588.979 142.204 589.01 143.01C589.111 144.342 588.948 145.681 588.53 146.95C588.261 147.805 587.87 148.616 587.37 149.36C587.21 149.645 587 149.899 586.75 150.11C587.336 149.074 587.815 147.982 588.18 146.85C588.53 145.616 588.652 144.328 588.54 143.05C588.491 142.309 588.304 141.583 587.99 140.91C587.832 140.568 587.596 140.269 587.3 140.036C587.005 139.803 586.659 139.644 586.29 139.57C585.939 139.49 585.571 139.536 585.251 139.701C584.931 139.866 584.679 140.138 584.54 140.47C584.282 141.159 584.197 141.9 584.29 142.63C584.374 143.912 584.643 145.175 585.09 146.38C585.551 147.484 586.085 148.557 586.69 149.59V149.59Z" fill="#FAFAFA"/>
<path id="Vector_9" d="M586.43 150.43C586.621 150.199 586.856 150.009 587.12 149.87C587.803 149.432 588.534 149.076 589.3 148.81C590.441 148.409 591.641 148.2 592.85 148.19C593.564 148.182 594.277 148.242 594.98 148.37C595.387 148.436 595.773 148.593 596.11 148.83C596.3 148.961 596.457 149.133 596.57 149.334C596.682 149.535 596.748 149.759 596.76 149.99C596.752 150.219 596.692 150.444 596.587 150.648C596.482 150.852 596.332 151.03 596.15 151.17C595.849 151.416 595.512 151.615 595.15 151.76C594.481 152.036 593.778 152.225 593.06 152.32C591.849 152.472 590.619 152.352 589.46 151.97C588.686 151.718 587.96 151.339 587.31 150.85C587.057 150.685 586.837 150.474 586.66 150.23C587.567 150.816 588.545 151.283 589.57 151.62C590.685 151.933 591.854 152.008 593 151.84C593.669 151.745 594.321 151.56 594.94 151.29C595.57 151.04 596.26 150.59 596.26 150C596.249 149.848 596.204 149.7 596.128 149.569C596.052 149.437 595.946 149.324 595.82 149.24C595.544 149.051 595.23 148.924 594.9 148.87C594.241 148.742 593.571 148.676 592.9 148.67C591.735 148.659 590.576 148.824 589.46 149.16C588.421 149.509 587.408 149.934 586.43 150.43V150.43Z" fill="#FAFAFA"/>
<path id="Vector_10" d="M563.87 143.39L625.06 212.99H701.98V247.76H620.9L548.14 164.41L563.87 143.39Z" fill="#263238"/>
<path id="Vector_11" d="M495.42 89.2197C495.627 89.2318 495.832 89.2688 496.03 89.3297C496.618 89.4494 497.199 89.603 497.77 89.7897C499.871 90.471 501.862 91.4547 503.68 92.7097C506.37 94.5703 508.735 96.8609 510.68 99.4897C513.101 102.709 514.991 106.294 516.28 110.11C517.501 113.922 518.305 117.855 518.68 121.84C518.992 125.084 519.139 128.341 519.12 131.6C519.12 134.38 519.04 136.6 518.98 138.18C518.98 138.91 518.92 139.51 518.89 139.97C518.896 140.178 518.876 140.386 518.83 140.59C518.806 140.384 518.806 140.176 518.83 139.97C518.83 139.5 518.83 138.91 518.83 138.18C518.83 136.63 518.83 134.38 518.83 131.61C518.83 128.84 518.68 125.53 518.28 121.89C517.883 117.943 517.075 114.049 515.87 110.27C514.619 106.511 512.787 102.971 510.44 99.7797C508.535 97.1667 506.218 94.8803 503.58 93.0097C501.798 91.759 499.858 90.7502 497.81 90.0097C496.28 89.4697 495.41 89.2697 495.42 89.2197Z" fill="#263238"/>
<path id="Vector_12" d="M522.28 140.59C522.263 140.363 522.263 140.136 522.28 139.91C522.28 139.41 522.28 138.76 522.28 137.91C522.28 136.2 522.28 133.73 522.28 130.69C522.28 127.65 522.12 124.02 521.72 120.02C521.322 115.681 520.519 111.389 519.32 107.2C518.089 103.023 516.282 99.0376 513.95 95.3596C512.047 92.3575 509.719 89.6461 507.04 87.3096C505.231 85.7482 503.244 84.4056 501.12 83.3096C499.61 82.5396 498.73 82.1896 498.75 82.1396C498.972 82.1963 499.189 82.2699 499.4 82.3596C500.016 82.5853 500.62 82.8423 501.21 83.1296C503.394 84.1776 505.434 85.5018 507.28 87.0696C510.027 89.3914 512.41 92.1116 514.35 95.1396C516.735 98.8413 518.577 102.866 519.82 107.09C520.976 111.325 521.723 115.662 522.05 120.04C522.42 124.04 522.5 127.71 522.5 130.76C522.5 133.81 522.44 136.27 522.38 137.98C522.38 138.79 522.32 139.44 522.3 139.98C522.313 140.183 522.307 140.387 522.28 140.59V140.59Z" fill="#263238"/>
<path id="Vector_13" d="M421.4 32.6997C421.69 33.2197 421.2 80.0697 421.2 80.0697H417.38L416.1 32.6597L421.4 32.6997Z" fill="#263238"/>
<path id="Vector_14" d="M417 73.71L421.4 73.94L421.36 80.58L426.34 83.1799L426.3 87.5399L423.05 92.0399L422.91 85.77L418.85 83.6499L415.38 85.46L415.59 92.22L412 87.83L412.2 83.7899L416.81 80.36L417 73.71Z" fill="#263238"/>
<path id="Vector_15" d="M441.58 40.04L478.58 84.72C479.502 85.8353 480.635 86.7577 481.914 87.4344C483.193 88.1111 484.593 88.5287 486.034 88.6634C487.475 88.7981 488.928 88.6472 490.311 88.2193C491.693 87.7915 492.977 87.0951 494.09 86.17C495.205 85.248 496.128 84.1149 496.804 82.8358C497.481 81.5567 497.899 80.1566 498.033 78.7159C498.168 77.2751 498.017 75.8219 497.589 74.4395C497.162 73.0571 496.465 71.7727 495.54 70.66L458.54 25.98C457.618 24.8647 456.485 23.9422 455.206 23.2656C453.927 22.5889 452.527 22.1712 451.086 22.0365C449.645 21.9018 448.192 22.0527 446.81 22.4806C445.427 22.9085 444.143 23.6049 443.03 24.53V24.53C441.915 25.452 440.992 26.585 440.316 27.8641C439.639 29.1432 439.221 30.5433 439.087 31.9841C438.952 33.4249 439.103 34.8781 439.531 36.2605C439.959 37.6428 440.655 38.9272 441.58 40.04V40.04Z" fill="#455A64"/>
<path id="Vector_16" d="M419.28 39.84H452.28C454.113 39.84 455.87 39.112 457.166 37.8161C458.462 36.5203 459.19 34.7627 459.19 32.93V32.93C459.19 31.0974 458.462 29.3398 457.166 28.0439C455.87 26.748 454.113 26.02 452.28 26.02H419.28C417.447 26.02 415.69 26.748 414.394 28.0439C413.098 29.3398 412.37 31.0974 412.37 32.93C412.37 34.7627 413.098 36.5203 414.394 37.8161C415.69 39.112 417.447 39.84 419.28 39.84V39.84Z" fill="#455A64"/>
<path id="Vector_17" d="M469.51 146.97C469.51 155.514 476.436 162.44 484.98 162.44C493.524 162.44 500.45 155.514 500.45 146.97V80.56C500.45 72.0161 493.524 65.09 484.98 65.09C476.436 65.09 469.51 72.0161 469.51 80.56V146.97Z" fill="#455A64"/>
<path id="Vector_18" d="M490.354 152.724C493.158 149.577 492.88 144.754 489.733 141.951C486.587 139.148 481.764 139.426 478.961 142.572C476.157 145.718 476.436 150.542 479.582 153.345C482.728 156.148 487.551 155.87 490.354 152.724Z" fill="#263238"/>
<path id="Vector_19" d="M490.37 83.842C493.349 80.8623 493.349 76.0312 490.37 73.0515C487.39 70.0718 482.559 70.0718 479.579 73.0515C476.599 76.0312 476.599 80.8623 479.579 83.842C482.559 86.8217 487.39 86.8217 490.37 83.842Z" fill="#263238"/>
<path id="Vector_20" d="M451.23 37.5598C453.787 37.5598 455.86 35.4869 455.86 32.9298C455.86 30.3727 453.787 28.2998 451.23 28.2998C448.673 28.2998 446.6 30.3727 446.6 32.9298C446.6 35.4869 448.673 37.5598 451.23 37.5598Z" fill="#263238"/>
<path id="Vector_21" d="M418.51 36.07C420.244 36.07 421.65 34.6642 421.65 32.93C421.65 31.1959 420.244 29.79 418.51 29.79C416.776 29.79 415.37 31.1959 415.37 32.93C415.37 34.6642 416.776 36.07 418.51 36.07Z" fill="#263238"/>
<path id="Vector_22" d="M469.6 81.83C469.553 81.6949 469.53 81.5529 469.53 81.41C469.505 81.0137 469.505 80.6163 469.53 80.22C469.556 78.7508 469.806 77.2942 470.27 75.9C470.948 73.8184 472.036 71.8939 473.47 70.24C475.196 68.1608 477.452 66.5865 479.999 65.6835C482.546 64.7805 485.29 64.5824 487.94 65.11C490.098 65.4925 492.158 66.3016 494 67.49C495.236 68.2864 496.348 69.2602 497.3 70.38C497.556 70.6994 497.793 71.0333 498.01 71.38C498.16 71.6 498.24 71.72 498.22 71.74C496.952 70.2268 495.462 68.9151 493.8 67.85C491.983 66.7298 489.966 65.9726 487.86 65.62C485.293 65.1497 482.647 65.3642 480.189 66.242C477.732 67.1198 475.548 68.6298 473.86 70.62C472.43 72.2002 471.317 74.0402 470.58 76.04C469.96 77.9087 469.629 79.8613 469.6 81.83V81.83Z" fill="#263238"/>
<path id="Vector_23" d="M442.07 25.04C442.15 25.1 441.61 25.93 441.07 27.4C440.337 29.3125 439.997 31.3532 440.07 33.4C440.172 35.449 440.679 37.4574 441.56 39.31C442.26 40.73 442.87 41.51 442.8 41.56C442.73 41.61 442.6 41.41 442.31 41.07C441.898 40.579 441.54 40.0461 441.24 39.48C440.773 38.6509 440.401 37.7721 440.13 36.86C439.813 35.7412 439.618 34.5911 439.55 33.43C439.511 32.2632 439.605 31.0957 439.83 29.95C440.014 29.0206 440.303 28.1149 440.69 27.25C440.944 26.664 441.255 26.1046 441.62 25.58C441.89 25.19 442.04 25.04 442.07 25.04Z" fill="#263238"/>
<path id="Vector_24" d="M68.43 77.6099C68.43 77.6599 67.43 77.8898 65.81 78.4698C63.4587 79.3223 61.2322 80.4861 59.19 81.9299C56.1506 84.0673 53.479 86.6848 51.28 89.6799C48.5919 93.3301 46.4931 97.3793 45.06 101.68C43.688 106.026 42.7731 110.504 42.33 115.04C41.89 119.21 41.76 122.99 41.72 126.16C41.68 129.33 41.72 131.91 41.72 133.69V135.74C41.744 135.976 41.744 136.214 41.72 136.45C41.6729 136.216 41.6495 135.978 41.65 135.74L41.56 133.69C41.5 131.92 41.42 129.34 41.42 126.16C41.3974 122.43 41.5676 118.702 41.93 114.99C42.3599 110.428 43.2785 105.926 44.67 101.56C46.1221 97.1997 48.2588 93.0985 51 89.4099C53.2188 86.3955 55.9222 83.7699 59 81.6399C61.0804 80.2038 63.3572 79.0755 65.76 78.2899C66.4165 78.0742 67.0841 77.8939 67.76 77.7498C67.9784 77.6821 68.2027 77.6352 68.43 77.6099V77.6099Z" fill="#263238"/>
<path id="Vector_25" d="M37.7199 136.45C37.6731 136.189 37.6497 135.925 37.6499 135.66C37.6499 135.1 37.5999 134.35 37.5699 133.42C37.5099 131.42 37.4399 128.64 37.4399 125.14C37.4399 121.64 37.5399 117.49 37.9599 112.88C38.3963 107.874 39.3105 102.921 40.6899 98.0898C42.1172 93.2559 44.225 88.6498 46.9499 84.4098C49.1692 80.9454 51.8924 77.8312 55.0299 75.1698C57.1443 73.3776 59.476 71.859 61.9699 70.6498C62.6472 70.3198 63.3415 70.026 64.0499 69.7698C64.2859 69.6553 64.5342 69.5681 64.7899 69.5098C64.5647 69.6419 64.3308 69.7588 64.0899 69.8598C63.6299 70.0998 62.9099 70.3498 62.0899 70.8598C59.6435 72.1102 57.357 73.6513 55.2799 75.4498C52.2082 78.1241 49.5404 81.2298 47.3599 84.6698C44.6841 88.8803 42.6106 93.4445 41.1999 98.2298C39.8293 103.03 38.9087 107.948 38.4499 112.92C37.9999 117.51 37.8699 121.66 37.8199 125.15C37.7699 128.64 37.8199 131.46 37.8199 133.41C37.8199 134.35 37.8199 135.1 37.8199 135.66C37.8107 135.926 37.7772 136.19 37.7199 136.45V136.45Z" fill="#263238"/>
<path id="Vector_26" d="M152.76 12.2899C152.45 12.8899 154.32 47.3599 154.32 47.3599L158.69 47.2899L158.83 12.1299L152.76 12.2899Z" fill="#263238"/>
<path id="Vector_27" d="M160.87 28.8599L150.51 29.6699L151.02 45.3199L139.44 51.7599L139.78 62.0499L147.73 72.4599L147.67 57.6599L157.12 52.3999L165.42 56.4499L165.34 72.4199L173.54 61.8299L172.82 52.3399L161.72 44.5299L160.87 28.8599Z" fill="#263238"/>
<path id="Vector_28" d="M130.08 21.3398L87.6599 72.4998C86.603 73.7753 85.3051 74.83 83.8405 75.6037C82.3758 76.3775 80.7731 76.8551 79.1238 77.0092C77.4745 77.1634 75.811 76.9911 74.2284 76.5022C72.6457 76.0133 71.1748 75.2173 69.8999 74.1598V74.1598C67.3328 72.0198 65.7202 68.9483 65.4165 65.6201C65.1127 62.2918 66.1426 58.9791 68.2799 56.4098L110.7 5.2398C112.836 2.66618 115.906 1.04575 119.236 0.734492C122.566 0.423235 125.884 1.44661 128.46 3.5798V3.5798C131.028 5.72156 132.64 8.79479 132.944 12.1247C133.248 15.4545 132.218 18.7688 130.08 21.3398Z" fill="#455A64"/>
<path id="Vector_29" d="M155.68 5.22998H117.93C113.561 5.22998 110.02 8.7714 110.02 13.14V13.15C110.02 17.5186 113.561 21.06 117.93 21.06H155.68C160.049 21.06 163.59 17.5186 163.59 13.15V13.14C163.59 8.7714 160.049 5.22998 155.68 5.22998Z" fill="#455A64"/>
<path id="Vector_30" d="M80.3799 161.46C75.682 161.46 71.1764 159.594 67.8535 156.273C64.5307 152.952 62.6626 148.448 62.6599 143.75V67.69C62.6626 62.9921 64.5307 58.4875 67.8535 55.1665C71.1764 51.8455 75.682 49.98 80.3799 49.98C85.0769 49.98 89.5815 51.8458 92.9028 55.1671C96.224 58.4884 98.0899 62.993 98.0899 67.69V143.75C98.0899 148.447 96.224 152.952 92.9028 156.273C89.5815 159.594 85.0769 161.46 80.3799 161.46Z" fill="#455A64"/>
<path id="Vector_31" d="M86.909 150.713C90.3183 147.304 90.3183 141.776 86.909 138.367C83.4997 134.958 77.9722 134.958 74.5629 138.367C71.1537 141.776 71.1537 147.304 74.5629 150.713C77.9722 154.122 83.4998 154.122 86.909 150.713Z" fill="#263238"/>
<path id="Vector_32" d="M88.9962 66.6794C89.7688 61.9202 86.537 57.4359 81.7778 56.6634C77.0186 55.8909 72.5343 59.1227 71.7618 63.8818C70.9893 68.641 74.2211 73.1253 78.9803 73.8978C83.7394 74.6703 88.2237 71.4385 88.9962 66.6794Z" fill="#263238"/>
<path id="Vector_33" d="M119.02 18.4496C121.947 18.4496 124.32 16.0767 124.32 13.1496C124.32 10.2225 121.947 7.84961 119.02 7.84961C116.093 7.84961 113.72 10.2225 113.72 13.1496C113.72 16.0767 116.093 18.4496 119.02 18.4496Z" fill="#263238"/>
<path id="Vector_34" d="M159.04 10.6C159.544 11.1034 159.887 11.7449 160.026 12.4432C160.165 13.1416 160.094 13.8655 159.821 14.5235C159.549 15.1814 159.087 15.7437 158.495 16.1394C157.903 16.535 157.207 16.7462 156.495 16.7462C155.783 16.7462 155.087 16.535 154.495 16.1394C153.903 15.7437 153.441 15.1814 153.169 14.5235C152.896 13.8655 152.825 13.1416 152.964 12.4432C153.103 11.7449 153.446 11.1034 153.95 10.6C154.626 9.92767 155.541 9.55029 156.495 9.55029C157.449 9.55029 158.364 9.92767 159.04 10.6Z" fill="#263238"/>
<path id="Vector_35" d="M98 69.1399C97.9808 66.8796 97.6097 64.636 96.9 62.4899C96.083 60.182 94.8341 58.0507 93.22 56.2099C91.2779 53.9238 88.7655 52.1924 85.9378 51.1913C83.1101 50.1902 80.0679 49.9551 77.12 50.5099C74.6984 50.9051 72.3759 51.7642 70.28 53.0399C68.3969 54.2685 66.711 55.7756 65.28 57.5099C65.3443 57.3655 65.4284 57.2309 65.53 57.1099C65.7812 56.7304 66.055 56.3664 66.35 56.0199C67.4405 54.7359 68.7182 53.6234 70.14 52.7199C72.2436 51.3656 74.5962 50.4443 77.06 50.0099C80.0891 49.4111 83.2236 49.6393 86.1341 50.6705C89.0445 51.7016 91.6235 53.4977 93.6 55.8699C95.2399 57.7622 96.4874 59.9614 97.27 62.3399C97.8044 63.9337 98.0944 65.5993 98.13 67.2799C98.1609 67.7327 98.1609 68.1871 98.13 68.6399C98.1183 68.8132 98.0742 68.9828 98 69.1399V69.1399Z" fill="#263238"/>
<path id="Vector_36" d="M129.52 4.04004C129.52 4.04004 129.72 4.25004 130.02 4.67004C130.412 5.27747 130.747 5.92027 131.02 6.59004C131.467 7.57971 131.802 8.6161 132.02 9.68004C132.282 10.9963 132.386 12.3391 132.33 13.68C132.262 15.0111 132.04 16.3298 131.67 17.61C131.361 18.6518 130.942 19.6575 130.42 20.61C130.078 21.2521 129.672 21.8585 129.21 22.42C128.88 22.82 128.68 23.03 128.65 23C128.62 22.97 129.29 22.06 130.09 20.44C130.555 19.4766 130.93 18.4724 131.21 17.44C131.539 16.1903 131.74 14.9104 131.81 13.62C131.859 12.3278 131.772 11.034 131.55 9.76004C131.362 8.73536 131.078 7.73083 130.7 6.76004C130.07 5.04004 129.43 4.14004 129.52 4.04004Z" fill="#263238"/>
<path id="Vector_37" d="M548.14 132.94H15.73C7.04256 132.94 0 139.982 0 148.67V148.68C0 157.367 7.04256 164.41 15.73 164.41H548.14C556.827 164.41 563.87 157.367 563.87 148.68V148.67C563.87 139.982 556.827 132.94 548.14 132.94Z" fill="#455A64"/>
<path id="Vector_38" d="M490.171 151.429C491.166 147.226 488.567 143.012 484.364 142.016C480.162 141.021 475.948 143.62 474.952 147.823C473.956 152.025 476.556 156.239 480.758 157.235C484.961 158.231 489.175 155.631 490.171 151.429Z" fill="#263238"/>
<path id="Vector_39" d="M557.76 149.885C558.883 145.696 556.397 141.389 552.207 140.266C548.018 139.143 543.712 141.629 542.589 145.818C541.466 150.008 543.952 154.314 548.141 155.437C552.33 156.56 556.637 154.074 557.76 149.885Z" fill="#263238"/>
<path id="Vector_40" d="M416.874 155.145C419.928 152.091 419.928 147.14 416.874 144.086C413.82 141.032 408.869 141.032 405.815 144.086C402.761 147.14 402.761 152.091 405.815 155.145C408.869 158.199 413.82 158.199 416.874 155.145Z" fill="#263238"/>
<path id="Vector_41" d="M343.137 156.824C347.13 155.178 349.034 150.608 347.389 146.614C345.744 142.621 341.173 140.718 337.179 142.363C333.186 144.008 331.283 148.578 332.928 152.572C334.573 156.565 339.144 158.469 343.137 156.824Z" fill="#263238"/>
<path id="Vector_42" d="M276.563 151.434C277.559 147.231 274.959 143.017 270.756 142.021C266.554 141.026 262.34 143.625 261.344 147.828C260.348 152.03 262.948 156.244 267.151 157.24C271.353 158.236 275.567 155.636 276.563 151.434Z" fill="#263238"/>
<path id="Vector_43" d="M203.362 155.071C206.367 151.969 206.289 147.018 203.188 144.013C200.086 141.007 195.136 141.085 192.13 144.186C189.124 147.288 189.202 152.239 192.304 155.244C195.405 158.25 200.356 158.172 203.362 155.071Z" fill="#263238"/>
<path id="Vector_44" d="M128.03 155.945C132.004 154.304 133.894 149.752 132.253 145.779C130.612 141.806 126.061 139.915 122.087 141.556C118.114 143.197 116.223 147.749 117.864 151.722C119.506 155.696 124.057 157.586 128.03 155.945Z" fill="#263238"/>
<path id="Vector_45" d="M37.0879 151.403C38.08 147.2 35.4767 142.988 31.2734 141.996C27.07 141.004 22.8582 143.607 21.8662 147.811C20.8741 152.014 23.4773 156.226 27.6807 157.218C31.8841 158.21 36.0958 155.607 37.0879 151.403Z" fill="#263238"/>
<path id="Vector_46" d="M125.36 249.09H36.1101L37.2901 164.41H126.55L125.36 249.09Z" fill="#263238"/>
<path id="Vector_47" d="M520.97 248.86H431.72L432.41 164.41H521.66L520.97 248.86Z" fill="#263238"/>
<path id="Vector_48" d="M98.99 132.95C98.99 133.09 90.82 133.21 80.74 133.21C70.66 133.21 62.49 133.09 62.49 132.95C62.49 132.81 70.66 132.69 80.74 132.69C90.82 132.69 98.99 132.8 98.99 132.95Z" fill="#263238"/>
<path id="Vector_49" d="M545.89 161.46L546.63 161.41C547.361 161.369 548.087 161.266 548.8 161.1C549.978 160.823 551.114 160.393 552.18 159.82C553.64 159.006 554.938 157.932 556.01 156.65C557.505 154.845 558.489 152.672 558.858 150.357C559.228 148.042 558.969 145.671 558.11 143.49C557.266 141.332 555.864 139.436 554.047 137.997C552.23 136.558 550.064 135.628 547.77 135.3C546.028 135.147 544.278 135.1 542.53 135.16L420.28 135.24L17.01 135.32C14.5842 135.33 12.2103 136.023 10.16 137.32C9.13084 137.949 8.20072 138.728 7.39998 139.63C6.58481 140.523 5.91041 141.534 5.39998 142.63C4.32887 144.785 3.88471 147.199 4.11809 149.594C4.35146 151.99 5.25299 154.272 6.71998 156.18C8.16937 158.081 10.1185 159.542 12.35 160.4C13.4566 160.831 14.6176 161.107 15.8 161.22C16.97 161.3 18.19 161.22 19.4 161.28H90.47H197.55L378.85 161.34L501.07 161.42L534.3 161.47H542.95H545.89H542.95H534.3H501.07L378.85 161.55L197.55 161.61H19.4C18.19 161.61 16.99 161.61 15.75 161.55C14.5199 161.433 13.3118 161.147 12.16 160.7C11.0105 160.301 9.92313 159.743 8.92998 159.04C7.92248 158.298 7.02959 157.412 6.27998 156.41C4.75688 154.424 3.82109 152.052 3.57892 149.561C3.33675 147.07 3.7979 144.562 4.90998 142.32C5.45131 141.194 6.15926 140.155 7.00998 139.24C7.83957 138.303 8.80336 137.494 9.86998 136.84C12.014 135.522 14.4834 134.83 17 134.84L420.27 134.91L542.51 135C544.265 134.944 546.021 134.994 547.77 135.15C549.421 135.393 551.011 135.943 552.46 136.77C555.094 138.276 557.131 140.641 558.23 143.47C559.09 145.676 559.344 148.072 558.964 150.41C558.584 152.747 557.585 154.94 556.07 156.76C554.987 158.047 553.675 159.121 552.2 159.93C551.126 160.496 549.983 160.92 548.8 161.19C548.079 161.347 547.347 161.444 546.61 161.48L545.89 161.46Z" fill="#263238"/>
<g id="Box3">
<path id="Vector_50" d="M446.93 99.8496H395.43V132.95H446.93V99.8496Z" fill="#E8505B"/>
<path id="Vector_51" d="M451.96 100.39C451.95 101.366 451.651 102.319 451.102 103.126C450.552 103.933 449.775 104.56 448.87 104.927C447.965 105.294 446.971 105.385 446.014 105.188C445.057 104.992 444.18 104.516 443.493 103.822C442.805 103.128 442.339 102.246 442.152 101.287C441.965 100.328 442.066 99.3356 442.442 98.434C442.818 97.5324 443.452 96.7623 444.265 96.2205C445.078 95.6788 446.033 95.3897 447.01 95.3897C447.665 95.3883 448.313 95.517 448.918 95.7684C449.522 96.0199 450.07 96.3889 450.531 96.8541C450.992 97.3194 451.355 97.8715 451.6 98.4784C451.846 99.0854 451.968 99.7351 451.96 100.39V100.39Z" fill="#455A64"/>
<path id="Vector_52" d="M444.46 99.97L446.46 101.99L449.56 98.79" stroke="white" stroke-miterlimit="10"/>
<path id="Vector_53" d="M431.51 133.41C431.37 133.41 431.25 125.96 431.25 116.77C431.25 107.58 431.37 100.12 431.51 100.12C431.65 100.12 431.77 107.57 431.77 116.77C431.77 125.97 431.66 133.41 431.51 133.41Z" fill="#263238"/>
</g>
<g id="Box2">
<path id="Vector_54" d="M304.15 103.08H257.29V133.2H304.15V103.08Z" fill="#E8505B"/>
<path id="Vector_55" d="M286.1 133.19C285.96 133.19 285.84 126.44 285.84 118.12C285.84 109.8 285.96 103.05 286.1 103.05C286.24 103.05 286.36 109.8 286.36 118.12C286.36 126.44 286.28 133.19 286.1 133.19Z" fill="#263238"/>
</g>
<g id="Box1">
<path id="Vector_56" d="M137.91 77.5996H104.75V132.94H137.91V77.5996Z" fill="#E8505B"/>
<path id="Vector_57" d="M130.7 132.79C130.56 132.79 130.44 120.51 130.44 105.35C130.44 90.1897 130.56 77.9097 130.7 77.9097C130.84 77.9097 130.96 90.1997 130.96 105.35C130.96 120.5 130.84 132.79 130.7 132.79Z" fill="#263238"/>
</g>
<path id="Vector_58" d="M690.714 181.927L642.144 182.071L642.237 213.281L690.806 213.137L690.714 181.927Z" fill="#E8505B"/>
<path id="Vector_59" d="M695.45 182.47C695.452 183.393 695.18 184.297 694.669 185.066C694.157 185.835 693.429 186.435 692.576 186.79C691.724 187.146 690.785 187.24 689.879 187.062C688.973 186.884 688.14 186.441 687.485 185.789C686.83 185.137 686.384 184.306 686.202 183.4C686.02 182.495 686.11 181.556 686.462 180.702C686.813 179.848 687.41 179.117 688.177 178.602C688.944 178.087 689.846 177.812 690.77 177.81C691.384 177.807 691.992 177.926 692.56 178.159C693.127 178.392 693.643 178.734 694.078 179.167C694.513 179.6 694.858 180.115 695.093 180.682C695.329 181.248 695.45 181.856 695.45 182.47V182.47Z" fill="#455A64"/>
<path id="Vector_60" d="M688.37 182.1L690.26 183.99L693.17 180.97" stroke="white" stroke-miterlimit="10"/>
<path id="Vector_61" d="M676.28 213.67C676.14 213.67 676 206.67 675.97 197.97C675.94 189.27 676.04 182.27 676.19 182.27C676.34 182.27 676.47 189.27 676.49 197.97C676.51 206.67 676.39 213.67 676.28 213.67Z" fill="#263238"/>
<path id="Vector_62" d="M691.37 199.49C691.37 199.64 680.26 199.76 666.56 199.76C652.86 199.76 641.75 199.64 641.75 199.49C641.75 199.34 652.85 199.23 666.56 199.23C680.27 199.23 691.37 199.35 691.37 199.49Z" fill="#FAFAFA"/>
<path id="Vector_63" d="M657.35 213.22C657.21 213.22 657.09 206.22 657.09 197.62C657.09 189.02 657.21 182.02 657.35 182.02C657.49 182.02 657.61 189.02 657.61 197.62C657.61 206.22 657.49 213.22 657.35 213.22Z" fill="#FAFAFA"/>
<path id="Vector_64" d="M683.44 213.46C683.3 213.46 683.18 206.46 683.18 197.74C683.18 189.02 683.28 182.04 683.44 182.04C683.6 182.04 683.7 189.04 683.7 197.76C683.7 206.48 683.59 213.46 683.44 213.46Z" fill="#FAFAFA"/>
<path id="Vector_65" d="M656.64 199.54C656.309 199.596 655.971 199.596 655.64 199.54C654.754 199.449 653.881 199.254 653.04 198.96C651.78 198.532 650.595 197.908 649.53 197.11C648.849 196.658 648.292 196.043 647.91 195.32C647.71 194.896 647.657 194.417 647.76 193.96C647.884 193.494 648.158 193.083 648.54 192.79C648.903 192.514 649.326 192.329 649.775 192.249C650.223 192.169 650.684 192.197 651.12 192.33C651.908 192.55 652.642 192.928 653.28 193.44C654.344 194.259 655.237 195.278 655.91 196.44C656.356 197.213 656.692 198.044 656.91 198.91C657.018 199.232 657.069 199.57 657.06 199.91C656.67 198.786 656.167 197.703 655.56 196.68C654.871 195.596 653.985 194.65 652.95 193.89C652.356 193.428 651.676 193.088 650.95 192.89C650.59 192.784 650.21 192.764 649.84 192.83C649.471 192.896 649.122 193.046 648.82 193.27C648.527 193.482 648.319 193.791 648.231 194.142C648.143 194.494 648.182 194.864 648.34 195.19C648.684 195.834 649.178 196.387 649.78 196.8C650.799 197.589 651.927 198.226 653.13 198.69C654.279 199.053 655.452 199.337 656.64 199.54V199.54Z" fill="#FAFAFA"/>
<path id="Vector_66" d="M657.1 200.29C657.052 199.995 657.052 199.695 657.1 199.4C657.221 198.6 657.439 197.817 657.75 197.07C658.484 195.279 659.673 193.71 661.2 192.52C661.517 192.264 661.885 192.08 662.28 191.98C662.504 191.926 662.738 191.925 662.963 191.975C663.189 192.025 663.399 192.126 663.58 192.27C663.746 192.427 663.874 192.619 663.957 192.831C664.04 193.044 664.075 193.272 664.06 193.5C664.045 193.897 663.964 194.289 663.82 194.66C663.581 195.348 663.244 195.998 662.82 196.59C662.16 197.581 661.294 198.417 660.28 199.04C659.58 199.454 658.816 199.748 658.02 199.91C657.731 199.995 657.428 200.019 657.13 199.98C658.181 199.694 659.19 199.27 660.13 198.72C661.102 198.095 661.933 197.274 662.57 196.31C662.942 195.741 663.238 195.126 663.45 194.48C663.67 193.85 663.8 193.03 663.35 192.64C663.227 192.551 663.087 192.49 662.939 192.461C662.79 192.432 662.637 192.435 662.49 192.47C662.17 192.555 661.87 192.705 661.61 192.91C661.068 193.326 660.566 193.792 660.11 194.3C659.332 195.166 658.688 196.143 658.2 197.2C657.768 198.206 657.401 199.238 657.1 200.29V200.29Z" fill="#FAFAFA"/>
</g>
</svg>
