<svg width="841" height="610" viewBox="0 0 841 610" fill="none" xmlns="http://www.w3.org/2000/svg">
<g id="SN">
<path id="Vector" d="M541.535 416.646C541.498 416.59 541.449 416.543 541.392 416.509C541.335 416.474 541.271 416.453 541.205 416.446V417.746L541.475 417.466C541.572 417.354 541.63 417.214 541.64 417.066C541.651 416.918 541.614 416.771 541.535 416.646V416.646Z" fill="#6D2727"/>
<g id="GUY1">
<path id="Vector_2" d="M681.695 287.706C681.91 287.565 682.142 287.451 682.385 287.366C684.655 286.766 686.195 287.806 688.525 287.846C689.575 287.846 691.065 285.636 692.215 287.476C692.645 288.156 693.445 289.976 694.345 291.476C695.645 293.606 698.585 295.476 701.195 296.606C711.465 300.876 722.615 302.236 733.675 303.236C734.303 303.343 734.947 303.299 735.555 303.106C736.555 302.676 737.085 301.486 737.475 300.426C739.298 295.488 741.578 290.731 744.285 286.216C746.695 282.216 749.535 278.266 753.445 275.676C757.355 273.086 762.535 272.006 766.825 273.926C768.427 274.659 769.833 275.762 770.926 277.144C772.02 278.526 772.77 280.148 773.115 281.876C774.745 290.446 764.115 297.486 758.795 302.716C753.755 307.651 748.375 312.225 742.695 316.406C742.022 316.968 741.243 317.39 740.405 317.646C739.485 317.799 738.544 317.752 737.645 317.506C725.912 315.078 714.322 312.01 702.925 308.316C699.765 307.316 697.535 304.816 694.605 303.936C692.745 303.376 690.875 304.276 688.995 304.136C686.938 303.938 684.93 303.394 683.055 302.526C679.755 300.916 679.055 297.186 678.155 293.986C677.891 293.319 677.812 292.594 677.925 291.886C678.3 290.735 679.032 289.733 680.015 289.026C680.532 288.535 681.095 288.093 681.695 287.706V287.706Z" fill="#EACDB0"/>
<path id="Vector_3" d="M736.315 591.696C733.504 591.523 730.707 591.189 727.935 590.696C725.635 565.076 723.415 538.366 723.685 512.696C730.805 513.266 741.855 513.836 748.965 514.406C744.485 527.986 750.555 508.286 748.965 522.566C748.695 524.846 736.695 591.696 736.315 591.696Z" fill="#EACDB0"/>
<path id="Vector_4" d="M726.905 585.716C726.196 585.583 725.466 585.633 724.782 585.861C724.098 586.088 723.483 586.486 722.995 587.016C722.335 587.566 721.905 588.366 721.095 588.746C720.281 589.086 719.406 589.256 718.525 589.246C713.415 589.566 701.595 589.006 708.155 597.126C714.105 604.496 729.155 602.126 737.885 600.416C738.458 600.382 739.01 600.185 739.475 599.846C739.882 599.399 740.168 598.855 740.305 598.266C741.185 594.916 742.415 590.726 737.865 589.166C735.925 588.506 734.195 589.626 732.135 588.906C730.455 588.326 728.695 586.056 726.905 585.716Z" fill="#262D3A"/>
<path id="Vector_5" d="M811.695 590.576C814.609 590.485 817.517 590.238 820.405 589.836C821.725 564.576 825.405 538.096 824.405 512.716C817.915 513.066 805.345 513.406 798.855 513.716C803.375 527.276 804.415 541.486 806.305 555.656C806.545 557.936 811.295 590.556 811.695 590.576Z" fill="#EACDB0"/>
<path id="Vector_6" d="M759.235 299.326L740.535 289.456C740.935 289.676 753.725 260.256 754.535 258.536C757.675 251.956 760.975 245.156 766.535 240.486C778.535 230.486 796.615 240.066 793.665 255.896C790.465 273.086 780.435 290.496 767.525 302.226C767.25 302.511 766.905 302.718 766.525 302.826C766.002 302.873 765.48 302.739 765.045 302.446L759.235 299.326Z" fill="#7FC5A3"/>
<path id="Vector_7" d="M716.975 527.996L756.685 527.226C767.358 476.233 776.781 425.006 784.955 373.546C785.585 369.546 786.195 365.416 785.045 361.546C782.875 354.226 775.045 350.046 767.525 348.646C755.865 346.466 734.435 349.496 728.445 361.646C722.125 374.466 723.185 397.356 721.655 411.526C717.465 450.199 715.902 489.112 716.975 527.996V527.996Z" fill="#3B455A"/>
<path id="Vector_8" d="M832.815 527.996L793.115 527.226C782.448 476.253 773.025 425.039 764.845 373.586C764.215 369.586 763.605 365.456 764.745 361.586C766.925 354.266 774.745 350.086 782.265 348.686C793.935 346.506 815.365 349.536 821.355 361.686C827.675 374.506 826.615 397.396 828.145 411.566C832.329 450.226 833.889 489.125 832.815 527.996V527.996Z" fill="#3B455A"/>
<path id="Vector_9" d="M821.165 584.936C822.765 584.646 823.705 585.366 824.775 586.336C825.395 586.906 825.775 587.706 826.565 588.106C827.305 588.464 828.113 588.662 828.935 588.686C833.615 589.156 844.405 588.956 838.655 596.786C833.445 603.896 819.585 601.066 811.575 599.136C811.035 599.084 810.523 598.871 810.105 598.526C809.716 598.065 809.439 597.521 809.295 596.936C808.385 593.586 807.135 589.416 811.245 588.006C813.005 587.416 814.625 588.576 816.475 587.926C817.995 587.406 819.555 585.216 821.165 584.936Z" fill="#262D3A"/>
<path id="Vector_10" d="M798.885 248.496C809.385 258.692 817.374 271.187 822.225 284.996C830.705 308.796 830.865 334.196 830.945 359.096C830.945 367.376 830.971 375.663 831.025 383.956C831.025 392.106 830.325 393.856 821.465 392.786C805.055 390.786 787.985 387.406 773.105 380.116C766.035 376.636 759.415 372.256 751.995 369.526C741.195 365.526 730.125 367.346 719.445 364.756C722.155 356.566 726.205 349.086 728.095 340.496C729.857 331.867 730.984 323.12 731.465 314.326C732.465 298.976 734.405 283.726 735.565 268.436C736.385 257.436 734.945 248.506 746.565 241.326C752.905 237.416 764.435 230.726 773.385 232.536C782.905 234.456 792.955 242.846 798.885 248.496Z" fill="#D34E4E"/>
<path id="Vector_11" d="M760.605 213.586C762.605 217.966 765.875 221.586 768.605 225.586C771.335 229.586 772.135 233.006 772.825 237.526C773.325 240.796 774.495 243.346 778.425 243.906C785.845 244.956 783.725 238.826 785.425 234.376C787.355 229.276 791.425 225.256 794.325 220.706C802.615 207.566 800.255 181.596 783.015 176.046C764.105 169.996 754.525 200.296 760.605 213.586Z" fill="#EACDB0"/>
<path id="Vector_12" d="M783.045 184.906L783.435 185.186C785.065 186.426 786.585 187.936 788.555 188.486C791.395 189.276 794.445 187.906 797.245 188.876C800.365 189.956 802.425 193.696 804.705 195.876C805.445 196.586 807.445 198.966 808.575 198.686C810.185 198.296 810.485 194.806 810.245 193.586C809.865 191.666 808.515 190.006 808.295 188.056C808.075 186.106 809.085 184.176 809.815 182.306C810.545 180.436 810.945 178.156 809.715 176.576C809.085 175.766 808.065 175.196 807.855 174.196C807.817 173.546 807.864 172.894 807.995 172.256C808.175 168.866 803.155 166.736 800.545 166.256C797.255 165.606 793.965 167.066 790.675 167.706C787.943 168.233 785.133 168.199 782.415 167.606C779.995 167.076 777.625 166.086 775.145 166.116C771.475 166.116 768.145 168.436 765.975 171.406C762.975 175.616 760.975 182.806 762.065 188.346C761.895 187.486 764.795 184.346 765.385 183.706C766.53 182.167 768.198 181.1 770.075 180.706C774.415 180.206 779.555 182.366 783.045 184.906Z" fill="#3B455A"/>
<path id="Vector_13" d="M627.727 218.323L646.72 218.84L645.301 270.931L626.308 270.414C625.579 270.394 624.888 270.085 624.386 269.555C623.885 269.026 623.614 268.319 623.634 267.59L624.903 220.997C624.923 220.268 625.232 219.577 625.761 219.075C626.291 218.574 626.998 218.303 627.727 218.323Z" fill="#B5B8C4"/>
<path id="Vector_14" d="M719.235 225.336L676.495 224.176L675.325 267.096L719.255 268.286C745.915 247.536 773.125 266.576 773.125 266.576L776.725 261.576C762.095 233.886 719.235 225.336 719.235 225.336Z" fill="#B5B8C4"/>
<path id="Vector_15" d="M710.747 268.118L683.607 267.379L680.187 392.982L707.327 393.721L710.747 268.118Z" fill="#8B8D96"/>
<path id="Vector_16" d="M689.835 539.076C684.533 538.932 679.506 536.689 675.859 532.839C672.211 528.989 670.242 523.848 670.385 518.546L673.615 399.636L680.435 385.046L707.585 385.786L713.585 400.726L710.355 519.626C710.211 524.926 707.968 529.951 704.121 533.599C700.273 537.246 695.134 539.216 689.835 539.076Z" fill="#474EBB"/>
<path id="Vector_17" d="M697.14 522.098C699.201 518.365 697.845 513.669 694.113 511.608C690.38 509.548 685.684 510.903 683.623 514.636C681.563 518.369 682.918 523.065 686.651 525.125C690.384 527.186 695.08 525.83 697.14 522.098Z" fill="#FFBC57"/>
<path id="Vector_18" opacity="0.1" d="M672.485 528.446C676.105 534.696 682.105 538.866 689.015 539.056C700.485 539.366 710.015 532.476 710.495 514.976L713.145 417.306C713.145 417.306 706.695 526.826 672.485 528.446Z" fill="#272525"/>
<path id="Vector_19" d="M672.965 225.996C655.885 234.626 646.775 218.796 646.775 218.796L646.165 241.456V242.106L646.015 247.576V248.226L645.405 270.896C645.405 270.896 655.405 255.576 671.945 265.116L675.365 267.116L675.875 248.396L676.025 242.916L676.535 224.196L672.965 225.996Z" fill="#8B8D96"/>
<path id="Vector_20" opacity="0.1" d="M683.635 267.326L710.495 278.516L710.775 268.056L683.635 267.326Z" fill="#272525"/>
<path id="Vector_21" d="M790.635 200.876C792.775 200.956 795.125 201.126 796.715 202.566C798.305 204.006 798.135 207.136 796.035 207.476C794.135 207.776 791.675 205.796 790.515 207.246C789.845 208.096 790.435 209.326 790.955 210.316C792.92 214.074 793.501 218.403 792.595 222.546C793.375 223.276 794.595 222.546 795.285 221.766C798.684 218.028 801.335 213.672 803.095 208.936C803.795 210.096 804.784 211.054 805.965 211.716C805.255 209.946 805.705 208.006 806.145 206.196C807.755 199.546 808.845 191.766 804.205 186.326C801.54 183.486 797.996 181.626 794.145 181.046C790.337 180.491 786.479 180.371 782.645 180.686C781.015 180.766 778.995 181.116 778.645 182.636C782.235 184.076 785.945 186.876 787.745 190.276C788.255 191.326 790.415 200.866 790.635 200.876Z" fill="#282828"/>
<path id="Vector_22" d="M687.065 311.066C687.295 310.946 687.54 310.858 687.795 310.806C690.115 310.466 691.525 311.676 693.795 311.976C694.795 312.116 696.555 310.066 697.495 312.036C697.845 312.756 698.435 314.656 699.155 316.206C700.215 318.476 702.915 320.706 705.385 322.086C708.73 324.024 712.213 325.715 715.805 327.146C723.554 330.004 731.552 332.14 739.695 333.526C741.163 327.105 744.355 321.207 748.928 316.467C753.501 311.726 759.281 308.324 765.645 306.626C766.956 306.207 768.35 306.117 769.705 306.366C770.83 306.696 771.859 307.293 772.705 308.106C781.845 316.276 773.705 324.596 767.445 331.566C763.498 335.957 759.237 340.055 754.695 343.826C748.375 349.046 741.325 348.566 733.695 346.316C725.565 343.926 717.375 341.316 709.905 337.316C706.275 335.316 703.285 332.816 699.975 330.396C696.665 327.976 695.825 329.596 692.435 328.246C690.535 327.486 688.435 327.076 686.735 325.976C683.635 323.976 683.385 320.216 682.835 316.976C682.646 316.285 682.646 315.557 682.835 314.866C683.337 313.763 684.178 312.849 685.235 312.256C685.804 311.801 686.417 311.402 687.065 311.066V311.066Z" fill="#EACDB0"/>
<path id="Vector_23" d="M738.595 119.826C745.495 121.226 749.975 127.696 748.595 134.266C747.215 140.836 740.525 145.036 733.595 143.626C731.988 143.338 730.454 142.736 729.081 141.853C727.708 140.971 726.523 139.826 725.594 138.484C724.665 137.142 724.01 135.63 723.667 134.035C723.324 132.439 723.299 130.791 723.595 129.186C724.995 122.616 731.695 118.426 738.595 119.826Z" fill="white"/>
<path id="Vector_24" d="M749.225 134.796C747.765 141.796 740.625 146.246 733.305 144.796C725.985 143.346 721.205 136.406 722.655 129.426C724.105 122.446 731.255 117.976 738.575 119.426C745.895 120.876 750.695 127.816 749.225 134.796ZM724.055 129.676C723.775 131.204 723.799 132.771 724.127 134.289C724.454 135.807 725.078 137.246 725.962 138.522C726.847 139.799 727.974 140.888 729.281 141.728C730.587 142.568 732.046 143.141 733.575 143.416C740.135 144.746 746.515 140.756 747.825 134.506C748.105 132.979 748.08 131.411 747.753 129.893C747.425 128.375 746.802 126.936 745.917 125.66C745.033 124.383 743.905 123.294 742.599 122.454C741.292 121.614 739.833 121.041 738.305 120.766C731.745 119.436 725.365 123.426 724.055 129.676Z" fill="#445C6E"/>
<path id="Vector_25" d="M762.805 331.426L745.345 319.496C745.715 319.756 761.775 291.986 762.785 290.366C766.645 284.186 770.695 277.806 776.785 273.796C789.785 265.246 806.725 276.796 801.985 292.196C796.855 308.916 784.905 325.066 770.745 335.256C770.457 335.5 770.114 335.668 769.745 335.746C769.219 335.732 768.714 335.537 768.315 335.196L762.805 331.426Z" fill="#D34E4E"/>
</g>
<g id="GUy2">
<path id="Vector_26" d="M547.745 583.376L545.295 589.736L557.355 600.346L568.405 600.806L571.975 594.976L557.115 582.056L547.745 583.376Z" fill="#262D3A"/>
<path id="Vector_27" d="M545.585 491.176L546.215 529.286C545.955 539.856 546.905 550.396 547.555 560.936C548.145 570.726 546.175 580.816 550.815 589.936C552.275 592.776 555.375 594.756 557.735 591.476C559.555 588.936 558.735 584.556 559.165 581.616C562.535 559.526 568.815 537.976 571.945 515.846C575.235 492.616 566.265 493.226 545.585 491.176Z" fill="#EACDB0"/>
<path id="Vector_28" d="M518.585 491.546L511.635 528.996C509.225 545.756 503.745 562.086 501.335 578.856C500.785 582.706 501.065 586.926 499.455 590.556C497.845 594.186 494.795 594.256 492.065 591.846C488.425 588.616 490.065 582.846 490.175 578.416C490.615 548.996 488.305 519.986 487.745 490.516C487.713 490.326 487.725 490.131 487.778 489.946C487.832 489.761 487.926 489.59 488.055 489.446C488.322 489.276 488.643 489.212 488.955 489.266C491.815 489.486 518.435 492.356 518.585 491.546Z" fill="#EACDB0"/>
<path id="Vector_29" d="M490.085 584.946L486.265 590.586L495.615 603.646L506.275 606.576L511.065 601.706L499.515 585.766L490.085 584.946Z" fill="#262D3A"/>
<path id="Vector_30" d="M584.865 515.426L579.665 460.936L577.155 425.536L568.725 396.616L523.205 389.556L466.925 399.196L464.215 410.136L475.045 511.356L529.335 515.426L528.595 452.426L536.975 491.476L536.615 515.426H584.865Z" fill="#3B455A"/>
<path id="Vector_31" d="M478.865 290.166C478.795 292.006 478.745 293.836 478.705 295.676C478.045 333.046 480.115 370.896 480.345 408.586C499.654 405.556 519.152 403.885 538.695 403.586C543.215 403.516 563.765 406.686 566.625 403.986C570.515 400.326 566.245 400.986 566.525 396.246C566.895 390.066 563.925 385.016 565.045 377.696C566.365 369.096 568.985 360.586 570.495 351.986C573.526 334.741 575.343 317.305 575.935 299.806C576.455 284.286 575.935 268.196 569.225 254.176C552.765 219.606 499.715 220.226 485.155 256.326C480.845 266.996 479.345 278.606 478.865 290.166Z" fill="white"/>
<path id="Vector_32" d="M584.755 216.206C591.275 209.596 594.685 202.006 598.295 192.386C600.975 185.226 603.375 177.956 605.745 170.686C607.393 166.158 608.625 161.488 609.425 156.736C610.005 152.606 613.045 147.166 609.805 143.406C610.058 143.031 610.39 142.715 610.778 142.481C611.165 142.247 611.599 142.1 612.049 142.051C612.499 142.002 612.955 142.051 613.384 142.195C613.813 142.339 614.206 142.575 614.535 142.886C614.709 143.12 614.931 143.314 615.185 143.456C615.426 143.51 615.677 143.492 615.908 143.405C616.139 143.318 616.339 143.165 616.485 142.966C617.485 141.906 617.765 140.406 618.245 139.036C619.005 136.836 620.245 133.276 622.185 131.866C623.802 130.824 625.599 130.091 627.485 129.706C627.631 129.629 627.792 129.583 627.958 129.57C628.123 129.558 628.289 129.579 628.446 129.634C628.602 129.688 628.746 129.774 628.868 129.886C628.99 129.998 629.088 130.135 629.155 130.286C630.834 132.524 632.377 134.862 633.775 137.286C631.065 139.036 630.265 142.026 628.515 144.576C626.225 147.936 623.625 150.486 622.795 154.656C621.515 161.146 620.735 167.716 619.365 174.196C616.695 186.866 613.235 199.326 609.865 211.816C607.595 220.086 605.285 228.546 600.865 235.966C596.445 243.386 591.105 247.316 583.985 251.966C582.418 253.144 580.629 253.991 578.725 254.456C575.795 254.966 572.815 253.606 570.595 251.636C567.731 248.942 565.913 245.323 565.461 241.417C565.009 237.512 565.952 233.573 568.125 230.296C570.555 226.856 574.215 224.526 577.665 222.126C580.207 220.377 582.58 218.395 584.755 216.206Z" fill="#EACDB0"/>
<path id="Vector_33" d="M538.695 241.666L524.285 267.926L526.545 347.506L527.545 384.186C527.665 388.426 527.775 392.676 527.905 396.916C527.965 398.826 527.445 402.026 528.525 403.586C530.885 406.956 539.525 405.906 543.275 406.206C549.135 406.666 555.085 407.146 560.615 409.206C564.295 410.556 567.775 412.586 571.615 413.136C572.045 413.241 572.491 413.258 572.928 413.186C573.364 413.114 573.782 412.954 574.155 412.716C574.494 412.358 574.757 411.935 574.929 411.473C575.1 411.011 575.177 410.519 575.155 410.026C576.505 391.806 576.535 373.026 577.545 354.626C578.375 339.566 580.485 323.626 579.175 308.566C579.175 308.319 579.145 308.069 579.085 307.816C577.745 300.556 579.085 276.596 579.085 276.596C579.085 275.596 582.585 272.976 583.255 272.286L593.535 261.666C600.375 254.606 613.535 245.876 608.275 234.446C607.617 233.069 606.746 231.803 605.695 230.696C597.945 222.396 588.045 217.696 582.495 207.516C572.785 212.306 564.875 221.766 554.545 225.706C549.257 227.864 543.435 228.346 537.865 227.086C534.555 226.276 527.445 223.696 529.225 230.236C530.235 233.996 536.205 238.656 538.695 241.666Z" fill="#7FC5A3"/>
<path id="Vector_34" d="M507.385 244.136L521.795 270.396C521.495 270.396 519.965 334.766 519.795 339.106L518.385 388.676C518.255 393.266 518.875 398.676 517.975 403.166C516.725 409.466 510.085 408.226 504.435 408.736C492.065 409.856 479.045 411.966 466.645 411.336C463.065 411.156 467.775 336.506 467.765 329.536C467.765 304.486 462.575 276.686 475.305 253.966C479.005 247.356 485.535 236.756 492.735 233.486C499.455 230.486 509.065 229.926 516.355 228.226L516.735 232.946L507.385 244.136Z" fill="#7FC5A3"/>
<path id="Vector_35" d="M538.695 180.536C540.908 184.565 542.131 189.062 542.265 193.656C542.315 194.876 542.395 196.276 543.385 196.996C544.375 197.716 543.505 199.446 544.305 198.426C545.105 197.406 547.825 193.826 547.955 192.526C548.245 189.486 548.245 186.426 547.955 183.386C547.705 180.746 547.165 177.976 545.435 175.966C544.342 174.83 543.08 173.869 541.695 173.116C539.807 171.825 537.704 170.88 535.485 170.326C531.615 169.606 529.235 170.996 532.655 173.696C535.096 175.559 537.148 177.883 538.695 180.536V180.536Z" fill="#3B455A"/>
<path id="Vector_36" d="M514.495 232.406C514.495 234.276 514.135 236.216 515.785 237.666C516.627 238.315 517.636 238.71 518.695 238.806C521.403 239.234 524.173 239.039 526.795 238.236C527.904 237.961 528.932 237.426 529.795 236.676C530.183 236.287 530.48 235.815 530.661 235.296C530.843 234.776 530.906 234.223 530.845 233.676C530.905 232.266 531.185 230.836 531.375 229.406C531.775 226.276 531.955 223.126 532.045 219.966C536.685 219.176 542.135 217.676 543.715 212.826C544.137 211.256 544.316 209.63 544.245 208.006L544.395 187.826C544.546 185.505 544.282 183.175 543.615 180.946C542.225 177.156 538.615 174.896 535.185 173.476C526.295 169.846 515.935 169.996 507.735 175.156C505.443 176.478 503.544 178.387 502.235 180.686C500.295 184.376 500.535 188.946 500.835 193.206L501.675 205.016C501.995 209.536 502.675 214.746 506.185 217.136C508.055 218.406 510.465 218.636 512.075 220.286C514.885 223.146 513.545 227.436 514.375 230.906C514.465 231.401 514.505 231.903 514.495 232.406V232.406Z" fill="#EACDB0"/>
<path id="Vector_37" d="M545.835 205.316C545.765 204.076 545.215 200.416 543.335 202.716C542.881 203.387 542.657 204.187 542.695 204.996C542.726 205.797 542.645 206.598 542.455 207.376C541.875 209.096 539.965 209.886 538.255 209.856C537.559 209.876 536.869 209.714 536.255 209.386C535.693 209.008 535.2 208.538 534.795 207.996L531.515 204.236C529.635 202.076 525.905 203.006 523.375 203.336C520.391 203.617 517.542 204.717 515.145 206.516L514.435 207.126C513.885 207.637 513.274 208.077 512.615 208.436C510.365 209.536 507.615 208.386 505.995 206.336C505.265 205.396 504.595 204.176 503.465 204.026C503.009 204.007 502.558 204.123 502.168 204.36C501.779 204.596 501.468 204.943 501.275 205.356C500.867 206.219 500.652 207.161 500.645 208.116C500.355 211.591 500.961 215.082 502.405 218.256C505.675 224.936 511.985 225.756 518.335 225.606L525.855 225.426C530.435 225.316 535.285 225.126 539.145 222.426C542.555 220.076 544.585 216.076 545.415 211.886C545.827 209.722 545.968 207.515 545.835 205.316ZM529.065 214.796C527.927 215.535 526.633 216.001 525.285 216.157C523.937 216.313 522.572 216.155 521.295 215.696C520.145 215.346 520.635 213.426 521.775 213.776C522.814 214.166 523.93 214.306 525.033 214.184C526.136 214.063 527.196 213.683 528.125 213.076C529.135 212.396 530.065 214.116 529.065 214.796Z" fill="#3B455A"/>
<path id="Vector_38" d="M546.795 168.876C547.245 167.235 547.579 165.564 547.795 163.876C546.233 164.424 544.558 164.568 542.925 164.296V161.396C542.925 160.586 532.035 160.026 531.155 159.956C522.875 159.276 515.305 158.626 507.825 163.066C501.425 166.866 497.325 172.536 496.345 179.906C495.405 186.956 497.715 196.156 501.795 202.006C501.795 200.136 500.685 195.706 501.135 193.926C501.416 192.138 502.004 190.413 502.875 188.826C504.62 185.646 507.159 182.973 510.245 181.066C515.181 178.145 520.677 176.295 526.375 175.636C531.535 174.916 537.825 174.256 542.925 175.636C545.375 176.296 545.785 176.916 547.265 174.436C548.11 172.647 548.825 170.798 549.405 168.906L546.795 168.876Z" fill="#3B455A"/>
<path id="Vector_39" d="M419.215 62.1062L422.305 88.3262C422.416 89.404 422.309 90.4931 421.99 91.5287C421.672 92.5643 421.148 93.5251 420.45 94.3538C419.751 95.1825 418.894 95.8621 417.927 96.3522C416.961 96.8423 415.906 97.1327 414.825 97.2062V97.2062C412.621 97.4466 410.41 96.8219 408.659 95.4637C406.907 94.1056 405.751 92.1201 405.435 89.9262L402.335 63.6962C402.226 62.6181 402.336 61.5292 402.656 60.4942C402.977 59.4592 403.502 58.4991 404.2 57.6708C404.899 56.8426 405.757 56.1631 406.723 55.6728C407.689 55.1824 408.744 54.8911 409.825 54.8162C412.03 54.576 414.242 55.2021 415.994 56.5623C417.746 57.9225 418.901 59.9104 419.215 62.1062Z" fill="#91979B"/>
<path id="Vector_40" d="M422.355 79.9961C415.808 82.7161 409.285 85.4961 402.785 88.3361C402.43 88.5069 402.154 88.8072 402.014 89.1752C401.873 89.5432 401.879 89.951 402.03 90.3147C402.182 90.6784 402.466 90.9704 402.826 91.1306C403.186 91.2908 403.593 91.3071 403.965 91.1761C410.465 88.3294 416.988 85.5494 423.535 82.8361C423.89 82.6653 424.166 82.3651 424.306 81.997C424.446 81.629 424.44 81.2213 424.289 80.8576C424.138 80.4939 423.853 80.2019 423.493 80.0416C423.134 79.8814 422.726 79.8651 422.355 79.9961V79.9961Z" fill="#445C6E"/>
<path id="Vector_41" d="M421.235 70.4461C414.675 73.1661 408.151 75.9461 401.665 78.7861C401.31 78.9569 401.034 79.2571 400.894 79.6251C400.753 79.9932 400.759 80.4009 400.91 80.7646C401.062 81.1283 401.346 81.4203 401.706 81.5805C402.066 81.7408 402.473 81.7571 402.845 81.6261C409.345 78.7794 415.868 75.9994 422.415 73.2861C422.77 73.1153 423.046 72.815 423.186 72.447C423.326 72.079 423.32 71.6712 423.169 71.3075C423.018 70.9438 422.733 70.6518 422.374 70.4916C422.014 70.3314 421.606 70.3151 421.235 70.4461Z" fill="#445C6E"/>
<path id="Vector_42" d="M419.265 62.2261C412.711 64.9461 406.188 67.7261 399.695 70.5661C399.34 70.7369 399.064 71.0372 398.924 71.4052C398.783 71.7732 398.789 72.181 398.941 72.5447C399.092 72.9084 399.376 73.2003 399.736 73.3606C400.096 73.5208 400.503 73.5371 400.875 73.4061C407.375 70.5528 413.898 67.7728 420.445 65.0661C420.8 64.8953 421.076 64.595 421.216 64.227C421.356 63.859 421.35 63.4513 421.199 63.0875C421.048 62.7238 420.763 62.4319 420.403 62.2716C420.044 62.1114 419.636 62.0951 419.265 62.2261V62.2261Z" fill="#445C6E"/>
<path id="Vector_43" d="M414.215 55.8562C410.345 56.9462 406.485 58.0762 402.655 59.2762C399.825 60.1662 395.195 60.7562 393.215 63.2762C391.235 65.7962 391.825 69.9762 391.815 72.8562C391.796 76.8449 392.043 80.8304 392.555 84.7862C393.021 88.3281 393.688 91.8405 394.555 95.3062C395.225 98.0162 396.015 100.666 398.985 101.436C405.445 103.086 413.495 98.9862 419.235 96.4362C422.645 94.8962 420.595 89.3762 417.155 90.9262C412.385 93.0862 407.645 95.1462 402.415 95.7162C400.415 95.9362 400.645 95.7862 400.145 93.8362C399.765 92.3762 399.445 90.8962 399.145 89.4062C398.645 86.7995 398.265 84.1729 398.005 81.5262C397.735 78.8862 397.595 76.2262 397.565 73.5262C397.507 72.015 397.551 70.5016 397.695 68.9962C397.975 66.9962 398.085 67.1862 399.635 66.4062C401.935 65.2562 404.865 64.7262 407.305 63.9762C410.305 63.0662 413.305 62.1962 416.305 61.3462C419.895 60.3562 417.805 54.8462 414.215 55.8562Z" fill="#AFBCC6"/>
<path id="Vector_44" d="M428.495 53.6061C425.585 54.0161 422.805 54.8261 419.885 55.2161C419.425 55.2161 418.975 55.3061 418.525 55.3661C414.645 55.8461 414.965 61.6461 418.955 61.3661C419.955 61.2861 420.955 61.1761 422.025 61.0461C424.485 60.9161 426.885 61.3061 427.975 63.8161C429.405 67.1161 429.745 71.1861 429.975 74.7261C430.212 78.4616 429.997 82.2122 429.335 85.8961C428.945 88.0761 429.245 88.3861 427.105 89.0161C425.205 89.5861 423.285 90.1361 421.375 90.6861C420.986 90.7823 420.624 90.9637 420.314 91.2171C420.004 91.4705 419.754 91.7897 419.583 92.1515C419.412 92.5133 419.323 92.9087 419.323 93.309C419.324 93.7093 419.413 94.1046 419.585 94.4661C419.536 94.8199 419.559 95.1798 419.653 95.5244C419.747 95.8689 419.909 96.191 420.131 96.4712C420.352 96.7514 420.628 96.9839 420.941 97.1549C421.255 97.3259 421.599 97.4318 421.955 97.4661C427.225 98.3161 433.955 98.4661 436.735 93.0761C438.165 90.3061 437.525 86.7461 437.425 83.7561C437.318 80.1761 437.201 76.5961 437.075 73.0161C436.915 67.9561 438.255 59.9561 434.625 55.7061C433.88 54.8448 432.921 54.1965 431.844 53.8275C430.767 53.4586 429.611 53.3822 428.495 53.6061Z" fill="#AFBCC6"/>
<path id="Vector_45" d="M384.975 92.3562C377.125 94.8462 369.225 96.7162 361.145 98.4662C355.816 99.7674 350.421 100.785 344.985 101.516C339.565 102.106 334.115 102.516 328.715 103.316C324.715 103.886 311.525 104.626 311.415 110.066C311.345 113.356 315.785 115.396 318.415 116.586C322.255 118.356 326.245 120.106 330.165 121.586C341.972 126.081 354.288 129.104 366.835 130.586C376.755 131.766 386.915 131.956 396.615 129.936C397.725 129.706 398.835 129.446 399.945 129.146C400.415 129.07 400.853 128.858 401.205 128.536C401.39 128.253 401.513 127.933 401.565 127.599C401.617 127.264 401.596 126.922 401.505 126.596C400.001 115.693 397.8 104.898 394.915 94.2762C394.692 92.8585 393.985 91.5617 392.915 90.6062C390.985 89.2962 386.885 91.7462 384.975 92.3562Z" fill="#AFBCC6"/>
<path id="Vector_46" d="M427.695 54.8061C428.065 54.6983 428.455 54.6738 428.836 54.7341C429.217 54.7944 429.58 54.9381 429.899 55.1549C430.218 55.3718 430.485 55.6564 430.682 55.9885C430.878 56.3206 430.999 56.692 431.035 57.0761L434.405 87.4761C434.482 88.1322 434.324 88.7945 433.957 89.3442C433.591 89.894 433.04 90.2952 432.405 90.4761L419.535 93.9961L422.855 122.836C422.965 122.346 426.635 120.706 427.675 119.666C429.447 117.933 431.469 116.477 433.675 115.346C448.595 107.026 464.985 99.3461 482.885 102.866C511.655 108.536 540.335 114.926 568.975 121.236C597.975 127.626 626.975 134.326 655.855 141.636L657.585 142.076C671.845 145.706 686.075 149.486 700.315 153.226C707.715 155.166 715.122 157.089 722.535 158.996C730.535 160.996 736.395 164.226 743.325 158.246C749.612 152.605 754.128 145.262 756.325 137.106C757.925 130.789 757.925 124.173 756.325 117.856C754.645 110.966 753.325 102.046 744.625 100.856C740.805 100.336 737.015 99.856 733.225 99.036C676.065 89.546 618.225 80.5161 561.085 69.5561L548.935 67.2361C533.935 64.4061 508.585 58.696 493.695 55.396C464.695 48.966 456.555 38.4461 434.965 24.7061C426.245 19.1661 417.755 13.2861 409.435 7.20605L415.325 58.426L427.695 54.8061Z" fill="#CCD2D9"/>
<path id="Vector_47" d="M361.695 2.2061C344.115 6.2861 313.695 42.6161 305.295 51.3561C296.895 60.0961 307.555 65.0661 307.555 65.0661C309.555 64.5161 311.555 63.9961 313.555 63.4861C318.995 62.0861 324.458 60.7528 329.945 59.4861C333.945 58.5661 337.945 57.6861 341.995 56.8161C343.995 56.3861 345.995 55.9461 347.995 55.5361C349.605 55.2061 351.295 55.3461 352.995 55.1461C354.845 54.9261 356.695 54.7061 358.555 54.6361C362.257 54.4331 365.969 54.811 369.555 55.7561C370.755 56.1161 372.995 57.4461 373.135 58.8861C373.135 59.0561 380.915 138.056 380.915 138.056C380.944 138.277 381.024 138.489 381.148 138.675C381.272 138.861 381.437 139.016 381.63 139.128C381.823 139.24 382.039 139.306 382.262 139.321C382.485 139.337 382.708 139.301 382.915 139.216L422.795 122.836C422.795 122.836 420.315 122.276 418.425 117.296C417.168 113.878 416.165 110.372 415.425 106.806C414.625 103.106 414.025 99.3761 413.425 95.6461L402.755 98.6461C401.982 98.8558 401.171 98.8902 400.383 98.7468C399.595 98.6034 398.849 98.2859 398.199 97.8172C397.549 97.3486 397.013 96.7408 396.628 96.0382C396.243 95.3356 396.02 94.5559 395.975 93.7561L393.975 67.1461C393.924 66.5158 394.089 65.8871 394.444 65.3635C394.798 64.8399 395.321 64.4528 395.925 64.2661L408.245 60.5961C405.954 41.6399 404.649 22.5776 404.335 3.4861C406.025 4.7561 407.735 6.0061 409.445 7.2561L409.175 4.9561C399.325 0.1061 379.265 -1.8839 361.695 2.2061Z" fill="#CCD2D9"/>
<path id="Vector_48" d="M413.555 95.6661C414.125 99.3961 414.725 103.126 415.555 106.826C416.295 110.392 417.298 113.898 418.555 117.316C420.445 122.316 422.925 122.856 422.925 122.856L419.535 93.9961L413.555 95.6661Z" fill="white"/>
<path id="Vector_49" d="M408.355 60.5661L415.445 58.4461L409.555 7.22606C407.845 5.97606 406.135 4.72605 404.445 3.45605C404.759 22.5476 406.064 41.6099 408.355 60.5661V60.5661Z" fill="white"/>
<path id="Vector_50" d="M565.295 122.646L566.875 122.986C597.875 129.806 628.705 136.936 659.415 144.726L661.255 145.196C676.455 149.056 691.605 153.086 706.775 157.066C714.655 159.133 722.545 161.179 730.445 163.206C738.935 165.376 745.205 168.786 752.585 162.416C759.295 156.41 764.119 148.588 766.475 139.896C768.185 133.166 768.185 126.116 766.475 119.386C764.695 112.046 763.305 102.546 754.025 101.286C749.945 100.726 745.915 100.166 741.875 99.346C687.615 90.346 630.345 81.196 575.985 71.166L565.295 122.646Z" fill="#EBB044"/>
<path id="Vector_51" opacity="0.08" d="M559.755 103.916L563.025 88.2362C563.157 87.5189 563.147 86.7825 562.994 86.0694C562.84 85.3562 562.548 84.6804 562.132 84.0809C561.717 83.4814 561.187 82.97 560.573 82.5762C559.959 82.1823 559.273 81.9138 558.555 81.7862C538.845 77.7862 473.385 64.3062 468.245 61.1862C463.695 58.4262 459.035 55.8462 454.395 53.2462C451.735 51.7562 441.665 44.0562 438.845 44.4562C432.515 45.3562 437.165 61.4562 437.615 65.4562C438.525 73.4562 439.535 81.4562 440.615 89.4562C440.712 90.052 440.942 90.6184 441.286 91.1143C441.63 91.6103 442.081 92.0232 442.605 92.323C443.129 92.6229 443.713 92.8021 444.315 92.8476C444.917 92.8931 445.522 92.8038 446.085 92.5862C451.455 90.5862 460.515 87.9162 468.785 89.0962C479.435 90.6262 534.785 103.736 552.895 108.046C553.617 108.233 554.368 108.273 555.106 108.166C555.844 108.059 556.553 107.805 557.191 107.421C557.83 107.036 558.386 106.528 558.826 105.926C559.266 105.325 559.582 104.641 559.755 103.916Z" fill="white"/>
<path id="Vector_52" d="M459.975 223.816C461.846 221.887 463.067 219.421 463.467 216.764C463.867 214.106 463.426 211.39 462.205 208.996L448.585 182.066C446.045 177.066 441.585 171.176 440.915 165.686C439.675 155.996 441.915 144.596 442.775 134.906C443.235 129.986 442.775 123.146 444.865 118.616C445.245 117.766 450.995 111.266 450.865 111.066L449.655 109.246L447.855 110.456L446.345 110.156L450.445 105.206L444.525 100.866L436.615 104.006C436.195 109.326 437.135 114.876 435.445 120.006C434.735 122.176 433.665 124.216 432.765 126.326C431.225 129.936 430.185 133.736 428.985 137.466C427.785 141.196 425.985 144.466 424.865 148.056C422.435 156.056 420.065 164.056 417.665 172.006L438.545 219.846C439.404 221.819 440.734 223.55 442.418 224.889C444.103 226.227 446.09 227.132 448.205 227.524C450.321 227.916 452.5 227.783 454.552 227.137C456.604 226.49 458.466 225.35 459.975 223.816V223.816Z" fill="#EACDB0"/>
<path id="Vector_53" d="M494.615 230.646C485.961 225.563 478.56 218.601 472.955 210.276C472.805 209.966 472.665 209.656 472.525 209.346C471.995 208.176 466.105 195.346 465.935 195.346L465.495 195.546L464.215 196.196H464.035C461.035 196.196 456.035 199.796 453.265 201.046L431.115 210.996C430.566 211.195 430.081 211.541 429.715 211.996C429.367 212.601 429.25 213.312 429.385 213.996L427.385 214.996C428.342 216.348 429.22 217.753 430.015 219.206C430.855 224.836 432.275 230.396 435.705 234.886L436.345 235.656C438.125 241.656 439.795 247.656 442.345 253.276C449.185 268.406 462.175 280.146 468.695 295.416C474.005 293.866 477.695 289.106 480.495 284.366C486.025 275.026 489.715 264.736 493.355 254.506C495.215 249.32 497.068 244.123 498.915 238.916C499.303 238.029 499.51 237.074 499.525 236.106C499.405 233.536 496.825 231.936 494.615 230.646Z" fill="#7FC5A3"/>
</g>
<path id="Vector_54" d="M5.32476 215.376L0.384766 212.556L10.0148 206.956L14.8848 209.816L5.32476 215.376Z" fill="#B5B8C4"/>
<g id="Guy4">
<path id="Vector_55" d="M66.6948 257.156C66.9469 257.121 67.2027 257.121 67.4548 257.156C69.6548 257.766 70.4548 259.406 72.3948 260.596C73.2648 261.126 75.6248 259.986 75.6848 262.116C75.6848 262.906 75.4848 264.836 75.5148 266.506C75.5648 268.946 77.0948 272.016 78.7548 274.226C80.9809 277.281 83.4239 280.172 86.0648 282.876C91.8425 288.486 98.1259 293.551 104.835 298.006C108.691 292.853 113.88 288.848 119.843 286.424C125.805 283.999 132.316 283.246 138.675 284.246C140.015 284.388 141.3 284.858 142.415 285.616C143.292 286.355 143.978 287.295 144.415 288.356C149.345 299.276 138.785 303.486 130.415 307.236C125.173 309.611 119.761 311.593 114.225 313.166C106.505 315.336 100.385 312.116 94.4248 307.066C88.1048 301.706 81.7948 296.166 76.7348 289.566C74.2848 286.356 72.6048 282.916 70.6048 279.446C68.6048 275.976 67.2148 277.096 64.7148 274.536C63.3148 273.106 61.6248 271.916 60.5148 270.256C58.5148 267.256 59.8048 263.776 60.6148 260.626C60.7175 259.934 61.008 259.284 61.4548 258.746C62.3422 257.961 63.4555 257.478 64.6348 257.366C65.313 257.229 66.0029 257.158 66.6948 257.156Z" fill="#EAC1A4"/>
<path id="Vector_56" d="M128.335 314.526C124.135 315.906 119.955 317.086 115.885 318.066C109.815 319.526 103.165 320.936 97.5548 318.206C95.4205 317.073 93.4493 315.657 91.6948 313.996C83.1748 306.429 74.8415 298.663 66.6948 290.696C69.7458 285.524 73.5586 280.842 78.0048 276.806C79.2448 275.676 80.6748 274.546 82.3548 274.486C84.8548 274.386 86.7548 276.606 88.2348 278.616L95.4948 288.426C96.2748 289.486 97.1948 290.626 98.4948 290.856C99.3562 290.94 100.224 290.798 101.015 290.446C116.395 285.056 128.125 277.576 141.515 268.506C147.415 264.506 153.515 260.406 160.595 259.236C175.595 256.746 186.175 273.776 175.845 285.666C164.015 299.226 145.995 308.696 128.335 314.526Z" fill="#474EBB"/>
<path id="Vector_57" d="M198.755 592.286L198.525 599.556L183.745 606.356L176.715 598.856L184.215 591.816L198.995 585.016L198.755 592.286Z" fill="#3B455A"/>
<path id="Vector_58" d="M228.705 373.586L227.985 395.666L195.455 490.386L199.595 589.976L185.075 592.386L155.575 470.676L157.855 434.986L173.805 362.556L228.705 373.586Z" fill="#3B455A"/>
<path id="Vector_59" d="M136.755 377.116L118.295 468.106L113.045 588.966L126.255 591.486L155.305 484.586L194.095 379.546L136.755 377.116Z" fill="#3B455A"/>
<path id="Vector_60" d="M126.475 589.896L125.115 597.036L109.465 601.456L103.685 592.946L112.195 587.166L126.475 589.896Z" fill="#3B455A"/>
<path id="Vector_61" d="M240.335 386.386C240.515 394.856 240.255 406.276 236.995 406.686C236.382 406.701 235.78 406.523 235.275 406.176C229.645 403.106 225.665 398.776 220.115 395.816C214.305 392.706 207.655 391.046 201.115 389.896C191.328 388.069 181.408 387.042 171.455 386.826C163.645 386.696 155.795 387.356 148.015 388.006C141.545 388.546 135.525 390.466 128.935 390.006C122.142 389.547 115.559 387.458 109.745 383.916C109.517 383.809 109.33 383.63 109.215 383.406C109.156 383.14 109.187 382.862 109.305 382.616C110.685 378.836 111.685 375.086 114.185 371.956C116.985 368.456 118.975 364.016 120.995 360.036C125.337 351.711 129.06 343.078 132.135 334.206C136.585 322.206 141.675 310.486 145.975 298.426C148.975 290.076 151.685 281.566 155.725 273.646C158.895 267.446 164.545 258.386 171.355 255.646C173.712 254.856 176.19 254.49 178.675 254.566L201.255 253.916C204.005 253.836 206.855 253.776 209.355 254.916C213.105 256.616 215.225 260.546 217.075 264.216C225.269 280.773 230.875 298.489 233.695 316.746C235.235 326.306 236.695 335.886 237.785 345.506C239.035 356.236 239.885 367.006 240.065 377.806C240.055 378.996 240.245 382.366 240.335 386.386Z" fill="#474EBB"/>
<path id="Vector_62" d="M190.115 295.556C189.985 299.833 190.297 304.113 191.045 308.326C194.745 334.099 198.441 359.873 202.135 385.646L141.515 385.126L143.705 356.126C144.033 349.922 144.785 343.748 145.955 337.646C148.065 327.846 152.295 318.646 156.495 309.486L179.775 258.836C180.125 257.902 180.674 257.056 181.385 256.356C182.379 255.65 183.541 255.219 184.755 255.106C190.525 254.106 197.045 253.256 202.855 254.106C204.305 259.386 198.955 268.576 196.965 273.496C194.085 280.666 190.635 287.766 190.115 295.556Z" fill="white"/>
<path id="Vector_63" d="M186.385 258.796L198.955 258.246C199.174 254.915 199.134 251.571 198.835 248.246C198.835 248.656 205.575 245.126 206.165 244.316C207.875 242.016 208.065 238.136 208.775 235.386C210.295 229.546 211.715 222.956 208.625 217.766C205.425 212.396 198.495 210.556 192.245 210.386C184.395 210.186 175.625 212.476 171.585 219.206C167.945 225.296 172.585 234.266 173.855 240.706C174.505 243.876 175.495 247.496 178.435 248.836C180.005 249.546 181.905 249.476 183.305 250.476C185.765 252.226 185.205 255.996 186.385 258.796Z" fill="#EACDB0"/>
<path id="Vector_64" d="M159.215 207.556C158.741 203.216 158.275 198.883 157.815 194.556C157.528 192.955 157.59 191.311 157.995 189.736C158.865 187.176 161.455 185.586 164.055 184.886C166.655 184.186 169.395 184.146 172.055 183.576C174.865 182.956 177.595 181.696 180.475 181.826C185.935 182.066 190.125 187.136 195.525 188.006C203.005 189.196 209.885 185.766 214.395 194.576C215.225 196.196 215.455 198.056 216.195 199.726C217.135 201.876 218.855 203.566 220.195 205.496C226.105 213.956 224.195 226.806 217.025 233.986C213.545 237.466 212.125 240.606 207.335 241.726C209.525 237.266 206.635 219.506 200.625 217.506C199.035 216.986 194.255 218.926 192.495 219.186C188.606 219.614 184.786 220.528 181.125 221.906C175.632 224.232 169.808 225.68 163.865 226.196C163.511 226.322 163.131 226.355 162.762 226.291C162.392 226.227 162.045 226.068 161.754 225.831C161.464 225.594 161.239 225.285 161.103 224.936C160.966 224.586 160.922 224.207 160.975 223.836C160.388 218.403 159.801 212.976 159.215 207.556Z" fill="#3B455A"/>
<path id="Vector_65" d="M176.785 207.076C183.875 206.716 190.985 206.356 198.145 207.076C205.455 207.816 212.725 209.676 219.965 211.526L229.205 213.896C229.255 213.896 229.205 206.606 229.145 206.136C228.935 204.336 228.145 203.586 227.195 202.226C226.245 200.866 226.365 200.676 226.195 198.986C225.895 195.286 224.475 191.526 223.195 187.986C221.375 183.036 219.325 178.086 216.275 173.836C206.595 160.356 190.415 160.836 176.115 167.116C163.355 172.726 158.815 183.206 157.715 196.286C157.698 196.926 157.562 197.556 157.315 198.146C156.065 200.636 154.895 199.986 155.045 203.446C155.426 206.235 155.954 209.002 156.625 211.736C158.512 210.702 160.486 209.836 162.525 209.146C164.016 208.59 165.556 208.175 167.125 207.906C170.324 207.423 173.55 207.145 176.785 207.076V207.076Z" fill="#EBB044"/>
<path id="Vector_66" d="M122.181 255.402L115.17 251.386L97.1593 282.834L104.171 286.85L122.181 255.402Z" fill="#8B8D96"/>
<path id="Vector_67" d="M105.475 252.126L100.215 261.316L98.1748 264.876L92.9048 274.076L97.1848 282.826L105.175 268.886L107.215 265.326L115.195 251.386L105.475 252.126Z" fill="#B5B8C4"/>
<path id="Vector_68" d="M237.395 305.926L143.905 252.396L123.775 252.666L115.165 267.666L111.245 274.506L102.635 289.506L112.295 313.506C115.26 320.892 120.545 327.115 127.355 331.236L154.805 347.996C156.711 349.15 158.224 350.853 159.145 352.882C160.065 354.911 160.351 357.172 159.965 359.366L149.845 416.846C149.302 419.895 149.716 423.037 151.031 425.84C152.345 428.644 154.495 430.973 157.185 432.506L165.835 437.506C167.932 438.716 170.292 439.401 172.711 439.501C175.131 439.601 177.538 439.114 179.729 438.081C181.919 437.048 183.827 435.501 185.289 433.57C186.751 431.64 187.724 429.384 188.125 426.996L196.335 380.376C196.469 379.654 196.756 378.97 197.177 378.369C197.597 377.767 198.142 377.263 198.774 376.89C199.406 376.516 200.11 376.283 200.84 376.204C201.57 376.126 202.308 376.205 203.005 376.436C208.495 378.156 217.005 378.436 223.235 367.506L231.055 353.846L235.665 345.846L237.615 342.426L239.615 339.006L244.215 331.006C245.424 328.914 246.207 326.603 246.519 324.207C246.831 321.811 246.665 319.377 246.03 317.045C245.396 314.713 244.307 312.53 242.825 310.622C241.342 308.713 239.497 307.117 237.395 305.926V305.926Z" fill="#D34E4E"/>
<path id="Vector_69" d="M88.1293 263.507L96.2949 268.184L101.946 258.317L93.7799 253.641L88.1293 263.507Z" fill="#8B8D96"/>
<path id="Vector_70" d="M1.45051 211.859L65.6738 248.64L69.3465 242.227L5.12314 205.446L1.45051 211.859Z" fill="#8B8D96"/>
<path id="Vector_71" opacity="0.1" d="M2.40299 210.186L1.42395 211.896L64.2068 247.852L65.1858 246.142L2.40299 210.186Z" fill="#272525"/>
<path id="Vector_72" opacity="0.1" d="M89.4343 261.223L88.0875 263.575L96.1577 268.197L97.5045 265.845L89.4343 261.223Z" fill="#272525"/>
<path id="Vector_73" d="M15.0548 220.956L10.1248 218.126L19.7448 212.526L24.6148 215.386L15.0548 220.956Z" fill="#B5B8C4"/>
<path id="Vector_74" d="M24.7847 226.526L19.8547 223.706L29.4847 218.106L34.3547 220.956L24.7847 226.526Z" fill="#B5B8C4"/>
<path id="Vector_75" d="M34.5247 232.106L29.5947 229.276L39.2147 223.676L44.0847 226.536L34.5247 232.106Z" fill="#B5B8C4"/>
<path id="Vector_76" d="M44.2547 237.676L39.3247 234.856L48.9547 229.246L53.8247 232.106L44.2547 237.676Z" fill="#B5B8C4"/>
<path id="Vector_77" d="M53.9947 243.246L49.0647 240.426L58.6847 234.826L63.5547 237.686L53.9947 243.246Z" fill="#B5B8C4"/>
<path id="Vector_78" d="M63.7248 248.826L58.7948 245.996L68.4148 240.396L73.2948 243.256L63.7248 248.826Z" fill="#B5B8C4"/>
<path id="Vector_79" d="M96.8783 248.167L79.1151 237.994L66.9591 259.22L84.7223 269.393L96.8783 248.167Z" fill="#B5B8C4"/>
<path id="Vector_80" d="M70.3047 237.196L66.7447 243.406L65.3647 245.806L61.8147 252.016L66.9747 259.226L72.3747 249.816L73.7447 247.416L79.1347 237.996L70.3047 237.196Z" fill="#8B8D96"/>
<path id="Vector_81" d="M168.295 417.616L174.575 382.086C175.129 378.973 174.707 375.766 173.368 372.902C172.03 370.038 169.838 367.657 167.095 366.086L159.535 361.756L150.135 415.136L160.675 421.136C161.387 421.547 162.188 421.78 163.009 421.817C163.831 421.854 164.649 421.693 165.396 421.348C166.142 421.003 166.795 420.485 167.3 419.835C167.804 419.186 168.145 418.425 168.295 417.616V417.616Z" fill="#4B4B4B"/>
<path id="Vector_82" d="M140.82 266.061L138.26 264.595L122.968 291.296L125.528 292.762L140.82 266.061Z" fill="#4B4B4B"/>
<path id="Vector_83" d="M146.952 269.591L144.393 268.125L129.101 294.826L131.661 296.292L146.952 269.591Z" fill="#4B4B4B"/>
<path id="Vector_84" d="M227.991 315.994L195.294 297.268C194.412 296.763 193.288 297.069 192.783 297.95L190.303 302.281C189.798 303.162 190.103 304.287 190.985 304.792L223.682 323.518C224.564 324.023 225.688 323.717 226.193 322.835L228.673 318.505C229.178 317.623 228.873 316.499 227.991 315.994Z" fill="white"/>
<path id="Vector_85" d="M226.255 330.276C226.515 331.276 226.395 332.596 225.425 332.926C224.818 333.026 224.196 332.946 223.635 332.696C222.508 332.418 221.322 332.518 220.259 332.983C219.195 333.448 218.315 334.25 217.755 335.266C216.495 337.686 217.405 340.816 219.335 342.746C221.389 344.565 223.943 345.725 226.665 346.076C228.355 346.376 230.255 346.486 231.605 345.436C232.267 344.852 232.796 344.133 233.155 343.326C235.245 339.326 237.155 334.016 234.205 329.926C231.895 326.716 224.435 323.616 226.255 330.276Z" fill="#EACDB0"/>
<path id="Vector_86" d="M245.785 331.206C245.473 330.738 245.111 330.305 244.705 329.916C241.365 326.656 236.955 323.426 232.015 324.476C232.628 333.582 230.433 342.657 225.725 350.476C225.498 350.752 225.332 351.073 225.239 351.418C225.146 351.763 225.127 352.123 225.185 352.476C225.615 353.756 229.485 354.986 230.665 355.146C235.875 355.856 241.505 353.736 244.125 350.086C245.492 347.94 246.37 345.52 246.695 342.996C247.395 339.246 248.005 334.566 245.785 331.206Z" fill="#474EBB"/>
</g>
<g id="Guy3">
<path id="Vector_87" d="M275.565 209.746C275.705 209.626 275.855 209.486 276.025 209.316C276.799 208.491 277.375 207.5 277.709 206.419C278.043 205.338 278.127 204.195 277.955 203.076L273.835 202.076C273.122 203.631 272.167 205.062 271.005 206.316C270.916 206.484 270.781 206.624 270.615 206.718C270.45 206.812 270.261 206.857 270.071 206.847C269.881 206.838 269.698 206.775 269.542 206.665C269.387 206.554 269.267 206.402 269.195 206.226C266.021 201.904 264.547 196.565 265.055 191.226C265.055 191.536 261.315 190.706 260.985 190.596C260.384 190.307 259.726 190.157 259.06 190.157C258.393 190.157 257.735 190.307 257.135 190.596C256.868 190.655 256.609 190.745 256.365 190.866L253.825 191.776C253.268 191.914 252.766 192.217 252.385 192.646C252.114 193.137 251.999 193.698 252.055 194.256C252.055 199.23 252.055 204.2 252.055 209.166C252.009 209.792 252.088 210.421 252.285 211.016C252.588 211.64 253.038 212.182 253.595 212.596C255.994 214.684 258.729 216.351 261.685 217.526C262.241 217.687 262.746 217.986 263.155 218.396C263.418 218.763 263.598 219.183 263.685 219.626L265.965 227.866C269.451 226.694 273.106 226.099 276.785 226.106C277.321 222.321 276.877 218.461 275.495 214.896C274.949 213.84 274.626 212.683 274.545 211.496C274.544 211.14 274.637 210.79 274.817 210.483C274.996 210.175 275.254 209.921 275.565 209.746Z" fill="#EAC1A4"/>
<path id="Vector_88" d="M260.705 218.996L277.835 216.196L295.315 264.016L336.595 256.986L327.605 312.006L275.085 280.556L260.705 218.996Z" fill="#EBB044"/>
<path id="Vector_89" d="M297.095 373.226L292.055 426.426L290.635 473.026L311.275 595.966L325.355 597.066L343.235 482.186L371.485 368.126L297.095 373.226Z" fill="#474EBB"/>
<path id="Vector_90" d="M325.405 595.386L324.815 602.996L308.995 609.416L301.975 601.216L310.185 594.196L325.405 595.386Z" fill="#3B455A"/>
<path id="Vector_91" d="M387.335 370.826L385.175 473.026L375.335 593.716L361.265 594.806L343.385 479.936L315.125 365.866L387.335 370.826Z" fill="#474EBB"/>
<path id="Vector_92" d="M361.215 593.126L361.805 600.736L377.625 607.166L384.635 598.966L376.435 591.946L361.215 593.126Z" fill="#3B455A"/>
<path id="Vector_93" d="M401.205 391.846C401.385 400.736 401.125 412.716 397.915 413.146C397.303 413.165 396.703 412.974 396.215 412.606C390.665 409.386 386.745 404.846 381.275 401.736C375.545 398.466 368.995 396.736 362.565 395.516C352.929 393.603 343.146 392.529 333.325 392.306C325.608 392.309 317.897 392.723 310.225 393.546C303.845 394.106 297.915 396.116 291.415 395.636C284.672 395.142 278.165 392.943 272.505 389.246C272.278 389.131 272.095 388.945 271.985 388.716C271.92 388.437 271.951 388.144 272.075 387.886C273.435 383.886 274.415 379.986 276.885 376.696C279.645 373.026 281.605 368.366 283.595 364.186C287.896 355.42 291.572 346.361 294.595 337.076C298.985 324.466 304.005 312.176 308.245 299.526C311.185 290.756 313.865 281.836 317.855 273.526C320.985 267.016 326.555 257.526 333.265 254.646C335.58 253.821 338.028 253.435 340.485 253.506C341.545 253.506 342.575 253.396 343.635 253.506C343.035 255.146 342.445 256.966 343.045 258.606C343.356 259.296 343.81 259.913 344.377 260.414C344.944 260.916 345.612 261.291 346.335 261.516C346.87 261.73 347.438 261.852 348.015 261.876C348.492 261.879 348.967 261.812 349.425 261.676C350.042 261.513 350.636 261.275 351.195 260.966C353.665 259.606 355.195 257.076 356.455 254.536C356.609 254.18 356.808 253.844 357.045 253.536C357.655 252.846 358.595 252.986 359.425 252.956L362.735 252.856C365.435 252.776 368.255 252.716 370.735 253.906C374.435 255.676 376.525 259.816 378.345 263.666C386.446 281.149 391.947 299.722 394.675 318.796C396.205 328.796 397.615 338.886 398.675 348.976C399.895 360.236 400.745 371.546 400.915 382.876C400.925 384.096 401.115 387.616 401.205 391.846Z" fill="#EBB044"/>
<path id="Vector_94" d="M342.505 258.856C342.4 259.863 342.485 260.88 342.755 261.856C343.186 263.274 343.928 264.579 344.926 265.676C345.924 266.772 347.153 267.633 348.525 268.196C349.24 268.527 350.028 268.672 350.815 268.618C351.601 268.563 352.361 268.312 353.025 267.886C353.61 267.379 354.083 266.756 354.415 266.056C357.705 260.056 358.265 254.266 357.645 247.536C357.645 247.956 364.715 244.246 365.335 243.406C367.135 240.986 367.335 236.916 368.085 234.036C369.675 227.896 371.165 220.986 367.925 215.536C364.565 209.896 357.295 207.966 350.725 207.796C342.485 207.586 333.285 209.986 329.055 217.056C325.225 223.446 330.055 232.866 331.435 239.616C332.105 242.946 333.145 246.746 336.245 248.156C337.885 248.896 339.875 248.816 341.345 249.866C344.065 251.796 342.745 255.496 342.505 258.856Z" fill="#EAC1A4"/>
<path id="Vector_95" d="M338.615 215.276C349.325 210.966 363.675 219.846 373.165 212.046C381.915 204.866 385.305 190.476 382.655 179.896C373.095 184.316 361.935 181.896 351.425 182.556C343.225 183.106 334.995 185.796 328.785 191.186C314.975 203.186 318.685 218.866 327.275 232.286C329.605 230.966 329.375 225.136 330.765 222.536C332.455 219.275 335.232 216.707 338.615 215.276V215.276Z" fill="#3B455A"/>
<path id="Vector_96" d="M368.455 220.896C370.017 225.615 369.76 230.747 367.735 235.286C371.623 230.93 374.756 225.955 377.005 220.566C377.876 218.796 378.302 216.839 378.245 214.866C377.945 211.616 375.435 209.066 373.005 206.866C370.805 204.866 368.455 202.866 365.635 201.976C362.815 201.086 359.385 201.366 357.335 203.516C353.615 207.416 357.155 209.836 359.975 211.586C363.825 213.996 366.875 216.426 368.455 220.896Z" fill="#3B455A"/>
<path id="Vector_97" d="M398.445 450.846C398.412 449.827 398.782 448.836 399.474 448.087C400.167 447.339 401.126 446.893 402.145 446.846L421.605 446.556C422.629 446.572 423.606 446.994 424.32 447.728C425.034 448.463 425.428 449.451 425.415 450.476V453.246L508.015 452.036L540.835 416.606C540.875 416.562 540.925 416.526 540.98 416.502C541.035 416.478 541.095 416.466 541.155 416.466L540.815 392.756C540.695 385.126 535.585 378.956 529.445 379.046L462.445 380.046L462.585 389.306C462.585 392.816 460.385 395.696 457.585 395.736C454.785 395.776 452.425 392.966 452.375 389.456L452.235 380.196L396.435 381.016L396.575 390.896C396.685 394.416 394.475 397.346 391.655 397.456H391.555C388.775 397.456 386.455 394.766 386.355 391.296L386.205 381.166L348.065 381.726C346.455 381.797 344.885 382.245 343.48 383.034C342.075 383.822 340.874 384.929 339.975 386.266L318.535 408.996L314.535 413.196C313.079 415.738 312.343 418.628 312.405 421.556L312.895 454.896L398.465 453.646L398.445 450.846Z" fill="#D34E4E"/>
<path id="Vector_98" d="M508.255 453.166L425.475 454.386L425.545 458.706C425.577 459.725 425.208 460.716 424.515 461.465C423.823 462.213 422.863 462.659 421.845 462.706L402.375 462.996C401.352 462.975 400.378 462.552 399.665 461.818C398.952 461.084 398.557 460.099 398.565 459.076L398.505 454.756L312.935 455.996L313.935 526.726C314.045 534.356 319.155 540.536 325.295 540.446L506.695 537.816C509.014 537.759 511.234 536.864 512.945 535.296L514.405 533.776L537.535 509.636C538.086 509.151 538.595 508.619 539.055 508.046L539.115 507.966C541.333 505.113 542.493 501.579 542.395 497.966L541.215 417.736L508.555 452.996C508.52 453.045 508.475 453.085 508.424 453.114C508.372 453.143 508.314 453.161 508.255 453.166V453.166Z" fill="#C13A3A"/>
<path id="Vector_99" d="M312.465 455.466C312.458 455.534 312.465 455.603 312.485 455.669C312.504 455.735 312.537 455.796 312.581 455.849C312.625 455.902 312.678 455.946 312.739 455.978C312.8 456.01 312.866 456.03 312.935 456.036V454.876C312.795 454.894 312.668 454.965 312.58 455.075C312.492 455.186 312.451 455.326 312.465 455.466V455.466Z" fill="#6D2727"/>
<path id="Vector_100" d="M540.885 416.586L508.065 451.996L425.465 453.206V454.366L508.245 453.146C508.302 453.145 508.358 453.132 508.41 453.108C508.461 453.084 508.507 453.049 508.545 453.006L541.215 417.726V416.426C541.151 416.427 541.089 416.441 541.032 416.469C540.975 416.497 540.925 416.537 540.885 416.586V416.586Z" fill="#6D2727"/>
<path id="Vector_101" d="M398.484 453.623L312.914 454.878L312.931 456.038L398.501 454.783L398.484 453.623Z" fill="#6D2727"/>
<path id="Vector_102" d="M396.335 369.996C396.265 365.846 398.935 362.436 402.265 362.386L445.985 361.746C449.315 361.696 452.075 365.026 452.135 369.176L452.295 380.176L462.525 380.026L462.365 369.026C462.205 357.866 454.765 348.896 445.795 349.026L402.075 349.666C393.075 349.796 385.935 358.986 386.075 370.146L386.245 381.146L396.495 380.996L396.335 369.996Z" fill="#211D1D"/>
<path id="Vector_103" d="M452.435 389.416C452.435 392.926 454.815 395.736 457.645 395.696C460.475 395.656 462.715 392.776 462.645 389.266L462.505 380.006L452.275 380.156L452.435 389.416Z" fill="#211D1D"/>
<path id="Vector_104" d="M391.615 397.416H391.715C394.535 397.306 396.715 394.416 396.635 390.856L396.495 380.996L386.265 381.146L386.415 391.276C386.515 394.726 388.835 397.456 391.615 397.416Z" fill="#211D1D"/>
<path id="Vector_105" d="M398.565 459.096C398.557 460.119 398.952 461.104 399.665 461.838C400.378 462.572 401.352 462.995 402.375 463.016L421.845 462.726C422.863 462.679 423.823 462.233 424.515 461.485C425.207 460.736 425.577 459.745 425.545 458.726L425.475 454.406L398.475 454.796L398.565 459.096Z" fill="#211D1D"/>
<path id="Vector_106" d="M421.605 446.536L402.145 446.826C401.126 446.873 400.167 447.319 399.474 448.067C398.782 448.816 398.412 449.807 398.445 450.826V453.606L425.445 453.206V450.436C425.449 449.928 425.352 449.424 425.162 448.953C424.971 448.482 424.689 448.053 424.332 447.691C423.976 447.329 423.551 447.04 423.083 446.842C422.615 446.644 422.113 446.54 421.605 446.536Z" fill="#211D1D"/>
<path id="Vector_107" d="M425.46 453.228L398.482 453.624L398.499 454.783L425.477 454.388L425.46 453.228Z" fill="#211D1D"/>
<path id="Vector_108" d="M420.555 345.686C420.592 342.799 420.478 339.912 420.215 337.036C415.955 337.676 411.695 338.366 407.455 339.146L408.085 341.396C409.465 346.136 412.355 352.396 412.085 357.306C412.085 358.236 409.085 366.406 409.295 366.526L411.085 367.776L412.315 365.986L413.825 365.716L411.825 371.826L418.935 373.686L425.135 367.866C423.575 362.766 420.655 357.946 420.345 352.546C420.255 350.266 420.495 347.996 420.555 345.686Z" fill="#EAC1A4"/>
<path id="Vector_109" d="M364.415 286.326C363.225 288.326 398.415 310.326 398.415 310.326L410.965 353.836H422.495L417.695 301.056L370.695 253.866L364.415 286.326Z" fill="#EBB044"/>
<path id="Vector_110" d="M227.03 140.723L254.188 132.451L274.056 197.682C274.599 199.437 274.79 201.281 274.617 203.109C274.445 204.938 273.913 206.714 273.052 208.336C272.191 209.959 271.018 211.395 269.6 212.562C268.183 213.73 266.548 214.605 264.791 215.139L264.322 215.282C260.77 216.364 256.934 215.99 253.657 214.244C250.381 212.497 247.932 209.52 246.85 205.969L226.982 140.737L227.03 140.723Z" fill="#474EBB"/>
<path id="Vector_111" d="M263.61 5.2189L148.221 40.387C139.192 43.1387 134.104 52.6885 136.855 61.717L139.205 69.4269C141.957 78.4554 151.507 83.5438 160.535 80.7921L275.925 45.624C284.953 42.8723 290.042 33.3225 287.29 24.294L284.94 16.5841C282.189 7.55561 272.639 2.46721 263.61 5.2189Z" fill="#7FC5A3"/>
<g id="Group" opacity="0.1">
<path id="Vector_112" opacity="0.1" d="M162.455 80.2061L274.015 46.2061C284.095 43.1261 289.865 32.7361 286.905 22.9961L138.815 68.1361C141.785 77.8761 152.365 83.2761 162.455 80.2061Z" fill="#272525"/>
</g>
<path id="Vector_113" d="M243.605 135.676L237.605 137.506L233.905 125.356C233.629 124.475 233.121 123.685 232.435 123.067C231.749 122.45 230.91 122.028 230.005 121.846L145.115 107.996C143.122 107.619 141.269 106.709 139.752 105.364C138.234 104.019 137.109 102.289 136.495 100.356L130.085 79.3561C129.258 76.4428 129.62 73.3204 131.091 70.6736C132.563 68.0267 135.024 66.0713 137.935 65.2361L139.695 70.9961C138.359 71.3821 137.23 72.2817 136.555 73.4979C135.88 74.7142 135.715 76.1481 136.095 77.4861L142.495 98.4861C142.772 99.3651 143.28 100.154 143.966 100.769C144.652 101.385 145.491 101.805 146.395 101.986L231.285 115.816C233.277 116.194 235.13 117.105 236.646 118.452C238.162 119.799 239.285 121.532 239.895 123.466L243.605 135.676Z" fill="#8B8D96"/>
<g id="Group_2" opacity="0.1">
<path id="Vector_114" opacity="0.1" d="M251.945 213.136C253.745 214.431 255.82 215.29 258.009 215.645C260.197 216.001 262.438 215.844 264.555 215.186C268.101 214.171 271.1 211.792 272.896 208.57C274.692 205.348 275.137 201.546 274.135 197.996L258.295 145.996C258.295 145.996 273.775 204.996 251.945 213.136Z" fill="#272525"/>
</g>
<path id="Vector_115" d="M256.475 204.566C256.174 203.692 256.142 202.747 256.381 201.854C256.621 200.961 257.122 200.16 257.821 199.554C258.519 198.948 259.382 198.564 260.3 198.452C261.218 198.34 262.149 198.504 262.972 198.925C263.796 199.345 264.475 200.002 264.923 200.811C265.37 201.62 265.566 202.545 265.485 203.466C265.403 204.387 265.048 205.263 264.466 205.981C263.883 206.699 263.099 207.227 262.215 207.496C261.065 207.868 259.815 207.768 258.738 207.219C257.662 206.669 256.848 205.715 256.475 204.566V204.566Z" fill="#FFBC57"/>
</g>
</g>
</svg>
