<svg width="76" height="94" viewBox="0 0 76 94" fill="none" xmlns="http://www.w3.org/2000/svg">
<path d="M49.51 56.38C49.51 56.38 65.46 55.52 65.48 52.27C65.49 49.75 55.74 51.88 55.74 51.88C55.74 51.88 66.41 48.78 71.35 46.25C72.43 45.69 73.54 45.09 74.29 44.14C75.05 43.19 75.38 41.79 74.76 40.74C73.93 39.32 71.94 39.2 70.3 39.4C63.73 40.19 59.11 43.71 53.2 46.68C57.53 44.51 61.38 41.72 64.99 38.5C68.31 35.54 72.17 32.76 74.38 28.79C75.77 26.31 76.32 22.64 73.86 20.6C71.48 18.62 68.07 19.54 65.46 20.46C58.44 22.92 52.29 27.82 48.25 34.05C49.29 31.14 50.1 28.14 50.68 25.1C50.91 23.87 51 22.36 49.98 21.64C48.67 20.7 46.91 21.96 45.89 23.21C43.42 26.24 41.53 29.76 40.36 33.49C41.17 25.12 41.96 16.58 40.14 8.36996C39.72 6.48996 39.15 4.59995 37.98 3.07995C36.81 1.55995 34.93 0.459969 33.02 0.659969C31.21 0.859969 29.72 2.13997 28.51 3.49997C24.6 7.87997 22.31 13.67 22.16 19.54C22.02 25.41 24.03 31.3 27.72 35.86C25.78 33.82 23.58 32.02 21.2 30.52C20.66 30.18 19.88 29.89 19.48 30.38C19.27 30.63 19.28 30.99 19.31 31.32C19.68 35.3 22.35 38.64 24.9 41.71C19.72 35.66 11.56 32.29 3.61999 32.91C2.65999 32.98 1.56998 33.2 1.07998 34.03C0.799982 34.51 0.789991 35.1 0.839991 35.66C1.25999 39.65 4.79 42.55 8.25 44.58C11.16 46.29 14.23 47.72 17.29 49.14C15.54 48.89 13.76 48.83 12 48.95C11.6 48.98 11.15 49.04 10.9 49.36C10.44 49.97 11.09 50.79 11.71 51.23C16.14 54.43 21.71 55.99 27.15 55.57" fill="#025AA2"/>
<path opacity="0.45" d="M67.62 26.6001C67.82 26.4601 68.01 26.77 67.82 26.91C62.75 30.74 58.06 35.05 53.9 39.87C49.71 44.73 46.37 50.03 43.1 55.52C42.98 55.72 42.68 55.5601 42.78 55.3501C48.22 43.9601 57.47 33.9501 67.62 26.6001ZM44.67 30.72C41.76 38.19 40.01 47.5901 40.59 55.6301C40.61 55.8301 40.9 55.82 40.91 55.62C41.04 47.53 42.25 38.49 45.1 30.88C45.18 30.64 44.76 30.48 44.67 30.72ZM34.57 14.22C33.2 27.93 34.3 42.54 37.98 55.83C38.04 56.05 38.36 55.94 38.31 55.72C36.92 48.75 35.66 41.7901 35.07 34.7001C34.51 27.8801 34.57 21.07 34.81 14.24C34.82 14.11 34.58 14.08 34.57 14.22ZM22.18 34.7001C26.3 40.5501 30.86 51.37 36.27 56.09C36.49 56.28 36.77 55.9701 36.57 55.7601C31.68 50.3901 26.89 40.31 22.51 34.49C22.36 34.29 22.03 34.4901 22.18 34.7001ZM66.55 43.7601C58.38 47.4401 49.96 51.78 43.04 57.53C42.83 57.71 43.03 58.07 43.28 57.91C50.9 52.85 58.27 47.87 66.65 44.09C66.86 44.01 66.76 43.6701 66.55 43.7601ZM15.77 42.7601C21.72 46.3101 28.07 53.89 34.56 56.37C34.76 56.45 34.93 56.16 34.72 56.06C28.44 52.99 22.02 45.91 15.94 42.44C15.74 42.32 15.57 42.6401 15.77 42.7601Z" fill="url(#paint0_linear)"/>
<path d="M51.96 93.42H29.39L23.28 55.4299H58.08L51.96 93.42Z" fill="#7FD2EF"/>
<path d="M51.94 93.42H45.1L51.24 55.4299H58.08L51.94 93.42Z" fill="#46BFE0"/>
<defs>
<linearGradient id="paint0_linear" x1="40.9622" y1="13.8005" x2="42.7242" y2="58.2587" gradientUnits="userSpaceOnUse">
<stop offset="0.3656" stop-color="#86CF94"/>
<stop offset="0.9892" stop-color="#008166"/>
</linearGradient>
</defs>
</svg>
