<svg width="540" height="423" viewBox="0 0 540 423" fill="none" xmlns="http://www.w3.org/2000/svg">
<path opacity="0.6" d="M16.88 403.16C16.88 403.16 -22.02 350.42 35.45 302.35C58.54 283.03 148.37 269.43 72.85 161.68C28.44 98.3299 92.95 6.03995 195.9 64.6399C283.52 114.51 344.46 8.31995 422.04 1.26995C481.05 -4.09005 516.54 68.6799 480.94 125.26C441 188.74 517.16 178.08 533.71 199.1C562.86 236.1 468.26 280.02 511.66 327.02C555.85 374.88 525.55 403.17 525.55 403.17H16.88V403.16Z" fill="#BDE7FF"/>
<path d="M456.6 404.66H2.23C1.33 404.66 0.610001 403.93 0.610001 403.04C0.610001 402.14 1.34 401.42 2.23 401.42H456.6C457.5 401.42 458.22 402.15 458.22 403.04C458.22 403.94 457.49 404.66 456.6 404.66Z" fill="#91D1E2"/>
<path d="M530.42 404.66H462.01C461.11 404.66 460.39 403.93 460.39 403.04C460.39 402.14 461.12 401.42 462.01 401.42H530.42C531.32 401.42 532.04 402.15 532.04 403.04C532.05 403.94 531.32 404.66 530.42 404.66Z" fill="#91D1E2"/>
<path opacity="0.5" d="M271.92 413.32H77.11C76.21 413.32 75.49 412.59 75.49 411.7C75.49 410.8 76.22 410.08 77.11 410.08H271.92C272.82 410.08 273.54 410.81 273.54 411.7C273.54 412.59 272.82 413.32 271.92 413.32Z" fill="#91D1E2"/>
<path opacity="0.5" d="M409.98 413.32H279.7C278.8 413.32 278.08 412.59 278.08 411.7C278.08 410.8 278.81 410.08 279.7 410.08H409.98C410.88 410.08 411.6 410.81 411.6 411.7C411.6 412.59 410.88 413.32 409.98 413.32Z" fill="#91D1E2"/>
<path opacity="0.25" d="M386.94 422.43H153.47C152.57 422.43 151.85 421.7 151.85 420.81C151.85 419.91 152.58 419.19 153.47 419.19H386.94C387.84 419.19 388.56 419.92 388.56 420.81C388.57 421.71 387.84 422.43 386.94 422.43Z" fill="#91D1E2"/>
<path opacity="0.25" d="M448.51 422.43H395.57C394.67 422.43 393.95 421.7 393.95 420.81C393.95 419.91 394.68 419.19 395.57 419.19H448.51C449.41 419.19 450.13 419.92 450.13 420.81C450.13 421.71 449.4 422.43 448.51 422.43Z" fill="#91D1E2"/>
</svg>
